<?xml version="1.0" encoding="UTF-8"?>
<svg xmlns="http://www.w3.org/2000/svg" version="1.1" viewBox="0 0 655 655">
  <defs>
    <style>
      .cls-1 {
        fill: #dd7f22;
      }

      .cls-2 {
        fill: #e5810a;
      }

      .cls-3 {
        fill: #f9a;
      }

      .cls-4 {
        fill: #fff;
      }

      .cls-5 {
        fill: #dcdddb;
      }

      .cls-6 {
        fill: #ea2654;
      }

      .cls-7 {
        fill: #ffcf06;
      }

      .cls-8 {
        fill: #e08e22;
      }

      .cls-9 {
        fill: #84c62e;
      }
    </style>
  </defs>
  <!-- Generator: Adobe Illustrator 28.7.1, SVG Export Plug-In . SVG Version: 1.2.0 Build 142)  -->
  <g>
    <g id="Layer_1">
      <g>
        <path fill='black' fixed='yes' d="M118.5,82.9c-10.2,1.3-13.7,3.4-7.7,4.7,1.5.3,3.1.7,3.6.8s-2.2,1-6,1.9c-10,2.4-22,8.7-28.3,14.7-3,2.8-5,5.5-4.5,5.9s3.6,1.4,6.9,2.1c15.6,3.3,29.1,14.5,36.8,30.4,1.9,3.9,3.8,8.1,4.1,9.3q.7,2.2-3.4.6c-2.2-.9-4.3-1.3-4.6-1s.3,2.8,1.4,5.4c4.4,10.2,8,27.5,10.7,51.3,3.9,33.9,10.6,54.2,24.6,74.6,6.7,9.6,20.3,23.3,31,31,4.6,3.2,10.2,7.6,12.6,9.8,5.1,4.5,5.4,7.1,2.2,16.2-8,22.8-8.9,49.6-2.2,67.9,1.3,3.8,2.5,8.1,2.4,9.5,0,1.4-1.4,6.6-3.2,11.5-3.2,8.8-3.5,9.2-14.5,20-10.4,10.2-11.5,11.8-16.2,21.5-10.9,22.6-16.4,55.3-11.6,69.3,3.5,10.4,17.1,19.1,29.9,19.2,5.1,0,7.8-.5,9.8-1.8,1.4-.9,3.8-1.7,5.2-1.7s3.8-.6,5.3-1.4c3.8-2,11.1-10.9,11.8-14.4,1-4.8-1.3-10.5-6.5-16.5-3.8-4.3-5.1-6.7-5.7-10.2-1.4-9.8,2.2-27.6,8.1-39.7,3.3-6.9,10.7-16.8,12.5-16.8s2,5.7.4,16.8c-4.4,31.8,3.9,59.3,24.9,81.7,10.5,11.3,14.1,13,27.7,13s11.1-.3,14.5-2.2c2.2-1.2,5.8-2.5,7.9-2.8,2.4-.4,4.9-1.7,6.5-3.5,7.9-8.6,9.9-13.7,8.1-20.7-2.3-9.2-6.7-12.7-18.5-14.4-9.3-1.4-10.4-2.4-16.4-13.8-6.2-11.9-8.5-21.4-8.5-35.1-.1-13.7,1.3-19.3,8.3-34.9,2.8-6.1,5.6-12.9,6.2-15.2,1.1-3.4,1.6-3.9,3.3-3.5,9.1,2.5,25.4,3.8,40.1,3.3,8.8-.3,16.9-.8,17.9-1.3,1.6-.6,1.8-.4,1.1,1.2-4.8,11.4-12.7,34.5-18,52.8-10.9,38.1-13.5,55.3-9.9,66,2.1,6.2,10,14.1,17.9,18,6.2,3.1,6.1,3.1,24.3,2.7,6.6-.1,9.4-1.6,15.7-8.4l5-5.4,5,3.8c23.3,17.6,56.9,16.6,78.8-2.3,2.7-2.2,8-8.3,11.8-13.4,7.9-10.5,15.5-16.4,24.7-19,10.1-3,19.4-.4,21.7,6,1.3,3.7.2,5.2-8.5,11.1-9.8,6.6-12.3,10.3-11.8,17.3.4,4.5,1,5.9,4.3,9.2,5.7,5.9,12.6,8.2,26.1,8.8,18.9.8,34.7-3.7,41.7-11.9,13.6-15.9-8.2-33.5-29.8-24-8.3,3.7-12.2,12.4-7.6,17s8.9,4.3,13.6,3c4.3-1.2,8.5-4.4,8.5-6.6s-1.8-1.6-3,.6c-2.2,4.3-13,5.2-17.1,1.5-6.6-6,4.5-15.4,18-15.4s25.6,14.9,12.7,25.1c-7.7,6.1-28.5,10-42.4,8-8.8-1.3-17.5-5.2-20.6-9.4-2.6-3.5-2.7-10.2-.1-14,1-1.5,4.8-4.6,8.5-6.8,8.4-5,10.4-7.1,10.4-11.3,0-14-22.8-16.2-39-3.9-4.4,3.4-4.7,3.5-4,1.2.4-1.3,1-7.2,1.3-13.1.5-9.7.3-11.6-2.1-19.2-1.9-6-4.2-10.6-8.1-16.1-3-4.2-5.5-7.9-5.5-8.2s1.4-2.1,3-4c5.3-5.9,3.2-14.5-5.1-21.6l-4.1-3.6,1.2-5.3c.7-2.9,3.3-10.8,5.6-17.5,7.4-20.8,7.6-30,.9-36.7s-12.4-6.6-20.3-6.6h-5.2v-11.4l2.9,3.4c1.6,1.9,3.3,3.1,3.8,2.7.4-.5.8-4.8.7-9.5-.1-7.6-.7-10.4-4.7-22.2-4.7-13.9-6.7-22.5-6.7-29.2s.3-3.8,2.3-3.8c5.5,0,22-3.4,31.4-6.5,17.3-5.8,29.1-12.4,39.7-22.4,10.2-9.8,11.6-16.1,3.4-16.1s-2-.1-.4-2.3c2.2-3,5.2-8.7,6-11.3.9-2.9-1.9-5.7-4.9-5-2.2.6-2.3.2-2.9-8.7-.4-5-1.6-13.4-2.7-18.5l-2-9.3,4-6.2c11.9-18.3,22.6-52.7,21.9-70.5-.3-7.1-.5-7.8-2.8-8.8-7-3.3-44.4,9.3-65.2,22l-7.2,4.3-7-3.2c-19.9-9.1-42.8-10.5-64.7-3.9l-8.7,2.6-6.7-5.1c-17-13.1-51.1-30.1-60.2-30.1s-5.5,4-6,13.8c-1.2,20.7,7.2,58,16.4,72.9l1.9,3.2-2.8,8.6c-1.6,4.7-3.4,12.2-4.1,16.6l-1.1,8-3.2-.5c-6.1-1.2-6.8,4.1-1.8,13.3,1.3,2.4,2.4,4.5,2.4,4.7s-1.3.4-2.9.4c-5,0-5.7,2.2-2.8,8.2,7.7,15.7,33.1,33.9,58.7,42.1,4.4,1.4,7.6,3,7.8,3.9.4,2.2-5.7,9.8-10.3,13-7.9,5.3-15.5,7.1-33,7.6-18.6.5-30.5-.8-58.5-6.5-22.1-4.4-38.9-5.1-49.5-1.9-3.3,1-7,2-8.1,2.3-1.7.4-3.9-1.1-9.2-6.1-21.9-20.7-26.9-43.8-21.6-101.1,2.4-26.8,2.4-56.7,0-70-2.3-12.5-6.8-26.9-11.3-36-4.5-8.9-11.3-18.7-12.7-18.2-.7.2-1,2.3-.8,5,.2,2.6.1,4.7-.2,4.7s-2.6-1.3-5.3-2.9c-9.9-6.1-24.3-8.8-37.8-7.2ZM140.8,86.5c7.2,1.7,12.7,4.3,19.4,9.2,2.5,1.8,4.9,3,5.2,2.5.2-.4.1-2.6-.4-4.7-.5-2.2-.7-4.1-.5-4.3.8-.9,8,11.7,11.3,19.6,10.3,25.4,12.2,48.7,8.1,99.2-4.3,52.4-1,73.8,14.7,94.1,4.2,5.5,15.5,15.9,17.2,15.9s3.5-1,6.7-2.2c4.6-1.6,9-2.2,18.5-2.5,11.2-.4,14.4-.1,30.5,3.1,30.8,6,39.6,7,58,7s18.4-.4,23.4-1.8c12.5-3.4,19.8-8.4,24.4-16.4,2.8-5.1,3.2-5.4,6.1-4.8,10.2,2.2,24.1,3.7,38.2,4.3l16.1.6,1.2,8.6c.7,4.7,3.3,14.7,5.8,22.1,3.3,9.8,4.7,15.5,5,21l.4,7.5-2-2.5c-1.2-1.4-2.9-4.7-4-7.5-1.9-5.1-5-7.9-3.7-3.4,1.2,4.4,2.6,16.9,2.1,19.6-.2,1.6-.7,4.6-1.1,6.8l-.7,4-1.6-6.4c-2.2-8.6-4.1-9.2-4.1-1.3s-2.7,16.6-6,21.2c-1.7,2.3-2.5,2.8-3.1,1.9-.6-1-2.5.4-7.3,4.9-5.6,5.4-16.9,12.3-18.1,11-.2-.2,1.2-2.8,3-5.8,3.8-6.1,4.1-7,2.3-7s-7.9,11-14.3,24c-13,26.1-23.5,66.1-23.5,89.4s.5,7.7,7.8,20.6c3.6,6.2,4.3,14.1,1.7,17.6-1.3,1.8-1.4,1.7-1.5-1.9,0-4-3.7-12.4-6.4-14.7-3-2.4-2.9-.1.3,4.8,5.2,8.1,5.3,13.4.6,19-2.5,2.9-7.5,5-9.4,3.8-.5-.3-.2-2.5.7-4.9,1.5-4.1,1.4-4.8-.1-8.8-2.2-5.7-6.9-11.5-8.6-10.5-.8.5-.3,1.8,1.9,4.3,5.7,6.5,6.7,13.7,2.5,17.8-5.1,5.2-18.8,2.2-28.2-6-12.8-11.2-12.9-22.3-.6-67.5,8.3-30.7,19.8-62.2,30.4-83.2,2.9-5.8,3.5-7.8,2.4-7.8s-9.3,15.1-12.5,23.5c-.8,2-1.9,2.4-8.7,3.2-11.8,1.2-32.7.7-43.2-1.1-5.1-.9-9.7-1.9-10.1-2.1-.4-.3-.3-2.4.2-4.7,1.2-5,1.5-27.6.4-33.1-1.4-7.5-2.1-3.3-2.1,13.5s-1.1,25.3-9,42.7c-8.5,19.1-9,20.9-9,37.6s1.6,24,8.6,37.6c5.6,10.7,8.1,12.8,16.5,14,8.1,1.1,13,3.4,15.7,7.1,2.3,3.1,3.4,11.7,1.8,14.4-.9,1.7-1,1.5-1.1-1.1,0-4.5-4-11.7-7.6-13.7-1.7-1-5.2-2.1-7.7-2.4-3.8-.5-4.7-.4-4.7.8s1.4,1.7,5.1,2c4,.4,5.8,1.2,8.2,3.6s3.2,4,3.5,9.7c.5,7.6-1.1,10.9-6.3,13.1-1.9.8-3.7,1.4-4,1.4s-.5-2.3-.5-5.1c0-8.7-5.3-15.2-14.2-17.3-3-.7-4.9,1.1-2.1,2,5.1,1.6,10.4,4.6,11.8,6.8,1.1,1.7,1.5,4.2,1.3,8.3-.3,5.7-.4,5.8-4.2,7.7-4.5,2.2-15.5,2.6-22.2.7-13.6-3.7-31.9-29.1-38-52.6-2.4-9.4-2.5-11-1.9-25.5.3-8.5.8-17.9,1.1-20.8s.3-6.3,0-7.6-5.1-9.3-10.7-17.7c-17.3-26.1-20.8-35.5-21.6-57.4-.6-15.8.6-24.3,5.8-41.4,2.1-6.7,2.9-11,2.4-12.8-.8-3.4-5.9-8.3-16.5-15.8-17.8-12.7-34.2-31.8-42.4-49.6-7.2-15.7-10.3-28.5-14.1-58.9-2.5-20.2-6-37.4-9-44.6-.8-2-1.5-3.8-1.5-4,0-1.1,2.2-.1,5,2.2,1.7,1.5,3.4,2.4,3.7,2,1.1-1-2.6-11.5-7-20.1-7.8-15-24-28.1-37.4-30.1l-4.7-.7,4.8-4.3c2.7-2.3,7.7-5.7,11.2-7.4,6.4-3.1,19.7-7,24.3-7s3.3-.5,4.1-1c1.3-.9,1.3-1.1,0-2-.8-.5-2.3-1-3.2-1s-2-.5-2.3-1c-1-1.6,16.1-1.2,23.3.5ZM324.1,110.2c13.9,4.7,42.4,20.8,51.8,29.4l4.2,3.7,8.7-2.7c12.4-3.8,21.2-4.9,33.2-4.3,20.4,1.1,39.6,8.8,55.4,22.2,5.8,4.8,6.3,5.1,8.3,3.8,2.9-2,4.3-.9,4.3,3.3s1.1,4.3,4.1,1.3,4.4-1.9,4.2,5l-.2,6.2,3-.6c2.6-.6,2.9-.4,2.9,1.7s-.7,3.6-1.5,5.2c-1.5,2.8-1.4,3.3,1.9,11,4.8,11.2,7.7,24,8.5,37.6.5,9.5.9,11.4,2.1,11.1,5-1.3,6-1.3,6,0,0,2.4-4,9.2-7.6,12.9-1.9,2-3.4,3.9-3.4,4.3s2.5.7,5.5.7,5.5.4,5.5.9c0,2.1-7.5,10.3-14.2,15.4-13.3,10.1-30,17.2-50.3,21.4-11.2,2.2-48.6,2.5-60.5.5-32.6-5.8-57.6-17.6-74.6-35.4-5.2-5.4-10.4-13.1-10.4-15.4s2.5-.4,5.5,0c3,.3,5.5.4,5.5,0s-1.1-2-2.4-3.7c-3.4-4.5-6.6-11.2-6.6-13.8s0-2.2,6.1-.3c1.3.5,1.7-.6,2.3-5.8.8-7.4,2.8-15.8,5.8-24.5l2.1-6.2-3.5-6.8c-8.4-16-13.8-38.7-14.5-61.4-.7-20.2-.1-21.1,12.8-16.7ZM534.1,122.2c2.6,4.8-2.6,31.8-9.6,49.9-3.7,9.5-10.3,22.8-13.3,26.7l-1.8,2.3-1.7-4.9-1.8-4.8,4.9-8.1c5.8-9.7,11.9-27.1,13.4-38.8,1-7.4.9-8.6-.6-10.9-1-1.6-2.6-2.6-4.1-2.6-6,0-26.7,9.2-38.6,17.2l-6.6,4.4-3.4-2.3c-1.9-1.3-4.1-2.8-4.9-3.3-2.2-1.3.1-2.8,14.5-9.9,13.2-6.5,27-11.9,38.5-15,10.1-2.7,13.6-2.7,15.1.1ZM521.7,142.2c-.6,9.2-4.1,21.4-9.2,32.6-5,10.8-11,18.4-6.9,8.7,2-4.8,1.2-8.3-2.2-9.1-2.1-.5-2.4-1.1-1.9-3.3.3-1.5.1-4-.5-5.5-.9-2.5-1.4-2.8-4.6-2.4-3.1.4-3.7.1-4.5-2-.8-2.2-1.4-2.4-5-1.9-3.4.4-4.5.1-7.2-2.2l-3.1-2.8,4.3-3.1c5.3-3.9,22.6-12.8,29.4-15.2,2.9-1,6.7-1.9,8.6-1.9h3.4c0-.1-.6,8.1-.6,8.1ZM464.4,379.5c6.4,3.2,8.1,6.4,8.1,14.8-.1,6-1,9.8-5.4,22.7-2.9,8.5-5.6,17.6-6.1,20.3-.7,4.6-.6,4.8,2.6,6.8,6.7,4.1,10.2,12.1,7.8,17.5-1.1,2.7-1.2,2.7-1.3.6-.2-5.4-6.5-15.2-9.8-15.2s-1.6,1.7.6,3.2c6.2,4.4,8.3,16.7,3.6,21.3-1.3,1.4-3.3,2.5-4.3,2.5-1.7,0-1.8-.4-.9-3.9,1.4-5.3-.3-10.7-4.8-15.1-4.5-4.3-5.8-3.2-1.6,1.5,3.6,4.2,4.5,7.2,3.8,12.7-.9,6.4-2.4,7.3-12.5,7.3s-9.5-.5-12.7-2.2c-8.1-4.3-12.5-11.4-12.5-20s1.3-10.8,8-25.2c9.6-20.8,9.8-24.1,1.3-24.1h-4.5l3.7-4.1c4-4.5,8.1-12.4,9.2-17.9l.6-3.5,1.1,3.2c1.5,4.6,2.9,4.2,4.6-1.2l1.5-4.7,8,.4c5.4.2,9.3,1,11.9,2.3ZM422,405c0,.5-.7,1-1.6,1s-1.2-.5-.9-1c.3-.6,1-1,1.6-1s.9.4.9,1ZM431.4,410.7c-.1,1.7-3,9.2-6.4,16.5s-6.9,16.1-7.8,19.5l-1.6,6.2-6.5,1.6c-9.4,2.4-20.7,8.6-27.4,15.1-3.1,3.1-5.7,5.4-5.7,5.2,0-.3,1.3-5.3,3-11.1,3.3-11.8,8.1-24.5,14.5-38.2,4.1-8.8,4.3-9.1,8.6-10.4,2.4-.7,6.3-2.3,8.5-3.7,3.8-2.1,14.2-4.4,18.9-4,1.6.1,2,.8,1.9,3.3ZM215.3,444.7c3.2,4.4,5.7,8.4,5.7,8.7s-2,3.1-4.5,6.2c-5.8,7-10.9,17.2-13.7,27.1-1.7,6.1-2.2,10.5-2.3,19.9v12.1l4,4.7c6.2,7.4,7.5,9.8,7.5,14.1s-1.6,7.6-2.3,2.8c-.8-4.7-5.3-11.2-9-13.2-4.2-2.3-4.5-.3-.4,3,4.8,3.9,6.7,7.7,6.7,13.2s-.6,4.8-2.7,6.9c-1.6,1.4-4,2.8-5.4,3.2q-2.7.6-3.1-6.3c-.3-5.6-.9-7.5-3.2-10.5-2.8-3.7-7.1-6.5-8.2-5.3-.3.3,1.2,2.2,3.5,4.2,4.7,4.3,6.5,9,5.6,14.5-.9,5.1-3.5,7-10,7-10.6,0-20.9-5.1-26-12.8-5.6-8.5-5.4-26.7.5-48.8,6.3-23.4,13.6-36.2,27-46.9,7.1-5.6,9.9-10.2,13.5-21.7l1.8-5.7,4.7,7.7c2.6,4.2,7.2,11.4,10.3,15.9ZM417.1,460.2c.6,2.4,2.7,6.5,4.6,9.1,1.9,2.7,3.3,5,3.1,5.1-7.5,4.5-18.7,15.5-26.2,25.6-4.7,6.3-11.6,18.9-11.6,21s2,.6,4.4-4.3c6.4-13.1,19.6-29.1,30.9-37.4l4.9-3.6,4.8,1.7c7.3,2.6,15.2,3.1,20.2,1.3,2.4-.8,5.8-1.8,7.7-2.1s4.3-1.4,5.3-2.2c2.3-2.2,3.8-1,8.9,6.9,10.4,16,11.4,35.4,2.8,52.6s-4.9,8.7-6.2,9.9c-2.3,2.1-2.8,2.2-7.3,1.1-5.3-1.3-13.9-5.3-14.9-6.9-.3-.5-1.3-1-2.1-1-5.3,0,5.1,7.3,13.9,9.7,5.7,1.6,5.8,1.7,3.8,3.6-1.7,1.8-2.4,1.9-8.6.8-8.4-1.5-15.5-4.2-22.8-8.5-6.6-4-8.7-3-2.7,1.3,5,3.6,15.4,7.8,23.4,9.5l6,1.2-4.5,2.6c-11.2,6.6-28.1,9.3-42,6.9l-6.9-1.3v-3.4c0-13.5,8.7-35.9,19.9-50.9,5.2-7,5.5-7.5,3.7-7.5s-11.2,13.1-16.7,24.6c-5.1,10.4-8.9,23-8.9,29.3s-1,6.6-7.6,3.3c-3.3-1.7-7.8-4.7-10.1-6.7-3.6-3.1-4.3-4.3-4.3-7.3s-1.1-6.1-2.5-9c-2.8-6.1-3-8.6-1.1-15.7,1.9-7.3,4.7-13.1,9.9-20.7,5-7.3,4.8-10.2-.3-4.1-4.1,5-11.8,20.7-12.6,26-.8,5.1-1.7,5.4-3.5,1-2.9-6.8.3-36.4,4.7-42.8,3.7-5.3,7.6-8.7,8.2-7.1.8,2.4,6.4,8.2,7.8,8.2s1.7-1.6-.4-3.2c-1-.7-2.8-2.6-4-4.2-2.1-2.7-2.1-3-.6-4.7,2.6-2.9,10.1-7,17.4-9.6,9.5-3.3,10.7-3.1,12.1,1.9Z"/>
        <path fill='black' fixed='yes' d="M321.5,124c-3.9,4.3-1.9,21.9,4.6,41.4,3.2,9.8,8.2,19.6,10,19.6s.9-1.8.7-4.3c-.3-4.1-.2-4.2,2.9-4.3,1.8,0,3.5-.3,3.8-.6.3-.2-.2-2.4-1-4.8-.8-2.3-1.5-5.6-1.5-7.2,0-2.6.3-2.9,2.3-2.2,1.2.3,3.4,1.5,4.9,2.5,3.6,2.6,4,2.4,3.2-1.6-.3-1.9-.4-4.2,0-5,.5-1.4.9-1.4,4.1-.1,3.9,1.6,4.1,1.5,4.7-3.4.3-2.2.8-2.5,5.1-2.8,2.6-.2,4.7-.7,4.7-1.1,0-1.7-26.9-20.4-35.4-24.6-7.7-3.7-10.8-4.1-13.1-1.5ZM331.7,127c4.7,2.1,15.2,8.7,25.2,15.8l6.4,4.5-2.6,1.4c-1.5.7-2.9,2.4-3.3,3.7-.4,1.9-1.2,2.3-4.2,2.2-3.2-.1-3.8.3-4.7,2.9-.9,2.8-1.2,3-3.8,2.1-5.4-2-7.6,2.5-5.3,10.6.7,2.4.5,2.8-1.2,2.8s-2.7.9-3.5,2c-1.4,2-1.5,1.8-3.5-2.7-6.4-15.1-11-39.5-8.6-45.7.8-2.1,4-2,9.1.4Z"/>
        <path fill='black' fixed='yes' d="M382,161.4c-13,3.6-19.9,11.1-13.7,15,1.8,1.2,5,1.3,18.1.7,14.9-.6,15.9-.8,17.7-3,2.5-3,2.4-6.2-.1-9.4-3.5-4.5-12.8-5.9-22-3.3ZM399.3,164.1c3.8,1.7,5,5.3,2.7,8.1-1.7,2.2-2.5,2.3-17.4,2.6-14.7.3-15.6.2-15.6-1.6,0-2.8,4.3-6.3,10.2-8.3,6-2.1,16.5-2.5,20.1-.8Z"/>
        <path fill='black' fixed='yes' d="M443,166.2c-3.5,1.9-5.3,5.9-4.1,9.2,1.3,3.4,5.9,5.5,15,7.1,4.2.7,10.2,1.9,13.4,2.6,6.9,1.6,9.1.7,9.5-3.9.7-6.6-13-15.4-24.8-16-4-.2-7.4.2-9,1ZM463.7,171.1c8.3,4,13.9,10.7,10.1,12.2-.7.2-4.9-.4-9.3-1.3-4.4-1-10.7-2.3-13.9-2.9-6.2-1.1-9.6-3.3-9.6-6.1s2.4-4.3,5-5.3c3-1.2,11.6.4,17.7,3.4Z"/>
        <path fill='black' fixed='yes' d="M349.4,182.7c.4,2.1,1.6,5,2.7,6.5,2.9,4.2.3,3.4-4.3-1.2s-4.4-4-4.9-4c-1.9,0-.7,2.2,3.3,6.2s3.4,3.8,2.4,3.5c-3.8-1.5-6.6-1.9-6.6-.9s4.2,2.9,9.3,3.8l3.7.6v5.2c0,7,4.1,15.1,9.5,18.9,5.7,3.9,14.7,5.4,22.2,3.8,4.9-1.1,6.6-2.1,10.8-6.5,3.3-3.4,5.6-6.9,6.8-10.5,1.8-5.1,1.8-5.3,0-6.6-5.1-3.7-24.3-8.5-34.3-8.5s-9-2.1-9-7.1-.4-3.9-1.2-3.6c-1.4.4-1.6,6.2-.3,9.1.8,1.8.7,1.8-1.9.1-3.2-2.1-5.6-6.4-5.6-10s-.6-2.5-1.6-2.5-1.5.7-1,3.7ZM373.6,198.9c-5,5.2-6.2,13.9-3,21.5.8,2,.7,2-2.6,0-5.4-3.1-8.9-8.3-10.2-15.1-1.7-9.1-1.5-9.3,9.4-9.3h9.2l-2.8,2.9ZM387.1,202.9c1.7,1.8,2.9,4,2.9,5.6s-1.2,3.8-2.9,5.6c-1.8,1.7-4,2.9-5.6,2.9-3.5,0-8.5-5-8.5-8.5s1.2-3.8,2.9-5.6c1.8-1.7,4-2.9,5.6-2.9s3.8,1.2,5.6,2.9Z"/>
        <path fill='black' fixed='yes' d="M490,196.4c-1.2,3.7-4.4,7-7.6,8l-2.2.7,2-4c1.9-3.8,1.8-6.1-.3-6.1s-.9,1.1-.9,2.5-.9,3.4-1.9,4.4c-1.8,1.8-3.1,1.9-17.3,1.4-12.3-.5-16.5-.2-21.7,1.1s-6.6,1.8-6.8,1.9c-.1.2.2,3.1.8,6.6,2.4,13.6,11.6,21.1,25.8,21.1s21.2-6.1,24.6-21.4c.5-2.4,1-2.8,3.3-2.3,3.6.7,9.4-.5,10-2.1.3-1-.5-1.2-3.4-.6l-3.9.6,4.3-3.1c2.3-1.7,4.2-3.8,4.2-4.6,0-2.1-1.4-1.9-3.6.6-2,2.3-8.3,5.4-9.2,4.5-.2-.3.3-.8,1.2-1.2,1.8-.7,5.6-7.4,5.6-9.9s-1.8-1.6-3,1.9ZM450.8,208.7c-3.1,5.2-3.1,13.4,0,18.6l2.2,3.8-2.2-.6c-6.5-1.9-13-10.2-14.3-18.2l-.7-4.2,3.9-1c4.6-1.2,8-1.8,11.1-2h2.4c0-.1-2.4,3.6-2.4,3.6ZM466.5,210.5c4.2,4.1,3.1,10.5-2.2,13.3-3.3,1.8-5.9,1.4-8.9-1.2-2.1-1.8-2.8-3.2-2.8-6.1,0-7.4,8.8-11.2,13.9-6Z"/>
        <path fill='black' fixed='yes' d="M366.5,234.9c-.7,1.3,1.1,2.5,9.5,6.5,7.5,3.6,10.4,4.4,9.8,2.6-.5-1.4-18.7-10-19.3-9.1Z"/>
        <path fill='black' fixed='yes' d="M400.3,234.7c-8,1.6-2.9,13.9,7.6,18.6l4.5,2-4.1,3.7c-4.3,4.1-9.4,6-15.9,6s-10.2-1.6-12.3-3.5c-1.1-1.1-.8-1.4,1.8-2,4.9-1.1,3.8-2.9-1.3-2.2-4.2.6-4.5.5-5.5-2.3-1-2.9-.9-3,2.5-3s4.7-1.7,1.2-2.4c-34.1-6.6-32.6-6.4-33-5.1-.3.9,6.3,2.7,20.3,5.5s5.7,1.2,6.2,4.7c.4,2.1.5,3.8.4,3.9s-4,.8-8.7,1.4c-9.1,1.2-13,3-6.6,3s6.8-.5,10.5-1.1c6.5-1,7-.9,10.6,1.5,2,1.4,5.3,2.8,7.4,3.2,2,.3,4.1.7,4.7.9.5.1,1.8,3,2.7,6.4,3.1,10.9,10.7,16.9,20.4,15.8,6-.6,11.1-4.8,14.7-12l2.8-5.7h5.5c2.9,0,7-.7,9-1.5,3.5-1.5,4.1-1.4,13,1.6,5.1,1.8,9.6,2.9,10,2.5,1.1-1-.8-2.1-8.2-4.6-3.8-1.2-7.4-2.6-7.8-3-.5-.4-.1-2.2.7-3.9l1.7-3.1h13.4c11.3,0,13.5-.2,13.5-1.5s-2.7-1.5-18-1.5-22.3.9-15,2.3c2.8.6,2.9.8,1.8,3.3-.9,2-1.7,2.4-3.5,2-1.3-.3-3.4-.9-4.8-1.2-3.6-.9-3.1,1,.8,2.8l3.2,1.6-4.4,1.1c-9.9,2.8-24.1-3.4-26.5-11.6-.6-1.8-.2-2.2,2.6-2.8,9.1-2,17-9.3,15.2-13.9-1.6-4-23.1-7.9-33.1-5.9ZM421,238c6.4,1.5,10,3.1,10,4.4s-6.1,7.3-9.3,8.5c-7.6,2.9-17.5-.5-21.2-7.2-3-5.7-1.8-6.7,7.7-6.7s10.3.5,12.8,1ZM414.5,261c.8,2.4,6,6.9,10.3,8.7,3.6,1.5,3.8,2.5,1.4,7.1l-1.8,3.3-2.2-3.1c-5-6.7-14.6-8.3-21.7-3.5-2,1.5-3.9,2.4-4.2,2.1-.3-.2-.7-2.3-1-4.5-.5-4-.5-4.1,2.3-4.1s10.3-3.1,12.8-5.9c2.4-2.6,3.3-2.7,4.1-.1ZM415.7,275c1.8,1,4,3.1,4.9,4.6,1.8,2.6,1.8,2.7-1,5-5.1,4.5-17.4,2.5-20.5-3.4-.8-1.5-.5-2.4,1.7-4.4,4.6-4.3,9.8-5,14.9-1.8Z"/>
        <path fill='black' fixed='yes' d="M452.3,246.9c-10,2.5-13.1,4.1-7.5,4.1s17.2-3.6,18.4-4.8c2-2-1-1.8-10.9.7Z"/>
        <path fill='black' fixed='yes' d="M400.5,292.9c-.2.5.3,1.5,1.2,2.2,2.1,1.8,14.4,1.9,15,.2.4-1-.7-1.1-3.9-.7-2.9.4-5.6.1-8.1-.9-2-.9-3.9-1.2-4.2-.8Z"/>
      </g>
      <path fill='#ffcf06' fixed='yes' class="cls-7" d="M373,208.5c0,3.5,5,8.5,8.5,8.5s3.8-1.2,5.6-2.9c1.7-1.8,2.9-4,2.9-5.6s-1.2-3.8-2.9-5.6c-1.8-1.7-4-2.9-5.6-2.9s-3.8,1.2-5.6,2.9c-1.7,1.8-2.9,4-2.9,5.6Z"/>
      <path fill='#f9a' fixed='yes' class="cls-3" d="M344.7,159.6c2.6.9,2.9.7,3.8-2.1.9-2.6,1.5-3,4.7-2.9,3,.1,3.8-.3,4.2-2.2.4-1.3,1.8-3,3.3-3.7l2.6-1.4-6.4-4.5c-10-7.1-20.5-13.7-25.2-15.8-5.1-2.4-8.3-2.5-9.1-.4-2.4,6.2,2.2,30.6,8.6,45.7,2,4.5,2.1,4.7,3.5,2.7.8-1.1,2.3-2,3.5-2,1.7,0,1.9-.4,1.2-2.8-2.3-8.1,0-12.6,5.3-10.6Z"/>
      <path fixed='yes' class="cls-4" d="M450.8,230.5l2.2.6-2.2-3.8c-3.1-5.2-3.1-13.4,0-18.6l2.4-3.7h-2.4c-3.1.3-6.5.9-11.1,2.1l-3.9,1,.7,4.2c1.3,8,7.8,16.3,14.3,18.2Z"/>
      <path fixed='yes' class="cls-4" d="M368,220.4c3.3,2,3.4,2,2.6,0-3.2-7.6-2-16.3,3-21.5l2.8-2.9h-9.2c-10.9,0-11.1.2-9.4,9.3,1.3,6.8,4.8,12,10.2,15.1Z"/>
      <path d="M422,405c0-.6-.4-1-.9-1s-1.3.4-1.6,1c-.3.5,0,1,.9,1s1.6-.5,1.6-1Z"/>
      <!-- <path class="cls-8" d="M450.6,179.1c3.2.6,9.5,1.9,13.9,2.9,4.4.9,8.6,1.5,9.3,1.3,3.8-1.5-1.8-8.2-10.1-12.2-6.1-3-14.7-4.6-17.7-3.4-2.6,1-5,3.6-5,5.3,0,2.8,3.4,5,9.6,6.1Z"/> -->
      <!-- <path class="cls-8" d="M466,147c.8.5,3,2,4.9,3.3l3.4,2.3,6.6-4.4c11.9-8,32.6-17.2,38.6-17.2s3.1,1,4.1,2.6c1.5,2.3,1.6,3.5.6,10.9-1.5,11.7-7.6,29.1-13.4,38.8l-4.9,8.1,1.8,4.8,1.7,4.9,1.8-2.3c3-3.9,9.6-17.2,13.3-26.7,7-18.1,12.2-45.1,9.6-49.9-1.5-2.8-5-2.8-15.1-.1-11.5,3.1-25.3,8.5-38.5,15-14.4,7.1-16.7,8.6-14.5,9.9Z"/> -->
      <!-- <path class="cls-8" d="M384.6,174.8c14.9-.3,15.7-.4,17.4-2.6,2.3-2.8,1.1-6.4-2.7-8.1-3.6-1.7-14.1-1.3-20.1.8-5.9,2-10.2,5.5-10.2,8.3s.9,1.9,15.6,1.6Z"/> -->
      <path fill='#f9a' fixed='yes' class="cls-3" d="M512.5,174.8c5.1-11.2,8.6-23.4,9.2-32.6l.6-8.2h-3.4c-1.9,0-5.7,1-8.6,2-6.8,2.4-24.1,11.3-29.4,15.2l-4.3,3.1,3.1,2.8c2.7,2.3,3.8,2.6,7.2,2.2,3.6-.5,4.2-.3,5,1.9.8,2.1,1.4,2.4,4.5,2,3.2-.4,3.7-.1,4.6,2.4.6,1.5.8,4,.5,5.5-.5,2.2-.2,2.8,1.9,3.3,3.4.8,4.2,4.3,2.2,9.1-4.1,9.7,1.9,2.1,6.9-8.7Z"/>
      <path class="cls-9" d="M465.2,474.4c-1,.8-3.4,1.9-5.3,2.2-1.9.3-5.3,1.3-7.7,2.1-5,1.8-12.9,1.3-20.2-1.3l-4.8-1.7-4.9,3.6c-11.3,8.3-24.5,24.3-30.9,37.4-2.4,4.9-4.4,6.8-4.4,4.3s6.9-14.7,11.6-21c7.5-10.1,18.7-21.1,26.2-25.6.2-.1-1.2-2.4-3.1-5.1-1.9-2.6-4-6.7-4.6-9.1-1.4-5-2.6-5.2-12.1-1.9-7.3,2.6-14.8,6.7-17.4,9.6-1.5,1.7-1.5,2,.6,4.7,1.2,1.6,3,3.5,4,4.2,2.1,1.6,2.3,3.2.4,3.2s-7-5.8-7.8-8.2c-.6-1.6-4.5,1.8-8.2,7.1-4.4,6.4-7.6,36-4.7,42.8,1.8,4.4,2.7,4.1,3.5-1,.8-5.3,8.5-21,12.6-26,5.1-6.1,5.3-3.2.3,4.1-5.2,7.6-8,13.4-9.9,20.7-1.9,7.1-1.7,9.6,1.1,15.7,1.4,2.9,2.5,7,2.5,9,0,3,.7,4.2,4.3,7.3,2.3,2,6.8,5,10.1,6.7,6.6,3.3,7.6,2.9,7.6-3.3s3.8-18.9,8.9-29.3c5.5-11.5,14.4-24.6,16.7-24.6s1.5.5-3.7,7.5c-11.2,15-19.9,37.4-19.9,50.9v3.4l6.9,1.3c13.9,2.4,30.8-.3,42-6.9l4.5-2.6-6-1.2c-8-1.7-18.4-5.9-23.4-9.5-6-4.3-3.9-5.3,2.7-1.3,7.3,4.3,14.4,7,22.8,8.5,6.2,1.1,6.9,1,8.6-.8,2-1.9,1.9-2-3.8-3.6-8.8-2.4-19.2-9.7-13.9-9.7s1.8.5,2.1,1c1,1.6,9.6,5.6,14.9,6.9,4.5,1.1,5,1,7.3-1.1,1.3-1.2,4.1-5.7,6.2-9.9,8.6-17.2,7.6-36.6-2.8-52.6-5.1-7.9-6.6-9.1-8.9-6.9Z"/>
      <path fill='black' fixed='yes' d="M421.7,250.9c3.2-1.2,9.3-6.7,9.3-8.5s-3.6-2.9-10-4.4c-2.5-.5-8.2-1-12.8-1-9.5,0-10.7,1-7.7,6.7,3.7,6.7,13.6,10.1,21.2,7.2Z"/>
      <path fill='#ffcf06' fixed='yes' class="cls-7" d="M455.4,222.6c3,2.6,5.6,3,8.9,1.2,5.3-2.8,6.4-9.2,2.2-13.3-5.1-5.2-13.9-1.4-13.9,6s.7,4.3,2.8,6.1Z"/>
      <path class="cls-2" d="M205,428.8l-4.7-7.7-1.8,5.7c-3.6,11.5-6.4,16.1-13.5,21.7-13.4,10.7-20.7,23.5-27,46.9-5.9,22.1-6.1,40.3-.5,48.8,5.1,7.7,15.4,12.8,26,12.8s9.1-1.9,10-7c.9-5.5-.9-10.2-5.6-14.5-2.3-2-3.8-3.9-3.5-4.2,1.1-1.2,5.4,1.6,8.2,5.3,2.3,3,2.9,4.9,3.2,10.5q.4,6.9,3.1,6.3c1.4-.4,3.8-1.8,5.4-3.2,2.1-2.1,2.7-3.5,2.7-6.9,0-5.5-1.9-9.3-6.7-13.2-4.1-3.3-3.8-5.3.4-3,3.7,2,8.2,8.5,9,13.2.7,4.8,2.3,3,2.3-2.8s-1.3-6.7-7.5-14.1l-4-4.7v-12.1c0-9.4.6-13.8,2.3-19.9,2.8-9.9,7.9-20.1,13.7-27.1,2.5-3.1,4.5-5.8,4.5-6.2s-2.5-4.3-5.7-8.7c-3.1-4.5-7.7-11.7-10.3-15.9Z"/>
      <path class="cls-5" d="M368,513.4c0-23.3,10.5-63.3,23.5-89.4,6.4-13,13-24,14.3-24s1.5.9-2.3,7c-1.8,3-3.2,5.6-3,5.8,1.2,1.3,12.5-5.6,18.1-11,4.8-4.5,6.7-5.9,7.3-4.9.6.9,1.4.4,3.1-1.9,3.3-4.6,6-14.2,6-21.2s1.9-7.3,4.1,1.3l1.6,6.4.7-4c.4-2.2.9-5.2,1.1-6.8.5-2.7-.9-15.2-2.1-19.6-1.3-4.5,1.8-1.7,3.7,3.4,1.1,2.8,2.8,6.1,4,7.5l2,2.5-.4-7.5c-.3-5.5-1.7-11.2-5-21-2.5-7.4-5.1-17.4-5.8-22.1l-1.2-8.6-16.1-.6c-14.1-.6-28-2.1-38.2-4.3-2.9-.6-3.3-.3-6.1,4.8-4.6,8-11.9,13-24.4,16.4-5,1.4-10.2,1.8-23.4,1.8s-27.2-1-58-7c-16.1-3.2-19.3-3.5-30.5-3.1-9.5.3-13.9.9-18.5,2.5-3.2,1.2-6.3,2.2-6.7,2.2-1.7,0-13-10.4-17.2-15.9-15.7-20.3-19-41.7-14.7-94.1,4.1-50.5,2.2-73.8-8.1-99.2-3.3-7.9-10.5-20.5-11.3-19.6-.2.2,0,2.1.5,4.3.5,2.1.6,4.3.4,4.7-.3.5-2.7-.7-5.2-2.5-6.7-4.9-12.2-7.5-19.4-9.2s-24.3-2.1-23.3-.5c.3.5,1.4,1,2.3,1s2.4.5,3.2,1c1.3.9,1.3,1.1,0,2-.8.5-2.7,1-4.1,1-4.6,0-17.9,3.9-24.3,7-3.5,1.7-8.5,5.1-11.2,7.4l-4.8,4.3,4.7.7c13.4,2,29.6,15.1,37.4,30.1,4.4,8.6,8.1,19.1,7,20.1-.3.4-2-.5-3.7-2-2.8-2.3-5-3.3-5-2.2s.7,2,1.5,4c3,7.2,6.5,24.4,9,44.6,3.8,30.4,6.9,43.2,14.1,58.9,8.2,17.8,24.6,36.9,42.4,49.6,10.6,7.5,15.7,12.4,16.5,15.8.5,1.8-.3,6.1-2.4,12.8-5.2,17.1-6.4,25.6-5.8,41.4.8,21.9,4.3,31.3,21.6,57.4,5.6,8.4,10.4,16.4,10.7,17.7.3,1.3.3,4.7,0,7.6-.3,2.9-.8,12.3-1.1,20.8-.6,14.5-.5,16.1,1.9,25.5,6.1,23.5,24.4,48.9,38,52.6,6.7,1.9,17.7,1.5,22.2-.7,3.8-1.9,3.9-2,4.2-7.7.2-4.1-.2-6.6-1.3-8.3-1.4-2.2-6.7-5.2-11.8-6.8-2.8-.9-.9-2.7,2.1-2,8.9,2.1,14.2,8.6,14.2,17.3s.2,5.1.5,5.1,2.1-.6,4-1.4c5.2-2.2,6.8-5.5,6.3-13.1-.3-5.7-.8-7-3.5-9.7-2.4-2.4-4.2-3.2-8.2-3.6-3.7-.3-5.1-.9-5.1-2s.9-1.3,4.7-.8c2.5.3,6,1.4,7.7,2.4,3.6,2,7.6,9.2,7.6,13.7,0,2.6.2,2.8,1.1,1.1,1.6-2.7.5-11.3-1.8-14.4-2.7-3.7-7.6-6-15.7-7.1-8.4-1.2-10.9-3.3-16.5-14-7-13.6-8.6-20.5-8.6-37.6s.5-18.5,9-37.6c7.9-17.4,9-22.8,9-42.7s.7-21,2.1-13.5c1.1,5.5.8,28.1-.4,33.1-.5,2.3-.6,4.4-.2,4.7.4.2,5,1.2,10.1,2.1,10.5,1.8,31.4,2.3,43.2,1.1,6.8-.8,7.9-1.2,8.7-3.2,3.2-8.4,11.2-23.5,12.5-23.5s.5,2-2.4,7.8c-10.6,21-22.1,52.5-30.4,83.2-12.3,45.2-12.2,56.3.6,67.5,9.4,8.2,23.1,11.2,28.2,6,4.2-4.1,3.2-11.3-2.5-17.8-2.2-2.5-2.7-3.8-1.9-4.3,1.7-1,6.4,4.8,8.6,10.5,1.5,4,1.6,4.7.1,8.8-.9,2.4-1.2,4.6-.7,4.9,1.9,1.2,6.9-.9,9.4-3.8,4.7-5.6,4.6-10.9-.6-19-3.2-4.9-3.3-7.2-.3-4.8,2.7,2.3,6.4,10.7,6.4,14.7,0,3.6.2,3.7,1.5,1.9,2.6-3.5,1.9-11.4-1.7-17.6-7.3-12.9-7.8-14.1-7.8-20.6Z"/>
      <path class="cls-8" d="M456.5,299.7c20.3-4.2,37-11.3,50.3-21.4,6.7-5.1,14.2-13.3,14.2-15.4s-2.5-.9-5.5-.9-5.5-.3-5.5-.7,1.5-2.3,3.4-4.3c3.6-3.7,7.6-10.5,7.6-12.9s-1-1.3-6,0c-1.2.3-1.6-1.6-2.1-11.1-.8-13.6-3.7-26.4-8.5-37.6-3.3-7.7-3.4-8.2-1.9-11,.8-1.6,1.5-3.9,1.5-5.2,0-2.1-.3-2.3-2.9-1.7l-3,.6.2-6.2c.2-6.9-.9-8.3-4.2-5-3,3-4.1,2.6-4.1-1.3s-1.4-5.3-4.3-3.3c-2,1.3-2.5,1-8.3-3.8-15.8-13.4-35-21.1-55.4-22.2-12-.6-20.8.5-33.2,4.3l-8.7,2.7-4.2-3.7c-9.4-8.6-37.9-24.7-51.8-29.4-12.9-4.4-13.5-3.5-12.8,16.7.7,22.7,6.1,45.4,14.5,61.4l3.5,6.8-2.1,6.2c-3,8.7-5,17.1-5.8,24.5-.6,5.2-1,6.3-2.3,5.8q-6.1-1.9-6.1.3c0,2.6,3.2,9.3,6.6,13.8,1.3,1.7,2.4,3.4,2.4,3.7s-2.5.3-5.5,0c-3-.4-5.5-.4-5.5,0,0,2.3,5.2,10,10.4,15.4,17,17.8,42,29.6,74.6,35.4,11.9,2,49.3,1.7,60.5-.5ZM416.7,295.3c-.6,1.7-12.9,1.6-15-.2-.9-.7-1.4-1.7-1.2-2.2.3-.4,2.2-.1,4.2.8,2.5,1,5.2,1.3,8.1.9,3.2-.4,4.3-.3,3.9.7ZM443,166.2c1.6-.8,5-1.2,9-1,11.8.6,25.5,9.4,24.8,16-.4,4.6-2.6,5.5-9.5,3.9-3.2-.7-9.2-1.9-13.4-2.6-9.1-1.6-13.7-3.7-15-7.1-1.2-3.3.6-7.3,4.1-9.2ZM433.3,206.3c.2,0,3.2-1,6.8-1.9,5.2-1.3,9.4-1.6,21.7-1.1,14.2.5,15.5.4,17.3-1.4s1.9-3,1.9-4.4.4-2.5.9-2.5c2.1,0,2.2,2.3.3,6.1l-2,4,2.2-.7c3.2-1,6.4-4.3,7.6-8,1.2-3.5,3-4.6,3-1.9s-3.8,9.2-5.6,9.9c-.9.4-1.4.9-1.2,1.2.9.9,7.2-2.2,9.2-4.5,2.2-2.5,3.6-2.7,3.6-.6s-1.9,2.9-4.2,4.6l-4.3,3.1,3.9-.6c2.9-.6,3.7-.4,3.4.6-.6,1.6-6.4,2.8-10,2.1-2.3-.5-2.8,0-3.3,2.3-3.4,15.3-10.5,21.4-24.6,21.4s-23.4-7.5-25.8-21.1c-.6-3.5-.9-6.4-.8-6.6ZM463.2,246.2c-1.2,1.2-14.9,4.8-18.4,4.8-5.6,0-2.5-1.6,7.5-4.1,9.9-2.5,12.9-2.7,10.9-.7ZM382,161.4c9.2-2.6,18.5-1.2,22,3.3,2.5,3.2,2.6,6.4,0,9.4-1.8,2.2-2.8,2.4-17.7,3-13.1.6-16.3.5-18.1-.7-6.2-3.9.7-11.4,13.7-15ZM336.8,180.7c.2,2.5-.1,4.3-.7,4.3-1.8,0-6.8-9.8-10-19.6-6.5-19.5-8.5-37.1-4.6-41.4,2.3-2.6,5.4-2.2,13.1,1.5,8.5,4.2,35.4,22.9,35.4,24.6s-2.1.9-4.7,1.1c-4.3.3-4.8.6-5.1,2.8-.6,4.9-.8,5-4.7,3.4-3.2-1.3-3.6-1.3-4.1,0-.4.8-.3,3.1,0,5,.8,4,.4,4.2-3.2,1.6-1.5-1-3.7-2.2-4.9-2.5-2-.7-2.3-.4-2.3,2.2s.7,4.9,1.5,7.2c.8,2.4,1.3,4.6,1,4.8-.3.3-2,.6-3.8.6-3.1,0-3.2.2-2.9,4.3ZM342,192.8c0-1,2.8-.6,6.6.9,1,.3,0-1.2-2.4-3.5-4-4-5.2-6.2-3.3-6.2s2.7,1.8,4.9,4c4.6,4.6,7.2,5.4,4.3,1.2-1.1-1.5-2.3-4.4-2.7-6.5-.5-3-.3-3.7,1-3.7s1.6.9,1.6,2.5c0,3.6,2.4,7.9,5.6,10,2.6,1.7,2.7,1.7,1.9,0-1.3-2.9-1.1-8.7.3-9.1.8-.3,1.2.8,1.2,3.6,0,5,2.6,7.1,9,7.1,10,0,29.2,4.8,34.3,8.5,1.8,1.3,1.8,1.5,0,6.6-1.2,3.6-3.5,7.1-6.8,10.5-4.2,4.4-5.9,5.4-10.8,6.5-7.5,1.6-16.5.1-22.2-3.8-5.4-3.8-9.5-11.9-9.5-18.9v-5.2l-3.7-.6c-5.1-.9-9.3-2.6-9.3-3.8ZM376,241.4c-8.4-4-10.2-5.2-9.5-6.5.6-.9,18.8,7.7,19.3,9.1.6,1.8-2.3,1-9.8-2.6ZM390.6,267.5c-.6-.2-2.7-.6-4.7-.9-2.1-.4-5.4-1.8-7.4-3.2-3.6-2.4-4.1-2.5-10.6-1.5-3.7.6-8.5,1.1-10.5,1.1-6.4,0-2.5-1.8,6.6-3,4.7-.6,8.6-1.3,8.7-1.4.1,0,0-1.8-.4-3.9-.5-3.5-.7-3.6-6.2-4.7-14-2.8-20.6-4.6-20.3-5.5.4-1.3-1.1-1.5,33,5.1,3.5.7,2.6,2.4-1.2,2.4s-3.5,0-2.5,3c1,2.8,1.3,2.9,5.5,2.3,5.1-.7,6.2,1.1,1.3,2.2-2.6.6-2.9.9-1.8,2,2.1,1.9,7.7,3.5,12.3,3.5s11.6-1.9,15.9-6l4.1-3.7-4.5-2c-10.5-4.7-15.6-17-7.6-18.6,10-2,31.5,1.9,33.1,5.9,1.8,4.6-6.1,11.9-15.2,13.9-2.8.6-3.2,1-2.6,2.8,2.4,8.2,16.6,14.4,26.5,11.6l4.4-1.1-3.2-1.6c-3.9-1.8-4.4-3.7-.8-2.8,1.4.3,3.5.9,4.8,1.2,1.8.4,2.6,0,3.5-2,1.1-2.5,1-2.7-1.8-3.3-7.3-1.4-1.6-2.3,15-2.3s18,.2,18,1.5-2.2,1.5-13.5,1.5h-13.4l-1.7,3.1c-.8,1.7-1.2,3.5-.7,3.9.4.4,4,1.8,7.8,3,7.4,2.5,9.3,3.6,8.2,4.6-.4.4-4.9-.7-10-2.5-8.9-3-9.5-3.1-13-1.6-2,.8-6.1,1.5-9,1.5h-5.5l-2.8,5.7c-3.6,7.2-8.7,11.4-14.7,12-9.7,1.1-17.3-4.9-20.4-15.8-.9-3.4-2.2-6.3-2.7-6.4ZM466,147c.8.5,3,2,4.9,3.3l3.4,2.3,6.6-4.4c11.9-8,32.6-17.2,38.6-17.2s3.1,1,4.1,2.6c1.5,2.3,1.6,3.5.6,10.9-1.5,11.7-7.6,29.1-13.4,38.8l-4.9,8.1,1.8,4.8,1.7,4.9,1.8-2.3c3-3.9,9.6-17.2,13.3-26.7,7-18.1,12.2-45.1,9.6-49.9-1.5-2.8-5-2.8-15.1-.1-11.5,3.1-25.3,8.5-38.5,15-14.4,7.1-16.7,8.6-14.5,9.9ZM450.6,179.1c3.2.6,9.5,1.9,13.9,2.9,4.4.9,8.6,1.5,9.3,1.3,3.8-1.5-1.8-8.2-10.1-12.2-6.1-3-14.7-4.6-17.7-3.4-2.6,1-5,3.6-5,5.3,0,2.8,3.4,5,9.6,6.1ZM384.6,174.8c14.9-.3,15.7-.4,17.4-2.6,2.3-2.8,1.1-6.4-2.7-8.1-3.6-1.7-14.1-1.3-20.1.8-5.9,2-10.2,5.5-10.2,8.3s.9,1.9,15.6,1.6Z"/>
      <path fill='black' fixed='yes' d="M422.2,277l2.2,3.1,1.8-3.3c2.4-4.6,2.2-5.6-1.4-7.1-4.3-1.8-9.5-6.3-10.3-8.7-.8-2.6-1.7-2.5-4.1,0-2.5,2.8-9.1,5.9-12.8,5.9s-2.8,0-2.3,4.1c.3,2.2.7,4.3,1,4.5.3.3,2.2-.6,4.2-2.1,7.1-4.8,16.7-3.2,21.7,3.5Z"/>
      <path class="cls-6" fill='#ea2654' fixed='yes' d="M419.6,284.6c2.8-2.3,2.8-2.4,1-5-.9-1.5-3.1-3.6-4.9-4.6-5.1-3.2-10.3-2.5-14.9,1.8-2.2,2-2.5,2.9-1.7,4.4,3.1,5.9,15.4,7.9,20.5,3.4Z"/>
      <path class="cls-1" d="M443,381.5c-1.7,5.4-3.1,5.8-4.6,1.2l-1.1-3.2-.6,3.5c-1.1,5.5-5.2,13.4-9.2,17.9l-3.7,4.1h4.5c8.5,0,8.3,3.3-1.3,24.1-6.7,14.4-8,18.5-8,25.2s4.4,15.7,12.5,20c3.2,1.7,5.8,2.2,12.7,2.2,10.1,0,11.6-.9,12.5-7.3.7-5.5-.2-8.5-3.8-12.7-4.2-4.7-2.9-5.8,1.6-1.5,4.5,4.4,6.2,9.8,4.8,15.1-.9,3.5-.8,3.9.9,3.9s3-1.1,4.3-2.5c4.7-4.6,2.6-16.9-3.6-21.3-2.2-1.5-2.5-3.2-.6-3.2,3.3,0,9.6,9.8,9.8,15.2.1,2.1.2,2.1,1.3-.6,2.4-5.4-1.1-13.4-7.8-17.5-3.2-2-3.3-2.2-2.6-6.8.5-2.7,3.2-11.8,6.1-20.3,4.4-12.9,5.3-16.7,5.4-22.7,0-8.4-1.7-11.6-8.1-14.8s-6.5-2.1-11.9-2.3l-8-.4-1.5,4.7Z"/>
    </g>
  </g>
</svg>