<?xml version="1.0" standalone="no"?>
<!DOCTYPE svg PUBLIC "-//W3C//DTD SVG 20010904//EN"
 "http://www.w3.org/TR/2001/REC-SVG-20010904/DTD/svg10.dtd">
<svg version="1.0" xmlns="http://www.w3.org/2000/svg"
 viewBox="0 0 655.000000 655.000000"
 preserveAspectRatio="xMidYMid meet">

<g transform="translate(0.000000,655.000000) scale(0.100000,-0.100000)"
fill="#000000" stroke="none">
<path d="M1185 5721 c-102 -13 -137 -34 -77 -47 15 -3 31 -7 36 -8 5 -1 -22
-10 -60 -19 -100 -24 -220 -87 -283 -147 -30 -28 -50 -55 -45 -59 5 -4 36 -14
69 -21 156 -33 291 -145 368 -304 19 -39 38 -81 41 -93 7 -22 7 -22 -34 -6
-22 9 -43 13 -46 10 -4 -4 3 -28 14 -54 44 -102 80 -275 107 -513 39 -339 106
-542 246 -746 67 -96 203 -233 310 -310 46 -32 102 -76 126 -98 51 -45 54 -71
22 -162 -80 -228 -89 -496 -22 -679 13 -38 25 -81 24 -95 0 -14 -14 -66 -32
-115 -32 -88 -35 -92 -145 -200 -104 -102 -115 -118 -162 -215 -109 -226 -164
-553 -116 -693 35 -104 171 -191 299 -192 51 0 78 5 98 18 14 9 38 17 52 17
14 0 38 6 53 14 38 20 111 109 118 144 10 48 -13 105 -65 165 -38 43 -51 67
-57 102 -14 98 22 276 81 397 33 69 107 168 125 168 18 0 20 -57 4 -168 -44
-318 39 -593 249 -817 105 -113 141 -130 277 -130 89 0 111 3 145 22 22 12 58
25 79 28 24 4 49 17 65 35 79 86 99 137 81 207 -23 92 -67 127 -185 144 -93
14 -104 24 -164 138 -62 119 -85 214 -85 351 -1 137 13 193 83 349 28 61 56
129 62 152 11 34 16 39 33 35 91 -25 254 -38 401 -33 88 3 169 8 179 13 16 6
18 4 11 -12 -48 -114 -127 -345 -180 -528 -109 -381 -135 -553 -99 -660 21
-62 100 -141 179 -180 62 -31 61 -31 243 -27 66 1 94 16 157 84 l50 54 50 -38
c233 -176 569 -166 788 23 27 22 80 83 118 134 79 105 155 164 247 190 101 30
194 4 217 -60 13 -37 2 -52 -85 -111 -98 -66 -123 -103 -118 -173 4 -45 10
-59 43 -92 57 -59 126 -82 261 -88 189 -8 347 37 417 119 136 159 -82 335
-298 240 -83 -37 -122 -124 -76 -170 30 -30 89 -43 136 -30 43 12 85 44 85 66
0 19 -18 16 -30 -6 -22 -43 -130 -52 -171 -15 -66 60 45 154 180 154 181 0
256 -149 127 -251 -77 -61 -285 -100 -424 -80 -88 13 -175 52 -206 94 -26 35
-27 102 -1 140 10 15 48 46 85 68 84 50 104 71 104 113 0 140 -228 162 -390
39 -44 -34 -47 -35 -40 -12 4 13 10 72 13 131 5 97 3 116 -21 192 -19 60 -42
106 -81 161 -30 42 -55 79 -55 82 0 3 14 21 30 40 53 59 32 145 -51 216 l-41
36 12 53 c7 29 33 108 56 175 74 208 76 300 9 367 -38 38 -124 66 -203 66
l-52 0 0 57 0 57 29 -34 c16 -19 33 -31 38 -27 4 5 8 48 7 95 -1 76 -7 104
-47 222 -47 139 -67 225 -67 292 0 33 3 38 23 38 55 0 220 34 314 65 173 58
291 124 397 224 102 98 116 161 34 161 -19 0 -20 1 -4 23 22 30 52 87 60 113
9 29 -19 57 -49 50 -22 -6 -23 -2 -29 87 -4 50 -16 134 -27 185 l-20 93 40 62
c119 183 226 527 219 705 -3 71 -5 78 -28 88 -70 33 -444 -93 -652 -220 l-72
-43 -70 32 c-199 91 -428 105 -647 39 l-87 -26 -67 51 c-170 131 -511 301
-602 301 -37 0 -55 -40 -60 -138 -12 -207 72 -580 164 -729 l19 -32 -28 -86
c-16 -47 -34 -122 -41 -166 l-11 -80 -32 5 c-61 12 -68 -41 -18 -133 13 -24
24 -45 24 -47 0 -2 -13 -4 -29 -4 -50 0 -57 -22 -28 -82 77 -157 331 -339 587
-421 44 -14 76 -30 78 -39 4 -22 -57 -98 -103 -130 -79 -53 -155 -71 -330 -76
-186 -5 -305 8 -585 65 -221 44 -389 51 -495 19 -33 -10 -70 -20 -81 -23 -17
-4 -39 11 -92 61 -219 207 -269 438 -216 1011 24 268 24 567 0 700 -23 125
-68 269 -113 360 -45 89 -113 187 -127 182 -7 -2 -10 -23 -8 -50 2 -26 1 -47
-2 -47 -2 0 -26 13 -53 29 -99 61 -243 88 -378 72z m223 -36 c72 -17 127 -43
194 -92 25 -18 49 -30 52 -25 2 4 1 26 -4 47 -5 22 -7 41 -5 43 8 9 80 -117
113 -196 103 -254 122 -487 81 -992 -43 -524 -10 -738 147 -941 42 -55 155
-159 172 -159 4 0 35 10 67 22 46 16 90 22 185 25 112 4 144 1 305 -31 308
-60 396 -70 580 -70 132 0 184 4 234 18 125 34 198 84 244 164 28 51 32 54 61
48 102 -22 241 -37 382 -43 l161 -6 12 -86 c7 -47 33 -147 58 -221 33 -98 47
-155 50 -210 l4 -75 -20 25 c-12 14 -29 47 -40 75 -19 51 -50 79 -37 34 12
-44 26 -169 21 -196 -2 -16 -7 -46 -11 -68 l-7 -40 -16 64 c-22 86 -41 92 -41
13 0 -70 -27 -166 -60 -212 -17 -23 -25 -28 -31 -19 -6 10 -25 -4 -73 -49 -56
-54 -169 -123 -181 -110 -2 2 12 28 30 58 38 61 41 70 23 70 -13 0 -79 -110
-143 -240 -130 -261 -235 -661 -235 -894 0 -65 5 -77 78 -206 36 -62 43 -141
17 -176 -13 -18 -14 -17 -15 19 0 40 -37 124 -64 147 -30 24 -29 1 3 -48 52
-81 53 -134 6 -190 -25 -29 -75 -50 -94 -38 -5 3 -2 25 7 49 15 41 14 48 -1
88 -22 57 -69 115 -86 105 -8 -5 -3 -18 19 -43 57 -65 67 -137 25 -178 -51
-52 -188 -22 -282 60 -128 112 -129 223 -6 675 83 307 198 622 304 832 29 58
35 78 24 78 -13 0 -93 -151 -125 -235 -8 -20 -19 -24 -87 -32 -118 -12 -327
-7 -432 11 -51 9 -97 19 -101 21 -4 3 -3 24 2 47 12 50 15 276 4 331 -14 75
-21 33 -21 -135 0 -199 -11 -253 -90 -427 -85 -191 -90 -209 -90 -376 0 -171
16 -240 86 -376 56 -107 81 -128 165 -140 81 -11 130 -34 157 -71 23 -31 34
-117 18 -144 -9 -17 -10 -15 -11 11 0 45 -40 117 -76 137 -17 10 -52 21 -77
24 -38 5 -47 4 -47 -8 0 -11 14 -17 51 -20 40 -4 58 -12 82 -36 27 -27 32 -40
35 -97 5 -76 -11 -109 -63 -131 -19 -8 -37 -14 -40 -14 -3 0 -5 23 -5 51 0 87
-53 152 -142 173 -30 7 -49 -11 -21 -20 51 -16 104 -46 118 -68 11 -17 15 -42
13 -83 -3 -57 -4 -58 -42 -77 -45 -22 -155 -26 -222 -7 -136 37 -319 291 -380
526 -24 94 -25 110 -19 255 3 85 8 179 11 208 3 29 3 63 0 76 -3 13 -51 93
-107 177 -173 261 -208 355 -216 574 -6 158 6 243 58 414 21 67 29 110 24 128
-8 34 -59 83 -165 158 -178 127 -342 318 -424 496 -72 157 -103 285 -141 589
-25 202 -60 374 -90 446 -8 20 -15 38 -15 40 0 11 22 1 50 -22 17 -15 34 -24
37 -20 11 10 -26 115 -70 201 -78 150 -240 281 -374 301 l-47 7 48 43 c27 23
77 57 112 74 64 31 197 70 243 70 14 0 33 5 41 10 13 9 13 11 0 20 -8 5 -23
10 -32 10 -9 0 -20 5 -23 10 -10 16 161 12 233 -5z m1833 -237 c139 -47 424
-208 518 -294 l42 -37 87 27 c124 38 212 49 332 43 204 -11 396 -88 554 -222
58 -48 63 -51 83 -38 29 20 43 9 43 -33 0 -39 11 -43 41 -13 33 33 44 19 42
-50 l-2 -62 30 6 c26 6 29 4 29 -17 0 -13 -7 -36 -15 -52 -15 -28 -14 -33 19
-110 48 -112 77 -240 85 -376 5 -95 9 -114 21 -111 50 13 60 13 60 0 0 -24
-40 -92 -76 -129 -19 -20 -34 -39 -34 -43 0 -4 25 -7 55 -7 30 0 55 -4 55 -9
0 -21 -75 -103 -142 -154 -133 -101 -300 -172 -503 -214 -112 -22 -486 -25
-605 -5 -326 58 -576 176 -746 354 -52 54 -104 131 -104 154 0 4 25 4 55 0 30
-3 55 -4 55 0 0 3 -11 20 -24 37 -34 45 -66 112 -66 138 0 22 0 22 61 3 13 -5
17 6 23 58 8 74 28 158 58 245 l21 62 -35 68 c-84 160 -138 387 -145 614 -7
202 -1 211 128 167z m2100 -120 c26 -48 -26 -318 -96 -499 -37 -95 -103 -228
-133 -267 l-18 -23 -17 49 -18 48 49 81 c58 97 119 271 134 388 10 74 9 86 -6
109 -10 16 -26 26 -41 26 -60 0 -267 -92 -386 -172 l-66 -44 -34 23 c-19 13
-41 28 -49 33 -22 13 1 28 145 99 132 65 270 119 385 150 101 27 136 27 151
-1z m-124 -200 c-6 -92 -41 -214 -92 -326 -50 -108 -110 -184 -69 -87 20 48
12 83 -22 91 -21 5 -24 11 -19 33 3 15 1 40 -5 55 -9 25 -14 28 -46 24 -31 -4
-37 -1 -45 20 -8 22 -14 24 -50 19 -34 -4 -45 -1 -72 22 l-31 28 43 31 c53 39
226 128 294 152 29 10 67 19 86 19 l34 1 -6 -82z m-573 -2373 c64 -32 81 -64
81 -148 -1 -60 -10 -98 -54 -227 -29 -85 -56 -176 -61 -203 -7 -46 -6 -48 26
-68 67 -41 102 -121 78 -175 -11 -27 -12 -27 -13 -6 -2 54 -65 152 -98 152
-19 0 -16 -17 6 -32 62 -44 83 -167 36 -213 -13 -14 -33 -25 -43 -25 -17 0
-18 4 -9 39 14 53 -3 107 -48 151 -45 43 -58 32 -16 -15 36 -42 45 -72 38
-127 -9 -64 -24 -73 -125 -73 -69 0 -95 5 -127 22 -81 43 -125 114 -125 200 0
67 13 108 80 252 96 208 98 241 13 241 l-45 0 37 41 c40 45 81 124 92 179 l6
35 11 -32 c15 -46 29 -42 46 12 l15 47 80 -4 c54 -2 93 -10 119 -23z m-424
-255 c0 -5 -7 -10 -16 -10 -8 0 -12 5 -9 10 3 6 10 10 16 10 5 0 9 -4 9 -10z
m94 -57 c-1 -17 -30 -92 -64 -165 -34 -73 -69 -161 -78 -195 l-16 -62 -65 -16
c-94 -24 -207 -86 -274 -151 -31 -31 -57 -54 -57 -52 0 3 13 53 30 111 33 118
81 245 145 382 41 88 43 91 86 104 24 7 63 23 85 37 38 21 142 44 189 40 16
-1 20 -8 19 -33z m-2161 -340 c32 -44 57 -84 57 -87 0 -4 -20 -31 -45 -62 -58
-70 -109 -172 -137 -271 -17 -61 -22 -105 -23 -199 l0 -121 40 -47 c62 -74 75
-98 75 -141 0 -58 -16 -76 -23 -28 -8 47 -53 112 -90 132 -42 23 -45 3 -4 -30
48 -39 67 -77 67 -132 0 -34 -6 -48 -27 -69 -16 -14 -40 -28 -54 -32 -27 -6
-27 -6 -31 63 -3 56 -9 75 -32 105 -28 37 -71 65 -82 53 -3 -3 12 -22 35 -42
47 -43 65 -90 56 -145 -9 -51 -35 -70 -100 -70 -106 0 -209 51 -260 128 -56
85 -54 267 5 488 63 234 136 362 270 469 71 56 99 102 135 217 l18 57 47 -77
c26 -42 72 -114 103 -159z m2018 -155 c6 -24 27 -65 46 -91 19 -27 33 -50 31
-51 -75 -45 -187 -155 -262 -256 -47 -63 -116 -189 -116 -210 0 -25 20 -6 44
43 64 131 196 291 309 374 l49 36 48 -17 c73 -26 152 -31 202 -13 24 8 58 18
77 21 19 3 43 14 53 22 23 22 38 10 89 -69 104 -160 114 -354 28 -526 -21 -42
-49 -87 -62 -99 -23 -21 -28 -22 -73 -11 -53 13 -139 53 -149 69 -3 5 -13 10
-21 10 -53 0 51 -73 139 -97 57 -16 58 -17 38 -36 -17 -18 -24 -19 -86 -8 -84
15 -155 42 -228 85 -66 40 -87 30 -27 -13 50 -36 154 -78 234 -95 l60 -12 -45
-26 c-112 -66 -281 -93 -420 -69 l-69 13 0 34 c0 135 87 359 199 509 52 70 55
75 37 75 -23 0 -112 -131 -167 -246 -51 -104 -89 -230 -89 -293 0 -62 -10 -66
-76 -33 -33 17 -78 47 -101 67 -36 31 -43 43 -43 73 0 20 -11 61 -25 90 -28
61 -30 86 -11 157 19 73 47 131 99 207 50 73 48 102 -3 41 -41 -50 -118 -207
-126 -260 -8 -51 -17 -54 -35 -10 -29 68 3 364 47 428 37 53 76 87 82 71 8
-24 64 -82 78 -82 19 0 17 16 -4 32 -10 7 -28 26 -40 42 -21 27 -21 30 -6 47
26 29 101 70 174 96 95 33 107 31 121 -19z"/>
<path d="M3215 5310 c-39 -43 -19 -219 46 -414 32 -98 82 -196 100 -196 6 0 9
18 7 43 -3 41 -2 42 29 43 18 0 35 3 38 6 3 2 -2 24 -10 48 -8 23 -15 56 -15
72 0 26 3 29 23 22 12 -3 34 -15 49 -25 36 -26 40 -24 32 16 -3 19 -4 42 0 50
5 14 9 14 41 1 39 -16 41 -15 47 34 3 22 8 25 51 28 26 2 47 7 47 11 0 17
-269 204 -354 246 -77 37 -108 41 -131 15z m102 -30 c47 -21 152 -87 252 -158
l64 -45 -26 -14 c-15 -7 -29 -24 -33 -37 -4 -19 -12 -23 -42 -22 -32 1 -38 -3
-47 -29 -9 -28 -12 -30 -38 -21 -54 20 -76 -25 -53 -106 7 -24 5 -28 -12 -28
-12 0 -27 -9 -35 -20 -14 -20 -15 -18 -35 27 -64 151 -110 395 -86 457 8 21
40 20 91 -4z"/>
<path d="M3820 4936 c-130 -36 -199 -111 -137 -150 18 -12 50 -13 181 -7 149
6 159 8 177 30 25 30 24 62 -1 94 -35 45 -128 59 -220 33z m173 -27 c38 -17
50 -53 27 -81 -17 -22 -25 -23 -174 -26 -147 -3 -156 -2 -156 16 0 28 43 63
102 83 60 21 165 25 201 8z"/>
<path d="M4430 4888 c-35 -19 -53 -59 -41 -92 13 -34 59 -55 150 -71 42 -7
102 -19 134 -26 69 -16 91 -7 95 39 7 66 -130 154 -248 160 -40 2 -74 -2 -90
-10z m207 -49 c83 -40 139 -107 101 -122 -7 -2 -49 4 -93 13 -44 10 -107 23
-139 29 -62 11 -96 33 -96 61 0 17 24 43 50 53 30 12 116 -4 177 -34z"/>
<path d="M3494 4723 c4 -21 16 -50 27 -65 29 -42 3 -34 -43 12 -22 22 -44 40
-49 40 -19 0 -7 -22 33 -62 23 -23 34 -38 24 -35 -38 15 -66 19 -66 9 0 -12
42 -29 93 -38 l37 -6 0 -52 c0 -70 41 -151 95 -189 57 -39 147 -54 222 -38 49
11 66 21 108 65 33 34 56 69 68 105 18 51 18 53 0 66 -51 37 -243 85 -343 85
-64 0 -90 21 -90 71 0 28 -4 39 -12 36 -14 -4 -16 -62 -3 -91 8 -18 7 -18 -19
-1 -32 21 -56 64 -56 100 0 16 -6 25 -16 25 -13 0 -15 -7 -10 -37z m242 -162
c-50 -52 -62 -139 -30 -215 8 -20 7 -20 -26 0 -54 31 -89 83 -102 151 -17 91
-15 93 94 93 l92 0 -28 -29z m135 -40 c17 -18 29 -40 29 -56 0 -16 -12 -38
-29 -56 -18 -17 -40 -29 -56 -29 -35 0 -85 50 -85 85 0 16 12 38 29 56 18 17
40 29 56 29 16 0 38 -12 56 -29z"/>
<path d="M4900 4586 c-12 -37 -44 -70 -76 -80 l-22 -7 20 40 c19 38 18 61 -3
61 -5 0 -9 -11 -9 -25 0 -14 -9 -34 -19 -44 -18 -18 -31 -19 -173 -14 -123 5
-165 2 -217 -11 -36 -9 -66 -18 -68 -19 -1 -2 2 -31 8 -66 24 -136 116 -211
258 -211 141 0 212 61 246 214 5 24 10 28 33 23 36 -7 94 5 100 21 3 10 -5 12
-34 6 l-39 -6 43 31 c23 17 42 38 42 46 0 21 -14 19 -36 -6 -20 -23 -83 -54
-92 -45 -2 3 3 8 12 12 18 7 56 74 56 99 0 27 -18 16 -30 -19z m-392 -123
c-31 -52 -31 -134 0 -186 l22 -38 -22 6 c-65 19 -130 102 -143 182 l-7 42 39
10 c46 12 80 18 111 20 l24 1 -24 -37z m157 -18 c42 -41 31 -105 -22 -133 -33
-18 -59 -14 -89 12 -21 18 -28 32 -28 61 0 74 88 112 139 60z"/>
<path d="M3665 4201 c-7 -13 11 -25 95 -65 75 -36 104 -44 98 -26 -5 14 -187
100 -193 91z"/>
<path d="M4003 4203 c-80 -16 -29 -139 76 -186 l45 -20 -41 -37 c-43 -41 -94
-60 -159 -60 -46 0 -102 16 -123 35 -11 11 -8 14 18 20 49 11 38 29 -13 22
-42 -6 -45 -5 -55 23 -10 29 -9 30 25 30 38 0 47 17 12 24 -341 66 -326 64
-330 51 -3 -9 63 -27 203 -55 55 -11 57 -12 62 -47 4 -21 5 -38 4 -39 -1 -1
-40 -8 -87 -14 -91 -12 -130 -30 -66 -30 20 0 68 5 105 11 65 10 70 9 106 -15
20 -14 53 -28 74 -32 20 -3 41 -7 47 -9 5 -1 18 -30 27 -64 31 -109 107 -169
204 -158 60 6 111 48 147 120 l28 57 55 0 c29 0 70 7 90 15 35 15 41 14 130
-16 51 -18 96 -29 100 -25 11 10 -8 21 -82 46 -38 12 -74 26 -78 30 -5 4 -1
22 7 39 l17 31 134 0 c113 0 135 2 135 15 0 13 -27 15 -180 15 -166 0 -223 -9
-150 -23 28 -6 29 -8 18 -33 -9 -20 -17 -24 -35 -20 -13 3 -34 9 -48 12 -36 9
-31 -10 8 -28 l32 -16 -44 -11 c-99 -28 -241 34 -265 116 -6 18 -2 22 26 28
91 20 170 93 152 139 -16 40 -231 79 -331 59z m207 -33 c64 -15 100 -31 100
-44 0 -18 -61 -73 -93 -85 -76 -29 -175 5 -212 72 -30 57 -18 67 77 67 46 0
103 -5 128 -10z m-65 -230 c8 -24 60 -69 103 -87 36 -15 38 -25 14 -71 l-18
-33 -22 31 c-50 67 -146 83 -217 35 -20 -15 -39 -24 -42 -21 -3 2 -7 23 -10
45 -5 40 -5 41 23 41 37 0 103 31 128 59 24 26 33 27 41 1z m12 -140 c18 -10
40 -31 49 -46 18 -26 18 -27 -10 -50 -51 -45 -174 -25 -205 34 -8 15 -5 24 17
44 46 43 98 50 149 18z"/>
<path d="M4523 4081 c-100 -25 -131 -41 -75 -41 35 0 172 36 184 48 20 20 -10
18 -109 -7z"/>
<path d="M4005 3621 c-2 -5 3 -15 12 -22 21 -18 144 -19 150 -2 4 10 -7 11
-39 7 -29 -4 -56 -1 -81 9 -20 9 -39 12 -42 8z"/>
</g>
</svg>
