<?xml version="1.0" encoding="UTF-8"?>
<svg xmlns="http://www.w3.org/2000/svg" version="1.1" viewBox="0 0 655 655">
  <defs>
    <style>
      .cls-1 {
        fill: #fcd30d;
      }

      .cls-2 {
        fill: #c13f25;
      }

      .cls-3 {
        fill: #f993b9;
      }

      .cls-4 {
        fill: #7c2f0d;
      }

      .cls-5 {
        fill: #fff;
      }

      .cls-6 {
        fill: #f45b7f;
      }

      .cls-7 {
        fill: #560f03;
      }

      .cls-8 {
        fill: #a83927;
      }
    </style>
  </defs>
  <!-- Generator: Adobe Illustrator 28.7.1, SVG Export Plug-In . SVG Version: 1.2.0 Build 142)  -->
  <g>
    <g id="Layer_1">
      <g>
        <path fill='black' fixed='yes' d="M166,66.2c-2.8,4.5-9.3,24.7-13,39.8-8.8,36.7-10.2,64.8-4.3,89.3,1.6,6.7,1.6,6.9-.6,11.5-2.7,5.6-9.9,15.8-13.2,18.8-1.3,1.2-3.7,2.4-5.2,2.8-3.8.9-7.6,4.8-8.3,8.5-.5,2.2-2,3.9-5.6,6.2-19.7,12.7-18.2,41.6,2.7,51.1,3.9,1.7,6.7,2.2,12.7,2.1h7.7c0-.1-.6,6.1-.6,6.1-.6,7,.7,12.8,3.9,17.6,2.8,4.1,4.8,4.9,5.5,2.1s.6-2.1.8-2.1,1.8,1.5,3.8,3.3c7.2,6.9,15.6,8.6,14.2,3-.5-2.2-.3-2.4,1.2-1.8,3.7,1.5,9.3,1.8,10.8.5,1.3-1,1.5-.9,1.5.8s1.3,3.6,2.8,5.4c4.4,5.1,6.9,14.6,4.2,16.3-.6.3-1,2.1-1,4s.8,4,3.1,5.9c3.5,3,3.7,2.4-4.1,11.2-4.7,5.3-9.3,13.1-10.4,17.6-.9,3.7,1.6,6.1,5,4.8,1.4-.6,2.7-1,2.9-1s-.1,1.7-.6,3.7c-1.5,6.7-1.1,19.4.9,23.2,2.5,5,4.9,6.1,7.1,3.4l1.8-2.2.7,4.5c.7,5.4,3.9,13,6.7,16l2,2.1-9.3,1.2c-20.9,2.7-35,14.8-42.3,36.6-2.2,6.5-2.6,9.3-2.3,15.7.3,7.2.5,7.9,3.8,11.3,2.1,2.2,5.1,4,7.7,4.6,3,.8,4.3,1.7,4.7,3.4.3,1.3,1.8,3.7,3.2,5.5,6.8,8.1,16.4,8,25-.1,3-2.9,3.1-2.9,6.8-1.4,2.1.9,5.2,1.5,7,1.3,2.9-.3,3.1-.1,3.4,3.3l.3,3.6-5.3.7c-4.6.6-5.8,1.3-10.5,6.2-2.9,3-5.7,5.4-6.3,5.4-1.7,0-5.9,7.4-6.6,11.7-1,6.2,2.4,12.5,8,15.2,2.3,1.2,4.7,2.1,5.3,2.1s1.4.7,1.7,1.6c.9,2.3,8.3,5.1,15.6,5.9,7.7.8,18.5-1.2,26.7-4.9,5.2-2.5,5.6-2.5,7.8-.8,1.3.9,2.8,3.4,3.4,5.4,1.9,6.2,9.9,10.5,18,9.6,2.9-.4,3.9.1,6.4,2.9,3.3,3.8,7.9,5.3,16,5.3s16.5-4.2,22.2-13.1c3.2-4.9,15.1-10.9,38.5-19.4,32.2-11.6,39.3-15.3,42.5-22.1,1.8-3.8,1.5-10.5-.5-13-.7-.8.9-2,5.5-4.3,7.6-3.8,14.5-11,17.7-18.7l2.1-5.2,6.6,5.1c11.1,8.5,27.5,15.3,35.2,14.5,2.9-.2,3.4-.7,3.7-3,.2-1.5-.4-3.7-1.2-5l-1.5-2.3,8.5.4c10.8.4,22.5-1.3,33.9-5,15.6-5,20.8-9.5,15.5-13.2-2.1-1.4-1.9-1.6,4.7-4.8,7.2-3.6,18.4-13.3,20.9-18.1,1.7-3.3.6-5.8-2.7-5.8s-.7-1.5,3.9-7.3c10.5-13.2,10.8-19.4.9-15.2-1.8.7-1.8.6-.2-3.1,2.7-6.4,5.5-19.5,5.5-25.7s-1.7-8.3-5.4-4.8l-2.3,2.2-.7-9.8c-2.3-33.8-12.5-57.8-19.5-46.2l-1.9,3.1-.6-5.8c-1.1-10.1-3.5-20.6-5.2-22.6-1-1-2.5-1.8-3.5-1.8-2.1,0-7.7,6.5-8.6,9.8-.7,3-2.3,1-2.3-3s-4.7-18.2-7.1-21.2c-2.8-3.6-6.6-3.2-9.4,1l-2.1,3-3.3-5.4c-4-6.5-15.4-18.8-19-20.6-4.9-2.4-7.9.2-9.6,8.2l-.7,3.4-3.2-7.2c-1.7-4-4-7.9-5.2-8.7-1.8-1.2-2.4-1.1-4.6.7-3.4,2.6-5.4,8.8-6.9,21-1.2,9.7-1.2,9.9-3.3,8.5-1.1-.8-2.9-1.5-4-1.5-1.8,0-1.8.5-1.2,7.8.3,4.3,1.3,10.5,2.1,13.8,2,7.8,8.7,21.6,13.6,28.1,2.1,2.9,3.9,5.5,3.9,5.8s-1.1.5-2.4.5c-3.2,0-5,2.3-3.7,4.7s10.4,11.1,23.3,22.1c16.2,14,27.4,30.4,30.8,45.1,1.7,7.1.8,17.6-1.8,22.6-2.9,5.8-11.2,13.1-19,16.8-12.2,5.7-28.6,4.9-41.4-2l-4.8-2.6v-5.4c0-15.8-8.2-37.2-22.2-58-12.2-18.2-31.4-34.1-58.8-48.6-9.8-5.1-15.6-7.8-41.3-18.6-5.4-2.3-11.7-5.3-13.8-6.7-3.5-2.2-4-2.9-3.4-5.2.4-2.2-.2-3.8-2.9-7.2-1.9-2.5-3.9-6.2-4.4-8.3-1.3-4.5-1.2-4.5,10.7-1.7,8.6,2.1,11.1,1.7,11.1-1.7s.6-1.3,2.3-.8c1.2.4,6.1.9,10.9,1.2,7.1.4,9.3.2,11.3-1.1,3.4-2.3,3.1-4.1-1.1-7l-3.7-2.5,4.3-.3c6.8-.5,7.1-2.4,1.7-10-7-9.8-8-13.2-8.1-27.8-.1-17.7,0-17.9,15.5-26,14.9-7.8,29.7-18.7,37.6-27.6,10.6-12,18.5-24.6,21.4-34.2,1.7-5.8.4-6.9-10.2-8.9-10.8-2-50.3-2.4-63.4-.5-4.9.7-14,1.9-20.2,2.8l-11.2,1.6-3.1-3.5c-8.5-9.7-27-20.7-44.8-26.7-13.8-4.6-18.6-3.9-16.2,2.6.8,2,.7,2.5-.2,2.1-.7-.3-4.7-2.1-8.9-3.9l-7.6-3.3-1.2-6c-2.1-10.5-9-29.6-15.1-42-6.6-13.5-14.6-25.8-17.2-26.3-1.1-.2-2.5.9-3.8,3ZM176.5,75.4c9.6,15.5,21.4,44.6,23.2,57.2.6,4.4.6,4.5-2,3.5-7.7-2.9-18.7-2.2-18.7,1.3s3.5,4.8,7.5,6.9l3,1.6h-6.7c-6.5.1-6.7,0-7.2-2.7-1.9-9.3-4.6-44.2-4.6-60.5s-.3-10.7-1.3-10.7-2.8,4.3-5,10.7c-9,27.2-12.7,46.7-13.4,70.8-.2,9.3-.7,18.5-1,20.3-.5,3-.2,3.4,2.6,4.5,1.7.6,3.1,1.8,3.1,2.5,0,2.7-3.3,15.2-4.1,15.2-3.6,0-4.8-47.8-1.6-65,4.5-24.3,12.1-52,16.9-61.3,2.4-4.7,3-4.3,9.3,5.7ZM169.1,100.7c.5,9.8,1.6,23.6,2.4,30.6,2,16.8,2.1,15.7-2,15.7s-11.2,2.7-11.9,4.7c-1,2.4,1.1,5,5.5,6.7l4.1,1.7-6.4,3.2-6.3,3.2-.3-12c-.3-12.7,1.4-27.6,4.9-42.5,2.7-12,8.1-30.2,8.7-29.6.2.3.9,8.5,1.3,18.3ZM199,139.1c4.1,1.1,11.7,4.1,16.8,6.6s9.5,4.3,9.8,4c.3-.2-.5-2.5-1.7-5.1-1.3-2.5-2-4.8-1.7-5.1,1.9-1.9,26.2,7,37.9,13.9,4.2,2.5,11.2,7.9,15.6,12l8,7.5,8.9-1.4c29.1-4.6,59.6-5.9,80-3.5,11.6,1.4,14.4,2.3,14.4,4.8s-7.6,17.5-13.7,25.7c-11,14.8-24.7,25.9-44.9,36.6-14.6,7.7-14.8,8-16.3,20-1.9,14.4,1.5,28.6,9,38.1,1.8,2.2,2.8,4.3,2.3,4.8-.5.4-3.5.4-6.7-.2s-6.1-.7-6.5-.3c-.7.7,2.8,4.1,8.4,8.1,1.6,1.2,2.6,2.5,2.3,2.8s-3.1,1-6.1,1.3c-4.8.5-8.5-.1-19.7-3.3-2.2-.7-2.3-.5-1.6,2.6s.6,3.3-1.6,2.7c-1.3-.4-6.2-1.4-10.9-2.3-11.1-2.1-17.4-1.4-36.3,4-13.5,3.9-23,6.1-34.9,8.1-2,.3-9,.6-15.5.6-10.8-.1-14.5-.5-19.5-2.6-1.3-.5-1.8-.2-1.8.8s.7,1.8,1.6,2.1c.9.4,1.5.9,1.2,1.1-.3.3-3.5-.4-7.2-1.6-3.8-1.1-7-1.8-7.3-1.5-.3.2.2,1.5,1.1,2.8,2,2.8,2,3.8.3,3.8s-9.6-5.8-12.3-10c-2.9-4.4-4.1-4.2-4.6.5l-.3,3-2-2.9c-1.3-2-2.1-5.1-2.3-9.8-.7-10.9.1-12.8,6.1-16.3l5.2-3,3,4c6.3,8.3,17.6,13.5,34.2,15.7,29.7,4.1,53.1-14.6,47.1-37.6-.7-2.7-1.9-5.2-2.7-5.4-1.1-.4-1.2.1-.7,1.9.4,1.3,1,5.5,1.3,9.4.4,6.3.2,7.5-2.4,12.5-5.6,10.6-15.7,15.9-31.9,16.7-27,1.4-49-12-47.2-28.8.1-1.6-.2-2.7-.7-2.6-.6.1-1,2.9-1.1,6.2v5.9c-.1,0-6.3,3.4-6.3,3.4-16.2,8.9-35,2.6-39.6-13.3-3.5-12.1,2.4-26.6,13.3-32.4,1.7-.9,2.1-.5,3.6,3.3,2,5.3,10.3,13.4,17.2,16.9,20.7,10.5,48.7,9.2,59.1-2.7,3.7-4.1,4.8-7.4,3.8-11.3-1.6-6.5-7.7-11.4-19.1-15.3-6.4-2.3-28.9-6.5-39.7-7.5l-6.8-.7,3.5-3.8c1.9-2.1,4-4.9,4.7-6.2l1.2-2.3.9,3c2.4,7.9,5.6,10.5,13,10.5s10.9-3.6,13.9-9.7c2-4,2.4-6.4,2.4-14s-.3-9.6-2.1-12c-4-5.3-9.6-5.6-15.3-.7-3.4,2.8-3.6,2.6-2-2.9.9-3.3,1.8-4.2,6.2-6.3,2.9-1.3,6.1-2.4,7.2-2.4s3.8-1,6-2.3c5.3-3,8.8-9.5,8.2-15.5-.3-2.4-.7-4.6-1.1-4.9-.3-.4-2.1.7-3.9,2.5s-5.3,4-7.9,5.2c-2.6,1.1-7,4.1-9.9,6.5-5.6,4.8-8.9,5.8-8.9,2.6s7.9-9.4,17.8-12c4.4-1.2,5.4-2.6,2.5-3.4-1-.3-3.9-1-6.5-1.7-4.9-1.3-7.4-3.2-6.4-4.9,1.2-1.9,11-3.1,25.6-3.1s15-.4,15-.8-1.9-1.4-4.2-2.1c-4.7-1.4-14.8-7-14.8-8.3s9.6-.8,17,1.3ZM182,165.5c0,5.4-4.9,10.1-13,12.4-3.6,1-7.3,2.2-8.3,2.6-1.4.6-1.6.4-1.1-1.1,1.6-4.4,5.7-8.4,11.6-11.2,3.5-1.7,7.2-3.7,8.3-4.6,2.6-2,2.5-2.1,2.5,1.9ZM170.7,191.8c.7.4,1.9,2.5,2.8,4.5l1.6,3.8-3.1-2.3-3.1-2.3-3.6,2c-4.6,2.5-7.3,7.6-7.3,13.6s2.3,8.9,7.6,9.8l3.9.7-3,1.9c-1.8,1.2-4.6,2-7.3,2s-4.8-.5-6.9-2.9c-2.2-2.7-2.5-3.6-2-8.6.9-10.8,9.5-23,16-23s3.7.4,4.4.8ZM169,201.5c.8,1,.9,2.3.3,4.2-.8,2.2-1.6,2.8-3.9,2.8s-3-.4-3.2-2.8c-.6-4.9,3.9-7.7,6.8-4.2ZM155.7,231.6c29.7,4.4,44.3,11.4,44.3,21.1s-.9,4.7-1.9,6.2c-2.1,2.9-9.7,7.4-14.5,8.5-2.6.6-2.8.5-1.7-.8,1.7-2.1,1-6-1.2-6.4-3.4-.7-6.8.8-11.2,4.9l-4.4,4.1-7.4-1.5c-4.1-.8-9.7-2.5-12.5-3.7-4.7-2-5.3-2.6-5.8-6.1-1.3-8.1-7.5-13.3-9-7.5-.3,1.4-.3,3,.2,3.7.4.8.3.9-.4.5-2.7-1.7-6.5-10-6.5-14.2,0-10,8.4-12.3,32-8.8ZM441.8,285.5c1.1,1.3,2.9,5.7,4.1,9.7,4.4,14.2,5.4,14.9,6.4,4.3.7-7.6,2.4-11.8,5-12.3,2.5-.5,13.6,11,19.6,20.4,2.8,4.3,5.1,8.5,5.1,9.1s.7,1.3,1.5,1.3,1.5-.9,1.5-2c0-3.4,2.8-9,4.5-9,3.7,0,9.5,18.1,9.5,29.7s1.7,9.7,4.4,2c7.6-21.8,13.3-17.2,14.3,11.5.3,8.2.9,14.8,1.3,14.8s1.8-3.2,3.1-7.2c2.7-8,5.1-10.5,7.5-7.4,5,6.9,9.4,27.1,10.3,47.5.3,8.9,1,15.6,1.6,15.8s2-1.9,3.3-4.7c1.3-2.7,2.8-5,3.4-5,2.4,0-2.2,22.2-6.9,33-1.4,3.3-2.3,6.3-2,6.6.3.4,2.3-.8,4.4-2.5,3.9-3.2,6.3-4,6.3-2s-8.9,13.6-14.5,18.7c-6.1,5.6-6.6,8-1,5.6,4-1.6,7.5-1.8,7.5-.4s-2.6,3.6-5.7,6.8c-6.3,6.4-16.1,12.4-23.5,14.3-5.5,1.5-6.5,3.9-1.5,3.9,7.4.1,7.4,3.9,0,7.1-14.1,6.1-33.4,9.3-47.3,7.9-4.1-.4-7.7-.6-8-.3s.2,1.4,1,2.6c3.5,5.6,4.4,7.6,3.7,8.3-1,1-10.5-1.3-18-4.3-6.9-2.8-17.9-9.8-21.5-13.6-2.3-2.4-2.3-2.7-1.1-10.4.7-4.3,1.6-8.2,2-8.6.3-.5,3,.3,5.8,1.7,18.2,9.3,38.9,6.5,54.2-7.2,12.2-10.9,13.8-26.8,4.8-46-6.9-15-13.3-22.4-37.4-43.5-5.5-4.8-10.6-9.7-11.3-10.7-1.1-1.9-.9-2,3.8-2s5-.3,5-.7-1.3-2.1-2.9-3.8c-11.1-11.7-21-35.4-19.9-47.8l.3-3.9,2.7,2.2c1.5,1.2,3.2,1.8,3.8,1.5.5-.3,1-3.2,1-6.3,0-11.4,4-27.2,6.9-27.2s1.8,1.1,2.9,2.5ZM269.5,312.6c-1.1.9-3.9,2.5-6.3,3.5-5.3,2.3-4.8,4.6.6,2.3,2-.8,4.7-2.1,5.9-2.9,2.3-1.6,3.7-.7,2.7,1.8-.3.9.4,2.5,1.5,3.6,2.8,2.8,2.7,3.6-.9,6.3s-3,2.5-3,3c0,1.7,2.8.7,5.5-2.2,3.2-3.4,4.5-3.1,4.5.9s-2.6,7-6.5,10.3c-13.2,11.5-61.3,23.2-77.3,18.9-4.9-1.4-8.5-4.4-8-6.9.3-1.4,1.3-1.6,6-1.4,3.3.2,5.8-.1,6.2-.7.5-.7-.3-1.1-2.1-1.1s-3.8-.3-5.1-.6c-2.1-.6-2.3-1.1-1.7-4.6.6-3.3.3-4.3-1.4-5.9-1.2-1.1-2.1-2.4-2.1-2.9s3-1,6.7-1.2c4-.2,6.8-.8,7-1.5.3-.8-1.7-1.2-7.1-1.2-8.1,0-11.6-1.2-11.6-3.9s1.5-1.7,13.3-1.8c15.1-.1,28.9-2.4,47-7.9,14.9-4.5,18.3-5.3,23.7-5.4,4.3,0,4.4,0,2.5,1.5ZM288,339.4c3.6,1.9,11.7,5.6,18,8.1,55.9,22.7,84.6,45.6,102.8,82s11.7,32,10,47c-2.5,22.5-10.1,35.7-24.3,42.1-3.3,1.5-6.1,2.8-6.3,3-.2.1.4,1.6,1.2,3.3,2.5,4.7,2.1,10.4-1,14-3.4,4.1-14.8,9.4-36.4,17.2-29.5,10.5-39.1,15.6-43.9,23.1-1.8,2.8-4.8,5.7-7.8,7.5-4.1,2.4-5.8,2.8-11.8,2.7-7.7,0-12.7-2-14.6-5.6-.7-1.3-1-4.9-.7-9.2.6-8.5,3.8-15.6,10.5-22.7,2.5-2.6,4.3-5.4,4-6.1-.8-2.1-10.4,8.7-13.7,15.5-2,4.2-3.2,8.4-3.7,13l-.6,6.7h-4.9c-12.4,0-17.2-8.8-11.2-20.8s12.1-14.8,16-15.8c2.1-.5,3.5-3.4,1.7-3.4s-11.1,6.1-14,9.2c-3.6,3.8-8.3,12.2-8.3,14.9s-1.1,2.4-2.8.7-1.4-9.5,1.2-14.6c2.9-5.7,9.6-12.2,15.4-15.1,2.7-1.4,11.7-3.4,25-5.6,11.4-1.9,24.2-4.6,28.5-6l7.8-2.5,2.9,2.2c5.5,4,4.2,1-2.3-5.5-16.6-16.6-22.6-46.1-13.2-64.7,7.4-14.5,30.2-27.2,49-27.3,11,0,18,2.8,25.6,10.2,3.1,3.1,5.8,6.2,6.1,7,.2.8.9,1.1,1.6.7,1.7-1-1.1-5.7-6.1-10.2-4.1-3.8-3.7-4.2,2.3-1.8,4.1,1.6,5.8,1.5,4.6-.5-.8-1.2-6.8-3-20.5-6.2-11.6-2.7-20.2-2.2-31.6,1.6-16.1,5.3-30,16.8-34.7,28.5-2,4.8-2.3,7.3-2.3,19.6v14.1l-3.8-2.5-3.8-2.5,2.1-2.2c2.4-2.6,2.5-3.3.4-5.6-1.3-1.5-1.4-2.6-.5-6.9,1.6-7.4,1.4-28.4-.5-38.1-2-11.2-6.2-24.9-7.5-24.9s-1.1.9,2.4,13.8c4.8,17.4,5.8,36.5,2.6,51.2-1,4.6-.9,5.3.8,6.6,2,1.5,1.8,1.7-4.2,5.9q-2,1.3-.1,2.8c1.9,1.4,1.9,1.5-.8,3.2-7.3,4.8-31.4,7.4-51.4,5.6-19.1-1.7-20.5-2.2-23.7-8.7-2.5-5.1-3.5-6.1-4.7-4.9s.8,3.1,2.4,6.1c3.2,6.5,3.8,14.6,1.3,19.3-6.1,11.9-21.3,10.5-27.6-2.6-1.8-3.7-2.4-7-2.7-14.1-.4-9.5-1.6-11.9-2.8-5.7-1.4,7.8,2,21.1,6.7,26.1,1.7,1.8,1.8,2.5.8,4.1-1.9,3.2-7.4,6.3-11.2,6.5-11.7.4-17.4-10.9-14.8-29.5.6-4.3,1.4-8.9,1.7-10.3.4-1.7.2-2.4-.8-2.4-1.9,0-3.8,10.8-3.8,20.9s-1.1,8.9-7.1,4.8c-5.1-3.4-6.6-8.8-5.1-17.6,3.4-19.8,15.2-35.7,30.8-41.2,12.5-4.5,36.9-3.7,65.9,2.3,20.2,4.1,20.5,4.2,20.5,3s-3.5-1.9-7.7-2.9c-5.6-1.4-7.7-2.4-7.4-3.4.2-.8,1.3-4.3,2.4-7.9,3.7-12.1,2.2-51-1.9-51s-1.4.1-1.4.2c0,.2.6,3.6,1.4,7.6,1.3,6.9,1.3,7.2-.3,5.8-2.9-2.6-3.1-.7-.5,4.7,1.9,4.2,2.4,6.8,2.4,13.7s-1.9,20.1-4.4,24.8l-1.5,3-6.3-1.3c-6-1.2-16.9-2.7-28.9-4-5-.5-5.6-.8-5.2-2.6.4-1.4,1.1-1.8,2.4-1.4,2.3.7,2.4-.3.4-2.9-.8-1.1-1.5-2.8-1.5-3.8s-.7-1.8-1.5-1.8-1.5,1.2-1.5,4.5c0,9-5.5,6.2-9.5-4.8s-2.6-17.9.4-24c1.3-2.6,2-5.1,1.7-5.4-1.1-1.2-2.6,1.2-6.5,10.3-2.1,4.8-4.3,9-4.9,9.2-3.7,1.2-5-18.4-1.9-28.2.9-2.7,1.4-5.3,1.1-5.8-.3-.4-2.2.3-4.2,1.7-4.3,3-5.2,3.1-5.2.7.1-3,4.5-10.3,11.1-18.4l6.4-7.8,5.5.4c23.2,1.6,66-10.5,76.9-21.8,1.9-2,3.8-3.6,4.1-3.6s3.5,1.5,7,3.4ZM303,491.3c2.9,2.4,4.9,5.1,6.5,9.1,1.3,3.1,3.7,7.8,5.4,10.4l3,4.7-2.7.7c-1.5.4-8.3,1.3-15.2,1.9s-18.5,2-25.9,3-13.7,1.6-14,1.3c-.3-.2-1.5-4.9-2.7-10.2s-2.5-10.4-2.9-11.3c-.5-1.4.9-1.7,10.7-2.2,17.7-.9,31.8-4.9,31.8-9.2s1.3-1.9,6,1.8ZM232.6,498c3.8.5,9.5,1,12.7,1,6.9,0,6.7-.3,10.3,17,3.5,17,3.4,18.3-2.4,23.5-6.1,5.5-10.2,13-10.9,19.9l-.6,5.4-5.6,2.6c-7.4,3.3-13.2,4.5-21.1,4.6-8.5,0-13.7-1.5-17.3-5.1s-2.9-3.4-2.5-8.5c.6-7,3.1-10.5,8.9-12.2,7.2-2.2,7.7-2.6,3.7-3-8.4-.8-14.9,6-15.2,16,0,2.6-.2,4.8-.4,4.8s-1.6-.7-3.2-1.5c-5.6-2.9-7.7-11.3-4.5-17.6,2.5-4.7,7-6.9,14.3-6.9s6.2-.4,6.2-.9c0-1.3-2.6-2.1-6.6-2.1s-4.3-1.5-.1-4c4.1-2.5,10.9-2.8,10.5-.4-.2,1,.3,1.9,1,2.1.9.4,1.2-1.5,1.2-7.4s.1-8,3.1-10.2c3.9-2.9,6.8-9.3,6.9-15,0-4,.2-4.3,2.4-3.7,1.3.3,5.4,1,9.2,1.6ZM321,519c0,2.5-11.5,5.5-37,9.6-9.1,1.4-17.9,3.2-19.6,3.9l-3.2,1.3-.6-3.6c-.3-2-.3-3.8-.1-4,.9-1,16.7-3.3,32.3-4.8,9-.8,18.2-1.9,20.5-2.4,5.9-1.1,7.7-1.1,7.7,0Z"/>
        <path fill='black' fixed='yes' d="M213.4,161.6c-2,4.9-1.4,11.2,1.6,15.3,2.6,3.8,7.5,6.4,16,8.6,7.5,1.9,12.8,4.5,15.4,7.4,3.6,4,4.9,2.8,4.4-4.3-.6-10.6-5.7-15.8-20.4-21.2-4-1.4-9.1-4.2-11.4-6.1l-4-3.5-1.6,3.8ZM220.3,165.5c2.3,1.3,7.4,3.6,11.2,5,3.9,1.5,8.5,3.8,10.4,5.2,3.5,2.7,7,9.2,7.1,13q0,2.2-4.6-.6c-2.5-1.6-8.5-4-13.2-5.2-7.1-1.9-9.4-3-12.4-6-3.4-3.3-3.8-4.2-3.8-8.8s.3-5.1.6-5.1,2.4,1.1,4.7,2.5Z"/>
        <path fill='black' fixed='yes' d="M359,176.1c-17.3,2-36,6.7-49.8,12.7-9.4,4.1-17.2,8.7-17.2,10.1s5.4,1,11.9,1.2c6.6.2,12.3.7,12.7,1.1,1.4,1.4-1.7,3.6-7.6,5.2-3.3.9-6,2.1-6,2.5s2.8,1.4,6.3,2.1c7.2,1.4,16.6,5.5,17.4,7.7,1,2.5-1.7,3.3-11.4,3.3s-9.3.4-9.3.9,2,2.1,4.5,3.5c4.4,2.6,7,5.7,5.8,7-.3.3-3.3.6-6.5.6s-5.8.4-5.8.9c0,2.7,10.7,2.9,14.1.3,1.3-1,5.8-3.1,10.1-4.6,13.9-5,27.8-14.9,37.5-26.6,5.6-6.8,12.9-20.1,13.9-25.8l.7-3.2h-6.9c-3.8.2-10.3.6-14.4,1.1ZM377,178.4c0,.8-2.1,5.6-4.7,10.7-3.8,7.7-6.2,11-13.7,18.5s-18.7,15.7-31.2,20.6l-7.7,3-2.9-3-3-2.9,6-.6c3.2-.4,6.6-.9,7.5-1.3,2.6-1,3.1-4.3,1-6.6-1.9-2.2-12.8-7.8-15.3-7.8-.8-.1.1-1,2.1-2,3.8-2,5.2-4.1,4.3-6.4-.7-2-4-2.6-13.4-2.7-4.4,0-8-.3-8-.5,0-.6,9.6-5.2,17.2-8.3,14-5.5,37.5-10.4,54.8-11.4,3-.2,5.8-.4,6.3-.5.4-.1.7.4.7,1.2Z"/>
        <path fill='black' fixed='yes' d="M216.1,199.2c-11.8,5.8-17.9,26.2-11.1,37.3,4.3,7,16.3,11.2,24.4,8.5,17.1-5.6,18.4-38.4,1.9-46.9-3.5-1.8-10.4-1.3-15.2,1.1ZM228.7,200.1c3.1,1.1,8.3,5.7,8.3,7.3s-.5.5-1.2-.2c-1.8-1.8-5.9-1.5-9.4.7-5.8,3.6-9.1,14.5-6.4,21.5,1.9,5.1,12.5,8.7,15.8,5.4s1.5-.9,1.8-.5c1.2,1.1-6.1,7.5-9.8,8.5-7,1.9-16.4-1.5-20.4-7.5-6.9-10.3-.9-29,11.1-34.4,4.7-2.2,6.3-2.3,10.2-.8ZM231.8,210.2c1.7,1.7,1.5,7.3-.4,8.8-2.2,1.9-6.8.1-7.2-2.8-.7-4.9,4.5-9.1,7.6-6Z"/>
        <path fill='black' fixed='yes' d="M258.9,325.6c-1.5,1.8-.1,4.9,2.2,4.9s2.3-3.9.6-5.3c-1.1-1-1.7-.9-2.8.4Z"/>
        <path fill='black' fixed='yes' d="M231.1,334.4c-1.5,1.7.1,5.6,2.3,5.6s4.1-3,2.9-4.8c-1.4-2.3-3.7-2.6-5.2-.8Z"/>
        <path fill='black' fixed='yes' d="M204.4,338.4c-.9,2.3,0,5.1,1.7,5.4,2.1.4,3.2-2.4,1.9-4.9-1.3-2.3-2.8-2.5-3.6-.5Z"/>
      </g>
      <g>
        <path fixed='yes' class="cls-5" d="M237.6,234.3c-.3-.4-1.2-.1-1.8.5-3.3,3.3-13.9-.3-15.8-5.4-2.7-7,.6-17.9,6.4-21.5,3.5-2.2,7.6-2.5,9.4-.7s1.2.8,1.2.2c0-1.6-5.2-6.2-8.3-7.3-3.9-1.5-5.5-1.4-10.2.8-12,5.4-18,24.1-11.1,34.4,4,6,13.4,9.4,20.4,7.5,3.7-1,11-7.4,9.8-8.5Z"/>
        <path fill="#560f03" fixed='yes' class="cls-7" d="M218.8,176.9c3,3,5.3,4.1,12.4,6,4.7,1.2,10.7,3.6,13.2,5.2q4.6,2.8,4.6.6c0-3.8-3.6-10.3-7.1-13-1.9-1.4-6.5-3.7-10.4-5.2-3.8-1.4-8.9-3.7-11.2-5-2.3-1.4-4.4-2.5-4.7-2.5s-.6,2.3-.6,5.1c0,4.6.4,5.5,3.8,8.8Z"/>
        <path fill="#f993b9" fixed='yes' class="cls-3" d="M319.4,200.6c.9,2.3-.5,4.4-4.3,6.4-2,1-2.9,1.9-2.1,2,2.5,0,13.4,5.6,15.3,7.8,2.1,2.3,1.6,5.6-1,6.6-.9.4-4.3.9-7.5,1.3l-6,.6,3,2.9,2.9,3,7.7-3c12.5-4.9,21.3-10.7,31.2-20.6s9.9-10.8,13.7-18.5c2.6-5.1,4.7-9.9,4.7-10.7s-.3-1.3-.7-1.2c-.5.1-3.3.3-6.3.5-17.3,1-40.8,5.9-54.8,11.4-7.6,3.1-17.2,7.7-17.2,8.3s3.6.5,8,.5c9.4,0,12.7.7,13.4,2.7Z"/>
        <path class="cls-2" d="M209.8,321.5c11.9-2,21.4-4.2,34.9-8.1,18.9-5.4,25.2-6.1,36.3-4,4.7.9,9.6,1.9,10.9,2.3,2.2.6,2.3.4,1.6-2.7-.7-3.1-.6-3.3,1.6-2.6,11.2,3.2,14.9,3.8,19.7,3.3,3-.3,5.7-.9,6.1-1.3s-.7-1.6-2.3-2.8c-5.6-4-9.1-7.4-8.4-8.1s3.3-.3,6.5.3c3.2.6,6.2.6,6.7.2.5-.5-.5-2.6-2.3-4.8-7.5-9.5-10.9-23.7-9-38.1,1.5-12,1.7-12.3,16.3-20,20.2-10.7,33.9-21.8,44.9-36.6,6.1-8.2,13.7-22.4,13.7-25.7s-2.8-3.4-14.4-4.8c-20.4-2.4-50.9-1.1-80,3.5l-8.9,1.4-8-7.5c-4.4-4.1-11.4-9.5-15.6-12-11.7-6.9-36-15.8-37.9-13.9-.3.3.4,2.6,1.7,5.1,1.2,2.6,2,4.9,1.7,5.1-.3.3-4.7-1.5-9.8-4-5.1-2.5-12.7-5.5-16.8-6.6-7.4-2.1-17-2.8-17-1.3s10.1,6.9,14.8,8.3c2.3.7,4.2,1.6,4.2,2.1s-6.7.8-15,.8c-14.6,0-24.4,1.2-25.6,3.1-1,1.7,1.5,3.6,6.4,4.9,2.6.7,5.5,1.4,6.5,1.7,2.9.8,1.9,2.2-2.5,3.4-9.9,2.6-17.8,7.9-17.8,12s3.3,2.2,8.9-2.6c2.9-2.4,7.3-5.4,9.9-6.5,2.6-1.2,6.2-3.5,7.9-5.2,1.8-1.8,3.6-2.9,3.9-2.5.4.3.8,2.5,1.1,4.9.6,6-2.9,12.5-8.2,15.5-2.2,1.3-4.9,2.3-6,2.3s-4.3,1.1-7.2,2.4c-4.4,2.1-5.3,3-6.2,6.3-1.6,5.5-1.4,5.7,2,2.9,5.7-4.9,11.3-4.6,15.3.7,1.8,2.4,2.1,4.3,2.1,12s-.4,10-2.4,14c-3,6.1-8.1,9.7-13.9,9.7s-10.6-2.6-13-10.5l-.9-3-1.2,2.3c-.7,1.3-2.8,4.1-4.7,6.2l-3.5,3.8,6.8.7c10.8,1,33.3,5.2,39.7,7.5,11.4,3.9,17.5,8.8,19.1,15.3,1,3.9,0,7.2-3.8,11.3-10.4,11.9-38.4,13.2-59.1,2.7-6.9-3.5-15.2-11.6-17.2-16.9-1.5-3.8-1.9-4.2-3.6-3.3-10.9,5.8-16.8,20.3-13.3,32.4,4.6,15.9,23.4,22.2,39.6,13.3l6.2-3.4v-5.9c.2-3.3.6-6.1,1.2-6.2.5-.1.8,1,.7,2.6-1.8,16.8,20.2,30.2,47.2,28.8,16.2-.8,26.3-6.1,31.9-16.7,2.6-5,2.8-6.2,2.4-12.5-.3-3.9-.9-8.1-1.3-9.4-.5-1.8-.4-2.3.7-1.9.8.2,2,2.7,2.7,5.4,6,23-17.4,41.7-47.1,37.6-16.6-2.2-27.9-7.4-34.2-15.7l-3-4-5.2,3c-6,3.5-6.8,5.4-6.1,16.3.2,4.7,1,7.8,2.3,9.8l2,2.9.3-3c.5-4.7,1.7-4.9,4.6-.5,2.7,4.2,9.9,10,12.3,10s1.7-1-.3-3.8c-.9-1.3-1.4-2.6-1.1-2.8.3-.3,3.5.4,7.3,1.5,3.7,1.2,6.9,1.9,7.2,1.6.3-.2-.3-.7-1.2-1.1-.9-.3-1.6-1.3-1.6-2.1s.5-1.3,1.8-.8c5,2.1,8.7,2.5,19.5,2.6,6.5,0,13.5-.3,15.5-.6ZM309.2,188.8c13.8-6,32.5-10.7,49.8-12.7,4.1-.5,10.6-.9,14.4-1h6.9c0-.1-.7,3.1-.7,3.1-1,5.7-8.3,19-13.9,25.8-9.7,11.7-23.6,21.6-37.5,26.6-4.3,1.5-8.8,3.6-10.1,4.6-3.4,2.6-14.1,2.4-14.1-.3s2.6-.9,5.8-.9,6.2-.3,6.5-.6c1.2-1.3-1.4-4.4-5.8-7-2.5-1.4-4.5-3-4.5-3.5s4.2-.9,9.3-.9c9.7,0,12.4-.8,11.4-3.3-.8-2.2-10.2-6.3-17.4-7.7-3.5-.7-6.3-1.6-6.3-2.1s2.7-1.6,6-2.5c5.9-1.6,9-3.8,7.6-5.2s-6.1-.9-12.7-1.1c-6.5-.2-11.9-.7-11.9-1.2,0-1.4,7.8-6,17.2-10.1ZM213.4,161.6l1.6-3.8,4,3.5c2.3,1.9,7.4,4.7,11.4,6.1,14.7,5.4,19.8,10.6,20.4,21.2.5,7.1-.8,8.3-4.4,4.3-2.6-2.9-7.9-5.5-15.4-7.4-8.5-2.2-13.4-4.8-16-8.6-3-4.1-3.6-10.4-1.6-15.3ZM229.4,245c-8.1,2.7-20.1-1.5-24.4-8.5-6.8-11.1-.7-31.5,11.1-37.3,4.8-2.4,11.7-2.9,15.2-1.1,16.5,8.5,15.2,41.3-1.9,46.9ZM151.9,196c.8,0,4.1-12.5,4.1-15.2s-1.4-1.9-3.1-2.5c-2.8-1.1-3.1-1.5-2.6-4.5.3-1.8.8-11,1-20.3.7-24.1,4.4-43.6,13.4-70.8,2.2-6.4,4.2-10.7,5-10.7s1.3,2.5,1.3,10.7c0,16.3,2.7,51.2,4.6,60.5.5,2.7.7,2.8,7.2,2.8h6.7c0,0-3-1.7-3-1.7-4-2.1-7.5-5.3-7.5-6.9,0-3.5,11-4.2,18.7-1.3,2.6,1,2.6.9,2-3.5-1.8-12.6-13.6-41.7-23.2-57.2-6.3-10-6.9-10.4-9.3-5.7-4.8,9.3-12.4,37-16.9,61.3-3.2,17.2-2,65,1.6,65Z"/>
        <path fixed='yes' class="cls-5" d="M224.2,216.2c.4,2.9,5,4.7,7.2,2.8,1.9-1.5,2.1-7.1.4-8.8-3.1-3.1-8.3,1.1-7.6,6Z"/>
        <path fill="#f993b9" fixed='yes' class="cls-3" d="M169.5,147c4.1,0,4,1.1,2-15.7-.8-7-1.9-20.8-2.4-30.6-.4-9.8-1.1-18-1.3-18.3-.6-.6-6,17.6-8.7,29.6-3.5,14.9-5.2,29.8-4.9,42.5l.3,12,6.3-3.2,6.4-3.2-4.1-1.7c-4.4-1.7-6.5-4.3-5.5-6.7.7-2,7.6-4.7,11.9-4.7Z"/>
        <path fill="#5C4033" fixed='yes' class="cls-7" d="M160.7,180.5c1-.4,4.7-1.6,8.3-2.6,8.1-2.3,13-7,13-12.4s0-3.9-2.5-1.9c-1.1.9-4.8,2.9-8.3,4.6-5.9,2.8-10,6.8-11.6,11.2-.5,1.5-.3,1.7,1.1,1.1Z"/>
        <!-- <path class="cls-2" d="M151.9,196c.8,0,4.1-12.5,4.1-15.2s-1.4-1.9-3.1-2.5c-2.8-1.1-3.1-1.5-2.6-4.5.3-1.8.8-11,1-20.3.7-24.1,4.4-43.6,13.4-70.8,2.2-6.4,4.2-10.7,5-10.7s1.3,2.5,1.3,10.7c0,16.3,2.7,51.2,4.6,60.5.5,2.7.7,2.8,7.2,2.8h6.7c0,0-3-1.7-3-1.7-4-2.1-7.5-5.3-7.5-6.9,0-3.5,11-4.2,18.7-1.3,2.6,1,2.6.9,2-3.5-1.8-12.6-13.6-41.7-23.2-57.2-6.3-10-6.9-10.4-9.3-5.7-4.8,9.3-12.4,37-16.9,61.3-3.2,17.2-2,65,1.6,65Z"/> -->
        <path fixed='yes' class="cls-5" d="M162.2,205.7c.2,2.4.8,2.8,3.2,2.8s3.1-.6,3.9-2.8c.6-1.9.5-3.2-.3-4.2-2.9-3.5-7.4-.7-6.8,4.2Z"/>
        <path fixed='yes' class="cls-5" d="M175.1,200.1l-1.6-3.8c-.9-2-2.1-4.1-2.8-4.5-.7-.4-2.6-.8-4.4-.8-6.5,0-15.1,12.2-16,23-.5,5-.2,5.9,2,8.6,2.1,2.4,3.3,2.9,6.9,2.9s5.5-.8,7.3-2l3-1.9-3.9-.7c-5.3-.9-7.6-3.9-7.6-9.8s2.7-11.1,7.3-13.6l3.6-2,3.1,2.3,3.1,2.3Z"/>
        <path fill = '#f45b7f' fixed='yes' class="cls-6" d="M130.2,254.6c.7.4.8.3.4-.5-.5-.7-.5-2.3-.2-3.7,1.5-5.8,7.7-.6,9,7.5.5,3.5,1.1,4.1,5.8,6.1,2.8,1.2,8.4,2.9,12.5,3.7l7.4,1.5,4.4-4.1c4.4-4.1,7.8-5.6,11.2-4.9,2.2.4,2.9,4.3,1.2,6.4-1.1,1.3-.9,1.4,1.7.8,4.8-1.1,12.4-5.6,14.5-8.5,1-1.5,1.9-4.3,1.9-6.2,0-9.7-14.6-16.7-44.3-21.1-23.6-3.5-32-1.2-32,8.8s3.8,12.5,6.5,14.2Z"/>
        <path class="cls-1" d="M273.5,339.2c3.9-3.3,6.5-7.5,6.5-10.3,0-4-1.3-4.3-4.5-.9-2.7,2.9-5.5,3.9-5.5,2.2s1.4-1.8,3-3c3.6-2.7,3.7-3.5.9-6.3-1.1-1.1-1.8-2.7-1.5-3.6,1-2.5-.4-3.4-2.7-1.8-1.2.8-3.9,2.1-5.9,2.9-5.4,2.3-5.9,0-.6-2.3,2.4-1,5.2-2.6,6.3-3.5,1.9-1.5,1.8-1.5-2.5-1.5-5.4,0-8.8.9-23.7,5.4-18.1,5.5-31.9,7.8-47,7.9-11.8,0-13.3.3-13.3,1.8,0,2.7,3.5,3.9,11.6,3.9s7.4.4,7.1,1.2c-.2.7-3,1.3-7,1.5-3.7.2-6.7.7-6.7,1.2s.9,1.8,2.1,2.9c1.7,1.6,2,2.6,1.4,5.9-.6,3.5-.4,4,1.7,4.6,1.3.3,3.6.6,5.1.6s2.6.4,2.1,1.1c-.4.6-2.9.9-6.2.7-4.7-.2-5.7,0-6,1.4-.5,2.5,3.1,5.5,8,6.9,16,4.3,64.1-7.4,77.3-18.9ZM258.9,325.6c1.1-1.3,1.7-1.4,2.8-.4,1.7,1.4,1.3,5.3-.6,5.3s-3.7-3.1-2.2-4.9ZM231.1,334.4c1.5-1.8,3.8-1.5,5.2.8,1.2,1.8-.6,4.8-2.9,4.8s-3.8-3.9-2.3-5.6ZM204.4,338.4c.8-2,2.3-1.8,3.6.5,1.3,2.5.2,5.3-1.9,4.9-1.7-.3-2.6-3.1-1.7-5.4Z"/>
        <path class="cls-4" d="M253.2,539.5c5.8-5.2,5.9-6.5,2.4-23.5-3.6-17.3-3.4-17-10.3-17s-8.9-.5-12.7-1c-3.8-.6-7.9-1.3-9.2-1.6-2.2-.6-2.4-.3-2.4,3.7,0,5.7-3,12.1-6.9,15-3,2.2-3.1,2.5-3.1,10.2s-.3,7.8-1.2,7.4c-.7-.2-1.2-1.1-1-2.1.4-2.4-6.4-2.1-10.5.4-4.2,2.5-4.2,4,.1,4s6.6.8,6.6,2.1-2.8.9-6.2.9c-7.3,0-11.8,2.2-14.3,6.9-3.2,6.3-1.1,14.7,4.5,17.6,1.6.8,3,1.5,3.2,1.5s.4-2.2.4-4.8c.3-10,6.8-16.8,15.2-16,4,.4,3.5.8-3.7,3-5.8,1.7-8.3,5.2-8.9,12.2-.4,5.1-.2,5.8,2.5,8.5,3.6,3.6,8.8,5.1,17.3,5.1,7.9-.1,13.7-1.3,21.1-4.6l5.6-2.6.6-5.4c.7-6.9,4.8-14.4,10.9-19.9ZM292.8,521.4c-15.6,1.5-31.4,3.8-32.3,4.8-.2.2-.2,2,0,4l.6,3.6,3.2-1.3c1.7-.7,10.5-2.5,19.6-3.9,25.5-4.1,37-7.1,37-9.6s-1.8-1.1-7.7,0c-2.3.5-11.5,1.6-20.5,2.4Z"/>
        <!-- <path class="cls-4" d="M292.8,521.4c-15.6,1.5-31.4,3.8-32.3,4.8-.2.2-.2,2,0,4l.6,3.6,3.2-1.3c1.7-.7,10.5-2.5,19.6-3.9,25.5-4.1,37-7.1,37-9.6s-1.8-1.1-7.7,0c-2.3.5-11.5,1.6-20.5,2.4Z"/> -->
        <path class="cls-8" d="M543.7,441.1c-2.1,1.7-4.1,2.9-4.4,2.5-.3-.3.6-3.3,2-6.6,4.7-10.8,9.3-33,6.9-33s-2.1,2.3-3.4,5c-1.3,2.8-2.7,4.9-3.3,4.7-.6-.2-1.3-6.9-1.6-15.8-.9-20.4-5.3-40.6-10.3-47.5-2.4-3.1-4.8-.6-7.5,7.4-1.3,4-2.7,7.2-3.1,7.2s-1-6.6-1.3-14.8c-1-28.7-6.7-33.3-14.3-11.5-2.7,7.7-4.4,6.9-4.4-2s-5.8-29.7-9.5-29.7-4.5,5.6-4.5,9-.7,2-1.5,2-1.5-.6-1.5-1.3-2.3-4.8-5.1-9.1c-6-9.4-17.1-20.9-19.6-20.4-2.6.5-4.3,4.7-5,12.3-1,10.6-2,9.9-6.4-4.3-1.2-4-3-8.4-4.1-9.7-1.1-1.4-2.4-2.5-2.9-2.5-2.9,0-6.9,15.8-6.9,27.2s-.5,6-1,6.3c-.6.3-2.3-.3-3.8-1.5l-2.7-2.2-.3,3.9c-1.1,12.4,8.8,36.1,19.9,47.8,1.6,1.7,2.9,3.4,2.9,3.8s-2.3.7-5,.7c-4.7,0-4.9.1-3.8,2,.7,1,5.8,5.9,11.3,10.7,24.1,21.1,30.5,28.5,37.4,43.5,9,19.2,7.4,35.1-4.8,46-15.3,13.7-36,16.5-54.2,7.2-2.8-1.4-5.5-2.2-5.8-1.7-.4.4-1.3,4.3-2,8.6-1.2,7.7-1.2,8,1.1,10.4,3.6,3.8,14.6,10.8,21.5,13.6,7.5,3,17,5.3,18,4.3s-.2-2.7-3.7-8.3c-.8-1.2-1.2-2.4-1-2.6.3-.3,3.9,0,8,.3,13.9,1.4,33.2-1.8,47.3-7.9,7.4-3.2,7.4-7,0-7.1-5,0-4-2.4,1.5-3.9,7.4-1.9,17.2-7.9,23.5-14.3,3.1-3.2,5.7-6.3,5.7-6.8,0-1.4-3.5-1.2-7.5.4-5.6,2.4-5.1,0,1-5.6,5.6-5.1,14.5-16.6,14.5-18.7s-2.4-1.2-6.3,2Z"/>
        <path class="cls-2" d="M306,347.5c-6.3-2.5-14.4-6.2-18-8.1-3.5-1.9-6.7-3.4-7-3.4s-2.2,1.6-4.1,3.6c-10.9,11.3-53.7,23.4-76.9,21.8l-5.5-.4-6.4,7.8c-6.6,8.1-11,15.4-11.1,18.4,0,2.4.9,2.3,5.2-.7,2-1.4,3.9-2.1,4.2-1.7.3.5-.2,3.1-1.1,5.8-3.1,9.8-1.8,29.4,1.9,28.2.6-.2,2.8-4.4,4.9-9.2,3.9-9.1,5.4-11.5,6.5-10.3.3.3-.4,2.8-1.7,5.4-3,6.1-3.2,16.3-.4,24,4,11,9.5,13.8,9.5,4.8s.4-4.5,1.5-4.5,1.5.8,1.5,1.8.7,2.7,1.5,3.8c2,2.6,1.9,3.6-.4,2.9-1.3-.4-2,0-2.4,1.4-.4,1.8.2,2.1,5.2,2.6,12,1.3,22.9,2.8,28.9,4l6.3,1.3,1.5-3c2.5-4.7,4.4-15.6,4.4-24.8s-.5-9.5-2.4-13.7c-2.6-5.4-2.4-7.3.5-4.7,1.6,1.4,1.6,1.1.3-5.8-.8-4-1.4-7.4-1.4-7.6s.6-.2,1.4-.2c4.1,0,5.6,38.9,1.9,51-1.1,3.6-2.2,7.1-2.4,7.9-.3,1,1.8,2,7.4,3.4,4.2,1,7.7,2.4,7.7,2.9,0,1.2-.3,1.1-20.5-3-29-6-53.4-6.8-65.9-2.3-15.6,5.5-27.4,21.4-30.8,41.2-1.5,8.8,0,14.2,5.1,17.6,6,4.1,7.1,3.4,7.1-4.8s1.9-20.9,3.8-20.9,1.2.7.8,2.4c-.3,1.4-1.1,6-1.7,10.3-2.6,18.6,3.1,29.9,14.8,29.5,3.8-.2,9.3-3.3,11.2-6.5,1-1.6.9-2.3-.8-4.1-4.7-5-8.1-18.3-6.7-26.1,1.2-6.2,2.4-3.8,2.8,5.7.3,7.1.9,10.4,2.7,14.1,6.3,13.1,21.5,14.5,27.6,2.6,2.5-4.7,1.9-12.8-1.3-19.3-1.6-3-2.7-5.8-2.4-6.1,1.2-1.2,2.2-.2,4.7,4.9,3.2,6.5,4.6,7,23.7,8.7,20,1.8,44.1-.8,51.4-5.6,2.7-1.7,2.7-1.8.8-3.2q-1.9-1.5,0-2.8c6-4.2,6.2-4.4,4.2-5.9-1.7-1.3-1.8-2-.8-6.6,3.2-14.7,2.2-33.8-2.6-51.2-3.5-12.9-3.7-13.8-2.4-13.8s5.5,13.7,7.5,24.9c1.9,9.7,2.1,30.7.5,38.1-.9,4.3-.8,5.4.5,6.9,2.1,2.3,2,3-.4,5.6l-2.1,2.2,3.8,2.5,3.8,2.5v-14.1c0-12.3.3-14.8,2.3-19.6,4.7-11.7,18.6-23.2,34.7-28.5,11.4-3.8,20-4.3,31.6-1.6,13.7,3.2,19.7,5,20.5,6.2,1.2,2-.5,2.1-4.6.5-6-2.4-6.4-2-2.3,1.8,5,4.5,7.8,9.2,6.1,10.2-.7.4-1.4,0-1.6-.7-.3-.8-3-3.9-6.1-7-7.6-7.4-14.6-10.2-25.6-10.2-18.8.1-41.6,12.8-49,27.3-9.4,18.6-3.4,48.1,13.2,64.7,6.5,6.5,7.8,9.5,2.3,5.5l-2.9-2.2-7.8,2.5c-4.3,1.4-17.1,4.1-28.5,6-13.3,2.2-22.3,4.2-25,5.6-5.8,2.9-12.5,9.4-15.4,15.1-2.6,5.1-3.2,12.6-1.2,14.6s2.8,1.5,2.8-.7,4.7-11.1,8.3-14.9c2.9-3.1,12.2-9.2,14-9.2s.4,2.9-1.7,3.4c-3.9,1-13.2,10.2-16,15.8-6,12-1.2,20.8,11.2,20.8h4.9l.6-6.7c.5-4.6,1.7-8.8,3.7-13,3.3-6.8,12.9-17.6,13.7-15.5.3.7-1.5,3.5-4,6.1-6.7,7.1-9.9,14.2-10.5,22.7-.3,4.3,0,7.9.7,9.2,1.9,3.6,6.9,5.6,14.6,5.6,6,.1,7.7-.3,11.8-2.7,3-1.8,6-4.7,7.8-7.5,4.8-7.5,14.4-12.6,43.9-23.1,21.6-7.8,33-13.1,36.4-17.2,3.1-3.6,3.5-9.3,1-14-.8-1.7-1.4-3.2-1.2-3.3.2-.2,3-1.5,6.3-3,14.2-6.4,21.8-19.6,24.3-42.1,1.7-15-1.5-30-10-47-18.2-36.4-46.9-59.3-102.8-82Z"/>
      </g>
    </g>
  </g>
</svg>