<!DOCTYPE svg PUBLIC "-//W3C//DTD SVG 1.1//EN" "http://www.w3.org/Graphics/SVG/1.1/DTD/svg11.dtd">

<!-- Uploaded to: SVG Repo, www.svgrepo.com, Transformed by: SVG Repo Mixer Tools -->
<svg fill="#000000" height="149px" width="149px" version="1.1" id="Layer_1" xmlns="http://www.w3.org/2000/svg" xmlns:xlink="http://www.w3.org/1999/xlink" viewBox="-74.82 -74.82 448.93 448.93" xml:space="preserve" stroke="#000000" stroke-width="5.98578">

<g id="SVGRepo_bgCarrier" stroke-width="0" transform="translate(11.971559999999982,11.971559999999982), scale(0.92)">

<rect x="-74.82" y="-74.82" width="448.93" height="448.93" rx="224.465" fill="#ebb434" strokewidth="0"/>
<rect x="-74.82" y="-74.82" width="448.93" height="448.93" rx="224.465" fill="none" stroke="white" stroke-width="25"/>

</g>

<g id="SVGRepo_tracerCarrier" stroke-linecap="round" stroke-linejoin="round"/>

<g id="SVGRepo_iconCarrier"> <g> <g> <path d="M290.422,79.244L220.034,8.857c-11.794-11.795-30.986-11.795-42.78,0C175.866,10.245,12.971,173.14,8.867,177.244 c-11.822,11.821-11.824,30.957,0,42.78l70.388,70.388c11.821,11.822,30.957,11.824,42.78,0 c1.046-1.046,165.357-165.357,168.388-168.388C302.244,110.203,302.246,91.066,290.422,79.244z M110.367,278.744 c-5.374,5.373-14.071,5.373-19.446,0l-70.388-70.388c-5.373-5.374-5.375-14.071,0-19.446l34.61-34.61l89.834,89.834 L110.367,278.744z M278.755,110.357l-122.111,122.11l-89.833-89.833l122.11-122.111c5.374-5.374,14.071-5.374,19.446,0 l70.388,70.388C284.129,96.285,284.129,104.983,278.755,110.357z"/> </g> </g> </g>

</svg>