<?xml version="1.0" encoding="UTF-8"?>
<svg xmlns="http://www.w3.org/2000/svg" version="1.1" viewBox="0 0 655 655">
  <defs>
    <style>
      .cls-1 {
        fill: #010101;
      }

      .cls-2 {
        fill: #ba7d7d;
      }

      .cls-3 {
        fill: #e87979;
      }

      .cls-4 {
        fill: #81729b;
      }

      .cls-5 {
        fill: #427a93;
      }

      .cls-6 {
        fill: #d16fcf;
      }

      .cls-7 {
        fill: #f4dcdc;
      }

      .cls-8 {
        fill: #cc8383;
      }

      .cls-9 {
        fill: #10a0c1;
      }

      .cls-10 {
        fill: #f7f7f7;
      }

      .cls-11 {
        fill: #ce0f8e;
      }
    </style>
  </defs>
  <!-- Generator: Adobe Illustrator 28.7.1, SVG Export Plug-In . SVG Version: 1.2.0 Build 142)  -->
  <g>
    <g id="Layer_1">
      <path class="cls-9" d="M295.1,153.9c-.9.5-1.8,1.1-2.7,1.6-1.8,1.1-3.6,2.3-5.4,3.5.3,1,.6,2,.8,3.1.4,1.4.7,2.7,1.1,4.1.2.7.4,1.3.6,2,4.9,18.1,4.1,38.5-.9,56.5-2.8,10.4-4.1,20.1-4,30.8,0,1.2,0,2.4,0,3.6q0,14.9,5.4,28.4c9.1,7.4,23.3,12.2,35,11.4q3.4-1.8,6-4v-1c-1.2-.1-2.4-.2-3.6-.4-1.6-.2-3.1-.3-4.7-.5-.8,0-1.6-.2-2.4-.2q-7.7-.9-10.4-2.9-1.1-1.7-2-4c-.5-1-.9-1.9-1.4-2.9-8.6-17.8-6.9-34.8-5.1-53.9,0-.7.1-1.4.2-2.2q1.2-13.1,2.4-17h2q.6,1.2,1.2,2.4c.5,1,1.1,2,1.6,3.1.5,1,1.1,2,1.6,3.1q1.3,2.6,3.5,3.5c7-13.9-.3-41.7-4.9-55.9-1.8-5.4-4.1-10.2-7.1-15.1-2.9,0-4.5,1.4-6.9,2.9ZM156,176c.5-.9.9-1.7,1.4-2.6,7.5-13.6,16-26.4,29.1-35.2,2.4-1.9,3.8-4.6,5.5-7.2,6-6.4,11.7-9.6,20.4-10.3,5.9-.2,10.2,0,15.6,2.5,7,2.8,17.8,4.4,24.8,1.6q2.3-1.7,4.4-3.7c3.8-3,7.9-4.7,12.3-6.6.8-.4,1.6-.7,2.5-1.1,2-.8,3.9-1.7,5.9-2.5-4.9-7.9-11.1-12.1-20.1-14.4-10.1-2.2-20.4-3-30.6-3.8-16.6-1.4-32.1-3.8-47.7-9.8q-2.5-1.1-4.6-1c2,7.3,8.2,12.6,14,17l1,2q-1.4,0-2.7.2c-9.6.9-17.1,3.5-25.7,7.7-11.2,5.5-22.1,10.2-34.6,12.1-1.1.2-2.3.4-3.4.6-.8.1-1.7.3-2.6.4,8.7,5.8,18.7,6.1,28.9,4.5,2-.4,4.1-1,6.1-1.5-1.4,4.2-4.3,5.6-7.9,8.1-3.1,2.8-3.9,5.4-4.5,9.6-.2,11.1,2.7,22.3,9.3,31.3,1,.7,2,1.3,3,2Z"/>
      <path fill='#e87979' fixed='yes' class="cls-3" d="M194.1,132.8c-3.2,4-5.4,8.1-6.1,13.2q.6,3.5,2,6c3.9-.3,6.5-1.2,9.7-3.4,8.1-5.3,17.7-6.1,27.1-7.1q3.3-.3,6.2-2.5c.7-4.5.4-6.5-2.2-10.3-5.2-4.9-10.1-5.1-17-5.1-8.3.3-14.1,3.3-19.7,9.2Z"/>
      <path class="cls-8" d="M205.9,375.9c-.3-.8-.5-1.5-.8-2.3-1.6-4.8-3-9.7-4.2-14.7q-31.1-9.4-59.9-3.1c-2.6,7,0,15.3,1.6,22.3,2.9,12.6,4,25,4.5,37.9.6,14,3.4,21.1,13.7,30.9,5.1,4.4,9.9,8,16.9,8.3,4.5-.5,7.5-2.3,10.3-5.8,5.2-8.9,7.3-22.3,5.8-32.5-2.3-2.3-3.2-2.3-6.4-2.8-3.4-.7-4.5-1-7.1-3.4-3.5-6.2-4.6-12.6-3.6-19.8,8.1-5.4,24.1.8,33.2,2.6q.9.2,1.8.4c-1.5-4.5-3-9-4.5-13.5-.5-1.5-1-3-1.5-4.5Z"/>
      <path fill='black' fixed='yes' d="M300.8,554.9c-6,2.3-12.1,2.2-18.4,2.2-.8,0-1.7,0-2.6,0q-1.2,0-2.5,0c-.7,0-1.5,0-2.2,0-2.1-.1-4-.5-6.1-1.1-6.3,7.2-13,15.4-14.5,25.2q.2,3,2.6,4.7c12.4,5.1,29.2,1.7,41.4-2.8,3.2-1.4,5.8-2.8,8.5-5.1,2.8-8.5,0-15.9-3-24q-1.2,0-3.2.9Z"/>
      <!-- <path class="cls-6" d="M156,176c.5-.9.9-1.7,1.4-2.6,7.5-13.6,16-26.4,29.1-35.2,2.4-1.9,3.8-4.6,5.5-7.2,6-6.4,11.7-9.6,20.4-10.3,5.9-.2,10.2,0,15.6,2.5,7,2.8,17.8,4.4,24.8,1.6q2.3-1.7,4.4-3.7c3.8-3,7.9-4.7,12.3-6.6.8-.4,1.6-.7,2.5-1.1,2-.8,3.9-1.7,5.9-2.5-4.9-7.9-11.1-12.1-20.1-14.4-10.1-2.2-20.4-3-30.6-3.8-16.6-1.4-32.1-3.8-47.7-9.8q-2.5-1.1-4.6-1c2,7.3,8.2,12.6,14,17l1,2q-1.4,0-2.7.2c-9.6.9-17.1,3.5-25.7,7.7-11.2,5.5-22.1,10.2-34.6,12.1-1.1.2-2.3.4-3.4.6-.8.1-1.7.3-2.6.4,8.7,5.8,18.7,6.1,28.9,4.5,2-.4,4.1-1,6.1-1.5-1.4,4.2-4.3,5.6-7.9,8.1-3.1,2.8-3.9,5.4-4.5,9.6-.2,11.1,2.7,22.3,9.3,31.3,1,.7,2,1.3,3,2Z"/> -->
      <path fill='#427a93' fixed='yes' class="cls-5" d="M310.9,114.2c-5.9,6-13.5,9.1-21.2,12.2-1.9.8-3.7,1.6-5.6,2.4q-1.3.6-2.7,1.1c-10.6,4.5-20.9,9.1-25.8,20.2-.8,2.3-1.4,4.5-1.7,6.9,11.5,3.6,26.6,1,37.2-3.7,11.1-6.2,17.5-15.9,21.2-28,1-4.4,1.3-8.9,1.5-13.3h-1c-.7.7-1.4,1.4-2.1,2.2Z"/>
      <path fill='#81729b' fixed='yes' class="cls-4" d="M247.3,91q.9,0,1.7,0c-1.2-6.9-2.7-12.2-8.2-16.9-.6-.4-1.2-.7-1.8-1.1-3.6,2.7-3.9,5.9-4.7,10.2-.3,1.3-.5,2.5-.8,3.9-.2,1-.4,2-.6,3,4,.6,7.9,1.1,11.9,1.1q1.2,0,2.3,0Z"/>
      <path fill='black' fixed='yes' d="M197.6,462c.6.4,1.3.9,1.9,1.3q7.8,5.4,16.8,8.2,2.9-.3,4.5-2.8c5.5-12.7,2.9-29.7-.5-42.7-1.3-3.3-2.4-5-5.3-7.1q-2.3-.6-4.8-.4t-2.5,0c-3.4.4-6.5,1.3-9.7,2.3-.2,1.2-.4,2.4-.6,3.6q-3.5,22.3-8.4,28.4c1.5,4.4,5,6.5,8.6,9Z"/>
      <path class="cls-11" d="M553,278h-2c.3-.7.7-1.3,1-2,5,.3,9.9.7,15,1-3.4-4.2-6.1-6.8-10.5-9.6-.6-.4-1.2-.8-1.9-1.2-17.1-10.5-36.3-10-55.6-8.3v-2c2-1.6,3.9-3.1,6-4.6.6-.4,1.1-.8,1.7-1.3,1.4-1,2.8-2.1,4.3-3.1q-2.2-1.4-5.3-.1c-1.4.5-2.8,1-4.2,1.5q-1.1.4-2.3.8c-21,7.8-37.9,19.3-48,39.7q-1.2,2.9-1.2,5.3c1.7,2.9,4.3,3.7,7.3,5.1,6.8,3.4,11.3,6.8,14.1,14q1.4,2.8,3.7,3.4c1.6.3,3.2.6,4.8.9,2.6.5,4.2,1.7,6.2,3.4h2c.7,1.3,1.3,2.7,2,4,.5,1,1,1.9,1.6,2.9,5.7,13.9.5,30.6-3.1,44.4-.5,2.6-.3,4.1.5,6.6,2.3-1,4.6-2,7-3-.3,1-.5,2-.8,3.1-2,8-3.7,16-4.8,24.2-.1.8-.2,1.6-.4,2.4-.3,2.2-.4,4.1,0,6.3q2.4,2.7,5,5,.5,2.6.4,5.3c0,1.1,0,2.1-.1,3.2-.2,2.4-.5,4.9-.8,7.3-1.5,11.8,1.8,20.3,8.7,29.9,2.6,3.3,5.2,5.6,8.9,7.6.8.5,1.7,1,2.5,1.5,7.3,3.6,16.9,3.2,24.7,1.5,5.5-1.8,8.3-3.5,11.7-8.3-.7-.6-1.5-1.2-2.2-1.8q-13-11.1-14-20.4c-1.4-19.7,3.2-40.7,15.3-56.8h2c1,3.3,2,6.6,3,10q2.4-.9,3.4-4.6c7-21.1,10.3-41.6,4.6-63.4,3.5,1.2,6,2.6,8.7,5.1q2.3,2.3,5.3,2.9c.9-18.2-2.2-35.4-14.6-49.5-2.9-3.1-6-6-9.4-8.5Z"/>
      <!-- <path class="cls-2" d="M402,428.6c-2.6-3.4-4.1-7-5.8-11-.3-.7-.6-1.4-.9-2.1-1.2-2.8-2.3-5.6-3.3-8.5-3.7,0-6.1,1.2-9.5,2.6-14.7,6.1-30.1,10.2-45.5,14.4.5,3.7,1,5.7,4,8q2.4.6,5.1.7t3,.2c1,0,2.1.1,3.2.2,2.1.1,4.1.3,6.2.4.9,0,1.8.1,2.8.2,2.6.2,5.1.7,7.6,1.2-.2,9.5-2.9,18.1-6,27-.4,1.2-.8,2.4-1.2,3.6-3.3,9.2-7.1,15.3-14.8,21.4-3.4,4.2-4.8,7.5-5,13,.9,2.8,1.6,3.8,4.1,5.2.8.3,1.7.6,2.6,1,.8.3,1.7.6,2.5,1,5.7,1.7,11.4,2,17.3,2,1.2,0,2.5,0,3.8,0,5.1-.3,9.3-1.2,13.5-4.2,5.4-7.3,6-17.9,7.6-26.7,1.4-7.6,2.9-15.2,5.1-22.7.2-.7.4-1.3.6-2,1.4-4.4,3.2-8.5,5.1-12.7q1.7-4.1,1-8.2-1.5-2.1-3.2-4.2Z"/> -->
      <path fill='black' fixed='yes' d="M380.1,521.3c0-.9,0-1.8,0-2.7,0-2.2,0-4.4,0-6.6q-1.6,0-3.3,0c-10.9.2-21-.9-31.7-3.1-5.9,6.1-12.4,13.4-13.3,22.1q.1,2.8,1.6,4.6c9.3,6.5,24.7,6,35.5,4.6,4.9-1,7.3-2.3,10.2-6.4.9-2.8,1.1-4.5,1.1-7.4,0-.8,0-1.7,0-2.6,0-.9,0-1.8,0-2.7Z"/>
      <path fill='black' fixed='yes' d="M481,543q-1.2,0-2.7.9c-10.8,5.2-24,4.2-35.3,1.1q-8.4,12.5-10,27c6.7,5.8,16.7,4.5,25,4,8.4-1.1,17.1-2.9,24-8,3.3-4.8,3.3-8.9,2.5-14.5-.8-3.7-2-7-3.5-10.5Z"/>
      <path class="cls-7" d="M480.3,413c-3.2-1.4-3.9-2.9-5.3-6-1.2-7.8.3-15.8,1.5-23.6,3.4-23.5,3.4-52.2-9.7-73-7.9-10.3-22.4-14.5-34.8-16.4-13.1-1.4-22.8.4-34.6,6-27.1,12.8-66.7,6.8-94.1-2.2q-14.4-5.3-18.3-12.8c-5.7-17.9-5.1-40.1,0-58,5.3-20.7,9-46.9-1-67q-.9.1-1.9.2c-11.4,1.2-22.7,1.1-34.1-.2v-3h2c.2-.7.4-1.4.6-2.1,3.3-10.7,9.3-17.7,19.1-23,7.3-3.7,14.9-6.7,22.5-9.6,8.2-3.2,16.1-7.7,20.8-15.3-.4-3.7-.8-6-3.7-8.4q-2.4-.9-5.1.6c-1.1.7-2.2,1.4-3.3,2-1.3.8-2.5,1.5-3.8,2.3-.7.4-1.3.8-2,1.2-3.8,2.2-7.6,4.2-11.5,6.3-.8.4-1.6.8-2.4,1.3-4.6,2.4-9.2,4.7-13.8,7-9.1,4.4-20.6,10.2-25.4,19.8-1,.3-2,.7-3,1,1.5-4.1,3.5-7.4,6-11-3.3-.3-6.6-.7-10-1l1,3q.4,6.9-.9,10.4c-4,3.2-9.2,3.5-14.2,3.9-8.2.8-14.3,3-21.4,7.1-3.2,1.8-5.2,2.7-8.8,2.5q-2.7-.9-4.7-2.9c-.6-2.7-.7-5.3-1-8-11.7,6.8-18.1,19-24.5,30.4-.4.8-.9,1.5-1.3,2.3-.8,1.5-1.7,3-2.5,4.4-5.2,9.2-12.3,11.7-22.1,14.4-6.5,2-11.3,5-15.2,10.6-.3.6-.6,1.3-.9,1.9-.3.6-.6,1.3-.9,1.9-1.5,3.9-1.8,7.2-1.8,11.4,0,1,0,2,0,3.1,0,1.1,0,2.1,0,3.2,0,1.1,0,2.2,0,3.3,0,2.7,0,5.3,0,8q-1.5.4-2.9.8t-3.1,1.2c-.3,1-.7,2-1,3,3.5,4.5,7.6,6,13,7,15.5,1.3,29.3-1.5,41.7-11.1,5-4.3,9.6-8.8,12.3-14.9v-3c-2.6.3-5.3.7-8,1-.3-1-.7-2-1-3,2.1,0,4.2-.1,6.3-.2,1.2,0,2.3,0,3.6-.1q3.1.3,5,1.5c1.4,2.2,1.6,3.9,1.8,6.5,0,.8.1,1.6.2,2.4,0,.6,0,1.2.1,1.9h-2c-.3-2-.7-4-1-6h-2c-1.1,1.5-2.1,3-3.1,4.5-9.1,13.3-20.5,20.1-36.4,23-5.5.8-11,1.2-16.5,1.5q.6,3.9,3,7,2.6.4,5.5.4c4.1.3,7.6.8,11.4,2.1,8.8,2.9,17.8,2.3,26.4-1.1,4.1-2.1,7.6-4.8,11.2-7.7,3.5-2.4,6.1-2.9,10.2-2.4,1,.2,1.9.4,2.9.7,1.1.2,2.2.5,3.3.7,1.1.2,2.2.5,3.4.7,13.1,2.9,25.4,4.4,37.4-3.1,4.2-3,7.4-6.7,10.6-10.6q.8-.9,1.6-1.8h2c-1.2,3.4-2.4,5.5-5,8v2q-.8.4-1.7.8c-2.5,1.3-4.8,2.7-7.2,4.2-5.3,3.2-9.7,4.9-15.8,5.5-.8,0-1.6.2-2.5.3q-.9,0-1.9.2c0,.8,0,1.6-.1,2.4-1.1,22.7-4,44.6-8.6,66.8-.1.7-.3,1.3-.4,2-.7,3.2-1.3,6.5-2,9.7-2.1,10.1-3,19.3.1,29.2.2.7.4,1.4.7,2.2,6.3,19.3,14,29.9,32.3,39.3q8.8,4.4,18.1,7.4c.7-.3,1.3-.7,2-1-2.2-6.4-5.1-10.4-10-15-6.7-6.7-10.1-14-10.2-23.5,0-1.5,0-3,.1-4.6h2c0,.9.1,1.8.2,2.7,1,9.2,2.7,15.9,9.9,22.1,8.7,7.5,11.4,17.5,14.9,28.2.3.9.6,1.7.9,2.6,6.3,19.6,9.5,39,9.6,59.5q0,1,0,2.1c0,12.7-1.4,24.7-7.1,36.1-3.1,6.6-5.4,12.2-3.8,19.6,1.8,2.9,3.3,3.7,6.4,5.1,3.2.4,6.4.4,9.7.4.9,0,1.8,0,2.7,0,7.8-.2,14.4-.7,20.6-5.8,3.8-4.8,4.2-7.7,4.1-13.9,0-1.5,0-3,0-4.4,0-.8,0-1.5,0-2.3-.3-17,1.3-31.6,6.1-47.9.4-1.2.7-2.5,1.1-3.7.7-2.4,1.5-4.8,2.2-7.2,3.2-10.6,4.2-20.4.4-30.9-.5-1.4-.9-2.7-1.4-4.1-.2-.7-.5-1.4-.7-2.1-6.7-20.4-11.1-43.7-7.7-65,1,.3,2,.7,3,1-.2,1-.3,2.1-.5,3.1-2.3,17.3.7,36.5,6.5,52.9,20.9-3.8,41-8.8,60.9-16.3.9-.3,1.8-.7,2.7-1,.8-.3,1.6-.6,2.5-1,.7-.3,1.4-.6,2.2-.8q1.9-.7,2.7-2.9c-1.2-3.9-2.8-7.6-4.3-11.3-.8-1.9-1.5-3.7-2.2-5.6q-4.4-11.1-13.4-18.6c-.7-.2-1.4-.4-2.1-.6.3-1,.7-2,1-3,5.3,1.4,8.7,4.8,12,9,2.1,4.1,3.8,8.3,5.4,12.6.9,2.4,1.9,4.8,2.8,7.2.5,1.2.9,2.4,1.4,3.7,2,5.2,4.1,10.5,6.2,15.7.3.9.7,1.7,1,2.6q4.6,12.2,14.1,20.2c4.6,1,9.3,1.5,14,2,2.2.2,4.4.5,6.5.7,1.4.2,2.8.3,4.2.5,3.5.4,5.3.8,8.2,2.8,3.4,10,3.5,21.1,4.2,31.6q.1,1.9.3,3.9,1.8,31.3-8.3,45.4c-2.8,4-4,7.2-4.1,12.1,1.9,4.5,6,7.4,10.3,9.4,9.4,3.3,21.7,3.2,30.7-1.1,5.1-3.3,8.1-7.6,10-13.3.7-6.7-.1-13.3-1-19.9-2.9-23,.3-45.7,3.7-68.5q1.9-10.8,1.3-21.6c-3.3-3.3-7.2-4-11.7-5ZM402,428.6c-2.6-3.4-4.1-7-5.8-11-.3-.7-.6-1.4-.9-2.1-1.2-2.8-2.3-5.6-3.3-8.5-3.7,0-6.1,1.2-9.5,2.6-14.7,6.1-30.1,10.2-45.5,14.4.5,3.7,1,5.7,4,8q2.4.6,5.1.7t3,.2c1,0,2.1.1,3.2.2,2.1.1,4.1.3,6.2.4.9,0,1.8.1,2.8.2,2.6.2,5.1.7,7.6,1.2-.2,9.5-2.9,18.1-6,27-.4,1.2-.8,2.4-1.2,3.6-3.3,9.2-7.1,15.3-14.8,21.4-3.4,4.2-4.8,7.5-5,13,.9,2.8,1.6,3.8,4.1,5.2.8.3,1.7.6,2.6,1,.8.3,1.7.6,2.5,1,5.7,1.7,11.4,2,17.3,2,1.2,0,2.5,0,3.8,0,5.1-.3,9.3-1.2,13.5-4.2,5.4-7.3,6-17.9,7.6-26.7,1.4-7.6,2.9-15.2,5.1-22.7.2-.7.4-1.3.6-2,1.4-4.4,3.2-8.5,5.1-12.7q1.7-4.1,1-8.2-1.5-2.1-3.2-4.2Z"/>
      <path fill='black' fixed='yes' d="M238.9,69.6c4,.6,5.4,1.5,8.1,4.4,3.6,6,5.1,10.9,5,18,.7,0,1.4.2,2.1.3,10.9,1.7,18.6,5.5,25.9,13.7l2,2c2.2-1.2,4.3-2.5,6.5-3.7.6-.4,1.3-.7,1.9-1.1,3.4-2,6.8-4,10.1-6.1,2.8-1.8,5-3.1,8.4-3.1q2.6.9,5,3c2.6,5.8,3.5,10.6,3.4,16.9,0,.8,0,1.6,0,2.4-.3,12.1-4.9,22.2-12.3,31.7.4.8.9,1.6,1.4,2.4,10,18.7,12.7,38.8,12.9,59.8,0,.9,0,1.7,0,2.6,0,5.1-.5,9.4-2.3,14.2-.7.3-1.3.7-2,1-3.8-1.3-5.7-3.8-8-7-5.3,5.3-3.3,26.1-3.4,33.6,0,11,2.3,22.6,9.4,31.4,4.5,3.7,8.8,3.4,14.3,3.2.8,0,1.7,0,2.5,0,2.1,0,4.1,0,6.2-.1q.6,1.9,1,4-1.2,1.9-2.9,3.8c-.6.6-1.1,1.2-1.7,1.9-.4.5-.9.9-1.3,1.4,23.7,3.6,47.2,4,69.5-5.5,1.2-.5,2.3-1,3.5-1.5.6-.3,1.3-.6,1.9-.8,5.2-2.1,9.7-2.6,15.2-2.5.8,0,1.6,0,2.5,0,7.4.2,14.3,1.4,21.4,3.4q.7-1.6,1.5-3.1c11.1-23.3,28.5-35.7,52.2-44.7,5.4-1.9,10.5-3.5,16.3-3.2q.9,2.1,1,5c-1.7,2.3-3.8,4.1-6,6,.8,0,1.6,0,2.4,0,21-.3,40,4.5,55.6,19,2.5,2.5,4,4.1,4.1,7.7,0,.8,0,1.5-.1,2.3h-8c.4.5.9,1,1.3,1.5,11.3,13.8,15.9,29.1,15.8,46.7,0,.8,0,1.6,0,2.4,0,3.4,0,6.1-1.1,9.3-4-.6-6.7-2.7-10-5q0,1.8,0,3.6c.3,20.6-2.2,43.8-12.1,62.4-1,.3-2,.7-3,1-2-3.3-3.6-6.4-5-10-8,14.8-14.9,32.9-11,50,2.5,7.6,6.7,12,13,16.8q2,2.2,2.5,5.3t-1.9,4.7c-9.9,7-19.6,8.3-31.6,7.2-9.8-1.9-17.2-7.6-22.9-15.7-1.8-3-3.5-6.1-5.1-9.3-3,20-4.3,39.4-1.5,59.5,1.1,8.4,1.3,15.8-2.5,23.5-1.3,1.4-2.6,2.7-4,4,.2.7.4,1.4.6,2.1q5.2,18.1,1.4,25.9c-6.2,8-17.3,10.3-26.8,11.7-9.2.9-18.7,1.4-27.2-2.7-3.3-2.8-3.9-4.3-4.6-8.6.5-9.4,6.1-18.1,11.6-25.4-.4-.5-.8-1-1.3-1.5-.5-.6-1.1-1.3-1.7-1.9-.5-.6-1.1-1.3-1.7-1.9-2.4-2.9-2.4-3.7-2.4-7.7.8-6.4,4.4-10.9,8-16.1,4.2-6.7,5.2-11.7,5.2-19.6,0-.9,0-1.7,0-2.6-.2-17-1.5-34.1-4.2-50.8q-1,0-2.1-.2c-3.1-.2-6.3-.5-9.4-.7-1.1,0-2.1-.2-3.2-.2-6.3-.5-12.2-1.4-18.3-2.9-.2.6-.4,1.1-.6,1.7-1.2,3.7-2.5,7.4-3.8,11.1-4.3,12.4-6.8,25.2-9.1,38.1-.1.7-.3,1.5-.4,2.3-.3,1.4-.5,2.8-.7,4.2-1.1,5.7-3.1,10.6-7.5,14.6q-1.9,1.1-3.9,1.1c.3,1,.7,2,1,3,.1,2.9.2,5.8.2,8.8q0,1.2,0,2.4c0,6.4-1.1,11-5.1,16.2-6.3,4.7-14.1,4-21.6,4q-1.6,0-3.3,0c-9.4,0-17.9-1.4-25.4-7.4-1.5-3.1-1.6-5.7-1-9,3-7.8,7.2-14.1,13-20-.3-.7-.6-1.4-.9-2.1-1.7-4.8-2.5-8.4-1.1-13.4,1.8-3.6,4.3-6.4,7-9.4.7-.7,1.3-1.4,2-2.2q.7-.7,1.4-1.5c4.4-4.7,6.6-9.5,8.7-15.5.3-.9.7-1.8,1-2.8,2.8-7.6,5-15.3,6.8-23.2-.7,0-1.5,0-2.2-.1-3.3-.2-6.6-.4-9.9-.6q-1.7,0-3.5-.2c-6.3-.4-10.7-.8-15.4-5.1-1.8-2.7-2-3.7-2-7-1.2.3-2.4.7-3.7,1-3.2.9-6,1.1-9.3,1,.3,1,.7,1.9,1.1,2.9.5,1.3.9,2.5,1.4,3.8.2.6.5,1.3.7,1.9,4.5,12.5,3.3,22.8-.3,35.3-.3,1.1-.6,2.2-1,3.3-.6,2.2-1.3,4.4-1.9,6.6q-.5,1.6-.9,3.2c-.3.9-.5,1.9-.8,2.8-4.1,14.5-4.6,28.3-4.2,43.3q0,1.1,0,2.2c0,2,.1,4,.2,6-.4,5-1.7,8.9-5.1,12.7q-1.5,2-.6,4.8c.4,1.1.8,2.1,1.2,3.2,2.3,6.8,3.8,12.9,1,19.8-7.1,8.3-18.3,11.2-28.8,12.1-3.7.2-7.5.3-11.2.4q-1.4,0-2.8,0c-6.4,0-10.5-1.1-16-4.5-1.7-3.3-1.6-6.4-1-10,2.5-6.7,6.1-12.2,10.6-17.7q2.8-3.4,3.2-7.6c-.6-1.5-1.2-3-1.9-4.4-2-5.5.3-11.3,2.5-16.4q.8-1.6,1.6-3.2c12.2-25.4,6.9-56.6.7-82.9-.4-1.8-.8-3.5-1.2-5.3q-1.6-8.4-6.4-15.1c-2.6-1.1-5.3-1.7-8-2.4-2.7-1-5.4-2.2-8-3.4-.7-.3-1.4-.6-2.1-.9-9.5-4.2-21-9.8-26.9-18.7q-2.9-1-6.3-1.6-1.9-.4-3.9-.8c-1.4-.3-2.7-.5-4.1-.8-1.3-.3-2.7-.5-4-.8-5.6-1.1-11.1-2.2-16.7-3.1.3,2.1.6,4.2.9,6.2.2,1.2.3,2.3.5,3.5q.7,3.9,2.6,7.2,2.3,1,4.9,1.6c3.6.8,5.8,1.5,8.1,4.4v2c1.1-.3,2.2-.7,3.4-1,6.2-1.5,12-2.1,18,.4,8.8,8.8,8.8,23.1,8.9,34.7,0,.9,0,1.8,0,2.8,0,6.3-.6,12.5-3.4,18.1-2.6,2.4-3.7,3-7.3,3.4-10.1-1-19-8-26.5-14.5q-2.3-2-5.2-3.9c-1.7.7-3.3,1.3-5,2-6.3,1.2-10.6-1.4-15.8-4.7-8.6-6.2-17-13.9-19.8-24.4-.6-4.3-.7-8.5-.8-12.8-.6-15.8-2.6-31.3-6.4-46.6-1.2-5.3-1.5-10.1-.2-15.4,3.3-4.6,6.5-6,12-7,17.1-1.6,35.5,2.6,52,7,.1-.8.2-1.6.3-2.5,1.2-8.8,2.8-17.5,4.7-26.2,4.5-21.7,7.4-43.2,8-65.4-1.1,0-2.3,0-3.5.1-5.4,0-10.2-1.4-15.4-2.8-4.4-1.1-7.7-1.7-12.2-.3q-2.3,1.4-4.3,3.3c-9.4,7.7-18.7,9.5-30.7,8.7-2.6-.6-5-1.4-7.5-2.3-3-.8-5.7-1-8.8-1.2-5.2-.4-8.1-.8-11.8-4.6q-.1-1.7-.2-3.4-.3-3.6-2.9-5c-1.8-.8-3.6-1.6-5.4-2.4-2.4-1.1-3.8-2-5.4-4.1q-.6-3.4,0-7c1-.7,2-1.4,3-2.2,2-1.6,2.9-2.3,3.4-4.8,0-2.4-.1-4.7-.3-7.1-.4-9.9.8-17.3,7-25.2,6.3-6.5,14.7-9.1,23.1-11.7q5.8-1.6,9.4-6c.4-5-1-6.4-4-10.3-6.4-9.6-8.7-21.2-7.7-32.6.8-2.9,1.8-5.8,4-8-.9,0-1.9-.2-2.9-.3-11.2-1.2-21-3.9-30.1-10.7.3-1.3.7-2.6,1-4,1,0,2,0,3,.1,16.9.4,29-4.2,44.2-11.4q13.6-6.4,20.8-7.7c-.4-.4-.7-.9-1.1-1.3-4.5-5.7-8.3-11.9-10.9-18.7.3-1,.7-2,1-3,3.8.8,7.2,2.3,10.8,3.8,14.4,5.9,29.3,8.9,44.8,9.9q2.4.2,4.4,1.2c.3-1.2.5-2.4.8-3.6.3-1.6.7-3.1,1-4.7.2-.8.3-1.6.5-2.4.2-.8.3-1.5.5-2.3q.2-1,.5-2.1c1.3-3.5,2.9-4.8,6.6-5.3ZM239,73c-3.6,2.7-3.9,5.9-4.7,10.2-.3,1.3-.5,2.5-.8,3.9-.2,1-.4,2-.6,3,4,.6,7.9,1.1,11.9,1.1q1.2,0,2.3,0,.9,0,1.7,0c-1.2-6.9-2.7-12.2-8.2-16.9-.6-.4-1.2-.7-1.8-1.1ZM175,82c2,7.3,8.2,12.6,14,17q.5,1,1,2-1.4,0-2.7.2c-9.6.9-17.1,3.5-25.7,7.7-11.2,5.5-22.1,10.2-34.6,12.1-1.1.2-2.3.4-3.4.6-.8.1-1.7.3-2.6.4,8.7,5.8,18.7,6.1,28.9,4.5,2-.4,4.1-1,6.1-1.5-1.4,4.2-4.3,5.6-7.9,8.1-3.1,2.8-3.9,5.4-4.5,9.6-.2,11.1,2.7,22.3,9.3,31.3,1,.7,2,1.3,3,2,.5-.9.9-1.7,1.4-2.6,7.5-13.6,16-26.4,29.1-35.2,2.4-1.9,3.8-4.6,5.5-7.2,6-6.4,11.7-9.6,20.4-10.3,5.9-.2,10.2,0,15.6,2.5,7,2.8,17.8,4.4,24.8,1.6q2.3-1.7,4.4-3.7c3.8-3,7.9-4.7,12.3-6.6.8-.4,1.6-.7,2.5-1.1,2-.8,3.9-1.7,5.9-2.5-4.9-7.9-11.1-12.1-20.1-14.4-10.1-2.2-20.4-3-30.6-3.8-16.6-1.4-32.1-3.8-47.7-9.8q-2.5-1.1-4.6-1ZM304.2,99.2c-1.1.7-2.2,1.4-3.3,2-1.3.8-2.5,1.5-3.8,2.3-.7.4-1.3.8-2,1.2-3.8,2.2-7.6,4.2-11.5,6.3-.8.4-1.6.8-2.4,1.3-4.6,2.4-9.2,4.7-13.8,7-9.1,4.4-20.6,10.2-25.4,19.8-1,.3-2,.7-3,1,1.5-4.1,3.5-7.4,6-11-3.3-.3-6.6-.7-10-1q.5,1.5,1,3,.4,6.9-.9,10.4c-4,3.2-9.2,3.5-14.2,3.9-8.2.8-14.3,3-21.4,7.1-3.2,1.8-5.2,2.7-8.8,2.5q-2.7-.9-4.7-2.9c-.6-2.7-.7-5.3-1-8-11.7,6.8-18.1,19-24.5,30.4-.4.8-.9,1.5-1.3,2.3-.8,1.5-1.7,3-2.5,4.4-5.2,9.2-12.3,11.7-22.1,14.4-6.5,2-11.3,5-15.2,10.6-.3.6-.6,1.3-.9,1.9-.3.6-.6,1.3-.9,1.9-1.5,3.9-1.8,7.2-1.8,11.4,0,1,0,2,0,3.1,0,1.1,0,2.1,0,3.2,0,1.1,0,2.2,0,3.3,0,2.7,0,5.3,0,8q-1.5.4-2.9.8-1.5.6-3.1,1.2c-.3,1-.7,2-1,3,3.5,4.5,7.6,6,13,7,15.5,1.3,29.3-1.5,41.7-11.1,5-4.3,9.6-8.8,12.3-14.9v-3c-2.6.3-5.3.7-8,1-.3-1-.7-2-1-3,2.1,0,4.2-.1,6.3-.2,1.2,0,2.3,0,3.6-.1q3.1.3,5,1.5c1.4,2.2,1.6,3.9,1.8,6.5,0,.8.1,1.6.2,2.4,0,.6,0,1.2.1,1.9h-2c-.3-2-.7-4-1-6h-2c-1.1,1.5-2.1,3-3.1,4.5-9.1,13.3-20.5,20.1-36.4,23-5.5.8-11,1.2-16.5,1.5q.6,3.9,3,7,2.6.4,5.5.4c4.1.3,7.6.8,11.4,2.1,8.8,2.9,17.8,2.3,26.4-1.1,4.1-2.1,7.6-4.8,11.2-7.7,3.5-2.4,6.1-2.9,10.2-2.4,1,.2,1.9.4,2.9.7,1.1.2,2.2.5,3.3.7,1.1.2,2.2.5,3.4.7,13.1,2.9,25.4,4.4,37.4-3.1,4.2-3,7.4-6.7,10.6-10.6q.8-.9,1.6-1.8h2c-1.2,3.4-2.4,5.5-5,8v2q-.8.4-1.7.8c-2.5,1.3-4.8,2.7-7.2,4.2-5.3,3.2-9.7,4.9-15.8,5.5-.8,0-1.6.2-2.5.3q-.9,0-1.9.2c0,.8,0,1.6-.1,2.4-1.1,22.7-4,44.6-8.6,66.8-.1.7-.3,1.3-.4,2-.7,3.2-1.3,6.5-2,9.7-2.1,10.1-3,19.3.1,29.2.2.7.4,1.4.7,2.2,6.3,19.3,14,29.9,32.3,39.3q8.8,4.4,18.1,7.4c.7-.3,1.3-.7,2-1-2.2-6.4-5.1-10.4-10-15-6.7-6.7-10.1-14-10.2-23.5,0-1.5,0-3,.1-4.6h2c0,.9.1,1.8.2,2.7,1,9.2,2.7,15.9,9.9,22.1,8.7,7.5,11.4,17.5,14.9,28.2.3.9.6,1.7.9,2.6,6.3,19.6,9.5,39,9.6,59.5q0,1,0,2.1c0,12.7-1.4,24.7-7.1,36.1-3.1,6.6-5.4,12.2-3.8,19.6,1.8,2.9,3.3,3.7,6.4,5.1,3.2.4,6.4.4,9.7.4.9,0,1.8,0,2.7,0,7.8-.2,14.4-.7,20.6-5.8,3.8-4.8,4.2-7.7,4.1-13.9,0-1.5,0-3,0-4.4,0-.8,0-1.5,0-2.3-.3-17,1.3-31.6,6.1-47.9.4-1.2.7-2.5,1.1-3.7.7-2.4,1.5-4.8,2.2-7.2,3.2-10.6,4.2-20.4.4-30.9-.5-1.4-.9-2.7-1.4-4.1-.2-.7-.5-1.4-.7-2.1-6.7-20.4-11.1-43.7-7.7-65,1,.3,2,.7,3,1-.2,1-.3,2.1-.5,3.1-2.3,17.3.7,36.5,6.5,52.9,20.9-3.8,41-8.8,60.9-16.3.9-.3,1.8-.7,2.7-1,.8-.3,1.6-.6,2.5-1,.7-.3,1.4-.6,2.2-.8q1.9-.7,2.7-2.9c-1.2-3.9-2.8-7.6-4.3-11.3-.8-1.9-1.5-3.7-2.2-5.6q-4.4-11.1-13.4-18.6c-.7-.2-1.4-.4-2.1-.6.3-1,.7-2,1-3,5.3,1.4,8.7,4.8,12,9,2.1,4.1,3.8,8.3,5.4,12.6.9,2.4,1.9,4.8,2.8,7.2.5,1.2.9,2.4,1.4,3.7,2,5.2,4.1,10.5,6.2,15.7.3.9.7,1.7,1,2.6q4.6,12.2,14.1,20.2c4.6,1,9.3,1.5,14,2,2.2.2,4.4.5,6.5.7,1.4.2,2.8.3,4.2.5,3.5.4,5.3.8,8.2,2.8,3.4,10,3.5,21.1,4.2,31.6q.1,1.9.3,3.9,1.8,31.3-8.3,45.4c-2.8,4-4,7.2-4.1,12.1,1.9,4.5,6,7.4,10.3,9.4,9.4,3.3,21.7,3.2,30.7-1.1,5.1-3.3,8.1-7.6,10-13.3.7-6.7-.1-13.3-1-19.9-2.9-23,.3-45.7,3.7-68.5q1.9-10.8,1.3-21.6c-3.3-3.3-7.2-4-11.7-5-3.2-1.4-3.9-2.9-5.3-6-1.2-7.8.3-15.8,1.5-23.6,3.4-23.5,3.4-52.2-9.7-73-7.9-10.3-22.4-14.5-34.8-16.4-13.1-1.4-22.8.4-34.6,6-27.1,12.8-66.7,6.8-94.1-2.2q-14.4-5.3-18.3-12.8c-5.7-17.9-5.1-40.1,0-58,5.3-20.7,9-46.9-1-67q-.9.1-1.9.2c-11.4,1.2-22.7,1.1-34.1-.2v-3h2c.2-.7.4-1.4.6-2.1,3.3-10.7,9.3-17.7,19.1-23,7.3-3.7,14.9-6.7,22.5-9.6,8.2-3.2,16.1-7.7,20.8-15.3-.4-3.7-.8-6-3.7-8.4q-2.4-.9-5.1.6ZM313,112c-.7.7-1.4,1.4-2.1,2.2-5.9,6-13.5,9.1-21.2,12.2-1.9.8-3.7,1.6-5.6,2.4q-1.3.6-2.7,1.1c-10.6,4.5-20.9,9.1-25.8,20.2-.8,2.3-1.4,4.5-1.7,6.9,11.5,3.6,26.6,1,37.2-3.7,11.1-6.2,17.5-15.9,21.2-28,1-4.4,1.3-8.9,1.5-13.3h-1ZM194.1,132.8c-3.2,4-5.4,8.1-6.1,13.2q.6,3.5,2,6c3.9-.3,6.5-1.2,9.7-3.4,8.1-5.3,17.7-6.1,27.1-7.1q3.3-.3,6.2-2.5c.7-4.5.4-6.5-2.2-10.3-5.2-4.9-10.1-5.1-17-5.1-8.3.3-14.1,3.3-19.7,9.2ZM295.1,153.9c-.9.5-1.8,1.1-2.7,1.6-1.8,1.1-3.6,2.3-5.4,3.5.3,1,.6,2,.8,3.1.4,1.4.7,2.7,1.1,4.1.2.7.4,1.3.6,2,4.9,18.1,4.1,38.5-.9,56.5-2.8,10.4-4.1,20.1-4,30.8,0,1.2,0,2.4,0,3.6q0,14.9,5.4,28.4c9.1,7.4,23.3,12.2,35,11.4q3.4-1.8,6-4v-1c-1.2-.1-2.4-.2-3.6-.4-1.6-.2-3.1-.3-4.7-.5-.8,0-1.6-.2-2.4-.2q-7.7-.9-10.4-2.9-1.1-1.7-2-4c-.5-1-.9-1.9-1.4-2.9-8.6-17.8-6.9-34.8-5.1-53.9,0-.7.1-1.4.2-2.2q1.2-13.1,2.4-17h2q.6,1.2,1.2,2.4c.5,1,1.1,2,1.6,3.1.5,1,1.1,2,1.6,3.1q1.3,2.6,3.5,3.5c7-13.9-.3-41.7-4.9-55.9-1.8-5.4-4.1-10.2-7.1-15.1-2.9,0-4.5,1.4-6.9,2.9ZM505.7,246.9c-1.4.5-2.8,1-4.2,1.5q-1.1.4-2.3.8c-21,7.8-37.9,19.3-48,39.7q-1.2,2.9-1.2,5.3c1.7,2.9,4.3,3.7,7.3,5.1,6.8,3.4,11.3,6.8,14.1,14q1.4,2.8,3.7,3.4c1.6.3,3.2.6,4.8.9,2.6.5,4.2,1.7,6.2,3.4h2c.7,1.3,1.3,2.7,2,4,.5,1,1,1.9,1.6,2.9,5.7,13.9.5,30.6-3.1,44.4-.5,2.6-.3,4.1.5,6.6,2.3-1,4.6-2,7-3-.3,1-.5,2-.8,3.1-2,8-3.7,16-4.8,24.2-.1.8-.2,1.6-.4,2.4-.3,2.2-.4,4.1,0,6.3q2.4,2.7,5,5,.5,2.6.4,5.3c0,1.1,0,2.1-.1,3.2-.2,2.4-.5,4.9-.8,7.3-1.5,11.8,1.8,20.3,8.7,29.9,2.6,3.3,5.2,5.6,8.9,7.6.8.5,1.7,1,2.5,1.5,7.3,3.6,16.9,3.2,24.7,1.5,5.5-1.8,8.3-3.5,11.7-8.3-.7-.6-1.5-1.2-2.2-1.8q-13-11.1-14-20.4c-1.4-19.7,3.2-40.7,15.3-56.8h2c1,3.3,2,6.6,3,10q2.4-.9,3.4-4.6c7-21.1,10.3-41.6,4.6-63.4,3.5,1.2,6,2.6,8.7,5.1q2.3,2.3,5.3,2.9c.9-18.2-2.2-35.4-14.6-49.5-2.9-3.1-6-6-9.4-8.5h-2c.3-.7.7-1.3,1-2,5,.3,9.9.7,15,1-3.4-4.2-6.1-6.8-10.5-9.6-.6-.4-1.2-.8-1.9-1.2-17.1-10.5-36.3-10-55.6-8.3v-2c2-1.6,3.9-3.1,6-4.6.6-.4,1.1-.8,1.7-1.3,1.4-1,2.8-2.1,4.3-3.1q-2.2-1.4-5.3-.1ZM475,320c.3.9.5,1.9.8,2.9,5.7,21.1,6.3,41.3,3.3,62.9q-2.3,12.6.9,24.3,3.1.7,6,1c1.2-2.3,1.4-4.2,1.7-6.8q.2-1.4.4-2.9c.1-1,.3-2,.4-3.1.3-2,.5-4,.8-6,.1-.9.2-1.8.3-2.7.4-2.5.8-5,1.4-7.6h-6c-.3-6.7.8-12.6,2.4-19.1q4.3-17.5.6-34.9c-2.2-3.6-4.9-6.7-9-8h-4ZM141.1,355.9c-2.6,7,0,15.3,1.6,22.3,2.9,12.6,4,25,4.5,37.9.6,14,3.4,21.1,13.7,30.9,5.1,4.4,9.9,8,16.9,8.3,4.5-.5,7.5-2.3,10.3-5.8,5.2-8.9,7.3-22.3,5.8-32.5-2.3-2.3-3.2-2.3-6.4-2.8-3.4-.7-4.5-1-7.1-3.4-3.5-6.2-4.6-12.6-3.6-19.8,8.1-5.4,24.1.8,33.2,2.6q.9.2,1.8.4c-1.5-4.5-3-9-4.5-13.5-.5-1.5-1-3-1.5-4.5-.3-.8-.5-1.5-.8-2.3-1.6-4.8-3-9.7-4.2-14.7q-31.1-9.4-59.9-3.1ZM382.5,409.6c-14.7,6.1-30.1,10.2-45.5,14.4.5,3.7,1,5.7,4,8q2.4.6,5.1.7,1.5.1,3,.2c1,0,2.1.1,3.2.2,2.1.1,4.1.3,6.2.4.9,0,1.8.1,2.8.2,2.6.2,5.1.7,7.6,1.2-.2,9.5-2.9,18.1-6,27-.4,1.2-.8,2.4-1.2,3.6-3.3,9.2-7.1,15.3-14.8,21.4-3.4,4.2-4.8,7.5-5,13,.9,2.8,1.6,3.8,4.1,5.2.8.3,1.7.6,2.6,1,.8.3,1.7.6,2.5,1,5.7,1.7,11.4,2,17.3,2,1.2,0,2.5,0,3.8,0,5.1-.3,9.3-1.2,13.5-4.2,5.4-7.3,6-17.9,7.6-26.7,1.4-7.6,2.9-15.2,5.1-22.7.2-.7.4-1.3.6-2,1.4-4.4,3.2-8.5,5.1-12.7q1.7-4.1,1-8.2-1.5-2.1-3.2-4.2c-2.6-3.4-4.1-7-5.8-11-.3-.7-.6-1.4-.9-2.1-1.2-2.8-2.3-5.6-3.3-8.5-3.7,0-6.1,1.2-9.5,2.6ZM198,421c-.2,1.2-.4,2.4-.6,3.6q-3.5,22.3-8.4,28.4c1.5,4.4,5,6.5,8.6,9,.6.4,1.3.9,1.9,1.3q7.8,5.4,16.8,8.2,2.9-.3,4.5-2.8c5.5-12.7,2.9-29.7-.5-42.7-1.3-3.3-2.4-5-5.3-7.1q-2.3-.6-4.8-.4-1.2,0-2.5,0c-3.4.4-6.5,1.3-9.7,2.3ZM345,509c-5.9,6.1-12.4,13.4-13.3,22.1q.1,2.8,1.6,4.6c9.3,6.5,24.7,6,35.5,4.6,4.9-1,7.3-2.3,10.2-6.4.9-2.8,1.1-4.5,1.1-7.4,0-.8,0-1.7,0-2.6,0-.9,0-1.8,0-2.7,0-.9,0-1.8,0-2.7,0-2.2,0-4.4,0-6.6q-1.6,0-3.3,0c-10.9.2-21-.9-31.7-3.1ZM478.3,543.9c-10.8,5.2-24,4.2-35.3,1.1q-8.4,12.5-10,27c6.7,5.8,16.7,4.5,25,4,8.4-1.1,17.1-2.9,24-8,3.3-4.8,3.3-8.9,2.5-14.5-.8-3.7-2-7-3.5-10.5q-1.2,0-2.7.9ZM300.8,554.9c-6,2.3-12.1,2.2-18.4,2.2-.8,0-1.7,0-2.6,0q-1.2,0-2.5,0c-.7,0-1.5,0-2.2,0-2.1-.1-4-.5-6.1-1.1-6.3,7.2-13,15.4-14.5,25.2q.2,3,2.6,4.7c12.4,5.1,29.2,1.7,41.4-2.8,3.2-1.4,5.8-2.8,8.5-5.1,2.8-8.5,0-15.9-3-24q-1.2,0-3.2.9Z"/>
      <path class="cls-1" fill='black' fixed='yes' d="M232.3,153.8c6.7,4.7,11,11.2,13.2,19,1.1,6.5,2.5,17.3-.5,23.2h3v3c-.7,0-1.3.1-2,.2q-21.2,2-41.6,7.9-2.3.9-6.3.9c.2-.7.4-1.4.6-2.2.5-3.4-.2-5.2-1.5-8.3-4-9.9-5.3-22.4-1.2-32.6,3.8-7.2,9.2-11.2,16.9-13.5,6.8-1.4,13.3-1.1,19.4,2.4ZM207,158v1q1.1,0,2.3,0c7.7.3,13.1,1.5,18.7,7,3.5,5,6.1,10,6.1,16.2,0,.8,0,1.6,0,2.4,0,.8,0,1.7,0,2.5,0,.8,0,1.7,0,2.6,0,2.1,0,4.2,0,6.3h7c2.9-8.7,1.9-20.4-1.7-28.7-3.1-5.7-6.9-10.3-13.3-12.3-7.1-.8-12.6,0-19,3Z"/>
      <path fixed='yes' class="cls-10" d="M214,164c3.5,2.1,5.8,4.1,7,8,.7,5,.6,7.8-2.5,11.9-2.9,3-5.4,4.2-9.5,4.3-3.4-.5-5.4-2-8-4.3-2.6-4.2-2.6-8.2-2-13,3.1-7,7.9-8,15-7Z"/>
      <path fill='black' fixed='yes' d="M136.3,207.7q3.7.3,5.9,1.9c3.4,4.5,2.5,10,1.8,15.4-1.4,3.8-3.6,5.7-7,8-3.6,0-5.3-.3-7.9-2.9-1.9-5.1-2.1-10.3-.3-15.5q3.2-6.5,7.4-6.9Z"/>
      <path fill='black' fixed='yes' d="M145,200c3.6,3.3,4.5,6.1,5,11h-4c-.4-1.1-.7-2.3-1.1-3.4q-.8-1.9-1.9-3.6c-4-1.3-6-1.4-9.9.3q-2.2,1.5-3.1,3.7l-4-1c1.5-3.8,3.7-5.7,7-8,4.3-1.5,7.8-.7,12,1Z"/>
    </g>
  </g>
</svg>