<?xml version="1.0" standalone="no"?>
<!DOCTYPE svg PUBLIC "-//W3C//DTD SVG 20010904//EN"
 "http://www.w3.org/TR/2001/REC-SVG-20010904/DTD/svg10.dtd">
<svg version="1.0" xmlns="http://www.w3.org/2000/svg"
 viewBox="0 0 655.000000 655.000000"
 preserveAspectRatio="xMidYMid meet">

<g transform="translate(0.000000,655.000000) scale(0.100000,-0.100000)"
fill="#000000" stroke="none">
<path d="M2962 5859 c-65 -11 -177 -55 -249 -97 l-53 -31 0 29 c0 38 -36 64
-75 54 -53 -13 -182 -108 -272 -201 -88 -89 -93 -93 -93 -65 0 31 -33 82 -54
82 -27 0 -46 -39 -70 -140 -27 -112 -53 -193 -81 -250 -14 -29 -33 -43 -118
-84 -88 -43 -114 -62 -193 -140 -70 -71 -100 -110 -133 -174 -125 -243 -124
-592 2 -790 27 -41 78 -82 105 -82 28 0 59 48 76 115 10 39 25 85 35 104 l18
34 28 -61 c59 -131 212 -222 372 -222 l35 0 -49 -54 c-117 -128 -195 -375
-160 -506 13 -50 37 -62 66 -36 17 16 19 14 25 -44 17 -148 81 -315 151 -397
40 -47 79 -57 90 -24 5 17 11 14 48 -26 23 -25 63 -58 90 -73 45 -25 52 -35
81 -108 18 -44 49 -108 70 -142 20 -35 35 -64 34 -65 -2 -1 -35 -16 -75 -33
l-72 -30 -75 33 c-40 17 -107 51 -148 74 -40 23 -114 62 -165 87 -58 28 -94
52 -98 65 -11 33 -74 66 -190 99 -148 42 -245 82 -332 136 -131 82 -160 136
-183 343 -6 57 -16 115 -21 129 -9 23 -7 29 18 46 15 11 48 41 73 67 167 172
158 460 -18 651 -54 58 -133 118 -156 118 -7 0 -11 -42 -11 -117 0 -106 -3
-129 -33 -221 l-33 -103 -41 36 c-43 39 -123 80 -176 91 l-32 7 0 -55 c0 -113
59 -278 123 -345 35 -37 27 -42 -20 -13 -38 23 -52 46 -73 125 -19 74 -37 77
-70 10 -36 -73 -35 -173 3 -237 15 -26 46 -63 70 -82 105 -88 96 -72 88 -161
-9 -112 3 -203 33 -262 31 -62 94 -119 261 -238 72 -51 147 -111 169 -133 l39
-40 -81 -41 c-45 -23 -84 -41 -87 -41 -3 0 -5 11 -5 24 0 39 -16 72 -56 116
-41 46 -118 95 -133 86 -16 -10 -24 -91 -13 -141 l10 -46 -42 8 c-22 4 -135 7
-249 5 -190 -2 -244 2 -304 25 -46 18 35 -126 111 -195 120 -111 267 -134 468
-76 15 5 14 -2 -7 -48 -31 -67 -33 -118 -5 -118 11 0 53 22 95 49 149 98 320
143 543 145 138 1 128 6 182 -84 32 -52 115 -94 220 -110 126 -18 117 -12 123
-79 9 -107 69 -178 164 -196 22 -4 50 -23 81 -55 81 -83 202 -102 296 -46 23
14 50 38 61 55 11 17 24 31 28 31 4 0 45 -25 90 -56 153 -106 234 -130 406
-120 64 3 130 9 147 12 30 6 32 4 39 -33 14 -77 95 -305 136 -383 23 -44 55
-91 71 -105 62 -52 127 -17 136 75 2 27 7 50 11 50 3 0 22 -24 41 -52 50 -75
211 -239 296 -303 221 -167 443 -224 555 -145 15 11 37 41 50 67 30 61 30 192
0 307 -12 44 -21 81 -21 83 0 3 20 -13 44 -34 55 -49 113 -68 150 -51 33 14
40 42 33 124 -2 35 -3 64 -1 64 1 0 29 -21 61 -48 32 -26 66 -53 75 -60 15
-12 22 -10 50 21 42 44 74 52 273 71 239 23 313 50 362 133 22 38 26 57 26
117 0 88 -27 147 -107 233 l-54 59 54 64 c68 81 82 126 59 187 -21 54 -66 89
-145 114 -74 23 -133 28 -380 34 -175 4 -205 7 -290 31 -87 25 -111 28 -283
30 l-188 1 -71 99 c-39 55 -81 112 -95 128 -13 16 -22 30 -19 33 2 2 38 -3 79
-11 262 -54 494 -41 638 35 66 36 94 69 85 105 -10 38 -42 60 -124 83 -70 20
-222 87 -222 98 0 2 5 13 11 24 13 25 -3 79 -31 104 -18 17 -18 17 7 39 20 17
25 29 20 47 -8 32 -29 53 -156 158 -114 95 -194 181 -167 181 8 0 27 10 42 23
23 20 26 28 20 60 -14 73 -142 233 -361 452 -187 187 -350 299 -510 352 -64
21 -100 26 -179 26 l-99 1 7 120 c3 67 13 164 21 216 8 52 15 128 15 168 0 71
0 72 24 66 35 -8 56 19 56 73 0 59 -50 163 -125 261 -54 70 -55 72 -30 72 44
0 65 17 65 53 0 63 -88 162 -194 218 l-60 33 56 11 c65 13 88 28 88 61 0 52
-125 103 -273 111 -93 6 -97 7 -81 24 22 24 11 65 -18 73 -26 7 -25 7 -96 -5z
m102 -28 c8 -12 -13 -34 -59 -65 -22 -14 -35 -27 -30 -27 6 -1 64 -1 130 0 98
2 132 -1 187 -19 75 -23 130 -62 112 -79 -7 -8 -153 -41 -181 -41 -2 0 -3 -5
-3 -10 0 -6 12 -15 28 -21 114 -43 214 -120 253 -194 24 -46 24 -46 4 -61 -14
-11 -32 -13 -62 -9 -24 3 -43 3 -43 0 0 -4 29 -43 65 -88 85 -107 136 -205
138 -265 2 -44 0 -47 -23 -46 -14 0 -31 3 -38 5 -9 3 -13 -22 -16 -101 -3 -58
-12 -148 -20 -200 -9 -52 -16 -146 -16 -207 l0 -113 -48 -24 c-95 -48 -152
-145 -167 -286 -13 -114 -68 -220 -114 -220 -27 0 -54 25 -66 61 -7 19 -16 33
-21 32 -5 -1 -19 -36 -31 -79 -46 -157 -106 -254 -158 -254 -60 0 -91 43 -102
140 -3 33 -9 60 -12 60 -4 0 -23 -32 -41 -71 -61 -125 -129 -170 -176 -118
-17 19 -19 38 -19 170 0 82 -1 149 -4 149 -2 0 -21 -16 -42 -35 -22 -19 -46
-35 -54 -35 -26 0 -37 49 -30 127 6 70 7 72 52 107 77 60 133 151 157 254 14
63 11 62 96 38 65 -18 177 -21 252 -5 155 33 290 153 313 281 6 34 9 37 34 32
42 -9 56 35 56 171 -1 121 -21 213 -73 328 l-29 63 22 16 c47 36 35 96 -31
163 -72 72 -198 125 -296 125 -35 0 -38 2 -28 19 51 96 -72 97 -254 4 -138
-71 -270 -211 -322 -341 -1 -1 -16 11 -33 27 -18 17 -48 33 -67 37 -40 7 -180
0 -206 -11 -15 -6 -14 2 8 55 22 54 39 114 85 293 19 74 63 27 57 -62 -1 -25
2 -46 7 -48 6 -1 25 20 44 47 76 113 296 290 358 290 19 0 23 -5 23 -29 0 -16
-4 -41 -10 -55 -13 -36 4 -34 69 10 65 44 163 90 234 109 59 16 133 19 141 6z
m-149 -290 c3 -6 -8 -25 -25 -44 -16 -19 -27 -37 -23 -41 3 -3 39 -6 79 -6
133 0 260 -60 320 -150 32 -48 27 -86 -11 -96 -14 -3 -25 -10 -25 -14 0 -4 16
-42 36 -84 51 -112 74 -211 74 -327 0 -54 -5 -110 -11 -126 l-11 -28 -23 30
c-27 32 -29 29 -39 -43 -25 -176 -198 -297 -421 -295 -239 2 -404 148 -476
420 -25 93 -29 242 -10 323 38 160 143 301 293 394 115 71 255 115 273 87z
m-656 -344 c19 -7 43 -24 54 -39 19 -25 19 -32 7 -117 -24 -170 -2 -311 74
-466 44 -88 113 -170 185 -216 25 -15 25 -17 12 -75 -16 -71 -60 -160 -102
-208 -17 -20 -60 -50 -95 -67 -56 -28 -78 -33 -162 -37 -81 -3 -107 -1 -161
18 -77 26 -138 66 -176 115 -32 42 -68 131 -60 146 12 19 69 41 158 60 145 32
200 75 222 176 6 30 9 32 28 22 12 -6 36 -25 53 -41 24 -22 34 -26 40 -17 11
18 -60 77 -109 90 -22 6 -56 8 -75 4 -41 -8 -102 -36 -102 -47 0 -12 13 -10
53 7 20 8 48 15 63 15 25 0 26 -2 21 -37 -13 -78 -71 -120 -200 -148 -172 -37
-213 -73 -252 -226 -30 -115 -57 -134 -112 -76 -40 42 -67 97 -95 194 -31 109
-31 321 0 437 44 159 128 293 240 381 156 123 378 192 491 152z m1476 -932
c140 -36 321 -147 473 -291 49 -46 97 -99 106 -119 18 -38 14 -70 -9 -78 -15
-7 -84 10 -102 25 -24 19 -23 -13 2 -51 36 -53 57 -125 45 -155 -11 -31 -48
-56 -80 -56 -14 0 -45 12 -69 25 -24 14 -46 23 -48 21 -3 -3 2 -26 11 -53 35
-106 29 -200 -14 -223 -53 -28 -120 2 -208 94 -35 36 -67 66 -72 66 -4 0 -10
-30 -12 -66 -4 -58 -8 -70 -32 -90 -74 -65 -163 3 -253 192 l-47 99 -6 -45
c-6 -52 -16 -70 -35 -70 -49 0 -88 158 -88 365 -1 137 13 217 53 294 55 108
221 158 385 116z m-2402 -100 c111 -90 178 -231 179 -376 1 -135 -49 -244
-154 -332 l-48 -40 -47 25 c-65 33 -85 76 -91 193 -3 83 -1 99 36 215 51 158
66 235 60 305 -3 30 -1 55 3 55 4 0 32 -20 62 -45z m1052 -217 c-4 -13 -18
-50 -32 -83 -69 -167 -84 -210 -92 -267 -11 -82 1 -128 34 -128 13 0 27 5 30
10 31 51 10 -87 -22 -141 -9 -15 -29 -33 -45 -40 -40 -16 -70 7 -99 75 -12 31
-26 56 -31 56 -5 0 -16 -16 -25 -35 -58 -121 -72 90 -17 254 60 178 181 311
292 320 9 1 11 -6 7 -21z m-1350 -68 c23 -11 56 -36 75 -55 l35 -36 0 -112 c1
-77 6 -125 17 -154 9 -24 13 -43 9 -43 -4 0 -28 13 -53 29 -80 51 -136 153
-164 299 -20 103 -19 105 14 97 15 -3 45 -15 67 -25z m1362 -102 c20 -22 56
-23 86 -3 l23 15 -4 -88 c-5 -102 9 -164 44 -199 49 -49 125 -12 184 90 l27
48 13 -45 c15 -54 55 -95 102 -102 30 -5 41 -1 73 27 41 36 95 140 116 222
l12 48 26 -25 c51 -49 112 -31 152 44 12 23 14 16 25 -81 15 -132 46 -259 90
-363 36 -86 40 -106 24 -137 -18 -33 -57 -24 -88 21 -15 21 -31 39 -35 40 -5
0 -5 -30 -1 -67 11 -103 8 -160 -10 -188 -23 -36 -44 -31 -92 20 -23 25 -44
45 -47 45 -2 0 -7 -51 -9 -112 -5 -133 -26 -195 -80 -228 -40 -24 -107 -26
-149 -5 -38 20 -84 83 -104 146 -9 27 -20 49 -25 49 -5 0 -12 -21 -16 -46 -3
-25 -16 -57 -29 -71 -46 -54 -106 -1 -167 148 -17 43 -36 79 -40 79 -5 0 -11
-13 -14 -30 -10 -47 -28 -55 -53 -24 -51 65 -80 259 -64 434 6 63 7 119 3 123
-4 5 -17 -7 -29 -26 -21 -35 -44 -51 -55 -40 -23 23 7 169 57 278 26 57 33 65
35 45 2 -14 11 -33 19 -42z m2034 -30 c146 -163 199 -241 199 -292 0 -25 -6
-29 -65 -38 -21 -4 -21 -9 -9 -75 12 -61 -36 -80 -126 -48 -24 8 -46 13 -48
10 -3 -3 3 -24 15 -48 71 -146 3 -225 -146 -168 -28 10 -52 16 -55 14 -3 -3 5
-22 18 -42 57 -90 58 -156 3 -176 -36 -12 -133 20 -223 75 -35 21 -66 35 -68
31 -3 -4 4 -27 16 -50 45 -91 -25 -120 -148 -62 -141 66 -339 320 -422 539
l-20 52 33 0 c22 0 38 6 44 17 11 21 9 24 53 -57 40 -72 97 -136 135 -151 80
-30 143 3 164 85 l11 46 57 -52 c103 -95 182 -110 237 -46 25 31 26 37 21 113
-2 44 -8 88 -12 99 -7 16 -6 17 13 7 37 -20 104 -13 137 13 27 21 30 30 30 78
0 35 -7 67 -22 94 l-22 42 40 -5 c44 -6 79 15 79 49 0 30 14 21 81 -54z
m-3468 -199 c23 -35 75 -61 192 -97 55 -17 110 -38 121 -46 26 -18 39 -69 55
-211 6 -54 20 -124 31 -154 48 -128 207 -222 546 -320 43 -13 85 -33 104 -50
l31 -28 -74 -6 c-41 -3 -82 -8 -91 -12 -38 -15 -4 -22 79 -18 108 6 160 -10
295 -91 98 -58 238 -126 260 -126 7 0 -8 -18 -34 -40 -59 -51 -122 -145 -145
-217 l-17 -55 -56 7 c-90 11 -181 34 -217 56 -18 11 -47 45 -65 75 -40 66 -60
74 -192 74 -209 0 -392 -48 -540 -141 -50 -31 -93 -53 -95 -47 -2 5 14 44 34
85 55 111 122 173 279 256 158 84 226 126 226 138 0 14 -10 11 -68 -22 l-54
-30 -46 43 c-26 24 -110 89 -188 145 -157 114 -233 189 -255 254 -9 30 -14 88
-14 182 l0 138 -45 33 c-66 48 -128 123 -136 163 -8 43 0 128 16 168 l13 30
17 -55 c9 -31 24 -67 33 -81z m1407 -469 c28 -82 54 -120 85 -120 13 0 27 5
31 12 4 6 17 -31 30 -83 12 -52 21 -96 19 -98 -2 -2 -26 12 -52 32 -50 37 -78
70 -107 125 -23 45 -34 40 -38 -19 l-3 -52 -33 34 c-63 64 -152 291 -152 387
l0 24 31 -26 c43 -37 84 -34 123 7 l31 34 7 -96 c3 -56 16 -124 28 -161z
m2433 61 c66 -55 87 -78 87 -96 0 -21 -5 -25 -28 -25 -16 0 -37 -9 -47 -20
-22 -24 -62 -26 -111 -5 -46 19 -59 11 -35 -23 121 -173 59 -270 -139 -217
-30 8 -56 15 -57 15 -2 0 -3 -7 -3 -15 0 -8 4 -15 8 -15 4 0 16 -13 25 -30 21
-35 10 -65 -29 -80 -43 -17 -176 -11 -258 10 -78 20 -285 119 -341 164 l-30
24 45 -5 c57 -6 90 20 90 72 0 19 2 35 4 35 2 0 34 -14 72 -32 39 -18 90 -34
121 -36 46 -4 58 -1 78 18 20 19 25 33 25 69 -1 25 -7 57 -15 71 -21 37 -19
39 26 29 53 -12 112 4 138 38 25 31 28 97 6 149 -14 33 -14 36 2 30 9 -4 36
-10 59 -13 36 -5 46 -2 68 20 14 14 26 34 26 44 0 12 19 -1 63 -43 34 -34 101
-93 150 -133z m-1322 14 c73 -110 251 -286 369 -364 107 -72 276 -155 397
-197 l83 -29 0 -66 c0 -96 -23 -163 -77 -220 -60 -64 -127 -89 -253 -96 -128
-6 -238 22 -430 113 -176 82 -199 85 -392 53 -124 -20 -149 -21 -219 -11 -43
6 -96 20 -117 31 -98 50 -209 220 -271 415 -31 97 -37 145 -11 96 7 -14 26
-40 43 -57 49 -52 116 -42 142 20 l13 31 20 -40 c53 -102 148 -147 236 -110
73 30 112 104 123 233 l6 72 27 -19 c81 -58 137 5 128 143 l-3 55 29 -15 c36
-19 73 -9 88 22 6 14 12 24 14 23 1 -2 26 -39 55 -83z m1394 -212 c26 -39 33
-77 15 -88 -24 -15 -5 -35 68 -73 42 -22 111 -50 152 -62 95 -28 120 -44 120
-75 0 -27 -43 -65 -105 -90 -99 -42 -305 -57 -472 -34 -104 14 -305 62 -273
66 128 15 168 42 157 107 l-5 33 51 -8 c104 -17 177 24 177 99 0 20 -11 61
-25 91 l-25 53 32 -5 c19 -4 46 0 63 8 42 19 41 19 70 -22z m-3597 -368 c35
-29 72 -100 72 -136 -1 -17 -23 -44 -80 -96 -99 -90 -148 -108 -295 -108 -107
0 -154 14 -238 72 -34 23 -127 135 -127 151 0 4 110 6 244 6 266 -2 317 -10
371 -59 30 -29 35 -30 35 -12 0 8 -10 22 -21 33 -33 29 -49 77 -49 144 l0 61
29 -15 c16 -9 42 -27 59 -41z m3177 -100 c60 -75 155 -210 155 -219 0 -3 -13
-6 -28 -6 -16 0 -64 -9 -108 -20 -59 -15 -80 -17 -83 -8 -2 6 -21 30 -41 52
l-37 40 19 44 c12 26 22 78 25 122 5 70 8 78 24 72 10 -4 43 -39 74 -77z
m-1693 -80 c69 -62 146 -85 284 -85 l103 0 35 -35 c33 -33 55 -92 42 -113 -3
-6 -32 -4 -72 4 -144 31 -234 64 -170 64 18 0 26 4 23 13 -5 16 -52 10 -100
-14 -82 -42 -132 -164 -125 -302 2 -47 9 -81 17 -89 10 -10 15 -10 18 -1 6 16
93 -25 93 -44 0 -23 -60 -82 -97 -94 -48 -16 -141 -7 -189 17 -58 31 -95 97
-102 182 -9 131 30 235 121 325 64 63 69 82 13 48 -106 -66 -183 -262 -158
-400 l10 -53 -36 6 c-41 6 -76 29 -106 70 -18 23 -21 42 -21 119 0 83 3 99 32
160 61 128 203 242 332 266 1 1 26 -19 53 -44z m650 -124 c21 -41 42 -87 47
-103 l10 -28 -78 0 c-43 0 -93 3 -110 6 -27 6 -31 10 -31 41 0 40 -12 67 -48
105 -29 31 -28 31 58 46 105 19 110 16 152 -67z m161 -5 c54 -26 130 -57 168
-69 38 -12 69 -25 69 -28 0 -3 -62 -9 -137 -12 -76 -3 -146 -9 -155 -12 -14
-6 -26 12 -63 91 -25 53 -45 99 -45 101 0 4 40 -13 163 -71z m774 -25 c26 -38
23 -51 -12 -51 -33 0 -49 -53 -49 -155 1 -101 32 -223 86 -335 l41 -84 -19
-35 c-32 -58 -66 -76 -143 -76 -58 0 -73 4 -104 27 -71 55 -105 166 -114 376
-3 72 -10 132 -14 132 -5 0 -9 -54 -9 -120 0 -125 19 -250 47 -304 22 -42 5
-72 -48 -86 -99 -27 -182 25 -215 135 -25 83 -25 293 0 385 26 96 42 123 69
114 12 -4 65 -7 117 -6 124 1 211 27 271 82 24 22 51 38 59 37 8 -1 25 -17 37
-36z m763 -31 c113 -27 141 -30 295 -30 284 0 413 -26 474 -96 54 -61 34 -140
-58 -228 -17 -17 -31 -38 -31 -49 0 -10 29 -50 64 -89 77 -82 100 -140 94
-228 -3 -44 -11 -67 -32 -94 -49 -65 -122 -88 -327 -106 -180 -15 -230 -26
-279 -61 l-41 -30 -107 84 c-294 230 -450 309 -713 361 -75 15 -173 392 -126
486 15 31 91 62 202 85 215 43 392 42 585 -5z m-2143 -19 c72 -28 218 -60 329
-71 78 -8 141 -7 292 6 106 9 195 14 198 12 2 -3 -5 -40 -16 -84 -17 -64 -20
-106 -19 -218 l2 -139 -31 -12 c-50 -22 -193 -54 -267 -61 -89 -8 -204 9 -274
41 -29 14 -100 57 -158 96 -58 39 -129 82 -158 95 -43 20 -55 31 -60 55 -16
71 21 204 72 260 20 22 37 39 39 39 2 0 25 -8 51 -19z m808 -550 c9 -44 58
-105 98 -124 54 -26 136 -22 181 8 l38 26 34 -30 c18 -17 53 -35 76 -42 92
-24 209 33 224 110 7 31 8 32 48 26 71 -12 248 -75 326 -116 69 -37 202 -123
258 -167 38 -29 65 -159 42 -203 -30 -55 -149 14 -227 132 -26 40 -50 53 -40
22 3 -10 19 -56 35 -103 74 -213 67 -378 -21 -443 -38 -29 -136 -34 -213 -12
-232 67 -474 271 -659 553 -70 108 -104 130 -54 36 44 -84 34 -196 -20 -216
-38 -13 -99 57 -145 168 -44 104 -121 353 -112 362 7 6 95 39 113 41 6 0 14
-12 18 -28z"/>
<path d="M2767 5274 c-123 -38 -220 -213 -220 -399 -1 -196 88 -309 244 -310
56 0 73 4 114 30 90 57 143 165 152 314 11 187 -60 339 -174 370 -47 14 -57
13 -116 -5z m161 -43 c18 -12 45 -50 63 -87 28 -56 33 -78 37 -165 7 -144 -26
-268 -87 -323 l-20 -19 21 44 c30 62 36 172 13 254 -35 131 -125 186 -223 136
-75 -38 -132 -139 -140 -246 -6 -87 -20 -61 -21 40 -2 163 79 328 183 377 54
25 131 20 174 -11z m-53 -214 c58 -58 60 -155 4 -201 -54 -46 -125 -26 -153
44 -20 50 -20 81 -2 124 30 72 97 87 151 33z"/>
<path d="M2145 5016 c-17 -40 -11 -66 15 -66 26 0 42 25 38 62 -4 48 -34 50
-53 4z"/>
</g>
</svg>
