<?xml version="1.0" encoding="UTF-8"?>
<svg xmlns="http://www.w3.org/2000/svg" version="1.1" viewBox="0 0 655 655">
  <defs>
    <style>
      .cls-1 {
        fill: #e04f86;
      }

      .cls-2 {
        fill: #e598b5;
      }

      .cls-3 {
        fill: #e28dac;
      }

      .cls-4 {
        fill: #fff;
      }

      .cls-5 {
        fill: #7f4767;
      }

      .cls-6 {
        fill: #ffbdd3;
      }

      .cls-7 {
        fill: #f9acc8;
      }

      .cls-8 {
        fill: #f4475c;
      }

      .cls-9 {
        fill: #a35267;
      }
    </style>
  </defs>
  <!-- Generator: Adobe Illustrator 28.7.1, SVG Export Plug-In . SVG Version: 1.2.0 Build 142)  -->
  <g fixed='yes'>
    <g fixed='yes' id="Layer_1">
      <g fixed='yes'>
        <path fixed='yes' d="M296,125.7c-14.6,1.1-25.3,4.5-37.6,12-3.9,2.3-8.4,4.3-9.9,4.3s-7.5-2.1-13.4-4.6c-12.3-5.4-20.6-8.4-23.3-8.4s-2.8,1-3.9,2.1c-1.7,1.7-2,2.9-1.6,5.6.6,3.3.5,3.5-1.6,2.8s-8.7-.9-16.7-1.2c-21.6-.8-36.4,2.5-39.9,8.8-1.3,2.4-1.3,3,.3,5.4s4.3,3.8,7.4,5.3c5.3,2.4,5.5,2.6,3.2,3.5-13.3,5.2-24.2,13.3-28.1,20.9-1.4,2.7-2.6,3.8-4.2,3.8-5,0-19.7,4.3-27.5,8.1-15.9,7.7-27.9,22.5-31.2,38.6-2.7,12.6.7,30.9,6.4,34.8,3.2,2.3,5.4,1.8,12.3-2.6,8.3-5.2,13.2-6.9,20-6.9h5.4l-.7,11.7c-1.2,21.3,2.8,41.8,11.6,59.9,10.3,21.2,25,34.8,45.9,42.4,10.6,3.9,23,6,35.1,6s10.4.3,16.3,3c3.5,1.7,9.2,3.6,12.6,4.2,3.3.6,6.1,1.6,6.1,2.2s1.8,4.7,4,9.1c6.6,13,12.5,40.5,15.1,70,.8,9.1,1,22.8.6,39.1-.3,13.8-.2,26.8.3,29,1.4,6.1,4.2,7.8,11.8,7,5.5-.6,6.7-.4,10.6,1.9,6.4,3.8,10.7,3.4,15.5-1.4s10.4-14.7,14.6-27.3c4.9-14.6,7.2-26.4,9.2-46.1,1.7-16.7,1.7-16.8,4-16.2,1.2.3,5,.8,8.4,1.2l6.2.6-.7,9c-1,13.4-4,29.2-11.2,59.2-3.5,14.9-6.4,28.7-6.4,30.6,0,5.7,2.4,7.1,11.8,7,7.3-.1,8.2.1,12.2,3,9.3,6.8,13.9,6,23.4-4.1,7.5-8,15.7-21.3,21.8-35.6,2.3-5.4,4.4-10.1,4.5-10.3.2-.3,1.6.8,3.2,2.4,2.7,2.5,3.5,2.7,8.4,2.3,16.3-1.3,32.2-18,41.1-42.9,1.9-5.2,4.2-13.1,5.2-17.6,1.5-6.5,2.3-8.3,3.9-8.7,4.4-1.2,5.3-.7,5.9,3.7.9,5.6,4.8,14,9.7,20.5,2.9,3.8,4.2,6.6,4.6,10,.8,7.5-1.4,21.2-5.8,35-6.2,19.6-5.1,23.2,7.3,23.2s6.4.4,10.4,3.5c3.8,2.9,5.4,3.5,9.6,3.5,7.2,0,12.8-3.2,21.2-12.1,14.9-15.9,23.8-38.6,26.6-67.9,1.1-11.8.1-18.9-3.7-26.1-2.4-4.7-2.8-6.5-2.7-13.4.1-7,.9-10.4,6.7-28,11.7-35.3,14.4-50.5,13.4-76-.8-20.7-4.5-36.6-12.8-55.8l-3.9-9.1,2.1-4.3c1.1-2.4,5.6-8.1,9.9-12.9,12.5-13.6,18-26.4,18-41.6s-.7-9.7-1.5-12.6c-3.1-10.3-12.6-19-23.3-21.3-3.1-.6-8.4-2.5-11.7-4-7.2-3.5-16.6-4.7-21.9-2.9-4.3,1.4-4.6,4.3-.6,4.8,1.4.1,4.5.5,6.9.8l4.4.6-5.8,2.3c-10.9,4.5-16.3,12.5-15.2,22.9.6,6.5,2.5,10.4,7.3,15,7.3,7.1,17.5,8.2,28.2,3,9.1-4.5,14.1-14.3,12.3-24.2-1-5.4.3-5.2,4.4.7,2.8,4,3,4.9,3,13.5s-.3,9.7-3.3,15.8c-3.6,7.3-11.8,17-16.3,19.3-1.5.8-4.9,1.5-7.5,1.5-4.3,0-5.1-.4-11-6-16.9-15.7-38.6-25.7-68.4-31.2-10-1.9-15.1-2.2-39.5-2.2s-42.8,1.3-68,6.9c-6,1.4-11.5,2.5-12.1,2.5-1.7,0-9.4-13.4-9.4-16.3,0-5.8,10.1-12.2,28-17.7,14.9-4.6,16-5.2,16-9.8-.1-12.2-14.4-26.4-32.7-32.5-7.3-2.4-26.4-5-32.8-4.5-1.1.1-4,.3-6.5.5ZM331,131c17.6,5.1,30.4,15.5,34.1,27.8,1.7,5.7,1,6.2-12.1,10.2-24.8,7.5-35.7,16.6-30.5,25.4,13.4,22.8,18,37.6,19.2,62.1,1.6,33.5-9.7,62.6-32.5,83.5-3.7,3.4-11.9,9.6-18.2,13.8-6.4,4.2-15.8,11.7-21.1,16.8-10.2,9.7-13.9,11.6-24.4,12.9-6.6.9-18-1.6-25.8-5.5-5.1-2.5-6.9-2.9-10.3-2.4-5.1.7-23-1.1-31-3.2-31.4-8.1-52.6-31.2-61.5-66.7-3.2-12.8-3.7-35.8-1.1-51.3,2.6-15.3,8.6-33.5,16.1-48.9l5.8-12.1,6.4-1.3c3.6-.7,7.1-1.6,7.9-2.1,2.6-1.6.1-2.3-4.4-1.1-6.6,1.6-14.5,1.4-15.2-.4-1.2-3,.8-6.9,6-11.9,6.1-6,13.3-10.1,23-13.2,3.9-1.2,7.2-2.6,7.3-3.1.2-.5-2.9-1.9-6.9-3-12.2-3.6-15.2-8.5-7.5-12.1,6.9-3.3,15.4-4.6,30.2-4.6s15.8.5,20.3,1.7c3.5.9,6.6,1.7,6.8,1.7,1,0,.2-2.9-1.2-4-.9-.8-1.4-2.5-1.2-4.4.3-2.9.5-3.1,4.3-3,2.5,0,9,2.2,17.5,5.8,18.5,7.9,18.1,7.9,28.3,1.7,8.9-5.5,18.9-9.4,27.8-11,3-.6,12.4-.8,20.9-.6,12.1.2,17.1.8,23,2.5ZM535.9,165.6c6.2,3.3,9.5,7.2,12.2,14.4,4.6,12,.6,22.3-10.6,27.6-14.8,7-30.6-2.3-30.9-18.1-.1-10,6.8-17.2,19.3-20.1,5.7-1.4,7.4-1,10.5,2.4,1.8,2,1.7,2.1-2.1,2.7-11.7,2-17.4,5.7-19.4,12.6-1,3.2-.9,4.6.6,8.5,2.2,5.9,6.2,8.4,13.1,8.4s11.1-2.9,14.2-9c3-5.8,2.5-12.8-1.4-19.9-4.1-7.6-10.2-11-22.4-12.5-1.9-.2-.1-.3,4.1-.2,6.1.2,8.5.8,12.8,3.2ZM555.1,172.1c14.1,7.1,19.3,25.5,12.7,45.4-2.8,8.6-6.1,13.8-14.5,22.7-4,4.4-8.4,10-9.7,12.5l-2.3,4.7-1.8-3.4c-1-1.9-3.5-6-5.5-9.1l-3.8-5.7,4.5-.5c6.1-.7,11.6-4.7,18.1-13.2,7.2-9.6,9.6-16,9.6-26,.1-9.5-2-14.3-8.5-19.8-2.3-2-5.3-5.3-6.6-7.3l-2.5-3.6,3.3.7c1.9.4,5,1.6,7,2.6ZM541.1,179.7c.6,1.6.9,5.4.7,8.6-.4,4.6-1,6.3-3.3,8.7-5.7,6-14.3,6.4-18.9.9-4.5-5.3-3.1-13.2,3.1-17,4.3-2.7,7.8-3.7,13.1-3.8,3.7-.1,4.4.2,5.3,2.6ZM130,189.9c.5,1.1,1.9,2.2,3,2.6,2,.6,2,.7.1,4.3-1.7,3.4-2.5,3.9-9.1,5.5-15.7,4.1-31.5,15.5-37.3,26.9-6.6,13.1-5,28.6,2.5,23.9,1.3-.8,4.4-2.8,6.9-4.3,4.4-2.8,17.1-5.9,18.4-4.6s0,2.8-.6,5.7l-1.1,5.1h-5.1c-6.7.1-13.6,2.5-22.6,7.9-6,3.7-7.4,4.1-8.7,3-2.8-2.3-5.4-8.7-6.6-16.1-2.2-14.6,3.5-31.1,14.9-42.5s20.4-14.2,32.3-16.8c4.1-.9,8-1.8,8.5-2,2.3-.8,3.5-.4,4.5,1.4ZM432.6,199c56.6,4.5,90.2,24.7,109.8,66.1,11.9,25,17,52.2,14.7,77.8-1.6,17.8-4.1,29-12.3,53.9-6,18.2-7.2,23.1-7.6,30.3-.4,8.3-.3,9,3.2,16.6,3.1,6.9,3.6,9.1,3.6,15.3,0,14.1-4.8,38.3-9.8,48.8-1.5,3.3-2.4,3.9-8.2,5.5-8.7,2.5-23.6,2.7-31.1.4-3-.9-8.1-3.3-11.2-5.4l-5.6-3.7.6-11.6c.3-6.5.3-12.8,0-14.1-.4-1.3-2.7-5.1-5.2-8.4-8.8-11.7-11.5-24.5-9.5-45.3,1.3-14.3,3.9-29.5,7.7-45.9,1.5-6.2,2.3-11.6,2-12-1.1-1.1-1.7.1-3.4,7.6-1,3.9-2,7.1-2.4,7.1s-1.1-1.8-1.8-4c-.6-2.2-1.6-4-2.1-4-1.5,0-1.2,2.1,1,8.6,1.9,5.6,2,6.2.5,13.4-2.6,12.7-4.5,29-4.5,39.2s-.2,9.7-1.7,10.2c-3.5,1.1-19,3.5-29.3,4.5-5.8.6-12.4,1.3-14.8,1.6-3.8.4-4.3.3-3.8-1.3,1.1-3.7,3.6-24.9,4.7-39,.5-8.1,1.6-17.2,2.4-20.2,1.8-7.1,2.3-14.4,1-14.8-.5-.1-1.2,1.5-1.4,3.5l-.5,3.8-.5-4.4c-.3-2.5-1.2-4.6-1.8-4.9-1-.3-1.3,3.6-1.3,17.2,0,34.3-5.6,69.8-16.6,105.3-5.2,17-10,27.8-12.9,29.1-3.3,1.5-13,3.9-19,4.7-10.2,1.3-26.6-3.6-32.2-9.7l-2.1-2.3,3.3-14.5c5.8-25.7,7-36.2,6.9-60s-2.1-40.6-7.4-62.5c-3.5-14.5-4.8-18.1-6-16.9s-.2,3.4,1.1,7.4c5.3,17.2,9.9,48.6,9.9,68.3v11.7l-4.2-.6c-42.7-5.9-72.1-23.9-88.8-54.5-5.3-9.9-5.3-10.5,1.5-11.2,9-.9,15.8-4.7,25.9-14.6,5-4.8,13.2-11.4,18.1-14.6,24.4-15.6,39.1-33.4,47.1-56.9,4-11.6,5.5-22,5.5-37.6s-1.8-28.2-6.6-42.5c-1.8-5.5-3-10.3-2.7-10.6,1-1,23-5.5,35.7-7.3,22.7-3.3,42.4-4.1,62.1-2.6ZM128.8,204.7c-2.8,6.4-9.2,23.6-10.9,29.5l-2.3,7.8h-5.2c-6.2,0-12,1.9-18.1,6-6.4,4.4-7.7,3.5-7.1-4.4,1.1-12.9,10-25.2,23.8-32.5,8.7-4.7,20.8-8.5,19.8-6.4ZM270.8,429.7c4.2,3.2,11.4,7.7,15.8,10,7.9,4.1,27.5,11.3,30.8,11.3s1.6,1.2,1.6,6.3c0,11.5-3.7,36.1-7.3,48.7-1.2,4.4-1.4,4.6-8.2,6.9-9.3,3.2-23.3,3.3-31.8.3-10.5-3.8-9.9-2.4-10.3-23.9-.4-26.1-3.1-49-8.3-70.8l-1.9-7.9,5.9,6.7c3.3,3.6,9.5,9.3,13.7,12.4ZM450.4,456.2c-1.9,8.7-7,23.1-10.5,30-2.8,5.5-3.2,5.8-8.7,7.5-9.6,2.8-29.2,1.5-29.2-2s.5-2.8,1.1-4.7,2.5-10,4.3-18l3.3-14.5,12.4-1.2c6.8-.7,14.8-1.7,17.9-2.2,3-.5,6.7-.9,8.2-1h2.6c0-.1-1.4,6.1-1.4,6.1ZM418,498c3.6,0,8.5-.5,10.9-1.1,2.4-.5,4.6-.7,4.9-.5.2.3-2.5,3.5-6.1,7.1-6.9,6.9-14,10.9-21.3,12.1-3.6.5-4.5.3-7.4-2.3l-3.3-2.9,2.3-7c1.2-3.8,2.4-7.2,2.6-7.5s2.7,0,5.6.7c2.9.8,8.2,1.4,11.8,1.4ZM491.8,515.2c9.4,3.4,24.7,3.5,37.1.1l2.4-.6-2.9,5.1c-7.5,13.3-19.9,24.8-28.1,25.9-4.1.5-6.5-.4-13.2-5.2-2.7-2-4.6-2.5-9.6-2.5-10,0-10.2-.9-3.9-20.2l3.5-10.7,4.5,3.1c2.4,1.6,7,3.9,10.2,5ZM274.5,516.6c9,2.4,23.4,1.5,32.9-2.2,1.6-.6,1.7-.4,1.1,1.7-3.4,11.4-14.7,27.9-19.1,27.9s-3.9-1.2-6.3-2.5c-3.8-2.2-5.5-2.5-11.7-2.3-5,.2-7.7-.1-8.6-1s-1.4-5.4-1.6-14.3l-.4-13,4.4,2.2c2.4,1.2,6.6,2.8,9.3,3.5ZM336.4,526.2c9.3,6.7,25.3,8.6,40.1,4.8,4.3-1.1,8-1.9,8.2-1.7.6.6-10,18.2-14.5,24-5.2,6.8-11.5,11.7-14.9,11.7s-5.7-1.4-9.6-4.6c-2.5-2.1-3.9-2.4-11.2-2.4-12.9,0-12.8.2-7.3-23.3,2.1-8.8,3.3-12.5,4.1-12,.7.4,3,2,5.1,3.5Z"/>
        <path fixed='yes' d="M289.5,140.6c-11.4,2.5-27.3,10-25.4,11.8.3.4,4.8.1,10-.6,7.8-.9,10.2-.9,13.9.3,3.9,1.2,4.5,1.8,4.8,4.5.2,2-.4,3.6-1.8,4.9-1.1,1-2,2.1-2,2.5s2.5,1,5.6,1.4c11.5,1.3,15.3,5,12,11.5-1.4,2.6-1.4,3.1-.2,3.1s2.1-1.2,3-2.6c2.3-3.4,12.1-9.6,19.8-12.4,3.5-1.3,8.7-3.2,11.6-4.2,4.4-1.7,5.2-2.3,5.2-4.5s-4.5-7.5-9.9-10.3c-12.2-6.2-32.6-8.5-46.6-5.4ZM321.5,143.6c3.3.8,8.5,2.6,11.5,4,5.2,2.4,11,6.9,11,8.5s-2.1,1.5-4.7,2.5c-13.2,4.8-20,7.7-24,10.4-5,3.4-5.3,3.5-5.3,1.7,0-3.2-8.1-7.7-13.6-7.7s-3.2-1.4-1.4-2.5c1.9-1.2,1-6.1-1.6-8.6-2.1-2-3.8-2.4-11.2-2.9l-8.7-.5,5.7-2.2c5.2-2,12.9-3.8,20.3-4.6,4.8-.6,15.5.3,22,1.9Z"/>
        <path fixed='yes' d="M222.9,174.3c-4.6,3-7.5,9-6.1,12.2,1.7,3.8,7.9,5,18.2,3.6,10.2-1.4,17.4-4.6,17.8-7.9.4-3-4.3-7.4-9.6-9-6.8-2.1-16.4-1.5-20.3,1.1ZM244.6,176.7c10.3,5.1,4.7,9.7-13.2,11-9.1.6-12.4-.4-12.4-4s3.2-6.4,7.4-8.3c4-1.9,13.3-1.2,18.2,1.3Z"/>
        <path fixed='yes' d="M155,194.1c-3.6,1.4-9.8,7.7-12.2,12.3-2.2,4.4-1.8,8.2,1.2,9.1,4.3,1.4,15.5-3.3,22-9.2,7.1-6.3,4.7-13.4-4.5-13.2-2.2,0-5.1.5-6.5,1ZM166.7,197.2c3.4,2.8-.5,7.6-9.9,12.2-12.8,6.5-16.7,3.7-8.8-6.3,2.2-2.8,4.1-5.1,4.3-5.1s2-.7,4.2-1.5c4-1.5,7.9-1.2,10.2.7Z"/>
        <path fixed='yes' d="M241.3,196.8c-10.7,3.8-18.2,11.7-21.8,23.1-2.4,7.5-1.7,20.9,1.4,27.1,5.1,9.9,12.6,15,23.1,15.8,23.8,1.7,42.9-14.2,40.6-33.7-2.6-22.2-25-38.9-43.3-32.3ZM263.5,201.4c10.9,6.4,17.5,16.9,18.2,28.9.3,4,.1,8.3-.5,9.6-.8,2.2-1,1.9-1.6-2.8-2-15.4-15.7-27.1-30.1-25.9-19,1.6-28.9,22.3-19.6,41,1.6,3.3,1.6,3.6.1,2.8-2.8-1.5-6.8-8.2-8.5-14.4-4.5-15.7,4.6-35.8,18.5-40.9,6.9-2.6,17.5-1.8,23.5,1.7ZM247.3,219.4c4.5,1.8,8.7,7.1,8.7,10.7,0,7.1-7.7,13.9-15.6,13.9-12.7,0-15.8-18.7-4-24.1,4.9-2.2,6.7-2.3,10.9-.5Z"/>
        <path fixed='yes' d="M156.6,220c-6.1,2.4-11.9,7.9-15.4,14.5-2.4,4.5-2.7,6.1-2.7,15s.3,10.7,2.6,15.5c5.5,11.7,13.3,17,25.1,17,24.6,0,37.8-21.5,27.1-44.2-7.5-15.9-22.7-23.3-36.7-17.8ZM176.8,223.6c8,4,15.2,13.6,16.8,22.4l.6,3.5-1.9-3c-4.8-7.4-15.1-13.5-22.8-13.5s-12.6,3.2-15.9,6c-5.4,4.8-7.9,11.8-7.4,20.9.3,4.2.8,8.5,1.2,9.6.6,1.6.4,1.5-1.3-.5-5.3-6.4-7.1-20.9-3.8-30.5,5.1-14.8,21-21.7,34.5-14.9ZM167.8,244c3.9,2.4,6.4,7.6,5.4,11.1-1.1,3.8-2.4,5.5-6.6,8.3-4.1,2.8-10.1,3.5-13.7,1.6-4.5-2.5-6.3-11.4-3.4-17,3-5.9,12-7.8,18.3-4Z"/>
        <path fixed='yes' d="M237,269.9c-3,1-10.3,3.9-16.1,6.4-5.8,2.6-13.9,5.4-18,6.3-20.2,4.5-23.4,5.5-26.9,8.3-13.1,10.5-13.2,27.8-.3,42.2,8.8,9.7,19.7,14.1,35.3,14.2,18.7.2,34.5-5.9,46.6-17.8,12-11.9,17.8-27.5,15.2-41.4-1.3-7.3-2.9-10.2-7.8-14.3-6.9-6-17.2-7.4-28-3.9ZM255.3,271.4c9.7,2.9,14.6,9.2,15.5,20.2,1.7,21.2-14.5,42.4-38.2,50-25.2,8.1-49.4,1.2-60.2-17.1-2.1-3.6-2.8-6.4-3.2-11.9-.4-6.3-.1-7.8,2.2-12.3,4.1-8.3,7.7-10.2,25.8-13.8,8.4-1.7,15.6-4,24.9-8,19.9-8.5,25-9.6,33.2-7.1Z"/>
        <path fixed='yes' d="M246.6,296c-5.4,6.5-4.1,14.6,2.1,12.4,3.4-1.1,7.3-6.8,7.3-10.3,0-5.7-5.3-6.9-9.4-2.1Z"/>
        <path fixed='yes' d="M179.4,313.1c-1.7,1.8-1.7,2.3-.4,4.7,3.5,6.2,12.3,7.9,13.6,2.6.8-3-1.6-6-6.3-8-4.2-1.8-4.7-1.8-6.9.7Z"/>
        <path fixed='yes' d="M277.5,314.9c-1.1.5-4.4,4.9-7.4,9.9-8.6,14.6-18.8,22.8-34.2,27.7-14.3,4.5-26.2,4.3-42.2-.8-5.1-1.6-7.2-1.9-8.5-1.1-1.9,1.2-3,8.4-1.3,8.4s1.1-1,1.1-2.3c0-4.3,1.2-4.9,6-3.2,3,1,6,3.3,9.2,7,19.6,21.9,49.1,23.2,67.6,3,8.3-9,12.5-24.8,10.5-38.9-.6-4.4-.6-6.9,0-7.3s3.2-.6,5.9-.5c3.4.1,4.8-.3,4.5-1.1-.4-1.4-8.4-2-11.2-.8ZM275.7,333.2c-.2,6.2-1,12.6-1.6,14.3l-1.1,3h-11.3c-9.9,0-11.8.3-16.2,2.5-6.4,3.1-13.7,10.6-16.1,16.4-1.1,2.6-2.6,4.6-3.4,4.6-3.4,0-14-6.1-19.4-11.1l-5.8-5.4h14.4c12.9-.1,15.1-.3,22.5-2.8,14.8-5,26.9-14.8,34.2-27.9,1.4-2.6,3-4.8,3.5-4.8s.6,5.1.3,11.2ZM266.4,352.6c2.7.4,4.6,1.2,4.6,1.9s-1.8,3.6-4,6.4c-6.5,8.2-18.6,14.1-29.6,14.4-3.4.1-6.5-.1-6.9-.5s.3-2.4,1.4-4.7c6.8-13.2,19.3-19.5,34.5-17.5Z"/>
      </g>
      <path fixed='yes' d="M156.8,209.4c9.4-4.6,13.3-9.4,9.9-12.2-2.3-1.9-6.2-2.2-10.2-.7-2.2.8-4.1,1.5-4.2,1.5-.2,0-2.1,2.3-4.3,5.1-7.9,10-4,12.8,8.8,6.3Z"/>
      <path fixed='yes' d="M231.4,187.7c17.9-1.3,23.5-5.9,13.2-11-4.9-2.5-14.2-3.2-18.2-1.3-4.2,1.9-7.4,5.5-7.4,8.3s3.3,4.6,12.4,4Z"/>
      <path fixed='yes' class="cls-4" d="M146.2,259.9c-.5-9.1,2-16.1,7.4-20.9,3.3-2.8,11.6-6,15.9-6,7.7,0,18,6.1,22.8,13.5l1.9,3-.6-3.5c-1.6-8.8-8.8-18.4-16.8-22.4-13.5-6.8-29.4.1-34.5,14.9-3.3,9.6-1.5,24.1,3.8,30.5,1.7,2,1.9,2.1,1.3.5-.4-1.1-.9-5.4-1.2-9.6Z"/>
      <path fixed='yes' class="cls-4" d="M240,199.7c-13.9,5.1-23,25.2-18.5,40.9,1.7,6.2,5.7,12.9,8.5,14.4,1.5.8,1.5.5,0-2.8-9.3-18.7.6-39.4,19.6-41,14.4-1.2,28.1,10.5,30.1,25.9.6,4.7.8,5,1.6,2.8.6-1.3.8-5.6.5-9.6-.7-12-7.3-22.5-18.2-28.9-6-3.5-16.6-4.3-23.5-1.7Z"/>
      <path class="cls-1" d="M232.6,341.6c23.7-7.6,39.9-28.8,38.2-50-.9-11-5.8-17.3-15.5-20.2-8.2-2.5-13.3-1.4-33.2,7.1-9.3,4-16.5,6.3-24.9,8-18.1,3.6-21.7,5.5-25.8,13.8-2.3,4.5-2.6,6-2.2,12.3.4,5.5,1.1,8.3,3.2,11.9,10.8,18.3,35,25.2,60.2,17.1ZM246.6,296c4.1-4.8,9.4-3.6,9.4,2.1s-3.9,9.2-7.3,10.3c-6.2,2.2-7.5-5.9-2.1-12.4ZM192.6,320.4c-1.3,5.3-10.1,3.6-13.6-2.6-1.3-2.4-1.3-2.9.4-4.7,2.2-2.5,2.7-2.5,6.9-.7,4.7,2,7.1,5,6.3,8Z"/>
      <path fixed='yes' class="cls-4" d="M173.2,255.1c1-3.5-1.5-8.7-5.4-11.1-6.3-3.8-15.3-1.9-18.3,4-2.9,5.6-1.1,14.5,3.4,17,3.6,1.9,9.6,1.2,13.7-1.6,4.2-2.8,5.5-4.5,6.6-8.3Z"/>
      <path fixed='yes' class="cls-4" d="M247.3,219.4c-4.2-1.8-6-1.7-10.9.5-11.8,5.4-8.7,24.1,4,24.1s15.6-6.8,15.6-13.9-4.2-8.9-8.7-10.7Z"/>
      <path fixed='yes' class="cls-9" d="M245.5,353c4.4-2.2,6.3-2.5,16.2-2.5h11.3l1.1-3c.6-1.7,1.4-8.1,1.6-14.3.3-6.1.2-11.2-.3-11.2s-2.1,2.2-3.5,4.8c-7.3,13.1-19.4,22.9-34.2,27.9-7.4,2.5-9.6,2.7-22.5,2.8h-14.4l5.8,5.4c5.4,5,16,11.1,19.4,11.1s2.3-2,3.4-4.6c2.4-5.8,9.7-13.3,16.1-16.4Z"/>
      <path class="cls-6" d="M109,211.1c-13.8,7.3-22.7,19.6-23.8,32.5-.6,7.9.7,8.8,7.1,4.4,6.1-4.1,11.9-6,18.1-6h5.2l2.3-7.8c1.7-5.9,8.1-23.1,10.9-29.5,1-2.1-11.1,1.7-19.8,6.4Z"/>
      <path class="cls-6" d="M293.4,151.9c2.6,2.5,3.5,7.4,1.6,8.6-1.8,1.1-1,2.5,1.4,2.5,5.5,0,13.6,4.5,13.6,7.7s.3,1.7,5.3-1.7c4-2.7,10.8-5.6,24-10.4,2.6-1,4.7-2.1,4.7-2.5,0-1.6-5.8-6.1-11-8.5-3-1.4-8.2-3.2-11.5-4-6.5-1.6-17.2-2.5-22-1.9-7.4.8-15.1,2.6-20.3,4.6l-5.7,2.2,8.7.5c7.4.5,9.1.9,11.2,2.9Z"/>
      <path class="cls-2" d="M114.5,244.2c-1.3-1.3-14,1.8-18.4,4.6-2.5,1.5-5.6,3.5-6.9,4.3-7.5,4.7-9.1-10.8-2.5-23.9,5.8-11.4,21.6-22.8,37.3-26.9,6.6-1.6,7.4-2.1,9.1-5.5,1.9-3.6,1.9-3.7-.1-4.3-1.1-.4-2.5-1.5-3-2.6-1-1.8-2.2-2.2-4.5-1.4-.5.2-4.4,1.1-8.5,2-11.9,2.6-25,9.5-32.3,16.8-11.4,11.4-17.1,27.9-14.9,42.5,1.2,7.4,3.8,13.8,6.6,16.1,1.3,1.1,2.7.7,8.7-3,9-5.4,15.9-7.8,22.6-7.9h5.1l1.1-5.1c.6-2.9.9-5.4.6-5.7Z"/>
      <path fixed='yes' class="cls-8" d="M271,354.5c0-.7-1.9-1.5-4.6-1.9-15.2-2-27.7,4.3-34.5,17.5-1.1,2.3-1.7,4.4-1.4,4.7s3.5.6,6.9.5c11-.3,23.1-6.2,29.6-14.4,2.2-2.8,4-5.7,4-6.4Z"/>
      <path class="cls-3" d="M317.4,451c-3.3,0-22.9-7.2-30.8-11.3-4.4-2.3-11.6-6.8-15.8-10-4.2-3.1-10.4-8.8-13.7-12.4l-5.9-6.7,1.9,7.9c5.2,21.8,7.9,44.7,8.3,70.8.4,21.5-.2,20.1,10.3,23.9,8.5,3,22.5,2.9,31.8-.3,6.8-2.3,7-2.5,8.2-6.9,3.6-12.6,7.3-37.2,7.3-48.7s-.3-6.3-1.6-6.3Z"/>
      <path class="cls-5" d="M428.9,496.9c-2.4.6-7.3,1.1-10.9,1.1s-8.9-.6-11.8-1.4c-2.9-.7-5.4-1-5.6-.7-.2.3-1.4,3.7-2.6,7.5l-2.3,7,3.3,2.9c2.9,2.6,3.8,2.8,7.4,2.3,7.3-1.2,14.4-5.2,21.3-12.1,3.6-3.6,6.3-6.8,6.1-7.1-.3-.2-2.5,0-4.9.5ZM491.8,515.2c-3.2-1.1-7.8-3.4-10.2-5l-4.5-3.1-3.5,10.7c-6.3,19.3-6.1,20.2,3.9,20.2s6.9.5,9.6,2.5c6.7,4.8,9.1,5.7,13.2,5.2,8.2-1.1,20.6-12.6,28.1-25.9l2.9-5.1-2.4.6c-12.4,3.4-27.7,3.3-37.1,0ZM307.4,514.4c-9.5,3.7-23.9,4.6-32.9,2.2-2.7-.7-6.9-2.3-9.3-3.5l-4.4-2.2.4,13c.2,8.9.7,13.4,1.6,14.3.9.9,3.6,1.2,8.6,1,6.2-.2,7.9,0,11.7,2.3,2.4,1.3,5.3,2.5,6.3,2.5,4.4,0,15.7-16.5,19.1-27.9.6-2.1.5-2.3-1.1-1.7ZM376.5,531c-14.8,3.8-30.8,1.9-40.1-4.8-2.1-1.5-4.4-3.1-5.1-3.5-.8-.5-2,3.2-4.1,12-5.5,23.5-5.6,23.3,7.3,23.3s8.7.3,11.2,2.4c3.9,3.2,6.8,4.6,9.6,4.6s9.7-4.9,14.9-11.7c4.5-5.8,15.1-23.4,14.5-24s-3.9.6-8.2,1.7Z"/>
      <path class="cls-3" d="M441,451.1c-3.1.5-11.1,1.5-17.9,2.2l-12.4,1.2-3.3,14.5c-1.8,8-3.7,16.1-4.3,18-.6,1.9-1.1,4-1.1,4.7,0,3.5,19.6,4.8,29.2,2,5.5-1.7,5.9-2,8.7-7.5,3.5-6.9,8.6-21.3,10.5-30l1.4-6.2h-2.6c-1.5.2-5.2.6-8.2,1.1Z"/>
      <path class="cls-2" d="M245.5,383.5c10.5-1.3,14.2-3.2,24.4-12.9,5.3-5.1,14.7-12.6,21.1-16.8,6.3-4.2,14.5-10.4,18.2-13.8,22.8-20.9,34.1-50,32.5-83.5-1.2-24.5-5.8-39.3-19.2-62.1-5.2-8.8,5.7-17.9,30.5-25.4,13.1-4,13.8-4.5,12.1-10.2-3.7-12.3-16.5-22.7-34.1-27.8-5.9-1.7-10.9-2.3-23-2.5-8.5-.2-17.9,0-20.9.6-8.9,1.6-18.9,5.5-27.8,11-10.2,6.2-9.8,6.2-28.3-1.7-8.5-3.6-15-5.8-17.5-5.8-3.8,0-4,.1-4.3,3-.2,1.9.3,3.6,1.2,4.4,1.4,1.1,2.2,4,1.2,4s-3.3-.8-6.8-1.7c-4.5-1.2-10.3-1.7-20.3-1.7-14.8,0-23.3,1.3-30.2,4.6-7.7,3.6-4.7,8.5,7.5,12.1,4,1.1,7.1,2.5,6.9,3,0,.5-3.4,1.9-7.3,3.1-9.7,3.1-16.9,7.2-23,13.2-5.2,5-7.2,8.9-6,11.9.7,1.8,8.6,2,15.2.4,4.5-1.2,7-.5,4.4,1.1-.8.5-4.3,1.4-7.9,2.1l-6.4,1.3-5.8,12.1c-7.5,15.4-13.5,33.6-16.1,48.9-2.6,15.5-2.1,38.5,1.1,51.3,8.9,35.5,30.1,58.6,61.5,66.7,8,2.1,25.9,3.9,31,3.2,3.4-.5,5.2,0,10.3,2.4,7.8,3.9,19.2,6.4,25.8,5.5ZM289.5,140.6c14-3.1,34.4-.8,46.6,5.4,5.4,2.8,9.9,7.4,9.9,10.3s-.8,2.8-5.2,4.5c-2.9,1-8.1,2.9-11.6,4.2-7.7,2.8-17.5,9-19.8,12.4-.9,1.4-2.3,2.6-3,2.6-1.2,0-1.2-.5.2-3.1,3.3-6.5-.5-10.2-12-11.5-3.1-.4-5.6-1-5.6-1.4s.9-1.5,2-2.5c1.4-1.3,2-2.9,1.8-4.9-.3-2.7-.9-3.3-4.8-4.5-3.7-1.2-6.1-1.2-13.9-.3-5.2.7-9.7,1-10,.6-1.9-1.8,14-9.3,25.4-11.8ZM284.6,229.1c2.3,19.5-16.8,35.4-40.6,33.7-10.5-.8-18-5.9-23.1-15.8-3.1-6.2-3.8-19.6-1.4-27.1,3.6-11.4,11.1-19.3,21.8-23.1,18.3-6.6,40.7,10.1,43.3,32.3ZM222.9,174.3c3.9-2.6,13.5-3.2,20.3-1.1,5.3,1.6,10,6,9.6,9-.4,3.3-7.6,6.5-17.8,7.9-10.3,1.4-16.5.2-18.2-3.6-1.4-3.2,1.5-9.2,6.1-12.2ZM142.8,206.4c2.4-4.6,8.6-10.9,12.2-12.3,1.4-.5,4.3-1,6.5-1,9.2-.2,11.6,6.9,4.5,13.2-6.5,5.9-17.7,10.6-22,9.2-3-.9-3.4-4.7-1.2-9.1ZM141.1,265c-2.3-4.8-2.6-6.8-2.6-15.5s.3-10.5,2.7-15c3.5-6.6,9.3-12.1,15.4-14.5,14-5.5,29.2,1.9,36.7,17.8,10.7,22.7-2.5,44.2-27.1,44.2s-19.6-5.3-25.1-17ZM175.7,333.1c-12.9-14.4-12.8-31.7.3-42.2,3.5-2.8,6.7-3.8,26.9-8.3,4.1-.9,12.2-3.7,18-6.3,5.8-2.5,13.1-5.4,16.1-6.4,10.8-3.5,21.1-2.1,28,3.9,4.9,4.1,6.5,7,7.8,14.3,2.6,13.9-3.2,29.5-15.2,41.4-12.1,11.9-27.9,18-46.6,17.8-15.6,0-26.5-4.5-35.3-14.2ZM200.2,360.5c-3.2-3.7-6.2-6-9.2-7-4.8-1.7-6-1.1-6,3.2s-.5,2.3-1.1,2.3c-1.7,0-.6-7.2,1.3-8.4,1.3-.8,3.4-.5,8.5,1.1,16,5.1,27.9,5.3,42.2.8,15.4-4.9,25.6-13.1,34.2-27.7,3-5,6.3-9.4,7.4-9.9,2.8-1.2,10.8-.6,11.2.8.3.8-1.1,1.2-4.5,1.1-2.7,0-5.3.1-5.9.5-.6.4-.6,2.9,0,7.3,2,14.1-2.2,29.9-10.5,38.9-18.5,20.2-48,18.9-67.6-3Z"/>
      <path class="cls-6" d="M432.6,199c-19.7-1.5-39.4-.7-62.1,2.6-12.7,1.8-34.7,6.3-35.7,7.3s.9,5.1,2.7,10.6c4.8,14.3,6.6,25.5,6.6,42.5s-1.5,26-5.5,37.6c-8,23.5-22.7,41.3-47.1,56.9-4.9,3.2-13.1,9.8-18.1,14.6-10.1,9.9-16.9,13.7-25.9,14.6-6.8.7-6.8,1.3-1.5,11.2,16.7,30.6,46.1,48.6,88.8,54.5l4.2.6v-11.7c0-19.7-4.6-51.1-9.9-68.3-1.3-4-1.7-6.8-1.1-7.4,1.2-1.2,2.5,2.4,6,16.9,5.3,21.9,7.3,38.7,7.4,62.5,0,23.8-1.1,34.3-6.9,60l-3.3,14.5,2.1,2.3c5.6,6.1,22,11,32.2,9.7,6-.8,15.7-3.2,19-4.7,2.9-1.3,7.7-12.1,12.9-29.1,11-35.5,16.6-71,16.6-105.3s.3-17.5,1.3-17.2c.6.3,1.5,2.4,1.8,4.9l.5,4.4.5-3.8c.2-2,.9-3.6,1.4-3.5,1.3.4.8,7.7-1,14.8-.8,3-1.9,12.1-2.4,20.2-1.1,14.1-3.6,35.3-4.7,39-.5,1.6,0,1.7,3.8,1.3,2.4-.3,9-1,14.8-1.6,10.3-1,25.8-3.4,29.3-4.5,1.5-.5,1.7-1.9,1.7-10.2s1.9-26.5,4.5-39.2c1.5-7.2,1.4-7.8-.5-13.4-2.2-6.5-2.5-8.6-1-8.6s1.5,1.8,2.1,4c.7,2.2,1.5,4,1.8,4s1.4-3.2,2.4-7.1c1.7-7.5,2.3-8.7,3.4-7.6.3.4-.5,5.8-2,12-3.8,16.4-6.4,31.6-7.7,45.9-2,20.8.7,33.6,9.5,45.3,2.5,3.3,4.8,7.1,5.2,8.4.3,1.3.3,7.6,0,14.1l-.6,11.6,5.6,3.7c3.1,2.1,8.2,4.5,11.2,5.4,7.5,2.3,22.4,2.1,31.1-.4,5.8-1.6,6.7-2.2,8.2-5.5,5-10.5,9.8-34.7,9.8-48.8s-.5-8.4-3.6-15.3c-3.5-7.6-3.6-8.3-3.2-16.6.4-7.2,1.6-12.1,7.6-30.3,8.2-24.9,10.7-36.1,12.3-53.9,2.3-25.6-2.8-52.8-14.7-77.8-19.6-41.4-53.2-61.6-109.8-66.1ZM535.9,165.6c-4.3-2.4-6.7-3-12.8-3.2-4.2-.1-6,0-4.1.2,12.2,1.5,18.3,4.9,22.4,12.5,3.9,7.1,4.4,14.1,1.4,19.9-3.1,6.1-7.7,9-14.2,9s-10.9-2.5-13.1-8.4c-1.5-3.9-1.6-5.3-.6-8.5,2-6.9,7.7-10.6,19.4-12.6,3.8-.6,3.9-.7,2.1-2.7-3.1-3.4-4.8-3.8-10.5-2.4-12.5,2.9-19.4,10.1-19.3,20.1.3,15.8,16.1,25.1,30.9,18.1,11.2-5.3,15.2-15.6,10.6-27.6-2.7-7.2-6-11.1-12.2-14.4ZM567.8,217.5c6.6-19.9,1.4-38.3-12.7-45.4-2-1-5.1-2.2-7-2.6l-3.3-.7,2.5,3.6c1.3,2,4.3,5.3,6.6,7.3,6.5,5.5,8.6,10.3,8.5,19.8,0,10-2.4,16.4-9.6,26-6.5,8.5-12,12.5-18.1,13.2l-4.5.5,3.8,5.7c2,3.1,4.5,7.2,5.5,9.1l1.8,3.4,2.3-4.7c1.3-2.5,5.7-8.1,9.7-12.5,8.4-8.9,11.7-14.1,14.5-22.7Z"/>
    </g>
  </g>
</svg>