<?xml version="1.0" standalone="no"?>
<!DOCTYPE svg PUBLIC "-//W3C//DTD SVG 20010904//EN"
 "http://www.w3.org/TR/2001/REC-SVG-20010904/DTD/svg10.dtd">
<svg version="1.0" xmlns="http://www.w3.org/2000/svg"
 width="655.000000pt" height="655.000000pt" viewBox="0 0 655.000000 655.000000"
 preserveAspectRatio="xMidYMid meet">

<g transform="translate(0.000000,655.000000) scale(0.100000,-0.100000)"
fill="#000000" stroke="none">
<path d="M2960 5293 c-146 -11 -253 -45 -376 -120 -39 -23 -84 -43 -99 -43
-15 0 -75 21 -134 46 -123 54 -206 84 -233 84 -10 0 -28 -10 -39 -21 -17 -17
-20 -29 -16 -56 6 -33 5 -35 -16 -28 -12 4 -87 9 -167 12 -216 8 -364 -25
-399 -88 -13 -24 -13 -30 3 -54 10 -15 43 -38 74 -53 53 -24 55 -26 32 -35
-133 -52 -242 -133 -281 -209 -14 -27 -26 -38 -42 -38 -50 0 -197 -43 -275
-81 -159 -77 -279 -225 -312 -386 -27 -126 7 -309 64 -348 32 -23 54 -18 123
26 83 52 132 69 200 69 l54 0 -7 -117 c-12 -213 28 -418 116 -599 103 -212
250 -348 459 -424 106 -39 230 -60 351 -60 88 0 104 -3 163 -30 35 -17 92 -36
126 -42 33 -6 61 -16 61 -22 0 -6 18 -47 40 -91 66 -130 125 -405 151 -700 8
-91 10 -228 6 -391 -3 -138 -2 -268 3 -290 14 -61 42 -78 118 -70 55 6 67 4
106 -19 64 -38 107 -34 155 14 54 54 104 147 146 273 49 146 72 264 92 461 17
167 17 168 40 162 12 -3 50 -8 84 -12 l62 -6 -7 -90 c-10 -134 -40 -292 -112
-592 -35 -149 -64 -287 -64 -306 0 -57 24 -71 118 -70 73 1 82 -1 122 -30 93
-68 139 -60 234 41 75 80 157 213 218 356 23 54 44 101 45 103 2 3 16 -8 32
-24 27 -25 35 -27 84 -23 163 13 322 180 411 429 19 52 42 131 52 176 15 65
23 83 39 87 44 12 53 7 59 -37 9 -56 48 -140 97 -205 29 -38 42 -66 46 -100 8
-75 -14 -212 -58 -350 -62 -196 -51 -232 73 -232 51 0 64 -4 104 -35 38 -29
54 -35 96 -35 72 0 128 32 212 121 149 159 238 386 266 679 11 118 1 189 -37
261 -24 47 -28 65 -27 134 1 70 9 104 67 280 117 353 144 505 134 760 -8 207
-45 366 -128 558 l-39 91 21 43 c11 24 56 81 99 129 125 136 180 264 180 416
0 41 -7 97 -15 126 -31 103 -126 190 -233 213 -31 6 -84 25 -117 40 -72 35
-166 47 -219 29 -43 -14 -46 -43 -6 -48 14 -1 45 -5 69 -8 l44 -6 -58 -23
c-109 -45 -163 -125 -152 -229 6 -65 25 -104 73 -150 73 -71 175 -82 282 -30
91 45 141 143 123 242 -10 54 3 52 44 -7 28 -40 30 -49 30 -135 0 -83 -3 -97
-33 -158 -36 -73 -118 -170 -163 -193 -15 -8 -49 -15 -75 -15 -43 0 -51 4
-110 60 -169 157 -386 257 -684 312 -100 19 -151 22 -395 22 -301 0 -428 -13
-680 -69 -60 -14 -115 -25 -121 -25 -17 0 -94 134 -94 163 0 58 101 122 280
177 149 46 160 52 160 98 -1 122 -144 264 -327 325 -73 24 -264 50 -328 45
-11 -1 -40 -3 -65 -5z m350 -53 c176 -51 304 -155 341 -278 17 -57 10 -62
-121 -102 -248 -75 -357 -166 -305 -254 134 -228 180 -376 192 -621 16 -335
-97 -626 -325 -835 -37 -34 -119 -96 -182 -138 -64 -42 -158 -117 -211 -168
-102 -97 -139 -116 -244 -129 -66 -9 -180 16 -258 55 -51 25 -69 29 -103 24
-51 -7 -230 11 -310 32 -314 81 -526 312 -615 667 -32 128 -37 358 -11 513 26
153 86 335 161 489 l58 121 64 13 c36 7 71 16 79 21 26 16 1 23 -44 11 -66
-16 -145 -14 -152 4 -12 30 8 69 60 119 61 60 133 101 230 132 39 12 72 26 73
31 2 5 -29 19 -69 30 -122 36 -152 85 -75 121 69 33 154 46 302 46 100 0 158
-5 203 -17 35 -9 66 -17 68 -17 10 0 2 29 -12 40 -9 8 -14 25 -12 44 3 29 5
31 43 30 25 0 90 -22 175 -58 185 -79 181 -79 283 -17 89 55 189 94 278 110
30 6 124 8 209 6 121 -2 171 -8 230 -25z m2049 -346 c62 -33 95 -72 122 -144
46 -120 6 -223 -106 -276 -148 -70 -306 23 -309 181 -1 100 68 172 193 201 57
14 74 10 105 -24 18 -20 17 -21 -21 -27 -117 -20 -174 -57 -194 -126 -10 -32
-9 -46 6 -85 22 -59 62 -84 131 -84 65 0 111 29 142 90 30 58 25 128 -14 199
-41 76 -102 110 -224 125 -19 2 -1 3 41 2 61 -2 85 -8 128 -32z m192 -65 c141
-71 193 -255 127 -454 -28 -86 -61 -138 -145 -227 -40 -44 -84 -100 -97 -125
l-23 -47 -18 34 c-10 19 -35 60 -55 91 l-38 57 45 5 c61 7 116 47 181 132 72
96 96 160 96 260 1 95 -20 143 -85 198 -23 20 -53 53 -66 73 l-25 36 33 -7
c19 -4 50 -16 70 -26z m-140 -76 c6 -16 9 -54 7 -86 -4 -46 -10 -63 -33 -87
-57 -60 -143 -64 -189 -9 -45 53 -31 132 31 170 43 27 78 37 131 38 37 1 44
-2 53 -26z m-4111 -102 c5 -11 19 -22 30 -26 20 -6 20 -7 1 -43 -17 -34 -25
-39 -91 -55 -157 -41 -315 -155 -373 -269 -66 -131 -50 -286 25 -239 13 8 44
28 69 43 44 28 171 59 184 46 3 -3 0 -28 -6 -57 l-11 -51 -51 0 c-67 -1 -136
-25 -226 -79 -60 -37 -74 -41 -87 -30 -28 23 -54 87 -66 161 -22 146 35 311
149 425 73 73 204 142 323 168 41 9 80 18 85 20 23 8 35 4 45 -14z m3026 -91
c566 -45 902 -247 1098 -661 119 -250 170 -522 147 -778 -16 -178 -41 -290
-123 -539 -60 -182 -72 -231 -76 -303 -4 -83 -3 -90 32 -166 31 -69 36 -91 36
-153 0 -141 -48 -383 -98 -488 -15 -33 -24 -39 -82 -55 -87 -25 -236 -27 -311
-4 -30 9 -81 33 -112 54 l-56 37 6 116 c3 65 3 128 0 141 -4 13 -27 51 -52 84
-88 117 -115 245 -95 453 13 143 39 295 77 459 15 62 23 116 20 120 -11 11
-17 -1 -34 -76 -10 -39 -20 -71 -24 -71 -3 0 -11 18 -18 40 -6 22 -16 40 -21
40 -15 0 -12 -21 10 -86 19 -56 20 -62 5 -134 -26 -127 -45 -290 -45 -392 0
-83 -2 -97 -17 -102 -35 -11 -190 -35 -293 -45 -58 -6 -124 -13 -148 -16 -38
-4 -43 -3 -38 13 11 37 36 249 47 390 5 81 16 172 24 202 18 71 23 144 10 148
-5 1 -12 -15 -14 -35 l-5 -38 -5 44 c-3 25 -12 46 -18 49 -10 3 -13 -36 -13
-172 0 -343 -56 -698 -166 -1053 -52 -170 -100 -278 -129 -291 -33 -15 -130
-39 -190 -47 -102 -13 -266 36 -322 97 l-21 23 33 145 c58 257 70 362 69 600
-1 238 -21 406 -74 625 -35 145 -48 181 -60 169 -6 -6 -2 -34 11 -74 53 -172
99 -486 99 -683 l0 -117 -42 6 c-427 59 -721 239 -888 545 -53 99 -53 105 15
112 90 9 158 47 259 146 50 48 132 114 181 146 244 156 391 334 471 569 40
116 55 220 55 376 0 170 -18 282 -66 425 -18 55 -30 103 -27 106 10 10 230 55
357 73 227 33 424 41 621 26z m-3038 -57 c-28 -64 -92 -236 -109 -295 l-23
-78 -52 0 c-62 0 -120 -19 -181 -60 -64 -44 -77 -35 -71 44 11 129 100 252
238 325 87 47 208 85 198 64z m1420 -2250 c42 -32 114 -77 158 -100 79 -41
275 -113 308 -113 13 0 16 -12 16 -63 0 -115 -37 -361 -73 -487 -12 -44 -14
-46 -82 -69 -93 -32 -233 -33 -318 -3 -105 38 -99 24 -103 239 -4 261 -31 490
-83 708 l-19 79 59 -67 c33 -36 95 -93 137 -124z m1796 -265 c-19 -87 -70
-231 -105 -300 -28 -55 -32 -58 -87 -75 -96 -28 -292 -15 -292 20 0 7 5 28 11
47 6 19 25 100 43 180 l33 145 124 12 c68 7 148 17 179 22 30 5 67 9 82 10
l26 1 -14 -62z m-324 -418 c36 0 85 5 109 11 24 5 46 7 49 5 2 -3 -25 -35 -61
-71 -69 -69 -140 -109 -213 -121 -36 -5 -45 -3 -74 23 l-33 29 23 70 c12 38
24 72 26 75 2 3 27 0 56 -7 29 -8 82 -14 118 -14z m738 -172 c94 -34 247 -35
371 -1 l24 6 -29 -51 c-75 -133 -199 -248 -281 -259 -41 -5 -65 4 -132 52 -27
20 -46 25 -96 25 -100 0 -102 9 -39 202 l35 107 45 -31 c24 -16 70 -39 102
-50z m-2173 -14 c90 -24 234 -15 329 22 16 6 17 4 11 -17 -34 -114 -147 -279
-191 -279 -10 0 -39 12 -63 25 -38 22 -55 25 -117 23 -50 -2 -77 1 -86 10 -9
9 -14 54 -16 143 l-4 130 44 -22 c24 -12 66 -28 93 -35z m619 -96 c93 -67 253
-86 401 -48 43 11 80 19 82 17 6 -6 -100 -182 -145 -240 -52 -68 -115 -117
-149 -117 -28 0 -57 14 -96 46 -25 21 -39 24 -112 24 -129 0 -128 -2 -73 233
21 88 33 125 41 120 7 -4 30 -20 51 -35z"/>
<path d="M2895 5144 c-114 -25 -273 -100 -254 -118 3 -4 48 -1 100 6 78 9 102
9 139 -3 39 -12 45 -18 48 -45 2 -20 -4 -36 -18 -49 -11 -10 -20 -21 -20 -25
0 -4 25 -10 56 -14 115 -13 153 -50 120 -115 -14 -26 -14 -31 -2 -31 7 0 21
12 30 26 23 34 121 96 198 124 35 13 87 32 116 42 44 17 52 23 52 45 0 29 -45
75 -99 103 -122 62 -326 85 -466 54z m320 -30 c33 -8 85 -26 115 -40 52 -24
110 -69 110 -85 0 -4 -21 -15 -47 -25 -132 -48 -200 -77 -240 -104 -50 -34
-53 -35 -53 -17 0 32 -81 77 -136 77 -24 0 -32 14 -14 25 19 12 10 61 -16 86
-21 20 -38 24 -112 29 l-87 5 57 22 c52 20 129 38 203 46 48 6 155 -3 220 -19z"/>
<path d="M2229 4807 c-46 -30 -75 -90 -61 -122 17 -38 79 -50 182 -36 102 14
174 46 178 79 4 30 -43 74 -96 90 -68 21 -164 15 -203 -11z m217 -24 c103 -51
47 -97 -132 -110 -91 -6 -124 4 -124 40 0 28 32 64 74 83 40 19 133 12 182
-13z"/>
<path d="M1550 4609 c-36 -14 -98 -77 -122 -123 -22 -44 -18 -82 12 -91 43
-14 155 33 220 92 71 63 47 134 -45 132 -22 0 -51 -5 -65 -10z m117 -31 c34
-28 -5 -76 -99 -122 -128 -65 -167 -37 -88 63 22 28 41 51 43 51 1 0 20 7 42
15 40 15 79 12 102 -7z"/>
<path d="M2413 4582 c-107 -38 -182 -117 -218 -231 -24 -75 -17 -209 14 -271
51 -99 126 -150 231 -158 238 -17 429 142 406 337 -26 222 -250 389 -433 323z
m222 -46 c109 -64 175 -169 182 -289 3 -40 1 -83 -5 -96 -8 -22 -10 -19 -16
28 -20 154 -157 271 -301 259 -190 -16 -289 -223 -196 -410 16 -33 16 -36 1
-28 -28 15 -68 82 -85 144 -45 157 46 358 185 409 69 26 175 18 235 -17z
m-162 -180 c45 -18 87 -71 87 -107 0 -71 -77 -139 -156 -139 -127 0 -158 187
-40 241 49 22 67 23 109 5z"/>
<path d="M1566 4350 c-61 -24 -119 -79 -154 -145 -24 -45 -27 -61 -27 -150 0
-87 3 -107 26 -155 55 -117 133 -170 251 -170 246 0 378 215 271 442 -75 159
-227 233 -367 178z m202 -36 c80 -40 152 -136 168 -224 l6 -35 -19 30 c-48 74
-151 135 -228 135 -43 0 -126 -32 -159 -60 -54 -48 -79 -118 -74 -209 3 -42 8
-85 12 -96 6 -16 4 -15 -13 5 -53 64 -71 209 -38 305 51 148 210 217 345 149z
m-90 -204 c39 -24 64 -76 54 -111 -11 -38 -24 -55 -66 -83 -41 -28 -101 -35
-137 -16 -45 25 -63 114 -34 170 30 59 120 78 183 40z"/>
<path d="M2370 3851 c-30 -10 -103 -39 -161 -64 -58 -26 -139 -54 -180 -63
-202 -45 -234 -55 -269 -83 -131 -105 -132 -278 -3 -422 88 -97 197 -141 353
-142 187 -2 345 59 466 178 120 119 178 275 152 414 -13 73 -29 102 -78 143
-69 60 -172 74 -280 39z m183 -15 c97 -29 146 -92 155 -202 17 -212 -145 -424
-382 -500 -252 -81 -494 -12 -602 171 -21 36 -28 64 -32 119 -4 63 -1 78 22
123 41 83 77 102 258 138 84 17 156 40 249 80 199 85 250 96 332 71z"/>
<path d="M2466 3590 c-54 -65 -41 -146 21 -124 34 11 73 68 73 103 0 57 -53
69 -94 21z"/>
<path d="M1794 3419 c-17 -18 -17 -23 -4 -47 35 -62 123 -79 136 -26 8 30 -16
60 -63 80 -42 18 -47 18 -69 -7z"/>
<path d="M2775 3401 c-11 -5 -44 -49 -74 -99 -86 -146 -188 -228 -342 -277
-143 -45 -262 -43 -422 8 -51 16 -72 19 -85 11 -19 -12 -30 -84 -13 -84 6 0
11 10 11 23 0 43 12 49 60 32 30 -10 60 -33 92 -70 196 -219 491 -232 676 -30
83 90 125 248 105 389 -6 44 -6 69 0 73 6 4 32 6 59 5 34 -1 48 3 45 11 -4 14
-84 20 -112 8z m-18 -183 c-2 -62 -10 -126 -16 -143 l-11 -30 -113 0 c-99 0
-118 -3 -162 -25 -64 -31 -137 -106 -161 -164 -11 -26 -26 -46 -34 -46 -34 0
-140 61 -194 111 l-58 54 144 0 c129 1 151 3 225 28 148 50 269 148 342 279
14 26 30 48 35 48 5 0 6 -51 3 -112z m-93 -194 c27 -4 46 -12 46 -19 0 -7 -18
-36 -40 -64 -65 -82 -186 -141 -296 -144 -34 -1 -65 1 -69 5 -3 3 3 24 14 47
68 132 193 195 345 175z"/>
</g>
</svg>
