<?xml version="1.0" encoding="UTF-8"?>
<svg xmlns="http://www.w3.org/2000/svg" version="1.1" viewBox="0 0 655 655">
  <defs>
    <style>
      .cls-1 {
        fill: #c697a6;
      }

      .cls-2 {
        fill: #d67299;
      }

      .cls-3 {
        fill: #ef9ab6;
      }

      .cls-4 {
        fill: #f4d3de;
      }

      .cls-5 {
        fill: #912343;
      }

      .cls-6 {
        fill: #e889a9;
      }

      .cls-7 {
        fill: #f4e1e8;
      }

      .cls-8 {
        fill: #f9f9f9;
      }
    </style>
  </defs>
  <!-- Generator: Adobe Illustrator 28.7.1, SVG Export Plug-In . SVG Version: 1.2.0 Build 142)  -->
  <g fixed='yes'>
    <g fixed='yes' id="Layer_1">
      <g fixed='yes'>
        <path fixed='yes' d="M306.9,93.4c-11.7,3.1-18.9,10.5-19.7,20.1-1.2,15,14.1,24.3,56.8,34.5,41,9.9,64.6,17,62.3,18.9-.4.4-3.4,1.7-6.6,2.9-7.1,2.6-17.4,9.2-24.5,15.7l-5.3,4.8-7.7-3.6c-60.1-28-154.9-41.3-199.2-28.1-23.3,6.9-33.8,22.5-24.6,36.4,8.6,13,36.8,26,71.1,32.9,26,5.3,63.5,8.1,106.3,8.1s24.2.3,24.2.6-1.3,2.4-2.9,4.7c-4.3,6.4-6.1,10.3-6.1,13.5s2.2,5.5,6.6,5c3.2-.4,3.5-.2,2.9,1.6-.3,1.2-1.1,5.3-1.7,9.2l-1.2,7-10.8-3.8c-24.9-8.7-44.9-12.2-70.3-12.2s-44.2,3.6-63,12.9c-18.2,9.1-29.8,20.6-39,39-5.6,11-10.5,27.1-10.5,34.1s-.3,3.4-2.5,3.4c-4.5,0-6.7-3.4-6.4-9.8l.3-5.7h-5.5c-13.9.4-34.2,14.2-45.6,31.1-10.5,15.5-12.7,26.9-6.3,32.3,1.9,1.5,2,2.1,1,9.6-2.1,15.7,1.4,25.5,9.1,25.5s3.3.9,5.3,4.4c5.2,8.8,12.2,12.2,19.5,9.4,3.7-1.5,3.8-1.5,5.7,1.4,4.7,7,15.5,8.7,24.8,3.8,4.6-2.4,6.1-2.7,8.2-2,5,1.9,8.4,1.2,12.1-2.5s3.7-3.4,3.8-3.3c13.5,17.9,17.3,23.4,18.2,26.2,1,3.3.9,3.5-3.3,7.1-6.3,5.2-8.8,10.5-8.8,18.5.1,8.2,2.5,13.2,10.8,21.8,13.6,14.3,57.9,44.1,81.5,54.8,15.2,7,23.2,8.5,34.2,6.4,9.7-1.9,12.9-7.3,13.2-22.4.2-9.5-1.5-13.6-8.5-20.2-6.6-6.2-9.4-7.9-33-19.6-12-5.9-21.8-11.2-21.8-11.7s1.2-1.2,2.7-1.6c6.4-1.6,15.8-11.4,18.3-19.1.7-1.9,1.7-3.4,2.3-3.4s4.4,1.2,8.4,2.6c3.9,1.4,13.6,4.5,21.4,6.8l14.3,4.1,1.4,5.5c.7,3,1.8,6.1,2.4,6.7,1.3,1.7,4.5,1.7,5.1,0,.2-.6.9,1.5,1.6,4.8,2.2,11.3,7.2,25.3,11.7,33,8.4,14.2,22.7,26.8,33.1,29,3.7.7,17.8-2,21.1-4.1,2.8-1.8,5.8-6.6,7.4-11.7,1.4-4.7.2-9.1-5.2-18.5-2.2-3.8-4-7.1-4-7.4s3.5-.5,7.8-.4c7.2.1,8-.1,12.3-3.2,6.8-4.9,7.1-6.1,6.4-24.1-.8-18.2,1.2-32.4,6.7-48.9,3.1-9.1,3.5-9.8,7.3-11.7,4.5-2.3,12.5-9.8,15.3-14.5l2-3.1,1.8,3.8c2.3,4.7,4.3,5.1,8.1,1.9,5.1-4.3,10.3-19.1,10.3-29.5v-5.4l2.3,2c8,7.4,12.7,4.3,12.7-8.4s-4.3-19.5-12.1-29.4l-2.8-3.6,10.9-2.1c10.3-2.1,23.9-6.7,28.7-9.8,2-1.2,2.3-1.2,3.5.5,2.5,3.5,5.7,4.4,13.6,3.7,4.1-.4,8.7-1.3,10.2-2.1,5.1-2.6,9.6-9.3,13-18.9,1.5-4.1,2.3-5.1,5.5-6.1,2-.7,4.6-2.1,5.7-3.2,3.2-2.9,6.5-10.3,8.2-18.7.9-4.3,2.6-9.6,3.7-11.8s1.9-5.4,1.7-8.1c-.3-3.7-.7-4.4-3.7-5.9-1.9-1-5.7-3.9-8.5-6.6s-9.2-7.7-14.2-11c-5.1-3.4-10.5-7.7-12.2-9.8-1.7-2-7-11.3-11.8-20.8-4.8-9.4-10.4-19.7-12.5-22.8-8.6-12.6-18.8-22.4-30.1-28.7-4.5-2.5-8-5.3-10.5-8.7-11.4-15.2-23.3-26.3-40.2-37.6-23.9-16-62.5-31.3-91-36.2-11.1-1.9-26.7-2-33.2-.2ZM336.1,98.3c4.1,2,12.6,7.2,18.9,11.7,16.1,11.4,25.9,17.3,50.3,30.4,11.6,6.3,26.3,14.3,32.6,17.9l11.3,6.5-11.8-.5c-6.9-.3-15-.1-19.2.6-7,1.1-7.4,1.1-13-1.8-8.4-4.2-21.7-8.2-48.7-14.5-39.8-9.4-53.3-14.4-61.9-22.9-5.5-5.5-6.6-9.8-4.2-16.2,3.9-10.1,16.2-15.9,32.2-15.1,4.6.3,8.1,1.3,13.5,3.9ZM355.8,99.6c30.9,7.9,66.8,25.3,87.7,42.4,10.8,8.8,28.5,28,25.8,28-3.5-.1-14.8-4.9-24.3-10.5-6.3-3.7-23.2-13-37.4-20.7-24.8-13.4-32.4-18-55.2-33.5-5.5-3.7-10.9-7.4-12-8-1.6-1.1-1.3-1.2,2.1-.7,2.2.4,8.2,1.7,13.3,3ZM251,159c48.5,6.5,97.2,21.2,126.5,38.2,4.3,2.6,8.3,4.4,8.7,4.2,1.4-.9-.1-2.3-6.9-6.1l-6.7-3.7,6.1-5.5c16.1-14.9,37.1-21.2,62.4-19s31.2,5.8,44.5,14.5c14.6,9.6,22.3,19.5,35.9,46,11.9,23.2,13.1,24.7,26,33.1,7.6,5,15.5,11.2,15.5,12.2s-2.3.4-5,.3c-7.1-.5-24.1,1.6-31.6,3.9-7.7,2.4-12.4,6.1-12.4,9.7,0,9.3,16.9,20.2,31.4,20.2s11.6-1.4,17.4-5.4l4.9-3.3-1.1,5.1c-1.7,7.1-4.3,12.2-7.8,15.1-3.9,3.3-7.1,4-10.8,2.5-3.8-1.6-4.5-2.7-2.9-4.6.7-.9.9-1.8.3-2.4s-2.3.9-4.4,3.8c-1.9,2.5-5.5,5.8-8,7.2-4.1,2.3-5.5,2.5-16.5,2.5s-12.4-.2-17.2-2.7c-2.8-1.5-7.9-5.1-11.3-8-10.3-8.8-17-12.7-17-9.9s.8,1.2,1.8,1.5c1,.4,5.9,4,10.8,8.2,9.4,7.9,14.1,10.9,20.8,12.8,3.7,1.1,4.2,1.5,4.7,5.1.3,2.2.9,5,1.3,6.3.7,2.1.1,2.6-6.6,5.7-15.8,7.2-31.6,9.9-56.8,9.3-11.9-.2-17.9,0-17.7.7.5,1.5,10.6,2.5,24.7,2.4h12.5c0-.1,4.2,4.5,4.2,4.5,8.5,9.4,13.7,24.7,11.3,33.4-1.4,5.6-3.2,5.4-9.2-.8-2.6-2.8-5-5-5.3-5s-.3,2.8.1,6.2c.7,8-1.5,19.2-5.7,27.6-4.7,9.6-8.2,9.5-9.5-.4-.3-3-.9-5.4-1.3-5.4s-1.7,2.4-3,5.2c-2.8,6.2-13.5,17.4-17.6,18.4-3.6.9-4.7-.9-3.9-6.9.8-6.2-.6-6-4.4.5-5.3,9.3-15.8,17.6-22.8,18.1-2.3.2-3-.3-3.2-2.1-.2-1.3.4-3.2,1.4-4.3,2.6-2.9,1-3.4-3.8-1.1-6.1,2.9-11.8,3.9-11.8,1.9,0-3.2,3.9-23.7,6.5-33.6,1.4-5.7,2.4-10.6,2.1-10.8-1.4-1.4-2.7,2-5.5,14-4.7,20-6.2,30.6-6.8,48.7-1,29.3,2.9,48.6,14.3,71.8,3.6,7.4,6.3,13.6,6,13.9s-.8-.1-1.2-1c-.9-2.5-7.3-6.2-8.6-4.9s-.1,1.5,2,2.6c4.1,2.1,6.2,5.3,6.2,9.4s-4.1,11.1-8.3,11.2c-1.5,0-1.7-.5-1.2-2.9.8-3.7-1.4-8.8-5.4-12.5-4.4-4.2-4.8-2.6-.7,2.9,6.2,8.1,4,14.5-4.9,14.5-16.7,0-37-23.6-44-51.4-1.3-5.3-2.6-12.1-2.9-15.1-.2-3.1-.6-5.8-.9-6.1s-1.6,1.4-2.8,3.8l-2.2,4.3-1.3-3c-2.2-5.3-3.7-19.5-3.1-29.2.4-5.1.4-9.3,0-9.3s-1.9,1.5-3.4,3.2c-4.5,5.4-5.4,3.2-5.3-13,0-15.1,1.2-21,5.1-25.6,3.5-4.1,1.2-4.6-3.3-.6-5.1,4.4-6.9,3.7-6.8-2.6.3-9.2,9.3-28.3,20.4-42.9,2.9-3.9,4.5-6.7,3.8-7.1-1.2-.7-3.9,2.3-10.2,11.6-15.5,22.9-22,49.4-11.5,46.7,1.8-.5,2-.2,1.5,1.7-1.4,5.5-2.7,17.5-2.5,22.6l.3,5.5-5.5,2.7c-6.1,3.1-16.8,5.8-22.7,5.8h-4l.5-10.8c.6-13.8-1.2-22.8-7.1-34.7-2.4-5-7.1-12.1-10.3-15.9-5.7-6.8-22.5-20.6-25-20.6s-1.2,1.8,4.5,5.5c8.4,5.6,21.2,18.9,26,27,10.2,17.6,12.5,38.2,6.2,56.3-6,17-15.4,23.7-33,23.5-7.5-.1-8.3,0-6.5,1.3,1.2.9,4.4,1.4,8.7,1.4s7.5.4,11.1,2.7c2.3,1.5,12.8,6.8,23.2,11.9,10.5,5,21.8,11.2,25.2,13.7,6.6,4.9,12.3,13.1,12.3,17.7s-.4,2.2-6-3.2c-3.2-3.2-6.6-5.8-7.5-5.8-2.6,0-1.7,1.6,2.6,4.4,5.7,3.8,9.9,10.8,9.9,16.5s-2.8,10.5-6.8,11.9l-3,1v-4.7c.2-3.5-.6-6-2.5-9.3-2.6-4.5-9.9-10.8-12.4-10.8s-1.4,1.4,2.7,4.3c5.8,4.1,9.2,9,9.7,14,.6,6.1-.6,7.2-7.4,7.1-10.8-.3-28.3-8.2-54.9-24.8-30.5-19.2-52.5-37-56.9-46.1-2.3-5-3.1-13.2-1.6-17.8,1.2-3.4,7.3-10.7,9.1-10.7s.7,1.4.3,3.1c-.5,2.5-.3,3.1.8,2.7,1-.3,1.5-2.4,1.7-6.6.4-7.3-1.5-11.5-9.3-21.2-16.7-20.8-25.5-40-31.5-68-3.1-14.2-3.2-35.3-.3-49,7.9-37,31.2-61.7,66.9-70.9,31.9-8.3,70.5-6.4,105.4,5.1,15.2,5,17.6,6.2,18.4,9.5,1.7,6.7,5.8,9.2,9.7,5.7,1.7-1.5,1.8-1.3,2.9,2.7,2.8,10.4,13.6,26.9,17.6,26.9s1.9-.1-3.2-5.6c-5-5.5-10.7-16.3-12.4-23.9-1.9-8.2-1.8-8.1-5.5-3.9-3.4,3.8-3.5,3.9-5.1,1.9-2.5-3.1-1.5-20.2,1.6-27.3,1.2-2.9,2-5.5,1.7-5.8-.2-.3-2,.4-3.8,1.5-4.1,2.5-7.7,2.7-8.6.4-.7-1.9,4.4-12.2,8.5-17l2.7-3.2,7.4.9c4.1.6,10.3,1.7,13.8,2.6,6.2,1.5,8.7,1.4,6.7-.6s-5.6-1.8-11.4-3c-9.4-2-15.3-2.3-55.5-3.1-57.1-1-79.2-3.1-106.5-9.9-24.3-6.1-43-14.4-53.1-23.7-10.4-9.7-11.2-17.7-2.8-26.8,6.7-7.3,22-13.2,40.2-15.5,12.1-1.5,50.2-.4,67.7,2ZM567.9,277.3c4.7,1.6,5.5,3.4,4.2,8.3-1.5,5.4-8.1,12.9-14.5,16.1-10.6,5.5-26.1,2.6-35.7-6.6-3.8-3.7-4.9-5.4-4.9-7.9s.6-3.5,3.8-5.1,13-4.6,18.7-5.4c6.7-.9,25.2-.5,28.4.6ZM546.3,322.9c1.5.8,2.7,1.9,2.7,2.5,0,2.2-6.2,14.2-8.8,16.9-2.7,2.9-8.2,6.3-8.2,5.1s1.5-3.8,3.4-7.7c1.9-4,4.2-9.8,5.2-13,1-3.1,2-5.6,2.3-5.4.3.1,1.8.9,3.4,1.6ZM536,332.1c-1.1,3-3.3,7.7-5,10.6-2.4,4.2-3.6,5.3-6.3,5.8-6.9,1.3-11.3-3.2-13.1-13.6l-.6-3.6,8.5-.5c6.1-.4,9.8-1.2,13.2-2.9,2.7-1.3,4.9-2.1,5.1-1.8.1.3-.6,3-1.8,6ZM132.4,342.9c.2,5.7,3,9.6,7.7,10.6l2.9.7v9.9c0,21.7,6.2,46.3,17.1,68.2,2.7,5.3,4.9,10.1,4.9,10.6s-1.1,2-2.5,3.5c-2.6,2.9-7.5,3.5-11.9,1.5-2.1-1-2.9-.8-6,1.6-9.5,7.3-22.5,4.3-26-6-1.6-4.4-4.3-6.4-3.3-2.3.5,2,.2,2.7-1.9,3.6-1.4.7-4.1,1.2-6.1,1.2-2.9,0-4.3-.8-7.7-4.3-2.2-2.3-4.8-5.6-5.8-7.4-1.2-2.4-2.1-3-3.7-2.6-3.1.8-6.7-2.1-8.1-6.3s-.9-18.2.6-24.5c.5-2.3.1-2.9-2.3-4.1-2.5-1.1-2.8-1.9-3.1-6.4-.8-13.1,18.1-37.4,36.8-47.3,5-2.7,16.9-6.4,17.9-5.5.1.1.4,2.5.5,5.3ZM422.6,456c-5.3,16.1-6.8,27.5-6.7,48.7.1,10-.3,18.4-.7,18.7-.5.3-1.4-2.1-2-5.3-.7-3.3-2-6.5-2.9-7.2-1.5-1.3-1.6-1.1-.9,1.6.4,1.6,1,5.5,1.3,8.6.5,5.1.3,5.8-1.8,7.3-1.3.9-3.7,1.6-5.4,1.6-2.9,0-3-.1-2.7-4.3.4-4.7-1.9-11.7-3.9-11.7s-.9.8-.4,2.2c3.3,11,2.1,14.9-4,13.4-2-.5-2.8-1.9-4.9-8.4-5.4-17.3-7.9-38.9-6.7-58.7l.6-10,4.8-.7c2.7-.4,5.2-.9,5.5-1.3.3-.3,1.1.9,1.6,2.7,1,2.8,1.6,3.3,4.8,3.6,5.2.4,13.1-3.9,19.8-10.7l5.5-5.7,1.3,2.5c1.1,2.2.9,3.8-2.2,13.1ZM311.3,474.1c1.7.2,2,.1,3.8-.6,1.5-.5,1.7.5,1.7,8.9.1,7.4-.2,9.6-1.3,9.6-1.8,0-29.7-8.4-36-10.9-7.3-2.8-7-4.5.7-4.9,7.9-.3,16.4-2.5,22.5-5.6l4.8-2.4,1.3,2.9c.6,1.6,1.8,3,2.5,3Z"/>
        <path fixed='yes' d="M153,178.9c0,.6.8,1.1,1.8,1.1s2.2,1.2,3.1,3.9c4.3,14.3,39.7,28.6,88.6,35.7,14.1,2,48.3,2.4,88.2,1l25.2-.9,3.6,3.6c5.3,5.3,7.7,4.8,3.4-.7-3.2-4.1-8.9-6.9-30.1-15-40-15.2-68.7-22.4-109.8-27.2-17.2-2-74-3.2-74-1.5ZM202,181c48.5,3,85.5,10.8,130.5,27.7l21,7.8-10.5.7c-31.3,2-59.5,2.7-74.8,1.7-47.5-2.8-97.6-18.1-106.3-32.2-3.9-6.4-3.4-6.7,10.9-6.7s20.1.5,29.2,1Z"/>
        <path fixed='yes' d="M411.3,181.5c-6.3,2.9-9.3,7.2-9.3,13.2s.5,4.6,3.1,6.7c2.9,2.4,3.7,2.6,13.8,2.6s12.9.6,20.4,2.5c11.4,3,14.5,2.4,16.1-3.2,2.1-7.5-5.9-18.1-16.8-22.2-8.3-3.1-20.3-2.9-27.3.4ZM434.5,182.5c11.3,3,17.8,9.2,17.9,17.2.1,6.7-1.4,7.3-12.1,4.5-6.3-1.6-11.6-2.2-18.6-2.2-10.8,0-16.1-1.5-17.2-4.9-1.1-3.7.5-8,4.3-11.1,5.9-4.9,15.4-6.1,25.7-3.5Z"/>
        <path fixed='yes' d="M414.2,216.4c-14.6,4.8-23.3,19.6-23.3,39.6.1,23.4,12,40.1,30.4,42.6,5.1.7,14.7-1.1,19.9-3.7,25.4-12.9,22.6-61.7-4.3-76.4-6.3-3.4-16-4.3-22.7-2.1ZM434.2,219.8c3.7,1.5,11.5,8.8,14.4,13.4,8.7,13.8,9.9,36.7,2.6,48.8-4,6.5-11.1,11.6-18.7,13.4l-3,.7,3.2-3.3c10.5-10.9,12.2-33,3.7-47.5-8-13.8-22.6-19.3-33.9-12.9-2.5,1.3-4.5,2.1-4.5,1.6,0-2,7-9.7,11.2-12.3,7-4.4,17-5.1,25-1.9ZM426.9,237.9c5.5,4,8.6,15.1,6.2,22.4-.7,2-2.8,5-4.7,6.7-6.2,5.4-14.5,3.4-19.5-4.6-3.3-5.4-3.4-15.3-.1-20.5,4.2-6.8,11.8-8.5,18.1-4Z"/>
      </g>
      <g>
        <path class="cls-2" d="M202,181c-9.1-.5-22.2-1-29.2-1-14.3,0-14.8.3-10.9,6.7,8.7,14.1,58.8,29.4,106.3,32.2,15.3,1,43.5.3,74.8-1.7l10.5-.7-21-7.8c-45-16.9-82-24.7-130.5-27.7Z"/>
        <path class="cls-1" d="M315.1,473.5c-1.8.7-2.1.8-3.8.6-.7,0-1.9-1.4-2.5-3l-1.3-2.9-4.8,2.4c-6.1,3.1-14.6,5.3-22.5,5.6-7.7.4-8,2.1-.7,4.9,6.3,2.5,34.2,10.9,36,10.9s1.4-2.2,1.3-9.6c0-8.4-.2-9.4-1.7-8.9ZM423.5,440.4l-5.5,5.7c-6.7,6.8-14.6,11.1-19.8,10.7-3.2-.3-3.8-.8-4.8-3.6-.5-1.8-1.3-3-1.6-2.7-.3.4-2.8.9-5.5,1.3l-4.8.7-.6,10c-1.2,19.8,1.3,41.4,6.7,58.7,2.1,6.5,2.9,7.9,4.9,8.4,6.1,1.5,7.3-2.4,4-13.4-.5-1.4-.3-2.2.4-2.2,2,0,4.3,7,3.9,11.7-.3,4.2-.2,4.3,2.7,4.3s4.1-.7,5.4-1.6c2.1-1.5,2.3-2.2,1.8-7.3-.3-3.1-.9-7-1.3-8.6-.7-2.7-.6-2.9.9-1.6.9.7,2.2,3.9,2.9,7.2.6,3.2,1.5,5.6,2,5.3.4-.3.8-8.7.7-18.7,0-21.2,1.4-32.6,6.7-48.7,3.1-9.3,3.3-10.9,2.2-13.1l-1.3-2.5Z"/>
        <path class="cls-2" d="M418.2,164.9c4.2-.7,12.3-.9,19.2-.6l11.8.5-11.3-6.5c-6.3-3.6-21-11.6-32.6-17.9-24.4-13.1-34.2-19-50.3-30.4-6.3-4.5-14.8-9.7-18.9-11.7-5.4-2.6-8.9-3.6-13.5-3.9-16-.8-28.3,5-32.2,15.1-2.4,6.4-1.3,10.7,4.2,16.2,8.6,8.5,22.1,13.5,61.9,22.9,27,6.3,40.3,10.3,48.7,14.5,5.6,2.9,6,2.9,13,1.8Z"/>
        <path class="cls-5" d="M421.7,202c7,0,12.3.6,18.6,2.2,10.7,2.8,12.2,2.2,12.1-4.5,0-8-6.6-14.2-17.9-17.2-10.3-2.6-19.8-1.4-25.7,3.5-3.8,3.1-5.4,7.4-4.3,11.1,1.1,3.4,6.4,4.9,17.2,4.9Z"/>
        <path class="cls-7" d="M546.3,322.9c-1.6-.7-3.1-1.5-3.4-1.6-.3-.2-1.3,2.3-2.3,5.4-1,3.2-3.3,9-5.2,13-1.9,3.9-3.4,7.4-3.4,7.7,0,1.2,5.5-2.2,8.2-5.1,2.6-2.7,8.8-14.7,8.8-16.9s-1.2-1.7-2.7-2.5ZM537.8,326.1c-.2-.3-2.4.5-5.1,1.8-3.4,1.7-7.1,2.5-13.2,2.9l-8.5.5.6,3.6c1.8,10.4,6.2,14.9,13.1,13.6,2.7-.5,3.9-1.6,6.3-5.8,1.7-2.9,3.9-7.6,5-10.6,1.2-3,1.9-5.7,1.8-6Z"/>
        <!-- <path class="cls-7" d="M537.8,326.1c-.2-.3-2.4.5-5.1,1.8-3.4,1.7-7.1,2.5-13.2,2.9l-8.5.5.6,3.6c1.8,10.4,6.2,14.9,13.1,13.6,2.7-.5,3.9-1.6,6.3-5.8,1.7-2.9,3.9-7.6,5-10.6,1.2-3,1.9-5.7,1.8-6Z"/> -->
        <path fixed='yes' class="cls-8" d="M426.9,237.9c-6.3-4.5-13.9-2.8-18.1,4-3.3,5.2-3.2,15.1,0,20.5,5,8,13.3,10,19.5,4.6,1.9-1.7,4-4.7,4.7-6.7,2.4-7.3-.7-18.4-6.2-22.4Z"/>
        <path class="cls-6" d="M143,364.1v-9.9l-2.9-.7c-4.7-1-7.5-4.9-7.7-10.6,0-2.8-.4-5.2-.5-5.3-1-.9-12.9,2.8-17.9,5.5-18.7,9.9-37.6,34.2-36.8,47.3.3,4.5.6,5.3,3.1,6.4,2.4,1.2,2.8,1.8,2.3,4.1-1.5,6.3-1.8,20.9-.6,24.5,1.4,4.2,5,7.1,8.1,6.3,1.6-.4,2.5.2,3.7,2.6,1,1.8,3.6,5.1,5.8,7.4,3.4,3.5,4.8,4.3,7.7,4.3s4.7-.5,6.1-1.2c2.1-.9,2.4-1.6,1.9-3.6-1-4.1,1.7-2.1,3.3,2.3,3.5,10.3,16.5,13.3,26,6,3.1-2.4,3.9-2.6,6-1.6,4.4,2,9.3,1.4,11.9-1.5,1.4-1.5,2.5-3.1,2.5-3.5s-2.2-5.3-4.9-10.6c-10.9-21.9-17.1-46.5-17.1-68.2Z"/>
        <path class="cls-4" d="M545.4,307c-14.5,0-31.4-10.9-31.4-20.2s4.7-7.3,12.4-9.7c7.5-2.3,24.5-4.4,31.6-3.9,2.7.1,5,0,5-.3,0-1-7.9-7.2-15.5-12.2-12.9-8.4-14.1-9.9-26-33.1-13.6-26.5-21.3-36.4-35.9-46-13.3-8.7-26.1-12.9-44.5-14.5-25.3-2.2-46.3,4.1-62.4,19l-6.1,5.5,6.7,3.7c6.8,3.8,8.3,5.2,6.9,6.1-.4.2-4.4-1.6-8.7-4.2-29.3-17-78-31.7-126.5-38.2-17.5-2.4-55.6-3.5-67.7-2-18.2,2.3-33.5,8.2-40.2,15.5-8.4,9.1-7.6,17.1,2.8,26.8,10.1,9.3,28.8,17.6,53.1,23.7,27.3,6.8,49.4,8.9,106.5,9.9,40.2.8,46.1,1.1,55.5,3.1,5.8,1.2,10.9,2.5,11.4,3,2,2-.5,2.1-6.7.6-3.5-.9-9.7-2-13.8-2.6l-7.4-.9-2.7,3.2c-4.1,4.8-9.2,15.1-8.5,17,.9,2.3,4.5,2.1,8.6-.4,1.8-1.1,3.6-1.8,3.8-1.5.3.3-.5,2.9-1.7,5.8-3.1,7.1-4.1,24.2-1.6,27.3,1.6,2,1.7,1.9,5.1-1.9,3.7-4.2,3.6-4.3,5.5,3.9,1.7,7.6,7.4,18.4,12.4,23.9,5.1,5.5,5.2,5.6,3.2,5.6-4,0-14.8-16.5-17.6-26.9-1.1-4-1.2-4.2-2.9-2.7-3.9,3.5-8,1-9.7-5.7-.8-3.3-3.2-4.5-18.4-9.5-34.9-11.5-73.5-13.4-105.4-5.1-35.7,9.2-59,33.9-66.9,70.9-2.9,13.7-2.8,34.8.3,49,6,28,14.8,47.2,31.5,68,7.8,9.7,9.7,13.9,9.3,21.2-.2,4.2-.7,6.3-1.7,6.6-1.1.4-1.3-.2-.8-2.7.4-1.7.2-3.1-.3-3.1-1.8,0-7.9,7.3-9.1,10.7-1.5,4.6-.7,12.8,1.6,17.8,4.4,9.1,26.4,26.9,56.9,46.1,26.6,16.6,44.1,24.5,54.9,24.8,6.8,0,8-1,7.4-7.1-.5-5-3.9-9.9-9.7-14-4.1-2.9-5-4.3-2.7-4.3s9.8,6.3,12.4,10.8c1.9,3.3,2.7,5.8,2.6,9.3v4.7c0,0,2.9-1,2.9-1,4-1.4,6.8-6.2,6.8-11.9s-4.2-12.7-9.9-16.5c-4.3-2.8-5.2-4.4-2.6-4.4s4.3,2.6,7.5,5.8c5.6,5.4,6,5.6,6,3.2,0-4.6-5.7-12.8-12.3-17.7-3.4-2.5-14.7-8.7-25.2-13.7-10.4-5.1-20.9-10.4-23.2-11.9-3.6-2.3-5.4-2.7-11.1-2.7s-7.5-.5-8.7-1.4c-1.8-1.3-1-1.4,6.5-1.3,17.6.2,27-6.5,33-23.5,6.3-18.1,4-38.7-6.2-56.3-4.8-8.1-17.6-21.4-26-27-5.7-3.7-7.1-5.5-4.5-5.5s19.3,13.8,25,20.6c3.2,3.8,7.9,10.9,10.3,15.9,5.9,11.9,7.7,20.9,7.1,34.7l-.5,10.8h4c5.9,0,16.6-2.7,22.7-5.8l5.5-2.7-.3-5.5c-.2-5.1,1.1-17.1,2.5-22.6.5-1.9.3-2.2-1.5-1.7-10.5,2.7-4-23.8,11.5-46.7,6.3-9.3,9-12.3,10.2-11.6.7.4-.9,3.2-3.8,7.1-11.1,14.6-20.1,33.7-20.4,42.9,0,6.3,1.7,7,6.8,2.6,4.5-4,6.8-3.5,3.3.6-3.9,4.6-5.1,10.5-5.1,25.6,0,16.2.8,18.4,5.3,13,1.5-1.7,3-3.2,3.4-3.2s.4,4.2,0,9.3c-.6,9.7.9,23.9,3.1,29.2l1.3,3,2.2-4.3c1.2-2.4,2.5-4.1,2.8-3.8.3.3.7,3,.9,6.1.3,3,1.6,9.8,2.9,15.1,7,27.8,27.3,51.4,44,51.4s11.1-6.4,4.9-14.5c-4.1-5.5-3.7-7.1.7-2.9,4,3.7,6.2,8.8,5.4,12.5-.5,2.4-.3,2.9,1.2,2.9,4.2,0,8.3-5.6,8.3-11.2s-2.1-7.3-6.2-9.4c-2.1-1.1-2.7-1.9-2-2.6,1.3-1.3,7.7,2.4,8.6,4.9.4.9.9,1.3,1.2,1s-2.4-6.5-6-13.9c-11.4-23.2-15.3-42.5-14.3-71.8.6-18.1,2.1-28.7,6.8-48.7,2.8-12,4.1-15.4,5.5-14,.3.2-.7,5.1-2.1,10.8-2.6,9.9-6.5,30.4-6.5,33.6s5.7,1,11.8-1.9c4.8-2.3,6.4-1.8,3.8,1.1-1,1.1-1.6,3-1.4,4.3.2,1.8.9,2.3,3.2,2.1,7-.5,17.5-8.8,22.8-18.1,3.8-6.5,5.2-6.7,4.4-.5-.8,6,.3,7.8,3.9,6.9,4.1-1,14.8-12.2,17.6-18.4,1.3-2.8,2.7-5.2,3-5.2s1,2.4,1.3,5.4c1.3,9.9,4.8,10,9.5.4,4.2-8.4,6.4-19.6,5.7-27.6-.4-3.4-.4-6.2,0-6.2s2.7,2.2,5.3,5c6,6.2,7.8,6.4,9.2.8,2.4-8.7-2.8-24-11.3-33.4l-4.2-4.6h-12.5c-14.1.2-24.2-.8-24.7-2.3-.2-.7,5.8-.9,17.7-.7,25.2.6,41-2.1,56.8-9.3,6.7-3.1,7.3-3.6,6.6-5.7-.4-1.3-1-4.1-1.3-6.3-.5-3.6-1-4-4.7-5.1-6.7-1.9-11.4-4.9-20.8-12.8-4.9-4.2-9.8-7.8-10.8-8.2-1-.3-1.8-1-1.8-1.5,0-2.8,6.7,1.1,17,9.9,3.4,2.9,8.5,6.5,11.3,8,4.8,2.5,6.1,2.7,17.2,2.7s12.4-.2,16.5-2.5c2.5-1.4,6.1-4.7,8-7.2,2.1-2.9,3.8-4.4,4.4-3.8s.4,1.5-.3,2.4c-1.6,1.9-.9,3,2.9,4.6,3.7,1.5,6.9.8,10.8-2.5,3.5-2.9,6.1-8,7.8-15.1l1.1-5.1-4.9,3.3c-5.8,4-10.5,5.4-17.4,5.4ZM363.5,223.3l-3.6-3.6-25.2.9c-39.9,1.4-74.1,1-88.2-1-48.9-7.1-84.3-21.4-88.6-35.7-.9-2.7-1.8-3.9-3.1-3.9s-1.8-.5-1.8-1.1c0-1.7,56.8-.5,74,1.5,41.1,4.8,69.8,12,109.8,27.2,21.2,8.1,26.9,10.9,30.1,15,4.3,5.5,1.9,6-3.4.7ZM411.3,181.5c7-3.3,19-3.5,27.3-.4,10.9,4.1,18.9,14.7,16.8,22.2-1.6,5.6-4.7,6.2-16.1,3.2-7.5-1.9-12.2-2.5-20.4-2.5s-10.9-.2-13.8-2.6c-2.6-2.1-3.1-3.3-3.1-6.7,0-6,3-10.3,9.3-13.2ZM441.2,294.9c-5.2,2.6-14.8,4.4-19.9,3.7-18.4-2.5-30.3-19.2-30.4-42.6,0-20,8.7-34.8,23.3-39.6,6.7-2.2,16.4-1.3,22.7,2.1,26.9,14.7,29.7,63.5,4.3,76.4Z"/>
        <path class="cls-3" d="M567.9,277.3c-3.2-1.1-21.7-1.5-28.4-.6-5.7.8-14.9,3.5-18.7,5.4-3.2,1.6-3.8,2.4-3.8,5.1s1.1,4.2,4.9,7.9c9.6,9.2,25.1,12.1,35.7,6.6,6.4-3.2,13-10.7,14.5-16.1,1.3-4.9.5-6.7-4.2-8.3Z"/>
        <path fixed='yes' class="cls-8" d="M434.2,219.8c-8-3.2-18-2.5-25,1.9-4.2,2.6-11.2,10.3-11.2,12.3s2-.3,4.5-1.6c11.3-6.4,25.9-.9,33.9,12.9,8.5,14.5,6.8,36.6-3.7,47.5l-3.2,3.3,3-.7c7.6-1.8,14.7-6.9,18.7-13.4,7.3-12.1,6.1-35-2.6-48.8-2.9-4.6-10.7-11.9-14.4-13.4Z"/>
        <path class="cls-4" d="M340.4,97.3c1.1.6,6.5,4.3,12,8,22.8,15.5,30.4,20.1,55.2,33.5,14.2,7.7,31.1,17,37.4,20.7,9.5,5.6,20.8,10.4,24.3,10.5,2.7,0-15-19.2-25.8-28-20.9-17.1-56.8-34.5-87.7-42.4-5.1-1.3-11.1-2.6-13.3-3-3.4-.5-3.7-.4-2.1.7Z"/>
      </g>
    </g>
  </g>
</svg>