<?xml version="1.0" standalone="no"?>
<!DOCTYPE svg PUBLIC "-//W3C//DTD SVG 20010904//EN"
 "http://www.w3.org/TR/2001/REC-SVG-20010904/DTD/svg10.dtd">
<svg version="1.0" xmlns="http://www.w3.org/2000/svg"
 width="655.000000pt" height="655.000000pt" viewBox="0 0 655.000000 655.000000"
 preserveAspectRatio="xMidYMid meet">

<g transform="translate(0.000000,655.000000) scale(0.100000,-0.100000)"
fill="#000000" stroke="none">
<path d="M3069 5616 c-117 -31 -189 -105 -197 -201 -12 -150 141 -243 568
-345 410 -99 646 -170 623 -189 -4 -4 -34 -17 -66 -29 -71 -26 -174 -92 -245
-157 l-53 -48 -77 36 c-601 280 -1549 413 -1992 281 -233 -69 -338 -225 -246
-364 86 -130 368 -260 711 -329 260 -53 635 -81 1063 -81 133 0 242 -3 242 -6
0 -3 -13 -24 -29 -47 -43 -64 -61 -103 -61 -135 0 -39 22 -55 66 -50 32 4 35
2 29 -16 -3 -12 -11 -53 -17 -92 l-12 -70 -108 38 c-249 87 -449 122 -703 122
-269 0 -442 -36 -630 -129 -182 -91 -298 -206 -390 -390 -56 -110 -105 -271
-105 -341 0 -30 -3 -34 -25 -34 -45 0 -67 34 -64 98 l3 57 -55 -1 c-139 -3
-342 -141 -456 -310 -105 -155 -127 -269 -63 -323 19 -15 20 -21 10 -96 -21
-157 14 -255 91 -255 21 0 33 -9 53 -44 52 -88 122 -122 195 -94 37 15 38 15
57 -14 47 -70 155 -87 248 -38 46 24 61 27 82 20 50 -19 84 -12 121 25 20 20
37 34 38 33 135 -179 173 -234 182 -262 10 -33 9 -35 -33 -71 -63 -52 -88
-105 -88 -185 1 -82 25 -132 108 -218 136 -143 579 -441 815 -548 152 -70 232
-85 342 -64 97 19 129 73 132 224 2 95 -15 136 -85 202 -66 62 -94 79 -330
196 -120 59 -218 112 -218 117 0 5 12 12 27 16 64 16 158 114 183 191 7 19 17
34 23 34 7 0 44 -12 84 -26 39 -14 136 -45 214 -68 l143 -41 14 -55 c7 -30 18
-61 24 -67 13 -17 45 -17 51 0 2 6 9 -15 16 -48 22 -113 72 -253 117 -330 84
-142 227 -268 331 -290 37 -7 178 20 211 41 28 18 58 66 74 117 14 47 2 91
-52 185 -22 38 -40 71 -40 74 0 3 35 5 78 4 72 -1 80 1 123 32 68 49 71 61 64
241 -8 182 12 324 67 489 31 91 35 98 73 117 45 23 125 98 153 145 l20 31 18
-38 c23 -47 43 -51 81 -19 51 43 103 191 103 295 l0 54 23 -20 c80 -74 127
-43 127 84 0 90 -43 195 -121 294 l-28 36 109 21 c103 21 239 67 287 98 20 12
23 12 35 -5 25 -35 57 -44 136 -37 41 4 87 13 102 21 51 26 96 93 130 189 15
41 23 51 55 61 20 7 46 21 57 32 32 29 65 103 82 187 9 43 26 96 37 118 13 26
19 54 17 81 -3 37 -7 44 -37 59 -19 10 -57 39 -85 66 -28 27 -92 77 -142 110
-51 34 -105 77 -122 98 -17 20 -70 113 -118 208 -48 94 -104 197 -125 228 -86
126 -188 224 -301 287 -45 25 -80 53 -105 87 -114 152 -233 263 -402 376 -239
160 -625 313 -910 362 -111 19 -267 20 -332 2z m292 -49 c41 -20 126 -72 189
-117 161 -114 259 -173 503 -304 116 -63 263 -143 326 -179 l113 -65 -118 5
c-69 3 -150 1 -192 -6 -70 -11 -74 -11 -130 18 -84 42 -217 82 -487 145 -398
94 -533 144 -619 229 -55 55 -66 98 -42 162 39 101 162 159 322 151 46 -3 81
-13 135 -39z m197 -13 c309 -79 668 -253 877 -424 108 -88 285 -280 258 -280
-35 1 -148 49 -243 105 -63 37 -232 130 -374 207 -248 134 -324 180 -552 335
-55 37 -109 74 -120 80 -16 11 -13 12 21 7 22 -4 82 -17 133 -30z m-1048 -594
c485 -65 972 -212 1265 -382 43 -26 83 -44 87 -42 14 9 -1 23 -69 61 l-67 37
61 55 c161 149 371 212 624 190 184 -16 312 -58 445 -145 146 -96 223 -195
359 -460 119 -232 131 -247 260 -331 76 -50 155 -112 155 -122 0 -3 -23 -4
-50 -3 -71 5 -241 -16 -316 -39 -77 -24 -124 -61 -124 -97 0 -93 169 -202 314
-202 69 0 116 14 174 54 l49 33 -11 -51 c-17 -71 -43 -122 -78 -151 -39 -33
-71 -40 -108 -25 -38 16 -45 27 -29 46 7 9 9 18 3 24 -6 6 -23 -9 -44 -38 -19
-25 -55 -58 -80 -72 -41 -23 -55 -25 -165 -25 -111 0 -124 2 -172 27 -28 15
-79 51 -113 80 -103 88 -170 127 -170 99 0 -5 8 -12 18 -15 10 -4 59 -40 108
-82 94 -79 141 -109 208 -128 37 -11 42 -15 47 -51 3 -22 9 -50 13 -63 7 -21
1 -26 -66 -57 -158 -72 -316 -99 -568 -93 -119 2 -179 0 -177 -7 5 -15 106
-25 247 -24 l125 1 42 -46 c85 -94 137 -247 113 -334 -14 -56 -32 -54 -92 8
-26 28 -50 50 -53 50 -3 0 -3 -28 1 -62 7 -80 -15 -192 -57 -276 -47 -96 -82
-95 -95 4 -3 30 -9 54 -13 54 -3 0 -17 -24 -30 -52 -28 -62 -135 -174 -176
-184 -36 -9 -47 9 -39 69 8 62 -6 60 -44 -5 -53 -93 -158 -176 -228 -181 -23
-2 -30 3 -32 21 -2 13 4 32 14 43 26 29 10 34 -38 11 -61 -29 -118 -39 -118
-19 0 32 39 237 65 336 14 57 24 106 21 108 -14 14 -27 -20 -55 -140 -47 -200
-62 -306 -68 -487 -10 -293 29 -486 143 -718 36 -74 63 -136 60 -139 -3 -3 -8
1 -12 10 -9 25 -73 62 -86 49 -7 -7 -1 -15 20 -26 41 -21 62 -53 62 -94 0 -56
-41 -111 -83 -112 -15 0 -17 5 -12 29 8 37 -14 88 -54 125 -44 42 -48 26 -7
-29 62 -81 40 -145 -49 -145 -167 0 -370 236 -440 514 -13 53 -26 121 -29 151
-2 31 -6 58 -9 61 -3 3 -16 -14 -28 -38 l-22 -43 -13 30 c-22 53 -37 195 -31
292 4 51 4 93 0 93 -4 0 -19 -15 -34 -32 -45 -54 -54 -32 -53 130 0 151 12
210 51 256 35 41 12 46 -33 6 -51 -44 -69 -37 -68 26 3 92 93 283 204 429 29
39 45 67 38 71 -12 7 -39 -23 -102 -116 -155 -229 -220 -494 -115 -467 18 5
20 2 15 -17 -14 -55 -27 -175 -25 -226 l3 -55 -55 -27 c-61 -31 -168 -58 -227
-58 l-40 0 5 108 c6 138 -12 228 -71 347 -24 50 -71 121 -103 159 -57 68 -225
206 -250 206 -26 0 -12 -18 45 -55 84 -56 212 -189 260 -270 102 -176 125
-382 62 -563 -60 -170 -154 -237 -330 -235 -75 1 -83 0 -65 -13 12 -9 44 -14
87 -14 57 0 75 -4 111 -27 23 -15 128 -68 232 -119 105 -50 218 -112 252 -137
66 -49 123 -131 123 -177 0 -24 -4 -22 -60 32 -32 32 -66 58 -75 58 -26 0 -17
-16 26 -44 57 -38 99 -108 99 -165 0 -57 -28 -105 -68 -119 l-30 -10 1 47 c1
35 -7 60 -26 93 -26 45 -99 108 -124 108 -23 0 -14 -14 27 -43 58 -41 92 -90
97 -140 6 -61 -6 -72 -74 -71 -108 3 -283 82 -549 248 -305 192 -525 370 -569
461 -23 50 -31 132 -16 178 12 34 73 107 91 107 5 0 7 -14 3 -31 -5 -25 -3
-31 8 -27 10 3 15 24 17 66 4 73 -15 115 -93 212 -167 208 -255 400 -315 680
-31 142 -32 353 -3 490 79 370 312 617 669 709 319 83 705 64 1054 -51 152
-50 176 -62 184 -95 17 -67 58 -92 97 -57 17 15 18 13 29 -27 28 -104 136
-269 176 -269 20 0 19 1 -32 56 -50 55 -107 163 -124 239 -19 82 -18 81 -55
39 -34 -38 -35 -39 -51 -19 -25 31 -15 202 16 273 12 29 20 55 17 58 -2 3 -20
-4 -38 -15 -41 -25 -77 -27 -86 -4 -7 19 44 122 85 170 l27 32 74 -9 c41 -6
103 -17 138 -26 62 -15 87 -14 67 6 -5 5 -56 18 -114 30 -94 20 -153 23 -555
31 -571 10 -792 31 -1065 99 -243 61 -430 144 -531 237 -104 97 -112 177 -28
268 67 73 220 132 402 155 121 15 502 4 677 -20z m3169 -1183 c47 -16 55 -34
42 -83 -15 -54 -81 -129 -145 -161 -106 -55 -261 -26 -357 66 -38 37 -49 54
-49 79 0 27 6 35 38 51 38 19 130 46 187 54 67 9 252 5 284 -6z m-216 -456
c15 -8 27 -19 27 -25 0 -22 -62 -142 -88 -169 -27 -29 -82 -63 -82 -51 0 3 15
38 34 77 19 40 42 98 52 130 10 31 20 56 23 54 3 -1 18 -9 34 -16z m-103 -92
c-11 -30 -33 -77 -50 -106 -24 -42 -36 -53 -63 -58 -69 -13 -113 32 -131 136
l-6 36 85 5 c61 4 98 12 132 29 27 13 49 21 51 18 1 -3 -6 -30 -18 -60z
m-4036 -108 c2 -57 30 -96 77 -106 l29 -7 0 -99 c0 -217 62 -463 171 -682 27
-53 49 -101 49 -106 0 -4 -11 -20 -25 -35 -26 -29 -75 -35 -119 -15 -21 10
-29 8 -60 -16 -95 -73 -225 -43 -260 60 -16 44 -43 64 -33 23 5 -20 2 -27 -19
-36 -14 -7 -41 -12 -61 -12 -29 0 -43 8 -77 43 -22 23 -48 56 -58 74 -12 24
-21 30 -37 26 -31 -8 -67 21 -81 63 -12 36 -9 182 6 245 5 23 1 29 -23 41 -25
11 -28 19 -31 64 -8 131 181 374 368 473 50 27 169 64 179 55 1 -1 4 -25 5
-53z m2902 -1131 c-53 -161 -68 -275 -67 -487 1 -100 -3 -184 -7 -187 -5 -3
-14 21 -20 53 -7 33 -20 65 -29 72 -15 13 -16 11 -9 -16 4 -16 10 -55 13 -86
5 -51 3 -58 -18 -73 -13 -9 -37 -16 -54 -16 -29 0 -30 1 -27 43 4 47 -19 117
-39 117 -7 0 -9 -8 -4 -22 33 -110 21 -149 -40 -134 -20 5 -28 19 -49 84 -54
173 -79 389 -67 587 l6 100 48 7 c27 4 52 9 55 13 3 3 11 -9 16 -27 10 -28 16
-33 48 -36 52 -4 131 39 198 107 l55 57 13 -25 c11 -22 9 -38 -22 -131z
m-1113 -181 c17 -2 20 -1 38 6 15 5 17 -5 17 -89 1 -74 -2 -96 -13 -96 -18 0
-297 84 -360 109 -73 28 -70 45 7 49 79 3 164 25 225 56 l48 24 13 -29 c6 -16
18 -30 25 -30z"/>
<path d="M1530 4761 c0 -6 8 -11 18 -11 13 0 22 -12 31 -39 43 -143 397 -286
886 -357 141 -20 483 -24 882 -10 l252 9 36 -36 c53 -53 77 -48 34 7 -32 41
-89 69 -301 150 -400 152 -687 224 -1098 272 -172 20 -740 32 -740 15z m490
-21 c485 -30 855 -108 1305 -277 l210 -78 -105 -7 c-313 -20 -595 -27 -748
-17 -475 28 -976 181 -1063 322 -39 64 -34 67 109 67 70 0 201 -5 292 -10z"/>
<path d="M4113 4735 c-63 -29 -93 -72 -93 -132 0 -34 5 -46 31 -67 29 -24 37
-26 138 -26 82 0 129 -6 204 -25 114 -30 145 -24 161 32 21 75 -59 181 -168
222 -83 31 -203 29 -273 -4z m232 -10 c113 -30 178 -92 179 -172 1 -67 -14
-73 -121 -45 -63 16 -116 22 -186 22 -108 0 -161 15 -172 49 -11 37 5 80 43
111 59 49 154 61 257 35z"/>
<path d="M4142 4386 c-146 -48 -233 -196 -233 -396 1 -234 120 -401 304 -426
51 -7 147 11 199 37 254 129 226 617 -43 764 -63 34 -160 43 -227 21z m200
-34 c37 -15 115 -88 144 -134 87 -138 99 -367 26 -488 -40 -65 -111 -116 -187
-134 l-30 -7 32 33 c105 109 122 330 37 475 -80 138 -226 193 -339 129 -25
-13 -45 -21 -45 -16 0 20 70 97 112 123 70 44 170 51 250 19z m-73 -181 c55
-40 86 -151 62 -224 -7 -20 -28 -50 -47 -67 -62 -54 -145 -34 -195 46 -33 54
-34 153 -1 205 42 68 118 85 181 40z"/>
</g>
</svg>
