<?xml version="1.0" standalone="no"?>
<!DOCTYPE svg PUBLIC "-//W3C//DTD SVG 20010904//EN"
 "http://www.w3.org/TR/2001/REC-SVG-20010904/DTD/svg10.dtd">
<svg version="1.0" xmlns="http://www.w3.org/2000/svg"
 width="655.000000pt" height="655.000000pt" viewBox="0 0 655.000000 655.000000"
 preserveAspectRatio="xMidYMid meet">

<g transform="translate(0.000000,655.000000) scale(0.100000,-0.100000)"
fill="#000000" stroke="none">
<path d="M3783 5581 c-97 -36 -170 -99 -216 -185 -16 -31 -21 -59 -22 -113 0
-72 0 -72 -25 -65 -47 13 -144 5 -191 -15 -103 -46 -169 -139 -169 -238 0 -60
19 -117 51 -151 l21 -22 -34 -7 c-57 -13 -124 -52 -164 -98 l-39 -44 -61 5
c-140 10 -230 -61 -249 -195 -7 -51 -7 -52 -33 -42 -46 18 -155 27 -218 18
-124 -17 -223 -85 -264 -181 -30 -71 -25 -170 13 -245 15 -29 27 -54 27 -55 0
-2 -33 -3 -73 -4 -160 -1 -277 -106 -277 -250 l0 -39 -82 0 c-65 0 -94 -5
-133 -23 -62 -28 -121 -84 -146 -137 -25 -55 -25 -156 1 -214 21 -45 19 -61
-6 -61 -27 0 -88 -37 -126 -77 -75 -77 -106 -204 -74 -301 18 -52 90 -132 121
-132 8 0 15 -4 15 -10 0 -5 -4 -10 -9 -10 -5 0 -27 -19 -50 -41 -55 -56 -79
-131 -62 -203 13 -56 49 -109 93 -136 l30 -18 -35 -11 c-19 -7 -59 -26 -89
-44 -54 -33 -54 -33 -83 -15 -46 27 -131 24 -177 -7 -42 -29 -74 -98 -65 -144
6 -28 6 -29 -55 -35 -179 -21 -300 -133 -301 -280 -1 -107 57 -180 152 -193
40 -6 51 -16 31 -28 -23 -14 -51 -89 -52 -135 -1 -126 104 -205 239 -180 31 5
58 10 59 10 1 0 6 -15 9 -33 27 -120 139 -207 270 -207 82 0 142 26 208 90 53
52 59 55 68 38 32 -60 156 -79 223 -33 l36 25 37 -41 c55 -60 123 -91 213 -97
73 -4 91 0 191 42 12 5 18 0 23 -20 12 -47 65 -112 114 -141 43 -25 56 -28
143 -28 88 0 101 3 157 31 l61 32 47 -24 c26 -13 56 -24 66 -24 24 0 76 26
104 52 21 19 22 19 71 -1 270 -106 811 -195 1198 -196 249 0 272 6 315 87 23
45 28 48 65 48 96 1 165 64 165 153 0 44 2 47 25 47 36 0 98 34 128 70 29 34
42 86 34 128 l-5 27 81 0 c106 0 148 20 178 81 16 33 21 62 20 117 -1 165 -44
212 -216 237 -44 6 -106 16 -137 22 -67 12 -61 -1 -102 213 -29 151 -53 346
-65 528 l-9 128 41 38 c37 35 41 43 45 98 l4 61 97 7 c53 3 114 5 136 4 128
-8 191 -3 240 19 98 45 135 98 135 197 l0 65 63 63 c72 70 100 129 119 252 33
210 -69 392 -327 587 -112 84 -205 165 -205 179 0 4 20 0 45 -11 188 -81 347
-86 490 -16 116 57 195 151 215 255 20 106 -28 208 -108 231 -55 15 -150 12
-322 -10 -271 -35 -431 -25 -578 36 l-63 27 38 17 c44 19 90 69 99 106 10 40
-3 96 -34 139 l-28 40 18 40 c79 177 -95 375 -274 311 l-38 -14 0 52 c-1 205
-256 304 -398 153 l-34 -35 -36 40 c-54 60 -103 81 -197 85 -61 3 -92 -1 -132
-16z m250 -38 c27 -15 62 -46 80 -70 l31 -43 41 44 c47 51 113 85 166 86 19 0
59 -12 88 -26 87 -44 136 -142 114 -226 -6 -21 -7 -40 -3 -43 4 -2 24 5 46 15
53 28 129 26 185 -3 95 -50 133 -178 81 -275 l-23 -44 30 -34 c98 -111 29
-234 -132 -234 -49 0 -75 6 -111 25 -26 14 -51 23 -56 20 -5 -3 -2 -21 6 -40
19 -46 18 -129 -2 -172 -36 -75 -143 -122 -235 -102 -27 6 -65 21 -84 35 -20
13 -38 24 -40 24 -3 0 -2 -27 1 -59 8 -75 1 -102 -37 -146 -38 -43 -121 -71
-181 -61 -52 9 -63 0 -38 -31 11 -14 20 -32 20 -39 0 -20 -29 -44 -54 -44 -20
0 -25 -7 -35 -59 -13 -68 -55 -132 -103 -158 -21 -11 -56 -17 -93 -18 -78 0
-129 30 -157 92 l-20 44 -26 -17 c-61 -40 -88 -49 -153 -49 -53 0 -72 5 -101
24 -97 67 -115 190 -42 288 13 17 24 36 24 41 0 5 -26 15 -57 21 -128 25 -189
94 -180 202 3 30 14 73 25 95 44 85 141 154 218 154 23 0 44 3 47 6 4 4 -7 23
-25 42 -87 100 -89 208 -5 299 23 25 59 54 81 65 49 25 150 35 197 19 19 -6
39 -10 44 -8 6 1 9 33 7 78 -3 65 0 83 21 125 82 161 293 236 440 157z m662
-878 c72 -17 124 -47 188 -105 71 -65 112 -130 132 -208 22 -86 16 -110 -13
-50 -56 113 -201 178 -309 137 -129 -48 -164 -240 -67 -366 l29 -38 -45 27
c-35 20 -50 37 -65 75 -30 74 -69 135 -126 197 l-51 56 30 0 c49 0 115 29 154
67 52 51 73 108 64 179 -6 51 -5 56 11 49 10 -4 41 -13 68 -20z m-1718 -49 c1
-1 -5 -26 -13 -56 -33 -126 25 -227 153 -266 32 -10 59 -19 61 -19 1 -1 -10
-24 -25 -50 -20 -36 -26 -62 -26 -104 0 -168 164 -263 326 -189 31 15 57 23
57 18 0 -5 12 -22 26 -39 25 -30 25 -34 14 -80 -25 -106 -94 -192 -348 -434
-167 -159 -224 -261 -208 -375 25 -186 214 -289 436 -236 273 64 438 283 459
609 l6 100 34 -65 c59 -113 123 -202 214 -297 162 -168 356 -277 602 -337 87
-22 90 -23 93 -53 4 -42 -21 -98 -52 -118 -15 -10 -47 -20 -72 -23 -44 -5 -45
-6 -39 -31 4 -14 9 -60 12 -102 4 -67 2 -82 -20 -125 -30 -60 -49 -77 -111
-105 -35 -15 -61 -20 -92 -16 l-43 4 -7 -46 c-14 -101 -65 -169 -142 -191 -54
-15 -77 -13 -134 12 -41 17 -53 19 -56 9 -10 -29 -79 -95 -117 -112 -45 -21
-110 -24 -152 -8 -15 5 -45 27 -65 46 -42 41 -63 38 -31 -5 35 -47 99 -76 170
-76 l63 0 16 -55 c8 -31 34 -112 57 -180 l41 -123 -27 -24 c-19 -16 -41 -24
-66 -24 -36 0 -39 -2 -50 -40 -14 -49 -58 -80 -112 -80 -67 0 -349 95 -481
161 l-38 19 20 38 c35 66 36 198 3 209 -9 3 -10 -14 -6 -65 7 -87 -7 -130 -57
-176 -42 -38 -103 -53 -164 -42 -30 6 -34 11 -40 48 -9 52 -41 128 -55 128
-15 0 -14 -16 4 -49 43 -85 39 -191 -12 -264 -29 -42 -97 -87 -131 -87 -27 0
-27 -6 -1 -65 18 -41 20 -53 10 -86 -14 -46 -51 -77 -103 -85 -21 -4 -38 -10
-38 -15 0 -12 67 -11 91 1 16 9 35 3 98 -28 43 -22 84 -42 92 -45 10 -4 7 -12
-14 -31 -37 -34 -90 -35 -139 -1 l-36 24 -72 -37 c-65 -33 -80 -37 -149 -36
-58 0 -86 5 -118 22 -50 26 -100 84 -115 136 -14 46 -30 54 -63 32 -14 -9 -53
-23 -86 -32 -139 -36 -267 23 -329 150 -26 53 -32 77 -34 142 -1 64 -4 78 -16
75 -8 -2 -37 -10 -65 -18 -193 -53 -330 136 -235 323 16 32 30 62 30 67 0 4
-37 4 -83 1 -113 -9 -183 11 -241 70 -53 53 -70 100 -63 176 6 73 33 124 94
182 58 53 87 70 166 93 31 9 57 20 57 25 0 5 -19 18 -42 28 -150 66 -157 263
-13 350 46 28 58 52 27 52 -10 0 -40 14 -66 30 -112 71 -118 252 -12 377 31
36 100 73 139 73 38 0 41 14 11 71 -37 75 -42 142 -14 207 45 104 143 158 273
150 40 -3 79 -7 87 -9 10 -3 14 2 12 16 -13 95 4 160 56 211 55 55 96 69 205
69 53 0 97 3 97 6 0 3 -14 33 -30 65 -46 90 -57 156 -36 227 38 129 180 208
350 194 40 -4 91 -13 115 -22 24 -8 47 -15 52 -15 5 0 9 22 9 49 0 116 60 187
170 204 20 2 89 -2 97 -7z m2804 -43 c16 -10 38 -36 49 -58 75 -156 -71 -359
-292 -406 -171 -37 -488 69 -488 163 0 15 5 14 53 -7 201 -92 461 -67 571 56
44 48 48 94 13 135 -34 39 -108 42 -313 14 -142 -20 -174 -22 -237 -12 -97 15
-165 46 -207 95 -33 39 -34 40 -10 33 65 -19 182 -35 252 -36 63 0 276 22 423
44 56 8 155 -3 186 -21z m-581 -138 c63 0 176 8 251 18 109 15 145 16 178 7
83 -22 74 -100 -18 -160 -127 -85 -330 -89 -495 -12 -58 28 -62 32 -82 88 -12
32 -24 66 -28 76 -7 15 -4 15 36 0 30 -11 78 -16 158 -17z m-808 -112 c51 -53
118 -146 118 -165 0 -4 -16 4 -36 17 -109 74 -251 50 -321 -54 -94 -139 -19
-359 143 -420 l49 -19 -37 -7 c-47 -9 -131 9 -183 40 -90 52 -191 206 -202
309 -5 40 -3 44 21 50 34 8 59 48 54 86 -4 30 -4 30 41 30 113 0 204 82 205
184 l1 54 45 -23 c25 -13 70 -50 102 -82z m395 50 c12 -8 29 -34 39 -58 20
-54 7 -102 -37 -140 -81 -68 -191 5 -176 116 12 88 100 129 174 82z m273 -183
c0 -22 139 -155 249 -239 248 -189 330 -324 318 -525 -9 -162 -68 -270 -178
-325 -34 -17 -77 -31 -96 -31 l-33 0 0 53 c0 38 -8 69 -27 108 l-28 54 41 37
c62 57 97 136 102 236 8 139 -30 222 -101 222 -40 0 -54 -14 -96 -97 -36 -72
-84 -124 -144 -155 -32 -16 -67 -23 -155 -28 -96 -5 -115 -9 -134 -27 -62 -62
24 -181 165 -227 64 -21 179 -20 245 3 l53 18 19 -27 c54 -76 50 -176 -9 -268
-136 -209 -418 -227 -775 -50 -129 63 -213 123 -306 217 -89 90 -165 198 -227
322 -35 72 -48 111 -59 187 -8 54 -23 128 -34 167 l-20 69 24 26 c13 14 29 36
36 49 12 23 13 21 36 -35 67 -165 185 -262 329 -272 130 -8 238 57 293 176 22
47 26 72 27 139 0 46 2 82 5 80 64 -39 111 -52 185 -52 70 0 87 4 134 30 61
33 115 92 131 141 11 31 30 47 30 24z m-695 -61 c123 -108 3 -303 -136 -222
-38 23 -59 64 -59 118 0 84 45 134 122 135 28 0 46 -8 73 -31z m-746 -280 c45
-16 53 -44 35 -120 -30 -127 -82 -198 -287 -383 -127 -115 -164 -188 -137
-270 26 -80 142 -107 240 -57 223 114 330 467 229 758 -10 31 -19 57 -19 58 0
1 21 5 48 8 26 3 56 7 66 9 16 3 22 -9 37 -67 45 -173 49 -395 10 -546 -69
-269 -273 -439 -526 -439 -91 0 -152 21 -211 73 -91 80 -110 190 -53 308 27
53 64 96 225 254 208 205 261 272 290 365 11 33 19 60 20 60 1 0 16 -5 33 -11z
m1718 -104 c26 -18 53 -100 53 -161 0 -87 -50 -199 -115 -257 -37 -33 -121
-67 -182 -73 -146 -16 -331 93 -309 182 7 28 19 31 145 38 73 4 105 10 146 31
63 31 124 94 161 167 44 89 61 101 101 73z m-1630 -180 c5 -103 2 -132 -16
-200 -56 -203 -192 -345 -330 -345 -45 0 -57 4 -82 29 -23 23 -29 38 -29 71 0
79 25 113 217 287 111 102 173 185 200 269 15 50 18 53 26 32 5 -13 12 -77 14
-143z m1737 -521 c20 -52 -12 -147 -62 -182 -59 -42 -155 -66 -224 -54 l-43 7
36 23 c50 30 121 109 145 158 17 37 24 42 69 51 73 14 72 14 79 -3z m-686
-626 c23 -310 75 -610 152 -871 22 -76 40 -144 40 -151 0 -40 -105 -86 -196
-86 -32 0 -36 4 -54 44 -57 134 -204 654 -225 799 l-7 47 31 0 c71 0 154 58
193 134 25 48 34 138 20 190 -13 44 -9 56 17 56 15 0 19 -19 29 -162z m-3563
-212 c19 -8 35 -18 35 -21 0 -4 -11 -21 -24 -38 -76 -101 -82 -226 -16 -323
22 -31 48 -52 94 -74 57 -28 74 -32 149 -32 l85 0 -20 -45 c-26 -58 -33 -137
-18 -193 16 -61 89 -134 150 -150 44 -12 137 -9 173 5 15 6 17 1 17 -42 0 -28
7 -72 15 -99 21 -70 20 -73 -31 -96 -78 -34 -159 -8 -185 60 -12 32 -23 28
-63 -27 -86 -120 -248 -151 -368 -71 -58 39 -90 89 -96 151 -2 27 -8 51 -11
54 -4 2 -27 -3 -52 -11 -57 -20 -141 -14 -176 12 -90 68 -96 173 -14 266 17
20 31 38 31 40 0 3 -25 8 -55 11 -97 10 -153 59 -162 141 -8 68 13 130 63 185
56 62 125 93 224 99 l75 4 0 68 c0 75 15 102 70 126 39 17 68 17 110 0z m3344
-436 c45 -160 106 -347 153 -464 l39 -100 -19 -25 c-11 -14 -36 -32 -56 -40
l-36 -14 -37 42 c-45 50 -63 55 -252 72 l-134 12 -32 71 c-48 105 -118 297
-158 429 l-35 117 34 20 c18 12 47 39 64 60 31 39 31 39 65 24 44 -18 126 -18
169 0 53 22 104 83 123 145 l16 56 32 -145 c18 -80 47 -197 64 -260z m469 -95
c2 -2 -3 -14 -12 -27 -8 -12 -21 -54 -29 -93 -9 -47 -16 -64 -20 -50 -15 48
-47 170 -47 178 0 8 99 0 108 -8z m176 -34 c62 -20 85 -59 93 -158 8 -96 -22
-183 -64 -183 -39 0 -57 152 -28 246 18 59 17 54 4 54 -39 0 -58 -208 -26
-283 l16 -38 -81 3 -81 3 -19 55 c-29 83 -15 242 27 307 15 22 21 23 63 17 26
-3 69 -14 96 -23z m-1838 -185 c209 -101 451 -169 801 -222 l32 -5 -15 -35
c-41 -97 -38 -311 5 -425 l19 -49 -31 0 c-58 0 -379 39 -537 66 -180 30 -379
79 -500 124 -109 39 -260 111 -260 122 0 5 7 20 16 34 16 24 16 86 -1 140 -5
17 -1 23 23 32 64 22 152 133 152 194 0 13 11 16 68 16 50 -1 78 5 107 20 22
12 43 21 46 22 3 0 37 -15 75 -34z m774 -89 c23 -54 40 -100 37 -104 -6 -6
-265 34 -279 43 -5 3 6 17 22 31 17 14 37 41 45 59 12 29 19 34 47 34 18 0 44
9 58 20 14 10 25 18 26 17 1 -1 20 -46 44 -100z m882 -164 c1 -76 -56 -136
-145 -149 l-32 -5 -47 113 -46 113 31 7 c18 3 57 11 87 17 30 6 69 22 85 35
l30 25 18 -57 c10 -31 18 -76 19 -99z m-617 6 c66 -6 132 -17 147 -25 16 -8
37 -36 54 -70 52 -106 42 -296 -18 -351 -35 -32 -63 -15 -96 54 -23 50 -26 71
-27 158 0 55 4 118 9 140 8 36 7 39 -8 25 -55 -53 -35 -302 30 -380 15 -17 24
-33 22 -36 -3 -2 -61 -7 -130 -11 -118 -6 -126 -5 -146 15 -39 39 -57 124 -57
272 0 118 3 141 22 182 20 43 25 47 50 43 15 -2 82 -9 148 -16z m395 -116 c39
-93 43 -141 14 -180 -25 -34 -56 -50 -113 -59 l-42 -7 6 59 c6 54 -3 143 -20
187 -5 12 -2 17 10 17 21 0 95 40 95 52 0 4 4 8 9 8 5 0 24 -35 41 -77z"/>
</g>
</svg>
