<?xml version="1.0" encoding="UTF-8"?>
<svg xmlns="http://www.w3.org/2000/svg" version="1.1" viewBox="0 0 655 655">
  <defs>
    <style>
      .cls-1 {
        fill: #d39d6c;
      }

      .cls-2 {
        fill: #fff;
      }

      .cls-3 {
        fill: #ffb3d0;
      }

      .cls-4 {
        fill: #b56523;
      }

      .cls-5 {
        fill: #cc2569;
      }

      .cls-6 {
        fill: #ede4e7;
      }

      .cls-7 {
        fill: #bc7a39;
      }

      .cls-8 {
        fill: #eab681;
      }
    </style>
  </defs>
  <!-- Generator: Adobe Illustrator 28.7.1, SVG Export Plug-In . SVG Version: 1.2.0 Build 142)  -->
  <g fixed='yes'>
    <g fixed='yes' id="Layer_1">
      <path fixed='yes' d="M378.3,96.9c-9.7,3.6-17,9.9-21.6,18.5-1.6,3.1-2.1,5.9-2.2,11.3q0,7.2-2.5,6.5c-4.7-1.3-14.4-.5-19.1,1.5-10.3,4.6-16.9,13.9-16.9,23.8s1.9,11.7,5.1,15.1l2.1,2.2-3.4.7c-5.7,1.3-12.4,5.2-16.4,9.8l-3.9,4.4-6.1-.5c-14-1-23,6.1-24.9,19.5-.7,5.1-.7,5.2-3.3,4.2-4.6-1.8-15.5-2.7-21.8-1.8-12.4,1.7-22.3,8.5-26.4,18.1-3,7.1-2.5,17,1.3,24.5,1.5,2.9,2.7,5.4,2.7,5.5,0,.2-3.3.3-7.3.4-16,.1-27.7,10.6-27.7,25v3.9h-8.2c-6.5,0-9.4.5-13.3,2.3-6.2,2.8-12.1,8.4-14.6,13.7-2.5,5.5-2.5,15.6.1,21.4,2.1,4.5,1.9,6.1-.6,6.1s-8.8,3.7-12.6,7.7c-7.5,7.7-10.6,20.4-7.4,30.1,1.8,5.2,9,13.2,12.1,13.2s1.5.4,1.5,1-.4,1-.9,1-2.7,1.9-5,4.1c-5.5,5.6-7.9,13.1-6.2,20.3,1.3,5.6,4.9,10.9,9.3,13.6l3,1.8-3.5,1.1c-1.9.7-5.9,2.6-8.9,4.4q-5.4,3.3-8.3,1.5c-4.6-2.7-13.1-2.4-17.7.7-4.2,2.9-7.4,9.8-6.5,14.4.6,2.8.6,2.9-5.5,3.5-17.9,2.1-30,13.3-30.1,28-.1,10.7,5.7,18,15.2,19.3,4,.6,5.1,1.6,3.1,2.8-2.3,1.4-5.1,8.9-5.2,13.5-.1,12.6,10.4,20.5,23.9,18,3.1-.5,5.8-1,5.9-1s.6,1.5.9,3.3c2.7,12,13.9,20.7,27,20.7s14.2-2.6,20.8-9c5.3-5.2,5.9-5.5,6.8-3.8,3.2,6,15.6,7.9,22.3,3.3l3.6-2.5,3.7,4.1c5.5,6,12.3,9.1,21.3,9.7,7.3.4,9.1,0,19.1-4.2,1.2-.5,1.8,0,2.3,2,1.2,4.7,6.5,11.2,11.4,14.1,4.3,2.5,5.6,2.8,14.3,2.8s10.1-.3,15.7-3.1l6.1-3.2,4.7,2.4c2.6,1.3,5.6,2.4,6.6,2.4,2.4,0,7.6-2.6,10.4-5.2,2.1-1.9,2.2-1.9,7.1.1,27,10.6,81.1,19.5,119.8,19.6,24.9,0,27.2-.6,31.5-8.7,2.3-4.5,2.8-4.8,6.5-4.8,9.6-.1,16.5-6.4,16.5-15.3s.2-4.7,2.5-4.7c3.6,0,9.8-3.4,12.8-7,2.9-3.4,4.2-8.6,3.4-12.8l-.5-2.7h8.1c10.6,0,14.8-2,17.8-8.1,1.6-3.3,2.1-6.2,2-11.7-.1-16.5-4.4-21.2-21.6-23.7-4.4-.6-10.6-1.6-13.7-2.2-6.7-1.2-6.1.1-10.2-21.3-2.9-15.1-5.3-34.6-6.5-52.8l-.9-12.8,4.1-3.8c3.7-3.5,4.1-4.3,4.5-9.8l.4-6.1,9.7-.7c5.3-.3,11.4-.5,13.6-.4,12.8.8,19.1.3,24-1.9,9.8-4.5,13.5-9.8,13.5-19.7v-6.5l6.3-6.3c7.2-7,10-12.9,11.9-25.2,3.3-21-6.9-39.2-32.7-58.7-11.2-8.4-20.5-16.5-20.5-17.9s2,0,4.5,1.1c18.8,8.1,34.7,8.6,49,1.6,11.6-5.7,19.5-15.1,21.5-25.5,2-10.6-2.8-20.8-10.8-23.1-5.5-1.5-15-1.2-32.2,1-27.1,3.5-43.1,2.5-57.8-3.6l-6.3-2.7,3.8-1.7c4.4-1.9,9-6.9,9.9-10.6,1-4-.3-9.6-3.4-13.9l-2.8-4,1.8-4c7.9-17.7-9.5-37.5-27.4-31.1l-3.8,1.4v-5.2c-.1-20.5-25.6-30.4-39.8-15.3l-3.4,3.5-3.6-4c-5.4-6-10.3-8.1-19.7-8.5-6.1-.3-9.2.1-13.2,1.6ZM403.3,100.7c2.7,1.5,6.2,4.6,8,7l3.1,4.3,4.1-4.4c4.7-5.1,11.3-8.5,16.6-8.6,1.9,0,5.9,1.2,8.8,2.6,8.7,4.4,13.6,14.2,11.4,22.6-.6,2.1-.7,4-.3,4.3.4.2,2.4-.5,4.6-1.5,5.3-2.8,12.9-2.6,18.5.3,9.5,5,13.3,17.8,8.1,27.5l-2.3,4.4,3,3.4c9.8,11.1,2.9,23.4-13.2,23.4s-7.5-.6-11.1-2.5c-2.6-1.4-5.1-2.3-5.6-2s-.2,2.1.6,4c1.9,4.6,1.8,12.9-.2,17.2-3.6,7.5-14.3,12.2-23.5,10.2-2.7-.6-6.5-2.1-8.4-3.5-2-1.3-3.8-2.4-4-2.4-.3,0-.2,2.7.1,5.9.8,7.5.1,10.2-3.7,14.6-3.8,4.3-12.1,7.1-18.1,6.1-5.2-.9-6.3,0-3.8,3.1,1.1,1.4,2,3.2,2,3.9,0,2-2.9,4.4-5.4,4.4s-2.5.7-3.5,5.9c-1.3,6.8-5.5,13.2-10.3,15.8-2.1,1.1-5.6,1.7-9.3,1.8-7.8,0-12.9-3-15.7-9.2l-2-4.4-2.6,1.7c-6.1,4-8.8,4.9-15.3,4.9s-7.2-.5-10.1-2.4c-9.7-6.7-11.5-19-4.2-28.8,1.3-1.7,2.4-3.6,2.4-4.1s-2.6-1.5-5.7-2.1c-12.8-2.5-18.9-9.4-18-20.2.3-3,1.4-7.3,2.5-9.5,4.4-8.5,14.1-15.4,21.8-15.4s4.4-.3,4.7-.6-.7-2.3-2.5-4.2c-8.7-10-8.9-20.8-.5-29.9,2.3-2.5,5.9-5.4,8.1-6.5,4.9-2.5,15-3.5,19.7-1.9,1.9.6,3.9,1,4.4.8.6-.1.9-3.3.7-7.8-.3-6.5,0-8.3,2.1-12.5,8.2-16.1,29.3-23.6,44-15.7ZM469.5,188.5c7.2,1.7,12.4,4.7,18.8,10.5,7.1,6.5,11.2,13,13.2,20.8,2.2,8.6,1.6,11-1.3,5-5.6-11.3-20.1-17.8-30.9-13.7-12.9,4.8-16.4,24-6.7,36.6l2.9,3.8-4.5-2.7c-3.5-2-5-3.7-6.5-7.5-3-7.4-6.9-13.5-12.6-19.7l-5.1-5.6h3c4.9,0,11.5-2.9,15.4-6.7,5.2-5.1,7.3-10.8,6.4-17.9-.6-5.1-.5-5.6,1.1-4.9,1,.4,4.1,1.3,6.8,2ZM297.7,193.4c.1.1-.5,2.6-1.3,5.6-3.3,12.6,2.5,22.7,15.3,26.6,3.2,1,5.9,1.9,6.1,1.9.1.1-1,2.4-2.5,5-2,3.6-2.6,6.2-2.6,10.4,0,16.8,16.4,26.3,32.6,18.9,3.1-1.5,5.7-2.3,5.7-1.8s1.2,2.2,2.6,3.9c2.5,3,2.5,3.4,1.4,8-2.5,10.6-9.4,19.2-34.8,43.4-16.7,15.9-22.4,26.1-20.8,37.5,2.5,18.6,21.4,28.9,43.6,23.6,27.3-6.4,43.8-28.3,45.9-60.9l.6-10,3.4,6.5c5.9,11.3,12.3,20.2,21.4,29.7,16.2,16.8,35.6,27.7,60.2,33.7,8.7,2.2,9,2.3,9.3,5.3.4,4.2-2.1,9.8-5.2,11.8-1.5,1-4.7,2-7.2,2.3-4.4.5-4.5.6-3.9,3.1.4,1.4.9,6,1.2,10.2.4,6.7.2,8.2-2,12.5-3,6-4.9,7.7-11.1,10.5-3.5,1.5-6.1,2-9.2,1.6l-4.3-.4-.7,4.6c-1.4,10.1-6.5,16.9-14.2,19.1-5.4,1.5-7.7,1.3-13.4-1.2-4.1-1.7-5.3-1.9-5.6-.9-1,2.9-7.9,9.5-11.7,11.2-4.5,2.1-11,2.4-15.2.8-1.5-.5-4.5-2.7-6.5-4.6-4.2-4.1-6.3-3.8-3.1.5,3.5,4.7,9.9,7.6,17,7.6h6.3l1.6,5.5c.8,3.1,3.4,11.2,5.7,18l4.1,12.3-2.7,2.4c-1.9,1.6-4.1,2.4-6.6,2.4-3.6,0-3.9.2-5,4-1.4,4.9-5.8,8-11.2,8s-34.9-9.5-48.1-16.1l-3.8-1.9,2-3.8c3.5-6.6,3.6-19.8.3-20.9s-1,1.4-.6,6.5c.7,8.7-.7,13-5.7,17.6-4.2,3.8-10.3,5.3-16.4,4.2-3-.6-3.4-1.1-4-4.8-.9-5.2-4.1-12.8-5.5-12.8s-1.4,1.6.4,4.9c4.3,8.5,3.9,19.1-1.2,26.4-2.9,4.2-9.7,8.7-13.1,8.7s-2.7.6-.1,6.5c1.8,4.1,2,5.3,1,8.6-1.4,4.6-5.1,7.7-10.3,8.5-2.1.4-3.8,1-3.8,1.5,0,1.2,6.7,1.1,9.1-.1,1.6-.9,3.5-.3,9.8,2.8,4.3,2.2,8.4,4.2,9.2,4.5,1,.4.7,1.2-1.4,3.1-3.7,3.4-9,3.5-13.9.1l-3.6-2.4-7.2,3.7c-6.5,3.3-8,3.7-14.9,3.6-5.8,0-8.6-.5-11.8-2.2-5-2.6-10-8.4-11.5-13.6-1.4-4.6-3-5.4-6.3-3.2-1.4.9-5.3,2.3-8.6,3.2-13.9,3.6-26.7-2.3-32.9-15-2.6-5.3-3.2-7.7-3.4-14.2-.1-6.4-.4-7.8-1.6-7.5s-3.7,1-6.5,1.8c-19.3,5.3-33-13.6-23.5-32.3,1.6-3.2,3-6.2,3-6.7s-3.7-.4-8.3-.1c-11.3.9-18.3-1.1-24.1-7-5.3-5.3-7-10-6.3-17.6.6-7.3,3.3-12.4,9.4-18.2,5.8-5.3,8.7-7,16.6-9.3,3.1-.9,5.7-2,5.7-2.5s-1.9-1.8-4.2-2.8c-15-6.6-15.7-26.3-1.3-35,4.6-2.8,5.8-5.2,2.7-5.2s-4-1.4-6.6-3c-11.2-7.1-11.8-25.2-1.2-37.7,3.1-3.6,10-7.3,13.9-7.3s4.1-1.4,1.1-7.1c-3.7-7.5-4.2-14.2-1.4-20.7,4.5-10.4,14.3-15.8,27.3-15,4,.3,7.9.7,8.7.9,1,.3,1.4-.2,1.2-1.6-1.3-9.5.4-16,5.6-21.1,5.5-5.5,9.6-6.9,20.5-6.9s9.7-.3,9.7-.6-1.4-3.3-3-6.5c-4.6-9-5.7-15.6-3.6-22.7,3.8-12.9,18-20.8,35-19.4,4,.4,9.1,1.3,11.5,2.2,2.4.8,4.7,1.5,5.2,1.5s.9-2.2.9-4.9c0-11.6,6-18.7,17-20.4,2-.2,8.9.2,9.7.7ZM578.1,197.7c1.6,1,3.8,3.6,4.9,5.8,7.5,15.6-7.1,35.9-29.2,40.6-17.1,3.7-48.8-6.9-48.8-16.3s.5-1.4,5.3.7c20.1,9.2,46.1,6.7,57.1-5.6,4.4-4.8,4.8-9.4,1.3-13.5-3.4-3.9-10.8-4.2-31.3-1.4-14.2,2-17.4,2.2-23.7,1.2-9.7-1.5-16.5-4.6-20.7-9.5-3.3-3.9-3.4-4-1-3.3,6.5,1.9,18.2,3.5,25.2,3.6,6.3,0,27.6-2.2,42.3-4.4,5.6-.8,15.5.3,18.6,2.1ZM520,211.5c6.3,0,17.6-.8,25.1-1.8,10.9-1.5,14.5-1.6,17.8-.7,8.3,2.2,7.4,10-1.8,16-12.7,8.5-33,8.9-49.5,1.2-5.8-2.8-6.2-3.2-8.2-8.8-1.2-3.2-2.4-6.6-2.8-7.6-.7-1.5-.4-1.5,3.6,0,3,1.1,7.8,1.6,15.8,1.7ZM439.2,222.7c5.1,5.3,11.8,14.6,11.8,16.5s-1.6-.4-3.6-1.7c-10.9-7.4-25.1-5-32.1,5.4-9.4,13.9-1.9,35.9,14.3,42l4.9,1.9-3.7.7c-4.7.9-13.1-.9-18.3-4-9-5.2-19.1-20.6-20.2-30.9-.5-4-.3-4.4,2.1-5,3.4-.8,5.9-4.8,5.4-8.6q-.4-3,4.1-3c11.3,0,20.4-8.2,20.5-18.4v-5.4c.1,0,4.6,2.3,4.6,2.3,2.5,1.3,7,5,10.2,8.2ZM478.7,217.7c1.2.8,2.9,3.4,3.9,5.8,2,5.4.7,10.2-3.7,14-8.1,6.8-19.1-.5-17.6-11.6,1.2-8.8,10-12.9,17.4-8.2ZM506,236c0,2.2,13.9,15.5,24.9,23.9,24.8,18.9,33,32.4,31.8,52.5-.9,16.2-6.8,27-17.8,32.5s-7.7,3.1-9.6,3.1h-3.3v-5.3c0-3.8-.8-6.9-2.7-10.8l-2.8-5.4,4.1-3.7c6.2-5.7,9.7-13.6,10.2-23.6.8-13.9-3-22.2-10.1-22.2s-5.4,1.4-9.6,9.7c-3.6,7.2-8.4,12.4-14.4,15.5-3.2,1.6-6.7,2.3-15.5,2.8-9.6.5-11.5.9-13.4,2.7-6.2,6.2,2.4,18.1,16.5,22.7,6.4,2.1,17.9,2,24.5-.3l5.3-1.8,1.9,2.7c5.4,7.6,5,17.6-.9,26.8-13.6,20.9-41.8,22.7-77.5,5-12.9-6.3-21.3-12.3-30.6-21.7-8.9-9-16.5-19.8-22.7-32.2-3.5-7.2-4.8-11.1-5.9-18.7-.8-5.4-2.3-12.8-3.4-16.7l-2-6.9,2.4-2.6c1.3-1.4,2.9-3.6,3.6-4.9,1.2-2.3,1.3-2.1,3.6,3.5,6.7,16.5,18.5,26.2,32.9,27.2,13,.8,23.8-5.7,29.3-17.6,2.2-4.7,2.6-7.2,2.7-13.9,0-4.6.2-8.2.5-8,6.4,3.9,11.1,5.2,18.5,5.2s8.7-.4,13.4-3c6.1-3.3,11.5-9.2,13.1-14.1,1.1-3.1,3-4.7,3-2.4ZM436.5,242.1c12.3,10.8.3,30.3-13.6,22.2-3.8-2.3-5.9-6.4-5.9-11.8,0-8.4,4.5-13.4,12.2-13.5,2.8,0,4.6.8,7.3,3.1ZM361.9,270.1c4.5,1.6,5.3,4.4,3.5,12-3,12.7-8.2,19.8-28.7,38.3-12.7,11.5-16.4,18.8-13.7,27,2.6,8,14.2,10.7,24,5.7,22.3-11.4,33-46.7,22.9-75.8-1-3.1-1.9-5.7-1.9-5.8s2.1-.5,4.8-.8c2.6-.3,5.6-.7,6.6-.9,1.6-.3,2.2.9,3.7,6.7,4.5,17.3,4.9,39.5,1,54.6-6.9,26.9-27.3,43.9-52.6,43.9s-15.2-2.1-21.1-7.3c-9.1-8-11-19-5.3-30.8,2.7-5.3,6.4-9.6,22.5-25.4,20.8-20.5,26.1-27.2,29-36.5,1.1-3.3,1.9-6,2-6s1.6.5,3.3,1.1ZM533.7,280.5c2.6,1.8,5.3,10,5.3,16.1,0,8.7-5,19.9-11.5,25.7-3.7,3.3-12.1,6.7-18.2,7.3-14.6,1.6-33.1-9.3-30.9-18.2.7-2.8,1.9-3.1,14.5-3.8,7.3-.4,10.5-1,14.6-3.1,6.3-3.1,12.4-9.4,16.1-16.7,4.4-8.9,6.1-10.1,10.1-7.3ZM370.7,298.5c.5,10.3.2,13.2-1.6,20-5.6,20.3-19.2,34.5-33,34.5s-5.7-.4-8.2-2.9-2.9-3.8-2.9-7.1c0-7.9,2.5-11.3,21.7-28.7,11.1-10.2,17.3-18.5,20-26.9,1.5-5,1.8-5.3,2.6-3.2.5,1.3,1.2,7.7,1.4,14.3ZM544.4,350.6c2,5.2-1.2,14.7-6.2,18.2-5.9,4.2-15.5,6.6-22.4,5.4l-4.3-.7,3.6-2.3c5-3,12.1-10.9,14.5-15.8,1.7-3.7,2.4-4.2,6.9-5.1,7.3-1.4,7.2-1.4,7.9.3ZM475.8,413.2c2.3,31,7.5,61,15.2,87.1,2.2,7.6,4,14.4,4,15.1,0,4-10.5,8.6-19.6,8.6s-3.6-.4-5.4-4.4c-5.7-13.4-20.4-65.4-22.5-79.9l-.7-4.7h3.1c7.1,0,15.4-5.8,19.3-13.4,2.5-4.8,3.4-13.8,2-19-1.3-4.4-.9-5.6,1.7-5.6s1.9,1.9,2.9,16.2ZM119.5,434.4c1.9.8,3.5,1.8,3.5,2.1s-1.1,2.1-2.4,3.8c-7.6,10.1-8.2,22.6-1.6,32.3,2.2,3.1,4.8,5.2,9.4,7.4,5.7,2.8,7.4,3.2,14.9,3.2h8.5l-2,4.5c-2.6,5.8-3.3,13.7-1.8,19.3,1.6,6.1,8.9,13.4,15,15,4.4,1.2,13.7.9,17.3-.5,1.5-.6,1.7-.1,1.7,4.2s.7,7.2,1.5,9.9c2.1,7,2,7.3-3.1,9.6-7.8,3.4-15.9.8-18.5-6-1.2-3.2-2.3-2.8-6.3,2.7-8.6,12-24.8,15.1-36.8,7.1-5.8-3.9-9-8.9-9.6-15.1-.2-2.7-.8-5.1-1.1-5.4-.4-.2-2.7.3-5.2,1.1-5.7,2-14.1,1.4-17.6-1.2-9-6.8-9.6-17.3-1.4-26.6,1.7-2,3.1-3.8,3.1-4,0-.3-2.5-.8-5.5-1.1-9.7-1-15.3-5.9-16.2-14.1-.8-6.8,1.3-13,6.3-18.5,5.6-6.2,12.5-9.3,22.4-9.9l7.5-.4v-6.8c0-7.5,1.5-10.2,7-12.6,3.9-1.7,6.8-1.7,11,0ZM453.9,478c4.5,16,10.6,34.7,15.3,46.4l3.9,10-1.9,2.5c-1.1,1.4-3.6,3.2-5.6,4l-3.6,1.4-3.7-4.2c-4.5-5-6.3-5.5-25.2-7.2l-13.4-1.2-3.2-7.1c-4.8-10.5-11.8-29.7-15.8-42.9l-3.5-11.7,3.4-2c1.8-1.2,4.7-3.9,6.4-6q3.1-3.9,6.5-2.4c4.4,1.8,12.6,1.8,16.9,0,5.3-2.2,10.4-8.3,12.3-14.5l1.6-5.6,3.2,14.5c1.8,8,4.7,19.7,6.4,26ZM500.8,487.5c.2.2-.3,1.4-1.2,2.7-.8,1.2-2.1,5.4-2.9,9.3-.9,4.7-1.6,6.4-2,5-1.5-4.8-4.7-17-4.7-17.8s9.9,0,10.8.8ZM518.4,490.9c6.2,2,8.5,5.9,9.3,15.8.8,9.6-2.2,18.3-6.4,18.3s-5.7-15.2-2.8-24.6c1.8-5.9,1.7-5.4.4-5.4-3.9,0-5.8,20.8-2.6,28.3l1.6,3.8-8.1-.3-8.1-.3-1.9-5.5c-2.9-8.3-1.5-24.2,2.7-30.7,1.5-2.2,2.1-2.3,6.3-1.7,2.6.3,6.9,1.4,9.6,2.3ZM334.6,509.4c20.9,10.1,45.1,16.9,80.1,22.2l3.2.5-1.5,3.5c-4.1,9.7-3.8,31.1.5,42.5l1.9,4.9h-3.1c-5.8,0-37.9-3.9-53.7-6.6-18-3-37.9-7.9-50-12.4-10.9-3.9-26-11.1-26-12.2s.7-2,1.6-3.4c1.6-2.4,1.6-8.6-.1-14-.5-1.7-.1-2.3,2.3-3.2,6.4-2.2,15.2-13.3,15.2-19.4s1.1-1.6,6.8-1.6c5,.1,7.8-.5,10.7-2,2.2-1.2,4.3-2.1,4.6-2.2.3,0,3.7,1.5,7.5,3.4ZM412,518.3c2.3,5.4,4,10,3.7,10.4-.6.6-26.5-3.4-27.9-4.3-.5-.3.6-1.7,2.2-3.1,1.7-1.4,3.7-4.1,4.5-5.9,1.2-2.9,1.9-3.4,4.7-3.4s4.4-.9,5.8-2c1.4-1,2.5-1.8,2.6-1.7s2,4.6,4.4,10ZM500.2,534.7c.1,7.6-5.6,13.6-14.5,14.9l-3.2.5-4.7-11.3-4.6-11.3,3.1-.7c1.8-.3,5.7-1.1,8.7-1.7s6.9-2.2,8.5-3.5l3-2.5,1.8,5.7c1,3.1,1.8,7.6,1.9,9.9ZM438.5,534.1c6.6.6,13.2,1.7,14.7,2.5,1.6.8,3.7,3.6,5.4,7,5.2,10.6,4.2,29.6-1.8,35.1-3.5,3.2-6.3,1.5-9.6-5.4-2.3-5-2.6-7.1-2.7-15.8,0-5.5.4-11.8.9-14,.8-3.6.7-3.9-.8-2.5-5.5,5.3-3.5,30.2,3,38,1.5,1.7,2.4,3.3,2.2,3.6-.3.2-6.1.7-13,1.1-11.8.6-12.6.5-14.6-1.5-3.9-3.9-5.7-12.4-5.7-27.2s.3-14.1,2.2-18.2c2-4.3,2.5-4.7,5-4.3,1.5.2,8.2.9,14.8,1.6ZM478,545.7c3.9,9.3,4.3,14.1,1.4,18-2.5,3.4-5.6,5-11.3,5.9l-4.2.7.6-5.9c.6-5.4-.3-14.3-2-18.7-.5-1.2-.2-1.7,1-1.7,2.1,0,9.5-4,9.5-5.2s.4-.8.9-.8,2.4,3.5,4.1,7.7Z"/>
      <g>
        <path class="cls-7" d="M453.2,536.6c-1.5-.8-8.1-1.9-14.7-2.5-6.6-.7-13.3-1.4-14.8-1.6-2.5-.4-3,0-5,4.3-1.9,4.1-2.2,6.4-2.2,18.2s1.8,23.3,5.7,27.2,2.8,2.1,14.6,1.5c6.9-.4,12.7-.9,13-1.1.2-.3-.7-1.9-2.2-3.6-6.5-7.8-8.5-32.7-3-38,1.5-1.4,1.6-1.1.8,2.5-.5,2.2-.9,8.5-.9,14,.1,8.7.4,10.8,2.7,15.8,3.3,6.9,6.1,8.6,9.6,5.4,6-5.5,7-24.5,1.8-35.1-1.7-3.4-3.8-6.2-5.4-7ZM496.5,519.1l-3,2.5c-1.6,1.3-5.5,2.9-8.5,3.5-3,.6-6.9,1.4-8.7,1.7l-3.1.7,4.6,11.3,4.7,11.3,3.2-.5c8.9-1.3,14.6-7.3,14.5-14.9,0-2.3-.9-6.8-1.9-9.9l-1.8-5.7ZM473.9,538c-.5,0-.9.4-.9.8,0,1.2-7.4,5.2-9.5,5.2s-1.5.5-1,1.7c1.7,4.4,2.6,13.3,2,18.7l-.6,5.9,4.2-.7c5.7-.9,8.8-2.5,11.3-5.9,2.9-3.9,2.5-8.7-1.4-18-1.7-4.2-3.6-7.7-4.1-7.7ZM499.8,521l1.9,5.5,8.1.3,8.1.3-1.6-3.8c-3.2-7.5-1.3-28.3,2.6-28.3s1.4-.5-.4,5.4c-2.9,9.4-1.1,24.6,2.8,24.6s7.2-8.7,6.4-18.3c-.8-9.9-3.1-13.8-9.3-15.8-2.7-.9-7-2-9.6-2.3-4.2-.6-4.8-.5-6.3,1.7-4.2,6.5-5.6,22.4-2.7,30.7Z"/>
        <path class="cls-3" d="M346.7,314.3c-19.2,17.4-21.7,20.8-21.7,28.7s.6,4.8,2.9,7.1,3.7,2.9,8.2,2.9c13.8,0,27.4-14.2,33-34.5,1.8-6.8,2.1-9.7,1.6-20-.2-6.6-.9-13-1.4-14.3-.8-2.1-1.1-1.8-2.6,3.2-2.7,8.4-8.9,16.7-20,26.9Z"/>
        <path class="cls-8" d="M416.4,535.6l1.5-3.5-3.2-.5c-35-5.3-59.2-12.1-80.1-22.2-3.8-1.9-7.2-3.4-7.5-3.4-.3,0-2.4,1-4.6,2.2-2.9,1.5-5.7,2.1-10.7,2-5.7,0-6.8.3-6.8,1.6,0,6.1-8.8,17.2-15.2,19.4-2.4.9-2.8,1.5-2.3,3.2,1.7,5.4,1.7,11.6.1,14-.9,1.4-1.6,2.9-1.6,3.4,0,1.1,15.1,8.3,26,12.2,12.1,4.5,32,9.4,50,12.4,15.8,2.7,47.9,6.6,53.7,6.6h3.1l-1.9-4.9c-4.3-11.4-4.6-32.8-.5-42.5Z"/>
        <path class="cls-8" d="M361.9,270.1c-1.7-.6-3.2-1.1-3.3-1.1s-.9,2.7-2,6c-2.9,9.3-8.2,16-29,36.5-16.1,15.8-19.8,20.1-22.5,25.4-5.7,11.8-3.8,22.8,5.3,30.8,5.9,5.2,12,7.3,21.1,7.3,25.3,0,45.7-17,52.6-43.9,3.9-15.1,3.5-37.3-1-54.6-1.5-5.8-2.1-7-3.7-6.7-1,.2-4,.6-6.6.9-2.7.3-4.8.7-4.8.8s.9,2.7,1.9,5.8c10.1,29.1-.6,64.4-22.9,75.8-9.8,5-21.4,2.3-24-5.7-2.7-8.2,1-15.5,13.7-27,20.5-18.5,25.7-25.6,28.7-38.3,1.8-7.6,1-10.4-3.5-12Z"/>
        <path class="cls-6" d="M182,525.7c0-4.3-.2-4.8-1.7-4.2-3.6,1.4-12.9,1.7-17.3.5-6.1-1.6-13.4-8.9-15-15-1.5-5.6-.8-13.5,1.8-19.3l2-4.5h-8.5c-7.5,0-9.2-.4-14.9-3.2-4.6-2.2-7.2-4.3-9.4-7.4-6.6-9.7-6-22.2,1.6-32.3,1.3-1.7,2.4-3.4,2.4-3.8s-1.6-1.3-3.5-2.1c-4.2-1.7-7.1-1.7-11,0-5.5,2.4-7,5.1-7,12.6v6.8l-7.5.4c-9.9.6-16.8,3.7-22.4,9.9-5,5.5-7.1,11.7-6.3,18.5.9,8.2,6.5,13.1,16.2,14.1,3,.3,5.5.8,5.5,1.1s-1.4,2-3.1,4c-8.2,9.3-7.6,19.8,1.4,26.6,3.5,2.6,11.9,3.2,17.6,1.2,2.5-.8,4.8-1.3,5.2-1.1.3.3.9,2.7,1.1,5.4.6,6.2,3.8,11.2,9.6,15.1,12,8,28.2,4.9,36.8-7.1,4-5.5,5.1-5.9,6.3-2.7,2.6,6.8,10.7,9.4,18.5,6,5.1-2.3,5.2-2.6,3.1-9.6-.8-2.7-1.5-7.1-1.5-9.9Z"/>
        <path class="cls-3" d="M511.6,226.2c16.5,7.7,36.8,7.3,49.5-1.2,9.2-6,10.1-13.8,1.8-16-3.3-.9-6.9-.8-17.8.7-7.5,1-18.8,1.8-25.1,1.8-8-.1-12.8-.6-15.8-1.7-4-1.5-4.3-1.5-3.6,0,.4,1,1.6,4.4,2.8,7.6,2,5.6,2.4,6,8.2,8.8Z"/>
        <path fixed='yes' class="cls-2" d="M462.7,186.5c-1.6-.7-1.7-.2-1.1,4.9.9,7.1-1.2,12.8-6.4,17.9-3.9,3.8-10.5,6.7-15.4,6.7h-3l5.1,5.6c5.7,6.2,9.6,12.3,12.6,19.7,1.5,3.8,3,5.5,6.5,7.5l4.5,2.7-2.9-3.8c-9.7-12.6-6.2-31.8,6.7-36.6,10.8-4.1,25.3,2.4,30.9,13.7,2.9,6,3.5,3.6,1.3-5-2-7.8-6.1-14.3-13.2-20.8-6.4-5.8-11.6-8.8-18.8-10.5-2.7-.7-5.8-1.6-6.8-2Z"/>
        <path fixed='yes' class="cls-2" d="M478.7,217.7c-7.4-4.7-16.2-.6-17.4,8.2-1.5,11.1,9.5,18.4,17.6,11.6,4.4-3.8,5.7-8.6,3.7-14-1-2.4-2.7-5-3.9-5.8Z"/>
        <path fixed='yes' class="cls-2" d="M451,239.2c0-1.9-6.7-11.2-11.8-16.5-3.2-3.2-7.7-6.9-10.2-8.2l-4.5-2.3v5.4c-.2,10.2-9.3,18.4-20.6,18.4s-4.5,0-4.1,3c.5,3.8-2,7.8-5.4,8.6-2.4.6-2.6,1-2.1,5,1.1,10.3,11.2,25.7,20.2,30.9,5.2,3.1,13.6,4.9,18.3,4l3.7-.7-4.9-1.9c-16.2-6.1-23.7-28.1-14.3-42,7-10.4,21.2-12.8,32.1-5.4,2,1.3,3.6,2.1,3.6,1.7Z"/>
        <path fixed='yes' class="cls-2" d="M429.2,239c-7.7,0-12.2,5.1-12.2,13.5s2.1,9.5,5.9,11.8c13.9,8.1,25.9-11.4,13.6-22.2-2.7-2.3-4.5-3.1-7.3-3.1Z"/>
        <path class="cls-6" d="M316.3,224.1c3.1.6,5.7,1.6,5.7,2.1s-1.1,2.4-2.4,4.1c-7.3,9.8-5.5,22.1,4.2,28.8,2.9,1.9,4.8,2.4,10.1,2.4s9.2-.9,15.3-4.9l2.6-1.7,2,4.4c2.8,6.2,7.9,9.2,15.7,9.2,3.7-.1,7.2-.7,9.3-1.8,4.8-2.6,9-9,10.3-15.8,1-5.2,1.5-5.9,3.5-5.9s5.4-2.4,5.4-4.4-.9-2.5-2-3.9c-2.5-3.1-1.4-4,3.8-3.1,6,1,14.3-1.8,18.1-6.1,3.8-4.4,4.5-7.1,3.7-14.6-.3-3.2-.4-5.9-.1-5.9s2,1.1,4,2.4c1.9,1.4,5.7,2.9,8.4,3.5,9.2,2,19.9-2.7,23.5-10.2,2-4.3,2.1-12.6.2-17.2-.8-1.9-1.1-3.7-.6-4,.5-.3,3,.6,5.6,2,3.6,1.9,6.2,2.5,11.1,2.5,16.1,0,23-12.3,13.2-23.4l-3-3.4,2.3-4.4c5.2-9.7,1.4-22.5-8.1-27.5-5.6-2.9-13.2-3.1-18.5-.3-2.2,1-4.2,1.7-4.6,1.5-.4-.3-.3-2.2.3-4.3,2.2-8.4-2.7-18.2-11.4-22.6-2.9-1.4-6.9-2.6-8.8-2.6-5.3,0-11.9,3.5-16.6,8.6l-4.1,4.4-3.1-4.3c-1.8-2.4-5.3-5.5-8-7-14.7-7.9-35.8-.4-44,15.7-2.1,4.2-2.4,6-2.1,12.5.2,4.5,0,7.7-.7,7.8-.5.2-2.5-.2-4.4-.8-4.7-1.6-14.8-.6-19.7,1.9-2.2,1.1-5.8,4-8.1,6.5-8.4,9.1-8.2,19.9.5,29.9,1.8,1.9,2.9,3.8,2.5,4.2-.3.3-2.4.6-4.7.6-7.7,0-17.4,6.9-21.8,15.4-1.1,2.2-2.2,6.5-2.5,9.5-.9,10.8,5.2,17.7,18,20.2Z"/>
        <path class="cls-1" d="M472.9,397c-2.6,0-3,1.2-1.7,5.6,1.4,5.2.5,14.2-2,19-3.9,7.6-12.2,13.4-19.3,13.4h-3.1l.7,4.7c2.1,14.5,16.8,66.5,22.5,79.9,1.8,4,2.2,4.4,5.4,4.4,9.1,0,19.6-4.6,19.6-8.6s-1.8-7.5-4-15.1c-7.7-26.1-12.9-56.1-15.2-87.1-1-14.3-1.4-16.2-2.9-16.2ZM496.7,499.5c.8-3.9,2.1-8.1,2.9-9.3.9-1.3,1.4-2.5,1.2-2.7-.9-.8-10.8-1.6-10.8-.8s3.2,13,4.7,17.8c.4,1.4,1.1-.3,2-5Z"/>
        <path class="cls-5" d="M539,296.6c0-6.1-2.7-14.3-5.3-16.1-4-2.8-5.7-1.6-10.1,7.3-3.7,7.3-9.8,13.6-16.1,16.7-4.1,2.1-7.3,2.7-14.6,3.1-12.6.7-13.8,1-14.5,3.8-2.2,8.9,16.3,19.8,30.9,18.2,6.1-.6,14.5-4,18.2-7.3,6.5-5.8,11.5-17,11.5-25.7ZM536.5,350.3c-4.5.9-5.2,1.4-6.9,5.1-2.4,4.9-9.5,12.8-14.5,15.8l-3.6,2.3,4.3.7c6.9,1.2,16.5-1.2,22.4-5.4,5-3.5,8.2-13,6.2-18.2-.7-1.7-.6-1.7-7.9-.3Z"/>
        <path class="cls-8" d="M471.2,536.9l1.9-2.5-3.9-10c-4.7-11.7-10.8-30.4-15.3-46.4-1.7-6.3-4.6-18-6.4-26l-3.2-14.5-1.6,5.6c-1.9,6.2-7,12.3-12.3,14.5-4.3,1.8-12.5,1.8-16.9,0q-3.4-1.5-6.5,2.4c-1.7,2.1-4.6,4.8-6.4,6l-3.4,2,3.5,11.7c4,13.2,11,32.4,15.8,42.9l3.2,7.1,13.4,1.2c18.9,1.7,20.7,2.2,25.2,7.2l3.7,4.2,3.6-1.4c2-.8,4.5-2.6,5.6-4Z"/>
        <path class="cls-8" d="M506,236c0-2.3-1.9-.7-3,2.4-1.6,4.9-7,10.8-13.1,14.1-4.7,2.6-6.4,3-13.4,3s-12.1-1.3-18.5-5.2c-.3-.2-.5,3.4-.5,8,0,6.7-.5,9.2-2.7,13.9-5.5,11.9-16.3,18.4-29.3,17.6-14.4-1-26.2-10.7-32.9-27.2-2.3-5.6-2.4-5.8-3.6-3.5-.7,1.3-2.3,3.5-3.6,4.9l-2.4,2.6,2,6.9c1.1,3.9,2.6,11.3,3.4,16.7,1.1,7.6,2.4,11.5,5.9,18.7,6.2,12.4,13.8,23.2,22.7,32.2,9.3,9.4,17.7,15.4,30.6,21.7,35.7,17.7,63.9,15.9,77.5-5,5.9-9.2,6.3-19.2.9-26.8l-1.9-2.7-5.3,1.8c-6.6,2.3-18.1,2.4-24.5.3-14.1-4.6-22.7-16.5-16.5-22.7,1.9-1.8,3.8-2.2,13.4-2.7,8.8-.5,12.3-1.2,15.5-2.8,6-3.1,10.8-8.3,14.4-15.5,4.2-8.3,5.6-9.7,9.6-9.7,7.1,0,10.9,8.3,10.1,22.2-.5,10-4,17.9-10.2,23.6l-4.1,3.7,2.8,5.4c1.9,3.9,2.7,7,2.7,10.8v5.3h3.3c1.9,0,6.2-1.4,9.6-3.1,11-5.5,16.9-16.3,17.8-32.5,1.2-20.1-7-33.6-31.8-52.5-11-8.4-24.9-21.7-24.9-23.9Z"/>
        <path class="cls-8" d="M578.1,197.7c-3.1-1.8-13-2.9-18.6-2.1-14.7,2.2-36,4.4-42.3,4.4-7-.1-18.7-1.7-25.2-3.6-2.4-.7-2.3-.6,1,3.3,4.2,4.9,11,8,20.7,9.5,6.3,1,9.5.8,23.7-1.2,20.5-2.8,27.9-2.5,31.3,1.4,3.5,4.1,3.1,8.7-1.3,13.5-11,12.3-37,14.8-57.1,5.6-4.8-2.1-5.3-2.2-5.3-.7,0,9.4,31.7,20,48.8,16.3,22.1-4.7,36.7-25,29.2-40.6-1.1-2.2-3.3-4.8-4.9-5.8Z"/>
        <!-- <path class="cls-4" d="M536.5,350.3c-4.5.9-5.2,1.4-6.9,5.1-2.4,4.9-9.5,12.8-14.5,15.8l-3.6,2.3,4.3.7c6.9,1.2,16.5-1.2,22.4-5.4,5-3.5,8.2-13,6.2-18.2-.7-1.7-.6-1.7-7.9-.3Z"/> -->
        <path class="cls-6" d="M474.5,375.4c-24.6-6-44-16.9-60.2-33.7-9.1-9.5-15.5-18.4-21.4-29.7l-3.4-6.5-.6,10c-2.1,32.6-18.6,54.5-45.9,60.9-22.2,5.3-41.1-5-43.6-23.6-1.6-11.4,4.1-21.6,20.8-37.5,25.4-24.2,32.3-32.8,34.8-43.4,1.1-4.6,1.1-5-1.4-8-1.4-1.7-2.6-3.4-2.6-3.9s-2.6.3-5.7,1.8c-16.2,7.4-32.6-2.1-32.6-18.9s.6-6.8,2.6-10.4c1.5-2.6,2.6-4.9,2.5-5-.2,0-2.9-.9-6.1-1.9-12.8-3.9-18.6-14-15.3-26.6.8-3,1.4-5.5,1.3-5.6-.8-.5-7.7-.9-9.7-.7-11,1.7-17,8.8-17,20.4s-.4,4.9-.9,4.9-2.8-.7-5.2-1.5c-2.4-.9-7.5-1.8-11.5-2.2-17-1.4-31.2,6.5-35,19.4-2.1,7.1-1,13.7,3.6,22.7,1.6,3.2,3,6.2,3,6.5s-4.4.6-9.7.6c-10.9,0-15,1.4-20.5,6.9-5.2,5.1-6.9,11.6-5.6,21.1.2,1.4-.2,1.9-1.2,1.6-.8-.2-4.7-.6-8.7-.9-13-.8-22.8,4.6-27.3,15-2.8,6.5-2.3,13.2,1.4,20.7,3,5.7,2.7,7.1-1.1,7.1s-10.8,3.7-13.9,7.3c-10.6,12.5-10,30.6,1.2,37.7,2.6,1.6,5.6,3,6.6,3,3.1,0,1.9,2.4-2.7,5.2-14.4,8.7-13.7,28.4,1.3,35,2.3,1,4.2,2.3,4.2,2.8s-2.6,1.6-5.7,2.5c-7.9,2.3-10.8,4-16.6,9.3-6.1,5.8-8.8,10.9-9.4,18.2-.7,7.6,1,12.3,6.3,17.6,5.8,5.9,12.8,7.9,24.1,7,4.6-.3,8.3-.3,8.3.1s-1.4,3.5-3,6.7c-9.5,18.7,4.2,37.6,23.5,32.3,2.8-.8,5.7-1.6,6.5-1.8,1.2-.3,1.5,1.1,1.6,7.5.2,6.5.8,8.9,3.4,14.2,6.2,12.7,19,18.6,32.9,15,3.3-.9,7.2-2.3,8.6-3.2,3.3-2.2,4.9-1.4,6.3,3.2,1.5,5.2,6.5,11,11.5,13.6,3.2,1.7,6,2.2,11.8,2.2,6.9.1,8.4-.3,14.9-3.6l7.2-3.7,3.6,2.4c4.9,3.4,10.2,3.3,13.9-.1,2.1-1.9,2.4-2.7,1.4-3.1-.8-.3-4.9-2.3-9.2-4.5-6.3-3.1-8.2-3.7-9.8-2.8-2.4,1.2-9.1,1.3-9.1,0s1.7-1.1,3.8-1.5c5.2-.8,8.9-3.9,10.3-8.5,1-3.3.8-4.5-1-8.6-2.6-5.9-2.6-6.5,0-6.5s10.2-4.5,13.1-8.7c5.1-7.3,5.5-17.9,1.2-26.4-1.8-3.3-1.9-4.9-.4-4.9s4.6,7.6,5.5,12.8c.6,3.7,1,4.2,4,4.8,6.1,1.1,12.2-.4,16.4-4.2,5-4.6,6.4-8.9,5.7-17.6-.4-5.1-.3-6.8.6-6.5,3.3,1.1,3.2,14.3-.3,20.9l-2,3.8,3.8,1.9c13.2,6.6,41.4,16.1,48.1,16.1s9.8-3.1,11.2-8c1.1-3.8,1.4-4,5-4s4.7-.8,6.6-2.4l2.7-2.4-4.1-12.3c-2.3-6.8-4.9-14.9-5.7-18l-1.6-5.5h-6.3c-7.1,0-13.5-2.9-17-7.6-3.2-4.3-1.1-4.6,3.1-.5,2,1.9,5,4.1,6.5,4.6,4.2,1.6,10.7,1.3,15.2-.8,3.8-1.7,10.7-8.3,11.7-11.2.3-1,1.5-.8,5.6.9,5.7,2.5,8,2.7,13.4,1.2,7.7-2.2,12.8-9,14.2-19.1l.7-4.6,4.3.4c3.1.4,5.7,0,9.2-1.6,6.2-2.8,8.1-4.5,11.1-10.5,2.2-4.3,2.4-5.8,2-12.5-.3-4.2-.8-8.8-1.2-10.2-.6-2.5-.5-2.6,3.9-3.1,2.5-.3,5.7-1.3,7.2-2.3,3.1-2,5.6-7.6,5.2-11.8-.3-3-.6-3.1-9.3-5.3Z"/>
        <!-- <path class="cls-1" d="M496.7,499.5c.8-3.9,2.1-8.1,2.9-9.3.9-1.3,1.4-2.5,1.2-2.7-.9-.8-10.8-1.6-10.8-.8s3.2,13,4.7,17.8c.4,1.4,1.1-.3,2-5Z"/> -->
      </g>
    </g>
  </g>
</svg>