<?xml version="1.0" standalone="no"?>
<!DOCTYPE svg PUBLIC "-//W3C//DTD SVG 20010904//EN"
 "http://www.w3.org/TR/2001/REC-SVG-20010904/DTD/svg10.dtd">
<svg version="1.0" xmlns="http://www.w3.org/2000/svg"
 viewBox="0 0 655.000000 655.000000"
 preserveAspectRatio="xMidYMid meet">

<g transform="translate(0.000000,655.000000) scale(0.100000,-0.100000)"
fill="#000000" stroke="none">
<path d="M2159 5550 c-54 -9 -124 -43 -160 -76 -25 -24 -30 -25 -201 -26
l-175 -2 -37 31 c-101 83 -256 67 -349 -36 -49 -54 -91 -143 -108 -227 -12
-61 -15 -66 -58 -91 -66 -39 -171 -149 -209 -220 -86 -163 -97 -400 -27 -560
45 -100 142 -184 261 -223 55 -19 64 -25 64 -45 0 -46 50 -182 88 -241 22 -33
59 -78 84 -99 l46 -40 -55 -110 c-81 -160 -140 -318 -183 -489 -46 -180 -47
-184 -70 -191 -32 -10 -124 -119 -162 -191 -20 -38 -49 -110 -64 -159 -27 -86
-28 -99 -28 -310 -1 -196 2 -230 21 -308 30 -115 68 -190 119 -236 22 -20 46
-46 53 -58 22 -42 87 -66 176 -67 81 0 126 14 154 48 20 24 51 19 83 -11 59
-56 226 -38 287 32 17 20 31 44 31 55 0 26 35 35 62 16 30 -21 105 -20 148 2
45 22 80 75 80 121 -1 41 -36 133 -70 181 l-23 32 29 -6 c71 -15 253 -36 409
-47 166 -11 616 -6 652 8 9 4 -2 -12 -24 -34 -95 -95 -156 -321 -107 -392 21
-30 72 -51 123 -51 35 0 41 -3 47 -25 16 -64 124 -107 269 -108 100 0 140 10
158 39 6 10 36 14 115 14 283 0 476 71 547 202 39 71 43 172 16 368 -11 79
-18 146 -17 148 8 8 342 82 352 78 18 -7 43 -132 50 -247 3 -57 12 -125 21
-151 24 -77 99 -128 189 -128 17 0 37 -7 44 -14 22 -28 111 -50 200 -50 99 1
155 20 170 58 12 33 46 41 94 21 55 -23 174 -21 230 4 49 21 66 44 66 89 0 26
4 30 38 36 44 7 77 38 86 81 13 63 -56 239 -123 312 -23 26 -31 47 -41 114 -6
45 -22 119 -35 165 -14 45 -26 87 -27 94 -2 8 21 17 61 26 188 39 337 170 392
343 29 93 30 250 0 342 -39 122 -128 231 -233 285 -95 48 -106 26 -47 -93 42
-84 44 -92 44 -178 0 -78 -4 -97 -27 -141 -50 -94 -131 -149 -239 -161 l-56
-6 -12 49 c-19 74 -57 132 -138 209 l-73 71 -73 194 c-89 237 -146 363 -224
498 -275 476 -661 736 -1175 791 -219 24 -492 1 -776 -65 -125 -29 -122 -29
-122 -4 0 64 -64 182 -148 272 -42 45 -45 54 -67 160 -25 127 -39 165 -83 225
-57 77 -196 123 -313 103z m170 -36 c38 -11 67 -29 101 -63 56 -56 84 -123
105 -253 16 -97 14 -95 92 -181 29 -31 67 -87 85 -125 32 -65 33 -70 33 -197
0 -165 -10 -194 -191 -567 -148 -306 -211 -456 -248 -600 -78 -299 -75 -654 6
-848 45 -105 71 -145 145 -218 l74 -73 -23 -19 c-27 -22 -37 -20 -135 26 -131
62 -227 185 -270 344 -24 90 -24 340 1 465 42 219 103 414 218 705 99 248 138
408 138 563 0 50 4 77 11 77 15 0 3 47 -21 80 -22 31 -92 65 -115 56 -22 -8
-9 -26 18 -26 49 0 52 -17 6 -40 -70 -36 -147 -91 -280 -201 -283 -234 -464
-309 -738 -309 -283 1 -458 113 -512 330 -19 77 -16 250 5 324 55 186 184 323
381 403 44 18 81 37 83 43 6 16 -18 12 -82 -15 -33 -13 -62 -22 -65 -20 -8 9
19 105 46 162 37 79 101 139 170 159 71 21 126 12 189 -28 l49 -31 -70 -22
c-102 -32 -190 -78 -180 -95 3 -4 35 7 72 25 121 60 207 78 388 79 l160 2 48
34 c95 69 196 87 306 54z m1491 -702 c134 -28 238 -64 365 -127 345 -171 625
-517 814 -1005 67 -174 110 -294 107 -298 -2 -1 -25 2 -50 9 -73 18 -237 7
-323 -23 -40 -13 -73 -21 -73 -17 0 4 7 40 15 80 10 48 12 76 6 82 -13 13 -15
6 -36 -98 -8 -44 -19 -83 -24 -88 -7 -7 -83 -28 -183 -51 -16 -4 -28 -11 -28
-17 0 -11 19 -10 99 7 l34 7 -48 -59 c-69 -84 -129 -223 -101 -232 6 -2 15 14
21 35 20 66 65 144 112 194 101 108 233 161 403 163 139 1 187 -16 273 -95
108 -98 150 -210 116 -308 -6 -17 -12 -31 -13 -31 0 0 -33 31 -73 69 -182 175
-400 203 -595 78 -155 -99 -225 -254 -215 -474 l5 -111 -111 -21 c-207 -38
-187 -37 -187 -5 -1 119 -80 336 -154 420 -80 92 -203 149 -349 160 -341 26
-586 -210 -615 -596 l-7 -84 -90 2 c-151 4 -328 23 -361 39 -18 8 -53 34 -78
59 -208 199 -262 605 -140 1063 36 137 79 242 229 551 74 151 143 299 155 329
31 80 60 208 60 268 0 49 1 52 33 62 56 18 278 61 387 76 153 20 494 13 620
-13z m-1488 -347 c-62 -128 -129 -239 -188 -312 l-34 -41 -42 21 c-59 29 -182
30 -257 2 -108 -40 -191 -149 -191 -250 0 -40 -3 -41 -82 -24 -56 12 -129 46
-164 77 -30 26 -94 111 -94 126 0 8 41 16 133 23 72 7 159 19 191 28 140 37
274 108 401 211 215 174 250 202 313 240 37 23 69 38 70 33 2 -5 -23 -65 -56
-134z m99 -60 c-14 -142 -55 -292 -131 -485 -70 -176 -119 -312 -150 -416
l-21 -72 -57 -11 c-31 -6 -85 -14 -119 -17 -43 -5 -63 -11 -63 -20 0 -17 -9
-17 117 2 58 8 107 14 108 12 2 -2 -5 -41 -16 -88 -22 -102 -38 -214 -40 -293
-2 -42 -7 -61 -18 -67 -18 -9 -116 -35 -173 -44 -21 -4 -38 -11 -38 -16 0 -15
48 -11 130 10 104 27 100 28 100 -33 0 -72 31 -190 71 -268 l32 -63 -39 -33
c-46 -40 -125 -79 -194 -95 -28 -6 -50 -17 -50 -24 0 -31 143 19 237 82 l67
45 45 -45 c53 -51 112 -89 179 -115 l47 -19 -85 -40 c-129 -61 -195 -76 -340
-76 -148 -1 -236 20 -364 87 -75 39 -206 152 -206 177 0 5 20 -4 43 -20 54
-36 98 -53 108 -43 5 5 -17 22 -49 38 -67 35 -132 97 -161 152 -26 51 -51 187
-51 275 0 63 2 69 18 63 60 -25 74 -9 16 19 l-37 17 6 87 c3 48 13 145 23 215
l17 128 40 -6 c50 -9 48 15 -2 28 -32 8 -33 10 -27 48 3 21 9 73 13 114 3 41
9 75 12 75 3 0 26 -6 51 -14 155 -46 362 -16 518 76 64 38 192 160 192 183 0
8 -2 15 -5 15 -2 0 -39 -35 -82 -79 -134 -135 -300 -198 -493 -188 -206 11
-324 100 -395 300 -12 34 -25 77 -28 95 -6 30 -5 32 23 32 25 0 33 -8 61 -60
39 -73 102 -133 177 -168 51 -24 69 -27 167 -27 90 0 124 5 184 24 197 65 383
256 531 546 31 61 65 130 75 155 l18 45 10 -45 c6 -30 6 -81 -2 -155z m-401
-285 c64 -18 68 -25 35 -60 -49 -52 -146 -121 -211 -151 -69 -31 -194 -61
-208 -48 -12 11 11 96 40 146 29 50 71 81 139 105 56 19 152 23 205 8z m-669
-763 c-36 -250 -47 -440 -33 -552 6 -44 9 -81 7 -84 -6 -6 -51 25 -96 66 -22
20 -42 33 -46 30 -12 -13 29 -57 92 -98 55 -37 67 -50 76 -84 6 -22 20 -57 31
-78 11 -22 18 -41 15 -43 -7 -7 -138 36 -189 62 -96 49 -158 126 -158 198 0
20 15 62 35 101 20 36 42 99 50 138 37 174 104 366 188 537 l52 105 3 -43 c2
-23 -11 -138 -27 -255z m4354 223 c203 -139 266 -432 143 -662 -59 -112 -202
-212 -341 -239 -74 -15 -82 -5 -50 58 44 88 20 177 -62 235 -25 18 -45 38 -45
46 0 7 4 11 9 8 17 -11 137 16 184 42 59 32 103 80 133 147 47 104 40 203 -22
327 -19 37 -34 70 -34 73 0 11 44 -7 85 -35z m-648 -484 c103 -49 227 -173
295 -295 60 -107 123 -297 142 -432 25 -170 19 -386 -9 -299 -12 37 -91 108
-129 116 -58 10 -92 -10 -123 -74 -24 -50 -27 -67 -28 -166 0 -61 2 -124 5
-141 4 -22 1 -30 -11 -33 -13 -2 -17 10 -22 70 -10 131 -54 230 -121 276 -46
31 -119 30 -168 -3 -66 -45 -118 -182 -118 -313 l0 -55 -49 5 c-105 10 -138
67 -152 258 -9 138 -20 189 -79 360 -73 213 -74 373 -4 517 79 163 235 258
412 249 69 -3 94 -10 159 -40z m-1334 -82 c80 -21 129 -46 184 -97 127 -117
176 -257 193 -552 6 -88 20 -227 31 -310 29 -206 29 -317 0 -378 -26 -54 -72
-97 -139 -131 -86 -44 -157 -57 -328 -63 l-162 -6 5 64 c11 140 -41 312 -109
360 -42 30 -123 37 -169 14 -19 -9 -49 -31 -66 -48 l-33 -31 0 27 c0 36 -23
91 -53 127 -54 63 -71 433 -29 602 54 219 190 374 371 424 66 18 231 17 304
-2z m1685 -88 c51 -47 59 -100 27 -178 -11 -27 -19 -22 -44 30 -12 26 -36 68
-52 94 -29 45 -30 48 -14 78 18 35 19 35 83 -24z m-4369 -87 c-6 -12 -11 -44
-11 -70 0 -90 77 -179 200 -230 l49 -20 -19 -37 c-47 -92 28 -195 208 -285 70
-35 209 -86 293 -107 41 -11 42 -12 23 -26 -37 -26 -55 -94 -49 -186 3 -46 8
-93 12 -105 5 -14 3 -23 -4 -23 -6 0 -13 12 -16 28 -13 60 -49 149 -77 190
-43 62 -82 84 -141 79 -93 -8 -142 -90 -142 -237 0 -47 3 -100 7 -117 7 -29 5
-33 -12 -33 -15 0 -20 7 -20 30 0 86 -45 203 -97 252 -108 102 -240 16 -259
-169 -4 -35 -10 -63 -14 -63 -13 0 -60 68 -82 116 -52 118 -79 373 -59 557 19
172 72 313 160 425 42 53 72 71 50 31z m330 -349 c31 -8 62 -32 123 -94 67
-68 99 -91 169 -125 272 -131 571 -108 829 64 l68 45 98 -10 c55 -6 153 -14
219 -18 l120 -7 7 -105 c3 -58 10 -128 15 -156 l10 -51 -81 -7 c-144 -11 -557
-6 -708 9 -266 25 -482 71 -660 140 -192 74 -308 167 -308 248 0 38 28 90 45
83 8 -3 32 -10 54 -16z m3090 -106 c18 -53 30 -98 27 -101 -6 -6 -313 -83
-332 -83 -17 0 -23 31 -25 134 l-2 90 104 17 c57 10 122 22 144 27 22 6 43 10
46 11 3 1 20 -42 38 -95z m1121 -194 c61 -95 95 -224 70 -270 -10 -20 -77 -46
-88 -35 -3 3 -13 29 -22 58 -12 41 -14 69 -7 137 5 47 6 102 4 123 -3 20 -1
37 3 37 4 0 22 -22 40 -50z m-175 -61 c94 -83 161 -304 108 -351 -40 -36 -155
-48 -223 -25 -49 17 -60 46 -60 167 0 113 11 169 42 213 28 40 85 38 133 -4z
m-355 -37 c63 -45 116 -221 101 -334 -5 -37 -11 -46 -41 -60 -70 -35 -252 -15
-295 32 -28 31 -18 186 18 265 16 33 36 68 45 79 42 47 120 56 172 18z m-3170
-47 c59 -31 110 -127 110 -210 0 -32 -6 -48 -26 -68 -33 -34 -86 -51 -130 -42
-30 5 -39 13 -54 48 -42 95 -33 227 17 267 31 24 45 25 83 5z m-302 -41 c86
-55 160 -298 105 -346 -49 -42 -150 -65 -213 -48 -58 16 -73 50 -78 180 -3 99
-2 108 25 160 39 77 95 95 161 54z m1490 -44 c22 -24 42 -84 42 -127 0 -16
-11 -58 -25 -92 -14 -35 -29 -92 -32 -128 l-6 -65 -44 6 c-69 9 -101 30 -109
72 -14 77 41 243 105 317 38 43 44 44 69 17z m-1868 -15 c59 -30 110 -144 110
-245 0 -72 -19 -92 -95 -98 -87 -7 -144 6 -178 39 -29 29 -29 32 -25 112 9
160 90 243 188 192z m2154 -49 c41 -17 78 -65 101 -131 20 -57 31 -201 20
-270 -6 -42 -10 -48 -43 -62 -27 -11 -59 -14 -127 -10 -205 11 -259 67 -221
230 19 83 45 135 94 189 58 65 111 81 176 54z"/>
<path d="M2213 5338 c-37 -10 -76 -55 -99 -119 -24 -63 -24 -217 -1 -292 56
-182 250 -219 334 -64 27 49 24 213 -5 288 -57 145 -138 211 -229 187z m94
-38 c68 -41 123 -153 137 -280 l6 -55 -20 53 c-35 96 -83 142 -150 142 -49 0
-86 -25 -110 -75 -19 -40 -22 -58 -18 -123 5 -76 5 -76 -10 -42 -8 19 -17 76
-20 126 -5 115 15 193 63 241 39 39 74 43 122 13z m-3 -202 c18 -26 21 -80 6
-109 -8 -13 -21 -19 -45 -19 -29 0 -37 5 -51 31 -17 33 -13 81 7 106 18 21 66
16 83 -9z"/>
<path d="M1618 4470 c-35 -27 -54 -75 -38 -95 19 -23 49 -18 81 14 30 31 38
68 17 89 -17 17 -31 15 -60 -8z"/>
<path d="M917 4453 c-22 -22 19 -103 52 -103 14 0 41 29 41 44 0 35 -72 81
-93 59z"/>
<path d="M4279 4511 c-2 -6 -35 -17 -73 -23 -39 -7 -68 -17 -65 -23 2 -5 11
-9 19 -8 8 1 38 5 65 8 l51 7 57 -56 c53 -52 77 -67 77 -48 0 4 -25 32 -55 62
-30 30 -54 61 -52 69 2 16 -19 27 -24 12z"/>
<path d="M3242 4418 c2 -6 24 -18 49 -26 24 -8 46 -16 48 -18 3 -3 -12 -77
-26 -126 -2 -11 1 -18 10 -18 9 0 19 22 29 67 16 76 21 79 126 82 37 1 52 5
52 15 0 11 -18 12 -89 8 -67 -3 -101 -1 -137 12 -57 19 -67 20 -62 4z"/>
<path d="M4660 4008 c0 -7 9 -26 20 -43 14 -21 20 -47 20 -87 0 -32 4 -58 9
-58 13 0 21 26 21 66 0 24 5 34 15 34 8 0 15 5 15 10 0 6 -8 10 -18 10 -11 0
-27 16 -41 40 -22 39 -41 52 -41 28z"/>
<path d="M3246 3843 c-3 -16 -8 -58 -12 -94 l-6 -65 -65 -11 c-36 -7 -67 -14
-71 -17 -15 -16 14 -18 74 -7 72 13 65 15 138 -43 57 -45 57 -19 1 31 -27 24
-49 47 -49 51 10 48 14 182 6 182 -6 0 -13 -12 -16 -27z"/>
<path d="M2523 3451 c-51 -28 -52 -28 -69 -10 -17 19 -44 26 -44 11 0 -5 10
-17 21 -28 19 -17 21 -26 16 -81 -5 -51 -4 -63 8 -63 10 0 15 10 15 29 0 74
10 91 72 122 32 16 56 34 53 39 -9 14 -14 13 -72 -19z"/>
<path d="M3570 3372 c0 -5 11 -19 25 -32 34 -32 32 -40 -13 -40 -59 0 -150
-27 -231 -67 -81 -41 -193 -142 -250 -226 -43 -63 -111 -199 -105 -209 11 -17
21 -6 42 45 62 149 204 308 334 371 125 62 244 78 371 51 92 -19 160 -58 233
-131 57 -58 129 -176 146 -242 6 -21 28 -32 28 -12 0 45 -86 202 -144 263 -15
15 -26 27 -24 28 2 1 40 7 86 14 46 7 86 15 89 19 15 15 -12 17 -106 5 l-100
-12 -41 27 c-56 37 -131 65 -196 72 -49 6 -59 12 -86 45 -29 36 -58 51 -58 31z"/>
<path d="M2455 2799 c-3 -8 1 -47 8 -86 8 -41 10 -78 5 -87 -9 -16 7 -32 17
-16 4 6 30 -6 63 -28 81 -54 160 -97 263 -143 102 -44 99 -43 99 -26 0 7 -44
31 -97 55 -109 46 -255 130 -291 166 -17 16 -27 44 -35 94 -13 73 -23 95 -32
71z"/>
</g>
</svg>
