<?xml version="1.0" encoding="UTF-8"?>
<svg xmlns="http://www.w3.org/2000/svg" version="1.1" viewBox="0 0 655 655">
  <defs>
    <style>
      .cls-1 {
        fill: #314403;
      }

      .cls-2 {
        fill: #517222;
      }

      .cls-3 {
        fill: #f9fcf5;
      }

      .cls-4 {
        fill: #ce8655;
      }

      .cls-5 {
        fill: #66a01a;
      }

      .cls-6 {
        fill: #fff;
      }

      .cls-7 {
        fill: #777718;
      }

      .cls-8 {
        fill: #83b5db;
      }

      .cls-9 {
        fill: #f20808;
      }

      .cls-10 {
        fill: #6d6435;
      }
    </style>
  </defs>
  <!-- Generator: Adobe Illustrator 28.7.1, SVG Export Plug-In . SVG Version: 1.2.0 Build 142)  -->
  <g fixed='yes'>
    <g fixed='yes' id="Layer_1">
      <g fixed='yes'>
        <path fixed='yes' d="M215.9,100c-5.4.9-12.4,4.3-16,7.6-2.5,2.4-3,2.5-20.1,2.6l-17.5.2-3.7-3.1c-10.1-8.3-25.6-6.7-34.9,3.6-4.9,5.4-9.1,14.3-10.8,22.7-1.2,6.1-1.5,6.6-5.8,9.1-6.6,3.9-17.1,14.9-20.9,22-8.6,16.3-9.7,40-2.7,56,4.5,10,14.2,18.4,26.1,22.3,5.5,1.9,6.4,2.5,6.4,4.5,0,4.6,5,18.2,8.8,24.1,2.2,3.3,5.9,7.8,8.4,9.9l4.6,4-5.5,11c-8.1,16-14,31.8-18.3,48.9-4.6,18-4.7,18.4-7,19.1-3.2,1-12.4,11.9-16.2,19.1-2,3.8-4.9,11-6.4,15.9-2.7,8.6-2.8,9.9-2.8,31-.1,19.6.2,23,2.1,30.8,3,11.5,6.8,19,11.9,23.6,2.2,2,4.6,4.6,5.3,5.8,2.2,4.2,8.7,6.6,17.6,6.7,8.1,0,12.6-1.4,15.4-4.8,2-2.4,5.1-1.9,8.3,1.1,5.9,5.6,22.6,3.8,28.7-3.2,1.7-2,3.1-4.4,3.1-5.5,0-2.6,3.5-3.5,6.2-1.6,3,2.1,10.5,2,14.8-.2,4.5-2.2,8-7.5,8-12.1-.1-4.1-3.6-13.3-7-18.1l-2.3-3.2,2.9.6c7.1,1.5,25.3,3.6,40.9,4.7,16.6,1.1,61.6.6,65.2-.8.9-.4-.2,1.2-2.4,3.4-9.5,9.5-15.6,32.1-10.7,39.2,2.1,3,7.2,5.1,12.3,5.1s4.1.3,4.7,2.5c1.6,6.4,12.4,10.7,26.9,10.8,10,0,14-1,15.8-3.9.6-1,3.6-1.4,11.5-1.4,28.3,0,47.6-7.1,54.7-20.2,3.9-7.1,4.3-17.2,1.6-36.8-1.1-7.9-1.8-14.6-1.7-14.8.8-.8,34.2-8.2,35.2-7.8,1.8.7,4.3,13.2,5,24.7.3,5.7,1.2,12.5,2.1,15.1,2.4,7.7,9.9,12.8,18.9,12.8s3.7.7,4.4,1.4c2.2,2.8,11.1,5,20,5,9.9-.1,15.5-2,17-5.8,1.2-3.3,4.6-4.1,9.4-2.1,5.5,2.3,17.4,2.1,23-.4,4.9-2.1,6.6-4.4,6.6-8.9s.4-3,3.8-3.6c4.4-.7,7.7-3.8,8.6-8.1,1.3-6.3-5.6-23.9-12.3-31.2-2.3-2.6-3.1-4.7-4.1-11.4-.6-4.5-2.2-11.9-3.5-16.5-1.4-4.5-2.6-8.7-2.7-9.4-.2-.8,2.1-1.7,6.1-2.6,18.8-3.9,33.7-17,39.2-34.3,2.9-9.3,3-25,0-34.2-3.9-12.2-12.8-23.1-23.3-28.5-9.5-4.8-10.6-2.6-4.7,9.3,4.2,8.4,4.4,9.2,4.4,17.8s-.4,9.7-2.7,14.1c-5,9.4-13.1,14.9-23.9,16.1l-5.6.6-1.2-4.9c-1.9-7.4-5.7-13.2-13.8-20.9l-7.3-7.1-7.3-19.4c-8.9-23.7-14.6-36.3-22.4-49.8-27.5-47.6-66.1-73.6-117.5-79.1-21.9-2.4-49.2-.1-77.6,6.5-12.5,2.9-12.2,2.9-12.2.4,0-6.4-6.4-18.2-14.8-27.2s-4.5-5.4-6.7-16c-2.5-12.7-3.9-16.5-8.3-22.5-5.7-7.7-19.6-12.3-31.3-10.3ZM232.9,103.6c3.8,1.1,6.7,2.9,10.1,6.3,5.6,5.6,8.4,12.3,10.5,25.3,1.6,9.7,1.4,9.5,9.2,18.1,2.9,3.1,6.7,8.7,8.5,12.5,3.2,6.5,3.3,7,3.3,19.7s-1,19.4-19.1,56.7c-14.8,30.6-21.1,45.6-24.8,60-7.8,29.9-7.5,65.4.6,84.8,4.5,10.5,7.1,14.5,14.5,21.8l7.4,7.3-2.3,1.9c-2.7,2.2-3.7,2-13.5-2.6-13.1-6.2-22.7-18.5-27-34.4-2.4-9-2.4-34,.1-46.5,4.2-21.9,10.3-41.4,21.8-70.5,9.9-24.8,13.8-40.8,13.8-56.3s.4-7.7,1.1-7.7c1.5,0,.3-4.7-2.1-8-2.2-3.1-9.2-6.5-11.5-5.6-2.2.8-.9,2.6,1.8,2.6,4.9,0,5.2,1.7.6,4-7,3.6-14.7,9.1-28,20.1-28.3,23.4-46.4,30.9-73.8,30.9-28.3-.1-45.8-11.3-51.2-33-1.9-7.7-1.6-25,.5-32.4,5.5-18.6,18.4-32.3,38.1-40.3,4.4-1.8,8.1-3.7,8.3-4.3.6-1.6-1.8-1.2-8.2,1.5-3.3,1.3-6.2,2.2-6.5,2-.8-.9,1.9-10.5,4.6-16.2,3.7-7.9,10.1-13.9,17-15.9,7.1-2.1,12.6-1.2,18.9,2.8l4.9,3.1-7,2.2c-10.2,3.2-19,7.8-18,9.5.3.4,3.5-.7,7.2-2.5,12.1-6,20.7-7.8,38.8-7.9l16-.2,4.8-3.4c9.5-6.9,19.6-8.7,30.6-5.4ZM382,173.8c13.4,2.8,23.8,6.4,36.5,12.7,34.5,17.1,62.5,51.7,81.4,100.5,6.7,17.4,11,29.4,10.7,29.8-.2.1-2.5-.2-5-.9-7.3-1.8-23.7-.7-32.3,2.3-4,1.3-7.3,2.1-7.3,1.7s.7-4,1.5-8c1-4.8,1.2-7.6.6-8.2-1.3-1.3-1.5-.6-3.6,9.8-.8,4.4-1.9,8.3-2.4,8.8s-8.3,2.8-18.3,5.1c-1.6.4-2.8,1.1-2.8,1.7,0,1.1,1.9,1,9.9-.7l3.4-.7-4.8,5.9c-6.9,8.4-12.9,22.3-10.1,23.2.6.2,1.5-1.4,2.1-3.5,2-6.6,6.5-14.4,11.2-19.4,10.1-10.8,23.3-16.1,40.3-16.3,13.9-.1,18.7,1.6,27.3,9.5,10.8,9.8,15,21,11.6,30.8-.6,1.7-1.2,3.1-1.3,3.1,0,0-3.3-3.1-7.3-6.9-18.2-17.5-40-20.3-59.5-7.8-15.5,9.9-22.5,25.4-21.5,47.4l.5,11.1-11.1,2.1c-20.7,3.8-18.7,3.7-18.7.5-.1-11.9-8-33.6-15.4-42-8-9.2-20.3-14.9-34.9-16-34.1-2.6-58.6,21-61.5,59.6l-.7,8.4-9-.2c-15.1-.4-32.8-2.3-36.1-3.9-1.8-.8-5.3-3.4-7.8-5.9-20.8-19.9-26.2-60.5-14-106.3,3.6-13.7,7.9-24.2,22.9-55.1,7.4-15.1,14.3-29.9,15.5-32.9,3.1-8,6-20.8,6-26.8s.1-5.2,3.3-6.2c5.6-1.8,27.8-6.1,38.7-7.6,15.3-2,49.4-1.3,62,1.3ZM233.2,208.5c-6.2,12.8-12.9,23.9-18.8,31.2l-3.4,4.1-4.2-2.1c-5.9-2.9-18.2-3-25.7-.2-10.8,4-19.1,14.9-19.1,25s-.3,4.1-8.2,2.4c-5.6-1.2-12.9-4.6-16.4-7.7-3-2.6-9.4-11.1-9.4-12.6s4.1-1.6,13.3-2.3c7.2-.7,15.9-1.9,19.1-2.8,14-3.7,27.4-10.8,40.1-21.1,21.5-17.4,25-20.2,31.3-24,3.7-2.3,6.9-3.8,7-3.3.2.5-2.3,6.5-5.6,13.4ZM243.1,214.5c-1.4,14.2-5.5,29.2-13.1,48.5-7,17.6-11.9,31.2-15,41.6l-2.1,7.2-5.7,1.1c-3.1.6-8.5,1.4-11.9,1.7-4.3.5-6.3,1.1-6.3,2,0,1.7-.9,1.7,11.7-.2,5.8-.8,10.7-1.4,10.8-1.2.2.2-.5,4.1-1.6,8.8-2.2,10.2-3.8,21.4-4,29.3-.2,4.2-.7,6.1-1.8,6.7-1.8.9-11.6,3.5-17.3,4.4-2.1.4-3.8,1.1-3.8,1.6,0,1.5,4.8,1.1,13-1,10.4-2.7,10-2.8,10,3.3s3.1,19,7.1,26.8l3.2,6.3-3.9,3.3c-4.6,4-12.5,7.9-19.4,9.5-2.8.6-5,1.7-5,2.4,0,3.1,14.3-1.9,23.7-8.2l6.7-4.5,4.5,4.5c5.3,5.1,11.2,8.9,17.9,11.5l4.7,1.9-8.5,4c-12.9,6.1-19.5,7.6-34,7.6-14.8.1-23.6-2-36.4-8.7-7.5-3.9-20.6-15.2-20.6-17.7s2,.4,4.3,2c5.4,3.6,9.8,5.3,10.8,4.3s-1.7-2.2-4.9-3.8c-6.7-3.5-13.2-9.7-16.1-15.2-2.6-5.1-5.1-18.7-5.1-27.5s.2-6.9,1.8-6.3c6,2.5,7.4.9,1.6-1.9l-3.7-1.7.6-8.7c.3-4.8,1.3-14.5,2.3-21.5l1.7-12.8,4,.6c5,.9,4.8-1.5-.2-2.8-3.2-.8-3.3-1-2.7-4.8.3-2.1.9-7.3,1.3-11.4.3-4.1.9-7.5,1.2-7.5s2.6.6,5.1,1.4c15.5,4.6,36.2,1.6,51.8-7.6,6.4-3.8,19.2-16,19.2-18.3s-.2-1.5-.5-1.5-3.9,3.5-8.2,7.9c-13.4,13.5-30,19.8-49.3,18.8-20.6-1.1-32.4-10-39.5-30-1.2-3.4-2.5-7.7-2.8-9.5-.6-3-.5-3.2,2.3-3.2s3.3.8,6.1,6c3.9,7.3,10.2,13.3,17.7,16.8,5.1,2.4,6.9,2.7,16.7,2.7s12.4-.5,18.4-2.4c19.7-6.5,38.3-25.6,53.1-54.6,3.1-6.1,6.5-13,7.5-15.5l1.8-4.5,1,4.5c.6,3,.6,8.1-.2,15.5ZM203,243c6.4,1.8,6.8,2.5,3.5,6-4.9,5.2-14.6,12.1-21.1,15.1-6.9,3.1-19.4,6.1-20.8,4.8-1.2-1.1,1.1-9.6,4-14.6s7.1-8.1,13.9-10.5c5.6-1.9,15.2-2.3,20.5-.8ZM136.1,319.3c-3.6,25-4.7,44-3.3,55.2.6,4.4.9,8.1.7,8.4-.6.6-5.1-2.5-9.6-6.6-2.2-2-4.2-3.3-4.6-3-1.2,1.3,2.9,5.7,9.2,9.8,5.5,3.7,6.7,5,7.6,8.4.6,2.2,2,5.7,3.1,7.8,1.1,2.2,1.8,4.1,1.5,4.3-.7.7-13.8-3.6-18.9-6.2-9.6-4.9-15.8-12.6-15.8-19.8s1.5-6.2,3.5-10.1c2-3.6,4.2-9.9,5-13.8,3.7-17.4,10.4-36.6,18.8-53.7l5.2-10.5.3,4.3c.2,2.3-1.1,13.8-2.7,25.5ZM571.5,297c20.3,13.9,26.6,43.2,14.3,66.2-5.9,11.2-20.2,21.2-34.1,23.9-7.4,1.5-8.2.5-5-5.8,4.4-8.8,2-17.7-6.2-23.5-2.5-1.8-4.5-3.8-4.5-4.6s.4-1.1.9-.8c1.7,1.1,13.7-1.6,18.4-4.2,5.9-3.2,10.3-8,13.3-14.7,4.7-10.4,4-20.3-2.2-32.7-1.9-3.7-3.4-7-3.4-7.3,0-1.1,4.4.7,8.5,3.5ZM506.7,345.4c10.3,4.9,22.7,17.3,29.5,29.5,6,10.7,12.3,29.7,14.2,43.2,2.5,17,1.9,38.6-.9,29.9-1.2-3.7-9.1-10.8-12.9-11.6-5.8-1-9.2,1-12.3,7.4-2.4,5-2.7,6.7-2.8,16.6,0,6.1.2,12.4.5,14.1.4,2.2.1,3-1.1,3.3-1.3.2-1.7-1-2.2-7-1-13.1-5.4-23-12.1-27.6-4.6-3.1-11.9-3-16.8.3-6.6,4.5-11.8,18.2-11.8,31.3v5.5l-4.9-.5c-10.5-1-13.8-6.7-15.2-25.8-.9-13.8-2-18.9-7.9-36-7.3-21.3-7.4-37.3-.4-51.7,7.9-16.3,23.5-25.8,41.2-24.9,6.9.3,9.4,1,15.9,4ZM373.3,353.6c8,2.1,12.9,4.6,18.4,9.7,12.7,11.7,17.6,25.7,19.3,55.2.6,8.8,2,22.7,3.1,31,2.9,20.6,2.9,31.7,0,37.8-2.6,5.4-7.2,9.7-13.9,13.1-8.6,4.4-15.7,5.7-32.8,6.3l-16.2.6.5-6.4c1.1-14-4.1-31.2-10.9-36-4.2-3-12.3-3.7-16.9-1.4-1.9.9-4.9,3.1-6.6,4.8l-3.3,3.1v-2.7c0-3.6-2.3-9.1-5.3-12.7-5.4-6.3-7.1-43.3-2.9-60.2,5.4-21.9,19-37.4,37.1-42.4,6.6-1.8,23.1-1.7,30.4.2ZM541.8,362.4c5.1,4.7,5.9,10,2.7,17.8-1.1,2.7-1.9,2.2-4.4-3-1.2-2.6-3.6-6.8-5.2-9.4-2.9-4.5-3-4.8-1.4-7.8,1.8-3.5,1.9-3.5,8.3,2.4ZM104.9,371.1c-.6,1.2-1.1,4.4-1.1,7,0,9,7.7,17.9,20,23l4.9,2-1.9,3.7c-4.7,9.2,2.8,19.5,20.8,28.5s20.9,8.6,29.3,10.7c4.1,1.1,4.2,1.2,2.3,2.6-3.7,2.6-5.5,9.4-4.9,18.6s.8,9.3,1.2,10.5c.5,1.4.3,2.3-.4,2.3s-1.3-1.2-1.6-2.8c-1.3-6-4.9-14.9-7.7-19-4.3-6.2-8.2-8.4-14.1-7.9-9.3.8-14.2,9-14.2,23.7s.3,10,.7,11.7c.7,2.9.5,3.3-1.2,3.3s-2-.7-2-3c0-8.6-4.5-20.3-9.7-25.2-10.8-10.2-24-1.6-25.9,16.9-.4,3.5-1,6.3-1.4,6.3-1.3,0-6-6.8-8.2-11.6-5.2-11.8-7.9-37.3-5.9-55.7,1.9-17.2,7.2-31.3,16-42.5,4.2-5.3,7.2-7.1,5-3.1ZM137.9,406c3.1.8,6.2,3.2,12.3,9.4,6.7,6.8,9.9,9.1,16.9,12.5,27.2,13.1,57.1,10.8,82.9-6.4l6.8-4.5,9.8,1c5.5.6,15.3,1.4,21.9,1.8l12,.7.7,10.5c.3,5.8,1,12.8,1.5,15.6l1,5.1-8.1.7c-14.4,1.1-55.7.6-70.8-.9-26.6-2.5-48.2-7.1-66-14-19.2-7.4-30.8-16.7-30.8-24.8s2.8-9,4.5-8.3c.8.3,3.2,1,5.4,1.6ZM446.9,416.6c1.8,5.3,3,9.8,2.7,10.1-.6.6-31.3,8.3-33.2,8.3s-2.3-3.1-2.5-13.4l-.2-9,10.4-1.7c5.7-1,12.2-2.2,14.4-2.7,2.2-.6,4.3-1,4.6-1.1s2,4.2,3.8,9.5ZM559,436c6.1,9.5,9.5,22.4,7,27-1,2-7.7,4.6-8.8,3.5s-1.3-2.9-2.2-5.8c-1.2-4.1-1.4-6.9-.7-13.7.5-4.7.6-10.2.4-12.3-.3-2-.1-3.7.3-3.7s2.2,2.2,4,5ZM541.5,442.1c9.4,8.3,16.1,30.4,10.8,35.1-4,3.6-15.5,4.8-22.3,2.5-4.9-1.7-6-4.6-6-16.7s1.1-16.9,4.2-21.3c2.8-4,8.5-3.8,13.3.4ZM506,445.8c6.3,4.5,11.6,22.1,10.1,33.4-.5,3.7-1.1,4.6-4.1,6-7,3.5-25.2,1.5-29.5-3.2-2.8-3.1-1.8-18.6,1.8-26.5,1.6-3.3,3.6-6.8,4.5-7.9,4.2-4.7,12-5.6,17.2-1.8ZM189,450.5c5.9,3.1,11,12.7,11,21s-.6,4.8-2.6,6.8c-3.3,3.4-8.6,5.1-13,4.2-3-.5-3.9-1.3-5.4-4.8-4.2-9.5-3.3-22.7,1.7-26.7,3.1-2.4,4.5-2.5,8.3-.5ZM158.8,454.6c8.6,5.5,16,29.8,10.5,34.6-4.9,4.2-15,6.5-21.3,4.8-5.8-1.6-7.3-5-7.8-18-.3-9.9-.2-10.8,2.5-16,3.9-7.7,9.5-9.5,16.1-5.4ZM307.8,459c2.2,2.4,4.2,8.4,4.2,12.7s-1.1,5.8-2.5,9.2c-1.4,3.5-2.9,9.2-3.2,12.8l-.6,6.5-4.4-.6c-6.9-.9-10.1-3-10.9-7.2-1.4-7.7,4.1-24.3,10.5-31.7,3.8-4.3,4.4-4.4,6.9-1.7ZM121,460.5c5.9,3,11,14.4,11,24.5s-1.9,9.2-9.5,9.8c-8.7.7-14.4-.6-17.8-3.9-2.9-2.9-2.9-3.2-2.5-11.2.9-16,9-24.3,18.8-19.2ZM336.4,465.4c4.1,1.7,7.8,6.5,10.1,13.1,2,5.7,3.1,20.1,2,27-.6,4.2-1,4.8-4.3,6.2-2.7,1.1-5.9,1.4-12.7,1-20.5-1.1-25.9-6.7-22.1-23,1.9-8.3,4.5-13.5,9.4-18.9,5.8-6.5,11.1-8.1,17.6-5.4Z"/>
        <path fixed='yes' d="M221.3,121.2c-3.7,1-7.6,5.5-9.9,11.9-2.4,6.3-2.4,21.7-.1,29.2,5.6,18.2,25,21.9,33.4,6.4,2.7-4.9,2.4-21.3-.5-28.8-5.7-14.5-13.8-21.1-22.9-18.7ZM230.7,125c6.8,4.1,12.3,15.3,13.7,28l.6,5.5-2-5.3c-3.5-9.6-8.3-14.2-15-14.2s-8.6,2.5-11,7.5c-1.9,4-2.2,5.8-1.8,12.3q.5,7.6-1,4.2c-.8-1.9-1.7-7.6-2-12.6-.5-11.5,1.5-19.3,6.3-24.1s7.4-4.3,12.2-1.3ZM230.4,145.2c1.8,2.6,2.1,8,.6,10.9-.8,1.3-2.1,1.9-4.5,1.9s-3.7-.5-5.1-3.1c-1.7-3.3-1.3-8.1.7-10.6,1.8-2.1,6.6-1.6,8.3.9Z"/>
        <path fixed='yes' d="M161.8,208c-3.5,2.7-5.4,7.5-3.8,9.5,1.9,2.3,4.9,1.8,8.1-1.4,3-3.1,3.8-6.8,1.7-8.9s-3.1-1.5-6,.8Z"/>
        <path fixed='yes' d="M91.7,209.7c-2.2,2.2,1.9,10.3,5.2,10.3s4.1-2.9,4.1-4.4c0-3.5-7.2-8.1-9.3-5.9Z"/>
        <path fixed='yes' d="M427.9,203.9c-.2.6-3.5,1.7-7.3,2.3-3.9.7-6.8,1.7-6.5,2.3.2.5,1.1.9,1.9.8s3.8-.5,6.5-.8l5.1-.7,5.7,5.6c5.3,5.2,7.7,6.7,7.7,4.8s-2.5-3.2-5.5-6.2-5.4-6.1-5.2-6.9c.2-1.6-1.9-2.7-2.4-1.2Z"/>
        <path fixed='yes' d="M324.2,213.2c.2.6,2.4,1.8,4.9,2.6,2.4.8,4.6,1.6,4.8,1.8.3.3-1.2,7.7-2.6,12.6-.2,1.1.1,1.8,1,1.8s1.9-2.2,2.9-6.7c1.6-7.6,2.1-7.9,12.6-8.2,3.7-.1,5.2-.5,5.2-1.5s-1.8-1.2-8.9-.8c-6.7.3-10.1.1-13.7-1.2-5.7-1.9-6.7-2-6.2-.4Z"/>
        <path fixed='yes' d="M466,254.2c0,.7.9,2.6,2,4.3,1.4,2.1,2,4.7,2,8.7s.4,5.8.9,5.8c1.3,0,2.1-2.6,2.1-6.6s.5-3.4,1.5-3.4,1.5-.5,1.5-1-.8-1-1.8-1-2.7-1.6-4.1-4c-2.2-3.9-4.1-5.2-4.1-2.8Z"/>
        <path fixed='yes' d="M324.6,270.7c-.3,1.6-.8,5.8-1.2,9.4l-.6,6.5-6.5,1.1c-3.6.7-6.7,1.4-7.1,1.7-1.5,1.6,1.4,1.8,7.4.7,7.2-1.3,6.5-1.5,13.8,4.3,5.7,4.5,5.7,1.9.1-3.1-2.7-2.4-4.9-4.7-4.9-5.1,1-4.8,1.4-18.2.6-18.2s-1.3,1.2-1.6,2.7Z"/>
        <path fixed='yes' d="M252.3,309.9c-5.1,2.8-5.2,2.8-6.9,1-1.7-1.9-4.4-2.6-4.4-1.1s1,1.7,2.1,2.8c1.9,1.7,2.1,2.6,1.6,8.1-.5,5.1-.4,6.3.8,6.3s1.5-1,1.5-2.9c0-7.4,1-9.1,7.2-12.2s5.6-3.4,5.3-3.9c-.9-1.4-1.4-1.3-7.2,1.9Z"/>
        <path fixed='yes' d="M357,317.8c0,.5,1.1,1.9,2.5,3.2,3.4,3.2,3.2,4-1.3,4s-15,2.7-23.1,6.7c-8.1,4.1-19.3,14.2-25,22.6-4.3,6.3-11.1,19.9-10.5,20.9,1.1,1.7,2.1.6,4.2-4.5,6.2-14.9,20.4-30.8,33.4-37.1,12.5-6.2,24.4-7.8,37.1-5.1,9.2,1.9,16,5.8,23.3,13.1,5.7,5.8,12.9,17.6,14.6,24.2.6,2.1,2.8,3.2,2.8,1.2,0-4.5-8.6-20.2-14.4-26.3-1.5-1.5-2.6-2.7-2.4-2.8s4-.7,8.6-1.4,8.6-1.5,8.9-1.9c1.5-1.5-1.2-1.7-10.6-.5l-10,1.2-4.1-2.7c-5.6-3.7-13.1-6.5-19.6-7.2-4.9-.6-5.9-1.2-8.6-4.5-2.9-3.6-5.8-5.1-5.8-3.1Z"/>
        <path fixed='yes' d="M245.5,375.1c-.3.8.1,4.7.8,8.6.8,4.1,1,7.8.5,8.7-.9,1.6.7,3.2,1.7,1.6.4-.6,3,.6,6.3,2.8,8.1,5.4,16,9.7,26.3,14.3,10.2,4.4,9.9,4.3,9.9,2.6s-4.4-3.1-9.7-5.5c-10.9-4.6-25.5-13-29.1-16.6-1.7-1.6-2.7-4.4-3.5-9.4-1.3-7.3-2.3-9.5-3.2-7.1Z"/>
      </g>
      <path class="cls-1" d="M121.8,397.4c5.1,2.6,18.2,6.9,18.9,6.2.3-.2-.4-2.1-1.5-4.3-1.1-2.1-2.5-5.6-3.1-7.8-.9-3.4-2.1-4.7-7.6-8.4-6.3-4.1-10.4-8.5-9.2-9.8.4-.3,2.4,1,4.6,3,4.5,4.1,9,7.2,9.6,6.6.2-.3,0-4-.7-8.4-1.4-11.2-.3-30.2,3.3-55.2,1.6-11.7,2.9-23.2,2.7-25.5l-.3-4.3-5.2,10.5c-8.4,17.1-15.1,36.3-18.8,53.7-.8,3.9-3,10.2-5,13.8-2,3.9-3.5,8.1-3.5,10.1,0,7.2,6.2,14.9,15.8,19.8ZM443.1,407.1c-.3,0-2.4.5-4.6,1.1-2.2.5-8.7,1.7-14.4,2.7l-10.4,1.7.2,9c.2,10.3.8,13.4,2.5,13.4s32.6-7.7,33.2-8.3c.3-.3-.9-4.8-2.7-10.1-1.8-5.3-3.5-9.6-3.8-9.5ZM302.7,446.6c-.5-2.8-1.2-9.8-1.5-15.6l-.7-10.5-12-.7c-6.6-.4-16.4-1.2-21.9-1.8l-9.8-1-6.8,4.5c-25.8,17.2-55.7,19.5-82.9,6.4-7-3.4-10.2-5.7-16.9-12.5-6.1-6.2-9.2-8.6-12.3-9.4-2.2-.6-4.6-1.3-5.4-1.6-1.7-.7-4.5,4.5-4.5,8.3,0,8.1,11.6,17.4,30.8,24.8,17.8,6.9,39.4,11.5,66,14,15.1,1.5,56.4,2,70.8.9l8.1-.7-1-5.1ZM571.5,297c-4.1-2.8-8.5-4.6-8.5-3.5s1.5,3.6,3.4,7.3c6.2,12.4,6.9,22.3,2.2,32.7-3,6.7-7.4,11.5-13.3,14.7-4.7,2.6-16.7,5.3-18.4,4.2-.5-.3-.9.1-.9.8s2,2.8,4.5,4.6c8.2,5.8,10.6,14.7,6.2,23.5-3.2,6.3-2.4,7.3,5,5.8,13.9-2.7,28.2-12.7,34.1-23.9,12.3-23,6-52.3-14.3-66.2Z"/>
      <path class="cls-2" d="M210.3,269.9c4.3-4.4,8-7.9,8.2-7.9.3,0,.5.7.5,1.5,0,2.3-12.8,14.5-19.2,18.3-15.6,9.2-36.3,12.2-51.8,7.6-2.5-.8-4.8-1.4-5.1-1.4s-.9,3.4-1.2,7.5c-.4,4.1-1,9.3-1.3,11.4-.6,3.8-.5,4,2.7,4.8,5,1.3,5.2,3.7.2,2.8l-4-.6-1.7,12.8c-1,7-2,16.7-2.3,21.5l-.6,8.7,3.7,1.7c5.8,2.8,4.4,4.4-1.6,1.9-1.6-.6-1.8,0-1.8,6.3s2.5,22.4,5.1,27.5c2.9,5.5,9.4,11.7,16.1,15.2,3.2,1.6,5.4,3.3,4.9,3.8-1,1-5.4-.7-10.8-4.3-2.3-1.6-4.3-2.5-4.3-2,0,2.5,13.1,13.8,20.6,17.7,12.8,6.7,21.6,8.8,36.4,8.7,14.5,0,21.1-1.5,34-7.6l8.5-4-4.7-1.9c-6.7-2.6-12.6-6.4-17.9-11.5l-4.5-4.5-6.7,4.5c-9.4,6.3-23.7,11.3-23.7,8.2s2.2-1.8,5-2.4c6.9-1.6,14.8-5.5,19.4-9.5l3.9-3.3-3.2-6.3c-4-7.8-7.1-19.6-7.1-26.8s.4-6-10-3.3c-8.2,2.1-13,2.5-13,1s1.7-1.2,3.8-1.6c5.7-.9,15.5-3.5,17.3-4.4,1.1-.6,1.6-2.5,1.8-6.7.2-7.9,1.8-19.1,4-29.3,1.1-4.7,1.8-8.6,1.6-8.8,0-.2-5,.4-10.8,1.2-12.6,1.9-11.7,1.9-11.7.2s2-1.5,6.3-2c3.4-.3,8.8-1.1,11.9-1.7l5.7-1.1,2.1-7.2c3.1-10.4,8-24,15-41.6,7.6-19.3,11.7-34.3,13.1-48.5.8-7.4.8-12.5.2-15.5l-1-4.5-1.8,4.5c-1,2.5-4.4,9.4-7.5,15.5-14.8,29-33.4,48.1-53.1,54.6-6,1.9-9.4,2.4-18.4,2.4s-11.6-.3-16.7-2.7c-7.5-3.5-13.8-9.5-17.7-16.8-2.8-5.2-3.6-6-6.1-6s-2.9.2-2.3,3.2c.3,1.8,1.6,6.1,2.8,9.5,7.1,20,18.9,28.9,39.5,30,19.3,1,35.9-5.3,49.3-18.8Z"/>
      <path fixed='yes' class="cls-9" d="M182.5,243.8c-6.8,2.4-11,5.5-13.9,10.5-2.9,5-5.2,13.5-4,14.6,1.4,1.3,13.9-1.7,20.8-4.8,6.5-3,16.2-9.9,21.1-15.1,3.3-3.5,2.9-4.2-3.5-6-5.3-1.5-14.9-1.1-20.5.8Z"/>
      <path class="cls-8" d="M158.8,454.6c-6.6-4.1-12.2-2.3-16.1,5.4-2.7,5.2-2.8,6.1-2.5,16,.5,13,2,16.4,7.8,18,6.3,1.7,16.4-.6,21.3-4.8,5.5-4.8-1.9-29.1-10.5-34.6ZM121,460.5c-9.8-5.1-17.9,3.2-18.8,19.2-.4,8-.4,8.3,2.5,11.2,3.4,3.3,9.1,4.6,17.8,3.9,7.6-.6,9.5-2.6,9.5-9.8s-5.1-21.5-11-24.5ZM189,450.5c-3.8-2-5.2-1.9-8.3.5-5,4-5.9,17.2-1.7,26.7,1.5,3.5,2.4,4.3,5.4,4.8,4.4.9,9.7-.8,13-4.2,2-2,2.6-3.6,2.6-6.8,0-8.3-5.1-17.9-11-21ZM506,445.8c-5.2-3.8-13-2.9-17.2,1.8-.9,1.1-2.9,4.6-4.5,7.9-3.6,7.9-4.6,23.4-1.8,26.5,4.3,4.7,22.5,6.7,29.5,3.2,3-1.4,3.6-2.3,4.1-6,1.5-11.3-3.8-28.9-10.1-33.4ZM557.2,466.5c1.1,1.1,7.8-1.5,8.8-3.5,2.5-4.6-.9-17.5-7-27-1.8-2.8-3.6-5-4-5s-.6,1.7-.3,3.7c.2,2.1,0,7.6-.4,12.3-.7,6.8-.5,9.6.7,13.7.9,2.9,1.9,5.5,2.2,5.8ZM541.5,442.1c-4.8-4.2-10.5-4.4-13.3-.4-3.1,4.4-4.2,10-4.2,21.3s1.1,15,6,16.7c6.8,2.3,18.3,1.1,22.3-2.5,5.3-4.7-1.4-26.8-10.8-35.1ZM312,471.7c0-4.3-2-10.3-4.2-12.7-2.5-2.7-3.1-2.6-6.9,1.7-6.4,7.4-11.9,24-10.5,31.7.8,4.2,4,6.3,10.9,7.2l4.4.6.6-6.5c.3-3.6,1.8-9.3,3.2-12.8,1.4-3.4,2.5-7.6,2.5-9.2ZM336.4,465.4c-6.5-2.7-11.8-1.1-17.6,5.4-4.9,5.4-7.5,10.6-9.4,18.9-3.8,16.3,1.6,21.9,22.1,23,6.8.4,10,.1,12.7-1,3.3-1.4,3.7-2,4.3-6.2,1.1-6.9,0-21.3-2-27-2.3-6.6-6-11.4-10.1-13.1Z"/>
      <path fixed='yes' class="cls-4" d="M214.4,239.7c5.9-7.3,12.6-18.4,18.8-31.2,3.3-6.9,5.8-12.9,5.6-13.4,0-.5-3.3,1-7,3.3-6.3,3.8-9.8,6.6-31.3,24-12.7,10.3-26.1,17.4-40.1,21.1-3.2.9-11.9,2.1-19.1,2.8-9.2.7-13.3,1.5-13.3,2.3,0,1.5,6.4,10,9.4,12.6,3.5,3.1,10.8,6.5,16.4,7.7,7.9,1.7,8.2,1.6,8.2-2.4,0-10.1,8.3-21,19.1-25,7.5-2.8,19.8-2.7,25.7.2l4.2,2.1,3.4-4.1Z"/>
      <!-- <path class="cls-8" d="M121,460.5c-9.8-5.1-17.9,3.2-18.8,19.2-.4,8-.4,8.3,2.5,11.2,3.4,3.3,9.1,4.6,17.8,3.9,7.6-.6,9.5-2.6,9.5-9.8s-5.1-21.5-11-24.5Z"/> -->
      <path class="cls-10" d="M174.3,467.2c-.6-9.2,1.2-16,4.9-18.6,1.9-1.4,1.8-1.5-2.3-2.6-8.4-2.1-22.3-7.2-29.3-10.7-18-9-25.5-19.3-20.8-28.5l1.9-3.7-4.9-2c-12.3-5.1-20-14-20-23s.5-5.8,1.1-7c2.2-4-.8-2.2-5,3.1-8.8,11.2-14.1,25.3-16,42.5-2,18.4.7,43.9,5.9,55.7,2.2,4.8,6.9,11.6,8.2,11.6s1-2.8,1.4-6.3c1.9-18.5,15.1-27.1,25.9-16.9,5.2,4.9,9.7,16.6,9.7,25.2s.5,3,2,3,1.9-.4,1.2-3.3c-.4-1.7-.7-7-.7-11.7,0-14.7,4.9-22.9,14.2-23.7,5.9-.5,9.8,1.7,14.1,7.9,2.8,4.1,6.4,13,7.7,19,.3,1.6,1,2.8,1.6,2.8s.9-.9.4-2.3c-.4-1.2-.9-5.9-1.2-10.5Z"/>
      <path class="cls-7" d="M256.5,246c-15,30.9-19.3,41.4-22.9,55.1-12.2,45.8-6.8,86.4,14,106.3,2.5,2.5,6,5.1,7.8,5.9,3.3,1.6,21,3.5,36.1,3.9l9,.2.7-8.4c2.9-38.6,27.4-62.2,61.5-59.6,14.6,1.1,26.9,6.8,34.9,16,7.4,8.4,15.3,30.1,15.4,42,0,3.2-2,3.3,18.7-.5l11.1-2.1-.5-11.1c-1-22,6-37.5,21.5-47.4,19.5-12.5,41.3-9.7,59.5,7.8,4,3.8,7.3,6.9,7.3,6.9.1,0,.7-1.4,1.3-3.1,3.4-9.8-.8-21-11.6-30.8-8.6-7.9-13.4-9.6-27.3-9.5-17,.2-30.2,5.5-40.3,16.3-4.7,5-9.2,12.8-11.2,19.4-.6,2.1-1.5,3.7-2.1,3.5-2.8-.9,3.2-14.8,10.1-23.2l4.8-5.9-3.4.7c-8,1.7-9.9,1.8-9.9.7s1.2-1.3,2.8-1.7c10-2.3,17.6-4.4,18.3-5.1.5-.5,1.6-4.4,2.4-8.8,2.1-10.4,2.3-11.1,3.6-9.8s.4,3.4-.6,8.2c-.8,4-1.5,7.6-1.5,8s3.3-.4,7.3-1.7c8.6-3,25-4.1,32.3-2.3,2.5.7,4.8,1,5,.9.3-.4-4-12.4-10.7-29.8-18.9-48.8-46.9-83.4-81.4-100.5-12.7-6.3-23.1-9.9-36.5-12.7-12.6-2.6-46.7-3.3-62-1.3-10.9,1.5-33.1,5.8-38.7,7.6-3.2,1-3.3,1.3-3.3,6.2s-2.9,18.8-6,26.8c-1.2,3-8.1,17.8-15.5,32.9ZM470.1,257c1.4,2.4,3,4,4.1,4s1.8.4,1.8,1-.7,1-1.5,1-1.5,1-1.5,3.4c0,4-.8,6.6-2.1,6.6s-.9-2.6-.9-5.8-.6-6.6-2-8.7c-1.1-1.7-2-3.6-2-4.3,0-2.4,1.9-1.1,4.1,2.8ZM420.6,206.2c3.8-.6,7.1-1.7,7.3-2.3.5-1.5,2.6-.4,2.4,1.2-.2.8,2.2,3.9,5.2,6.9s5.5,5.8,5.5,6.2c0,1.9-2.4.4-7.7-4.8l-5.7-5.6-5.1.7c-2.7.3-5.7.7-6.5.8-.8,0-1.7-.3-1.9-.8-.3-.6,2.6-1.6,6.5-2.3ZM330.4,213.6c3.6,1.3,7,1.5,13.7,1.2,7.1-.4,8.9-.3,8.9.8s-1.5,1.4-5.2,1.5c-10.5.3-11,.6-12.6,8.2-1,4.5-2,6.7-2.9,6.7s-1.2-.7-1-1.8c1.4-4.9,2.9-12.3,2.6-12.6s-2.4-1-4.8-1.8c-2.5-.8-4.7-2-4.9-2.6-.5-1.6.5-1.5,6.2.4ZM309.2,289.4c.4-.3,3.5-1,7.1-1.7l6.5-1.1.6-6.5c.4-3.6.9-7.8,1.2-9.4.3-1.5,1-2.7,1.6-2.7s.4,13.4-.6,18.2c0,.4,2.2,2.7,4.9,5.1,5.6,5,5.6,7.6,0,3.1-7.3-5.8-6.6-5.6-13.8-4.3-6,1.1-8.9.9-7.4-.7ZM310.1,354.3c5.7-8.4,16.9-18.5,25-22.6,8.1-4,17.2-6.7,23.1-6.7s4.7-.8,1.3-4c-1.4-1.3-2.5-2.7-2.5-3.2,0-2,2.9-.5,5.8,3.1,2.7,3.3,3.7,3.9,8.6,4.5,6.5.7,14,3.5,19.6,7.2l4.1,2.7,10-1.2c9.4-1.2,12.1-1,10.6.5-.3.4-4.3,1.2-8.9,1.9-4.6.7-8.4,1.3-8.6,1.4-.2.1.9,1.3,2.4,2.8,5.8,6.1,14.4,21.8,14.4,26.3s-2.2.9-2.8-1.2c-1.7-6.6-8.9-18.4-14.6-24.2-7.3-7.3-14.1-11.2-23.3-13.1-12.7-2.7-24.6-1.1-37.1,5.1-13,6.3-27.2,22.2-33.4,37.1-2.1,5.1-3.1,6.2-4.2,4.5-.6-1,6.2-14.6,10.5-20.9ZM244.7,320.7c.5-5.5.3-6.4-1.6-8.1-1.1-1.1-2.1-2.3-2.1-2.8,0-1.5,2.7-.8,4.4,1.1,1.7,1.8,1.8,1.8,6.9-1,5.8-3.2,6.3-3.3,7.2-1.9.3.5-2.1,2.3-5.3,3.9-6.2,3.1-7.2,4.8-7.2,12.2s-.5,2.9-1.5,2.9-1.3-1.2-.8-6.3ZM281.3,408.2c5.3,2.4,9.7,4.8,9.7,5.5,0,1.7.3,1.8-9.9-2.6-10.3-4.6-18.2-8.9-26.3-14.3-3.3-2.2-5.9-3.4-6.3-2.8-1,1.6-2.6,0-1.7-1.6.5-.9.3-4.6-.5-8.7-.7-3.9-1.1-7.8-.8-8.6.9-2.4,1.9-.2,3.2,7.1.8,5,1.8,7.8,3.5,9.4,3.6,3.6,18.2,12,29.1,16.6ZM534.9,367.8c1.6,2.6,4,6.8,5.2,9.4,2.5,5.2,3.3,5.7,4.4,3,3.2-7.8,2.4-13.1-2.7-17.8-6.4-5.9-6.5-5.9-8.3-2.4-1.6,3-1.5,3.3,1.4,7.8Z"/>
      <path class="cls-5" d="M207.9,213.1c13.3-11,21-16.5,28-20.1,4.6-2.3,4.3-4-.6-4s-4-1.8-1.8-2.6c2.3-.9,9.3,2.5,11.5,5.6,2.4,3.3,3.6,8,2.1,8s-1.1,2.7-1.1,7.7c0,15.5-3.9,31.5-13.8,56.3-11.5,29.1-17.6,48.6-21.8,70.5-2.5,12.5-2.5,37.5-.1,46.5,4.3,15.9,13.9,28.2,27,34.4,9.8,4.6,10.8,4.8,13.5,2.6l2.3-1.9-7.4-7.3c-7.4-7.3-10-11.3-14.5-21.8-8.1-19.4-8.4-54.9-.6-84.8,3.7-14.4,10-29.4,24.8-60,18.1-37.3,19.1-40.2,19.1-56.7s0-13.2-3.3-19.7c-1.8-3.8-5.6-9.4-8.5-12.5-7.8-8.6-7.6-8.4-9.2-18.1-2.1-13-4.9-19.7-10.5-25.3-3.4-3.4-6.3-5.2-10.1-6.3-11-3.3-21.1-1.5-30.6,5.4l-4.8,3.4-16,.2c-18.1,0-26.7,1.9-38.8,7.9-3.7,1.8-6.9,2.9-7.2,2.5-1-1.7,7.8-6.3,18-9.5l7-2.2-4.9-3.1c-6.3-4-11.8-4.9-18.9-2.8-6.9,2-13.3,8-17,15.9-2.7,5.7-5.4,15.3-4.6,16.2.3.2,3.2-.7,6.5-2,6.4-2.7,8.8-3.1,8.2-1.5-.2.6-3.9,2.5-8.3,4.3-19.7,8-32.6,21.7-38.1,40.3-2.1,7.4-2.4,24.7-.5,32.4,5.4,21.7,22.9,32.9,51.2,33,27.4,0,45.5-7.5,73.8-30.9ZM211.4,133.1c2.3-6.4,6.2-10.9,9.9-11.9,9.1-2.4,17.2,4.2,22.9,18.7,2.9,7.5,3.2,23.9.5,28.8-8.4,15.5-27.8,11.8-33.4-6.4-2.3-7.5-2.3-22.9.1-29.2ZM161.8,208c2.9-2.3,4.3-2.5,6-.8,2.1,2.1,1.3,5.8-1.7,8.9-3.2,3.2-6.2,3.7-8.1,1.4-1.6-2,.3-6.8,3.8-9.5ZM96.9,220c-3.3,0-7.4-8.1-5.2-10.3,2.1-2.2,9.3,2.4,9.3,5.9s-2.7,4.4-4.1,4.4Z"/>
      <!-- <path class="cls-7" d="M534.9,367.8c1.6,2.6,4,6.8,5.2,9.4,2.5,5.2,3.3,5.7,4.4,3,3.2-7.8,2.4-13.1-2.7-17.8-6.4-5.9-6.5-5.9-8.3-2.4-1.6,3-1.5,3.3,1.4,7.8Z"/> -->
      <path fixed='yes' class="cls-3" d="M222.1,144.3c-2,2.5-2.4,7.3-.7,10.6,1.4,2.6,2.2,3.1,5.1,3.1s3.7-.6,4.5-1.9c1.5-2.9,1.2-8.3-.6-10.9-1.7-2.5-6.5-3-8.3-.9Z"/>
      <path fixed='yes' class="cls-6" d="M214.2,163q1.5,3.4,1-4.2c-.4-6.5-.1-8.3,1.8-12.3,2.4-5,6.1-7.5,11-7.5s11.5,4.6,15,14.2l2,5.3-.6-5.5c-1.4-12.7-6.9-23.9-13.7-28-4.8-3-8.3-2.6-12.2,1.3s-6.8,12.6-6.3,24.1c.3,5,1.2,10.7,2,12.6Z"/>
      <!-- <path class="cls-8" d="M189,450.5c-3.8-2-5.2-1.9-8.3.5-5,4-5.9,17.2-1.7,26.7,1.5,3.5,2.4,4.3,5.4,4.8,4.4.9,9.7-.8,13-4.2,2-2,2.6-3.6,2.6-6.8,0-8.3-5.1-17.9-11-21Z"/> -->
      <!-- <path class="cls-8" d="M506,445.8c-5.2-3.8-13-2.9-17.2,1.8-.9,1.1-2.9,4.6-4.5,7.9-3.6,7.9-4.6,23.4-1.8,26.5,4.3,4.7,22.5,6.7,29.5,3.2,3-1.4,3.6-2.3,4.1-6,1.5-11.3-3.8-28.9-10.1-33.4Z"/> -->
      <!-- <path class="cls-8" d="M557.2,466.5c1.1,1.1,7.8-1.5,8.8-3.5,2.5-4.6-.9-17.5-7-27-1.8-2.8-3.6-5-4-5s-.6,1.7-.3,3.7c.2,2.1,0,7.6-.4,12.3-.7,6.8-.5,9.6.7,13.7.9,2.9,1.9,5.5,2.2,5.8Z"/> -->
      <path class="cls-10" d="M506.7,345.4c-6.5-3-9-3.7-15.9-4-17.7-.9-33.3,8.6-41.2,24.9-7,14.4-6.9,30.4.4,51.7,5.9,17.1,7,22.2,7.9,36,1.4,19.1,4.7,24.8,15.2,25.8l4.9.5v-5.5c0-13.1,5.2-26.8,11.8-31.3,4.9-3.3,12.2-3.4,16.8-.3,6.7,4.6,11.1,14.5,12.1,27.6.5,6,.9,7.2,2.2,7,1.2-.3,1.5-1.1,1.1-3.3-.3-1.7-.5-8-.5-14.1,0-9.9.4-11.6,2.8-16.6,3.1-6.4,6.5-8.4,12.3-7.4,3.8.8,11.7,7.9,12.9,11.6,2.8,8.7,3.4-12.9.9-29.9-1.9-13.5-8.2-32.5-14.2-43.2-6.8-12.2-19.2-24.6-29.5-29.5Z"/>
      <!-- <path class="cls-1" d="M571.5,297c-4.1-2.8-8.5-4.6-8.5-3.5s1.5,3.6,3.4,7.3c6.2,12.4,6.9,22.3,2.2,32.7-3,6.7-7.4,11.5-13.3,14.7-4.7,2.6-16.7,5.3-18.4,4.2-.5-.3-.9.1-.9.8s2,2.8,4.5,4.6c8.2,5.8,10.6,14.7,6.2,23.5-3.2,6.3-2.4,7.3,5,5.8,13.9-2.7,28.2-12.7,34.1-23.9,12.3-23,6-52.3-14.3-66.2Z"/> -->
      <!-- <path class="cls-8" d="M541.5,442.1c-4.8-4.2-10.5-4.4-13.3-.4-3.1,4.4-4.2,10-4.2,21.3s1.1,15,6,16.7c6.8,2.3,18.3,1.1,22.3-2.5,5.3-4.7-1.4-26.8-10.8-35.1Z"/> -->
      <!-- <path class="cls-8" d="M312,471.7c0-4.3-2-10.3-4.2-12.7-2.5-2.7-3.1-2.6-6.9,1.7-6.4,7.4-11.9,24-10.5,31.7.8,4.2,4,6.3,10.9,7.2l4.4.6.6-6.5c.3-3.6,1.8-9.3,3.2-12.8,1.4-3.4,2.5-7.6,2.5-9.2Z"/> -->
      <!-- <path class="cls-8" d="M336.4,465.4c-6.5-2.7-11.8-1.1-17.6,5.4-4.9,5.4-7.5,10.6-9.4,18.9-3.8,16.3,1.6,21.9,22.1,23,6.8.4,10,.1,12.7-1,3.3-1.4,3.7-2,4.3-6.2,1.1-6.9,0-21.3-2-27-2.3-6.6-6-11.4-10.1-13.1Z"/> -->
      <path class="cls-10" d="M411,418.5c-1.7-29.5-6.6-43.5-19.3-55.2-5.5-5.1-10.4-7.6-18.4-9.7-7.3-1.9-23.8-2-30.4-.2-18.1,5-31.7,20.5-37.1,42.4-4.2,16.9-2.5,53.9,2.9,60.2,3,3.6,5.3,9.1,5.3,12.7v2.7l3.3-3.1c1.7-1.7,4.7-3.9,6.6-4.8,4.6-2.3,12.7-1.6,16.9,1.4,6.8,4.8,12,22,10.9,36l-.5,6.4,16.2-.6c17.1-.6,24.2-1.9,32.8-6.3,6.7-3.4,11.3-7.7,13.9-13.1,2.9-6.1,2.9-17.2,0-37.8-1.1-8.3-2.5-22.2-3.1-31Z"/>
      <!-- <path class="cls-1" d="M302.7,446.6c-.5-2.8-1.2-9.8-1.5-15.6l-.7-10.5-12-.7c-6.6-.4-16.4-1.2-21.9-1.8l-9.8-1-6.8,4.5c-25.8,17.2-55.7,19.5-82.9,6.4-7-3.4-10.2-5.7-16.9-12.5-6.1-6.2-9.2-8.6-12.3-9.4-2.2-.6-4.6-1.3-5.4-1.6-1.7-.7-4.5,4.5-4.5,8.3,0,8.1,11.6,17.4,30.8,24.8,17.8,6.9,39.4,11.5,66,14,15.1,1.5,56.4,2,70.8.9l8.1-.7-1-5.1Z"/>
      <path class="cls-1" d="M443.1,407.1c-.3,0-2.4.5-4.6,1.1-2.2.5-8.7,1.7-14.4,2.7l-10.4,1.7.2,9c.2,10.3.8,13.4,2.5,13.4s32.6-7.7,33.2-8.3c.3-.3-.9-4.8-2.7-10.1-1.8-5.3-3.5-9.6-3.8-9.5Z"/> -->
    </g>
  </g>
</svg>